{
    "header": {
      "PPQ": 480,
      "timeSignature": [
        8,
        4
      ],
      "bpm": 151.99993920002433,
      "name": "schubert sonata d157 mv1"
    },
    "startTime": 0,
    "duration": 559.342328999998,
    "tracks": [
      {
        "startTime": 0,
        "duration": 0,
        "length": 0,
        "notes": [],
        "controlChanges": {},
        "id": 0,
        "name": "schubert sonata d157 mv1"
      },
      {
        "startTime": 0,
        "duration": 559.3423289999947,
        "length": 2448,
        "notes": [
          {
            "name": "G#3",
            "midi": 56,
            "time": 0,
            "velocity": 0.6929133858267716,
            "duration": 1.184211
          },
          {
            "name": "B3",
            "midi": 59,
            "time": 0,
            "velocity": 0.6929133858267716,
            "duration": 1.184211
          },
          {
            "name": "E4",
            "midi": 64,
            "time": 0,
            "velocity": 0.6929133858267716,
            "duration": 1.184211
          },
          {
            "name": "E3",
            "midi": 52,
            "time": 1.184211,
            "velocity": 0.6929133858267716,
            "duration": 0.13075663124999992
          },
          {
            "name": "G#3",
            "midi": 56,
            "time": 1.3149676312499998,
            "velocity": 0.6929133858267716,
            "duration": 0.13240136874999986
          },
          {
            "name": "B3",
            "midi": 59,
            "time": 1.4473689999999997,
            "velocity": 0.6929133858267716,
            "duration": 0.1315789999999999
          },
          {
            "name": "E4",
            "midi": 64,
            "time": 1.5789479999999996,
            "velocity": 0.6929133858267716,
            "duration": 0.19736850000000006
          },
          {
            "name": "E4",
            "midi": 64,
            "time": 1.9736849999999997,
            "velocity": 0.6929133858267716,
            "duration": 0.13075663125000014
          },
          {
            "name": "G#4",
            "midi": 68,
            "time": 2.10444163125,
            "velocity": 0.6929133858267716,
            "duration": 0.13240136875000008
          },
          {
            "name": "B4",
            "midi": 71,
            "time": 2.236843,
            "velocity": 0.6929133858267716,
            "duration": 0.1315789999999999
          },
          {
            "name": "E5",
            "midi": 76,
            "time": 2.368422,
            "velocity": 0.6929133858267716,
            "duration": 0.19736850000000006
          },
          {
            "name": "E5",
            "midi": 76,
            "time": 2.763159,
            "velocity": 0.6929133858267716,
            "duration": 0.13075663125000014
          },
          {
            "name": "G#5",
            "midi": 80,
            "time": 2.89391563125,
            "velocity": 0.6929133858267716,
            "duration": 0.13240136875000008
          },
          {
            "name": "B5",
            "midi": 83,
            "time": 3.026317,
            "velocity": 0.6929133858267716,
            "duration": 0.1315789999999999
          },
          {
            "name": "E6",
            "midi": 88,
            "time": 3.157896,
            "velocity": 0.6929133858267716,
            "duration": 0.19736850000000006
          },
          {
            "name": "E6",
            "midi": 88,
            "time": 3.3552645,
            "velocity": 0.6929133858267716,
            "duration": 0.03865133125000009
          },
          {
            "name": "D#6",
            "midi": 87,
            "time": 3.552633,
            "velocity": 0.6929133858267716,
            "duration": 0.03865133125000009
          },
          {
            "name": "C#6",
            "midi": 85,
            "time": 3.7500015,
            "velocity": 0.6929133858267716,
            "duration": 0.03865133125000009
          },
          {
            "name": "B5",
            "midi": 83,
            "time": 3.9473700000000003,
            "velocity": 0.6929133858267716,
            "duration": 0.03865133125000009
          },
          {
            "name": "A5",
            "midi": 81,
            "time": 4.144738500000001,
            "velocity": 0.6929133858267716,
            "duration": 0.03865133124999964
          },
          {
            "name": "G#5",
            "midi": 80,
            "time": 4.342107,
            "velocity": 0.6929133858267716,
            "duration": 0.03865133124999964
          },
          {
            "name": "F#5",
            "midi": 78,
            "time": 4.5394755,
            "velocity": 0.6929133858267716,
            "duration": 0.03865133124999964
          },
          {
            "name": "E5",
            "midi": 76,
            "time": 4.736844,
            "velocity": 0.6929133858267716,
            "duration": 0.03865133124999964
          },
          {
            "name": "D#5",
            "midi": 75,
            "time": 4.934212499999999,
            "velocity": 0.6929133858267716,
            "duration": 0.03865133124999964
          },
          {
            "name": "C#5",
            "midi": 73,
            "time": 5.131580999999999,
            "velocity": 0.6929133858267716,
            "duration": 0.03865133124999964
          },
          {
            "name": "B4",
            "midi": 71,
            "time": 5.3289494999999985,
            "velocity": 0.6929133858267716,
            "duration": 0.03865133124999964
          },
          {
            "name": "A4",
            "midi": 69,
            "time": 5.526317999999998,
            "velocity": 0.6929133858267716,
            "duration": 0.03865133124999964
          },
          {
            "name": "G#4",
            "midi": 68,
            "time": 5.723686499999998,
            "velocity": 0.6929133858267716,
            "duration": 0.03865133124999964
          },
          {
            "name": "F#4",
            "midi": 66,
            "time": 5.921054999999997,
            "velocity": 0.6929133858267716,
            "duration": 0.03865133124999964
          },
          {
            "name": "E4",
            "midi": 64,
            "time": 6.118423499999997,
            "velocity": 0.6929133858267716,
            "duration": 0.03865133124999964
          },
          {
            "name": "D#3",
            "midi": 51,
            "time": 6.3157919999999965,
            "velocity": 0.8976377952755905,
            "duration": 1.1842109999999995
          },
          {
            "name": "F#3",
            "midi": 54,
            "time": 6.3157919999999965,
            "velocity": 0.8976377952755905,
            "duration": 1.1842109999999995
          },
          {
            "name": "B3",
            "midi": 59,
            "time": 6.3157919999999965,
            "velocity": 0.8976377952755905,
            "duration": 1.1842109999999995
          },
          {
            "name": "B2",
            "midi": 47,
            "time": 7.500002999999996,
            "velocity": 0.6929133858267716,
            "duration": 0.1307566312499997
          },
          {
            "name": "D#3",
            "midi": 51,
            "time": 7.630759631249996,
            "velocity": 0.6929133858267716,
            "duration": 0.13240136875000008
          },
          {
            "name": "F#3",
            "midi": 54,
            "time": 7.763160999999996,
            "velocity": 0.6929133858267716,
            "duration": 0.13157900000000033
          },
          {
            "name": "B3",
            "midi": 59,
            "time": 7.894739999999996,
            "velocity": 0.6929133858267716,
            "duration": 0.1973685000000005
          },
          {
            "name": "B3",
            "midi": 59,
            "time": 8.289476999999996,
            "velocity": 0.6929133858267716,
            "duration": 0.1307566312499997
          },
          {
            "name": "D#4",
            "midi": 63,
            "time": 8.420233631249996,
            "velocity": 0.6929133858267716,
            "duration": 0.1324013687499992
          },
          {
            "name": "F#4",
            "midi": 66,
            "time": 8.552634999999995,
            "velocity": 0.6929133858267716,
            "duration": 0.13157900000000033
          },
          {
            "name": "B4",
            "midi": 71,
            "time": 8.684213999999995,
            "velocity": 0.6929133858267716,
            "duration": 0.1973684999999996
          },
          {
            "name": "B4",
            "midi": 71,
            "time": 9.078950999999995,
            "velocity": 0.6929133858267716,
            "duration": 0.1307566312499997
          },
          {
            "name": "D#5",
            "midi": 75,
            "time": 9.209707631249994,
            "velocity": 0.6929133858267716,
            "duration": 0.1324013687499992
          },
          {
            "name": "F#5",
            "midi": 78,
            "time": 9.342108999999994,
            "velocity": 0.6929133858267716,
            "duration": 0.13157900000000033
          },
          {
            "name": "B5",
            "midi": 83,
            "time": 9.473687999999994,
            "velocity": 0.6929133858267716,
            "duration": 0.1973684999999996
          },
          {
            "name": "B5",
            "midi": 83,
            "time": 9.671056499999994,
            "velocity": 0.6929133858267716,
            "duration": 0.03865133124999964
          },
          {
            "name": "A5",
            "midi": 81,
            "time": 9.868424999999993,
            "velocity": 0.6929133858267716,
            "duration": 0.03865133124999964
          },
          {
            "name": "G#5",
            "midi": 80,
            "time": 10.065793499999993,
            "velocity": 0.6929133858267716,
            "duration": 0.03865133124999964
          },
          {
            "name": "F#5",
            "midi": 78,
            "time": 10.263161999999992,
            "velocity": 0.6929133858267716,
            "duration": 0.03865133124999964
          },
          {
            "name": "E5",
            "midi": 76,
            "time": 10.460530499999992,
            "velocity": 0.6929133858267716,
            "duration": 0.03865133124999964
          },
          {
            "name": "D#5",
            "midi": 75,
            "time": 10.657898999999992,
            "velocity": 0.6929133858267716,
            "duration": 0.03865133124999964
          },
          {
            "name": "C#5",
            "midi": 73,
            "time": 10.855267499999991,
            "velocity": 0.6929133858267716,
            "duration": 0.03865133124999964
          },
          {
            "name": "B4",
            "midi": 71,
            "time": 11.05263599999999,
            "velocity": 0.6929133858267716,
            "duration": 0.03865133124999964
          },
          {
            "name": "A4",
            "midi": 69,
            "time": 11.25000449999999,
            "velocity": 0.6929133858267716,
            "duration": 0.03865133124999964
          },
          {
            "name": "G#4",
            "midi": 68,
            "time": 11.44737299999999,
            "velocity": 0.6929133858267716,
            "duration": 0.03865133124999964
          },
          {
            "name": "F#4",
            "midi": 66,
            "time": 11.64474149999999,
            "velocity": 0.6929133858267716,
            "duration": 0.03865133124999964
          },
          {
            "name": "E4",
            "midi": 64,
            "time": 11.84210999999999,
            "velocity": 0.6929133858267716,
            "duration": 0.03865133124999964
          },
          {
            "name": "D#4",
            "midi": 63,
            "time": 12.039478499999989,
            "velocity": 0.6929133858267716,
            "duration": 0.03865133124999964
          },
          {
            "name": "C#4",
            "midi": 61,
            "time": 12.236846999999988,
            "velocity": 0.6929133858267716,
            "duration": 0.03865133124999964
          },
          {
            "name": "B3",
            "midi": 59,
            "time": 12.434215499999988,
            "velocity": 0.6929133858267716,
            "duration": 0.03865133124999964
          },
          {
            "name": "E4",
            "midi": 64,
            "time": 12.631583999999988,
            "velocity": 0.8976377952755905,
            "duration": 0.789474000000002
          },
          {
            "name": "G#4",
            "midi": 68,
            "time": 13.322373749999988,
            "velocity": 0.4881889763779528,
            "duration": 0.04934212500000079
          },
          {
            "name": "A4",
            "midi": 69,
            "time": 13.371715874999989,
            "velocity": 0.4881889763779528,
            "duration": 0.04934212500000079
          },
          {
            "name": "B4",
            "midi": 71,
            "time": 13.42105799999999,
            "velocity": 0.4881889763779528,
            "duration": 0.07894740000000056
          },
          {
            "name": "E4",
            "midi": 64,
            "time": 13.81579499999999,
            "velocity": 0.4881889763779528,
            "duration": 0.07894740000000056
          },
          {
            "name": "A4",
            "midi": 69,
            "time": 14.210531999999992,
            "velocity": 0.4881889763779528,
            "duration": 0.7401318750000012
          },
          {
            "name": "A4",
            "midi": 69,
            "time": 14.901321749999992,
            "velocity": 0.6929133858267716,
            "duration": 0.09868425000000158
          },
          {
            "name": "B4",
            "midi": 71,
            "time": 14.950663874999993,
            "velocity": 0.6929133858267716,
            "duration": 0.04934212500000079
          },
          {
            "name": "C#4",
            "midi": 61,
            "time": 15.000005999999994,
            "velocity": 0.6929133858267716,
            "duration": 0.07894740000000056
          },
          {
            "name": "C#5",
            "midi": 73,
            "time": 15.000005999999994,
            "velocity": 0.6929133858267716,
            "duration": 0.07894740000000056
          },
          {
            "name": "D#4",
            "midi": 63,
            "time": 15.394742999999995,
            "velocity": 0.6929133858267716,
            "duration": 0.07894740000000056
          },
          {
            "name": "D#5",
            "midi": 75,
            "time": 15.394742999999995,
            "velocity": 0.6929133858267716,
            "duration": 0.07894740000000056
          },
          {
            "name": "E4",
            "midi": 64,
            "time": 15.789479999999996,
            "velocity": 0.6929133858267716,
            "duration": 0.7894739999999967
          },
          {
            "name": "E5",
            "midi": 76,
            "time": 15.789479999999996,
            "velocity": 0.6929133858267716,
            "duration": 0.7894739999999967
          },
          {
            "name": "G#4",
            "midi": 68,
            "time": 16.480269749999994,
            "velocity": 0.6929133858267716,
            "duration": 0.049342124999999015
          },
          {
            "name": "A4",
            "midi": 69,
            "time": 16.529611874999993,
            "velocity": 0.6929133858267716,
            "duration": 0.049342124999999015
          },
          {
            "name": "B4",
            "midi": 71,
            "time": 16.578953999999992,
            "velocity": 0.6929133858267716,
            "duration": 0.07894740000000056
          },
          {
            "name": "E4",
            "midi": 64,
            "time": 16.97369099999999,
            "velocity": 0.6929133858267716,
            "duration": 0.07894740000000056
          },
          {
            "name": "A4",
            "midi": 69,
            "time": 17.36842799999999,
            "velocity": 0.6929133858267716,
            "duration": 0.7401318749999994
          },
          {
            "name": "A4",
            "midi": 69,
            "time": 18.05921774999999,
            "velocity": 0.6929133858267716,
            "duration": 0.09868424999999803
          },
          {
            "name": "B4",
            "midi": 71,
            "time": 18.10855987499999,
            "velocity": 0.6929133858267716,
            "duration": 0.049342124999999015
          },
          {
            "name": "C#4",
            "midi": 61,
            "time": 18.15790199999999,
            "velocity": 0.6929133858267716,
            "duration": 0.07894740000000056
          },
          {
            "name": "C#5",
            "midi": 73,
            "time": 18.15790199999999,
            "velocity": 0.6929133858267716,
            "duration": 0.07894740000000056
          },
          {
            "name": "D#4",
            "midi": 63,
            "time": 18.55263899999999,
            "velocity": 0.6929133858267716,
            "duration": 0.07894740000000056
          },
          {
            "name": "D#5",
            "midi": 75,
            "time": 18.55263899999999,
            "velocity": 0.6929133858267716,
            "duration": 0.07894740000000056
          },
          {
            "name": "E4",
            "midi": 64,
            "time": 18.947375999999988,
            "velocity": 0.6929133858267716,
            "duration": 0.7894739999999985
          },
          {
            "name": "E5",
            "midi": 76,
            "time": 18.947375999999988,
            "velocity": 0.6929133858267716,
            "duration": 0.7894739999999985
          },
          {
            "name": "C#4",
            "midi": 61,
            "time": 19.736849999999986,
            "velocity": 0.6929133858267716,
            "duration": 0.07894740000000056
          },
          {
            "name": "C#5",
            "midi": 73,
            "time": 19.736849999999986,
            "velocity": 0.6929133858267716,
            "duration": 0.07894740000000056
          },
          {
            "name": "D#4",
            "midi": 63,
            "time": 20.131586999999985,
            "velocity": 0.6929133858267716,
            "duration": 0.07894740000000056
          },
          {
            "name": "D#5",
            "midi": 75,
            "time": 20.131586999999985,
            "velocity": 0.6929133858267716,
            "duration": 0.07894740000000056
          },
          {
            "name": "E4",
            "midi": 64,
            "time": 20.526323999999985,
            "velocity": 0.6929133858267716,
            "duration": 0.7894739999999985
          },
          {
            "name": "E5",
            "midi": 76,
            "time": 20.526323999999985,
            "velocity": 0.6929133858267716,
            "duration": 0.7894739999999985
          },
          {
            "name": "C#4",
            "midi": 61,
            "time": 21.315797999999983,
            "velocity": 0.6929133858267716,
            "duration": 0.07894740000000056
          },
          {
            "name": "C#5",
            "midi": 73,
            "time": 21.315797999999983,
            "velocity": 0.6929133858267716,
            "duration": 0.07894740000000056
          },
          {
            "name": "D#4",
            "midi": 63,
            "time": 21.710534999999982,
            "velocity": 0.6929133858267716,
            "duration": 0.07894740000000056
          },
          {
            "name": "D#5",
            "midi": 75,
            "time": 21.710534999999982,
            "velocity": 0.6929133858267716,
            "duration": 0.07894740000000056
          },
          {
            "name": "E4",
            "midi": 64,
            "time": 22.10527199999998,
            "velocity": 0.6929133858267716,
            "duration": 0.1973684999999996
          },
          {
            "name": "E5",
            "midi": 76,
            "time": 22.10527199999998,
            "velocity": 0.6929133858267716,
            "duration": 0.1973684999999996
          },
          {
            "name": "E5",
            "midi": 76,
            "time": 22.30264049999998,
            "velocity": 0.4881889763779528,
            "duration": 0.1973684999999996
          },
          {
            "name": "F#5",
            "midi": 78,
            "time": 22.50000899999998,
            "velocity": 0.4881889763779528,
            "duration": 0.1973684999999996
          },
          {
            "name": "G#5",
            "midi": 80,
            "time": 22.69737749999998,
            "velocity": 0.4881889763779528,
            "duration": 0.1973684999999996
          },
          {
            "name": "A5",
            "midi": 81,
            "time": 22.89474599999998,
            "velocity": 0.4881889763779528,
            "duration": 0.1973684999999996
          },
          {
            "name": "B5",
            "midi": 83,
            "time": 23.09211449999998,
            "velocity": 0.4881889763779528,
            "duration": 0.1973684999999996
          },
          {
            "name": "C#6",
            "midi": 85,
            "time": 23.28948299999998,
            "velocity": 0.4881889763779528,
            "duration": 0.1973684999999996
          },
          {
            "name": "D#6",
            "midi": 87,
            "time": 23.48685149999998,
            "velocity": 0.4881889763779528,
            "duration": 0.1973684999999996
          },
          {
            "name": "E6",
            "midi": 88,
            "time": 23.68421999999998,
            "velocity": 0.4881889763779528,
            "duration": 0.1973684999999996
          },
          {
            "name": "D#6",
            "midi": 87,
            "time": 23.881588499999978,
            "velocity": 0.4881889763779528,
            "duration": 0.1973684999999996
          },
          {
            "name": "C#6",
            "midi": 85,
            "time": 24.078956999999978,
            "velocity": 0.4881889763779528,
            "duration": 0.1973684999999996
          },
          {
            "name": "B5",
            "midi": 83,
            "time": 24.276325499999977,
            "velocity": 0.4881889763779528,
            "duration": 0.1973684999999996
          },
          {
            "name": "A5",
            "midi": 81,
            "time": 24.473693999999977,
            "velocity": 0.4881889763779528,
            "duration": 0.1973684999999996
          },
          {
            "name": "G#5",
            "midi": 80,
            "time": 24.671062499999977,
            "velocity": 0.4881889763779528,
            "duration": 0.1973684999999996
          },
          {
            "name": "F#5",
            "midi": 78,
            "time": 24.868430999999976,
            "velocity": 0.4881889763779528,
            "duration": 0.1973684999999996
          },
          {
            "name": "E5",
            "midi": 76,
            "time": 25.065799499999976,
            "velocity": 0.4881889763779528,
            "duration": 0.1973684999999996
          },
          {
            "name": "A4",
            "midi": 69,
            "time": 25.263167999999975,
            "velocity": 0.4881889763779528,
            "duration": 1.1842110000000012
          },
          {
            "name": "F#5",
            "midi": 78,
            "time": 25.263167999999975,
            "velocity": 0.4881889763779528,
            "duration": 1.1842110000000012
          },
          {
            "name": "G#4",
            "midi": 68,
            "time": 26.447378999999977,
            "velocity": 0.4881889763779528,
            "duration": 0.3947369999999992
          },
          {
            "name": "G#5",
            "midi": 80,
            "time": 26.447378999999977,
            "velocity": 0.4881889763779528,
            "duration": 0.3947369999999992
          },
          {
            "name": "B5",
            "midi": 83,
            "time": 26.842115999999976,
            "velocity": 0.4881889763779528,
            "duration": 0.3947369999999992
          },
          {
            "name": "A5",
            "midi": 81,
            "time": 27.236852999999975,
            "velocity": 0.4881889763779528,
            "duration": 0.3947369999999992
          },
          {
            "name": "G#4",
            "midi": 68,
            "time": 27.631589999999974,
            "velocity": 0.4881889763779528,
            "duration": 0.3947369999999992
          },
          {
            "name": "G#5",
            "midi": 80,
            "time": 27.631589999999974,
            "velocity": 0.4881889763779528,
            "duration": 0.3947369999999992
          },
          {
            "name": "A4",
            "midi": 69,
            "time": 28.026326999999974,
            "velocity": 0.4881889763779528,
            "duration": 0.3947369999999992
          },
          {
            "name": "F#5",
            "midi": 78,
            "time": 28.026326999999974,
            "velocity": 0.4881889763779528,
            "duration": 0.3947369999999992
          },
          {
            "name": "E5",
            "midi": 76,
            "time": 28.421063999999973,
            "velocity": 0.4881889763779528,
            "duration": 0.1973684999999996
          },
          {
            "name": "E5",
            "midi": 76,
            "time": 28.618432499999972,
            "velocity": 0.4881889763779528,
            "duration": 0.1973684999999996
          },
          {
            "name": "G#5",
            "midi": 80,
            "time": 28.815800999999972,
            "velocity": 0.4881889763779528,
            "duration": 0.1973684999999996
          },
          {
            "name": "A5",
            "midi": 81,
            "time": 29.01316949999997,
            "velocity": 0.4881889763779528,
            "duration": 0.1973684999999996
          },
          {
            "name": "A#5",
            "midi": 82,
            "time": 29.21053799999997,
            "velocity": 0.4881889763779528,
            "duration": 0.1973684999999996
          },
          {
            "name": "B5",
            "midi": 83,
            "time": 29.40790649999997,
            "velocity": 0.4881889763779528,
            "duration": 0.1973684999999996
          },
          {
            "name": "C#6",
            "midi": 85,
            "time": 29.60527499999997,
            "velocity": 0.4881889763779528,
            "duration": 0.1973684999999996
          },
          {
            "name": "B5",
            "midi": 83,
            "time": 29.80264349999997,
            "velocity": 0.4881889763779528,
            "duration": 0.1973684999999996
          },
          {
            "name": "A5",
            "midi": 81,
            "time": 30.00001199999997,
            "velocity": 0.4881889763779528,
            "duration": 0.1973684999999996
          },
          {
            "name": "G#5",
            "midi": 80,
            "time": 30.19738049999997,
            "velocity": 0.4881889763779528,
            "duration": 0.1973684999999996
          },
          {
            "name": "F#5",
            "midi": 78,
            "time": 30.39474899999997,
            "velocity": 0.4881889763779528,
            "duration": 0.1973684999999996
          },
          {
            "name": "E5",
            "midi": 76,
            "time": 30.59211749999997,
            "velocity": 0.4881889763779528,
            "duration": 0.1973684999999996
          },
          {
            "name": "D#5",
            "midi": 75,
            "time": 30.789485999999968,
            "velocity": 0.4881889763779528,
            "duration": 0.1973684999999996
          },
          {
            "name": "C#5",
            "midi": 73,
            "time": 30.986854499999968,
            "velocity": 0.4881889763779528,
            "duration": 0.1973684999999996
          },
          {
            "name": "B4",
            "midi": 71,
            "time": 31.184222999999967,
            "velocity": 0.4881889763779528,
            "duration": 0.1973684999999996
          },
          {
            "name": "A#4",
            "midi": 70,
            "time": 31.381591499999967,
            "velocity": 0.4881889763779528,
            "duration": 0.1973684999999996
          },
          {
            "name": "A4",
            "midi": 69,
            "time": 31.578959999999967,
            "velocity": 0.4881889763779528,
            "duration": 1.1842109999999977
          },
          {
            "name": "G#4",
            "midi": 68,
            "time": 32.763170999999964,
            "velocity": 0.4881889763779528,
            "duration": 0.3947369999999992
          },
          {
            "name": "B4",
            "midi": 71,
            "time": 33.15790799999996,
            "velocity": 0.4881889763779528,
            "duration": 0.3947369999999992
          },
          {
            "name": "A4",
            "midi": 69,
            "time": 33.55264499999996,
            "velocity": 0.4881889763779528,
            "duration": 0.3947369999999992
          },
          {
            "name": "G#4",
            "midi": 68,
            "time": 33.94738199999996,
            "velocity": 0.4881889763779528,
            "duration": 0.3947369999999992
          },
          {
            "name": "F#4",
            "midi": 66,
            "time": 34.34211899999996,
            "velocity": 0.4881889763779528,
            "duration": 0.3947369999999992
          },
          {
            "name": "G#3",
            "midi": 56,
            "time": 34.73685599999996,
            "velocity": 0.6929133858267716,
            "duration": 1.1842109999999977
          },
          {
            "name": "B3",
            "midi": 59,
            "time": 34.73685599999996,
            "velocity": 0.6929133858267716,
            "duration": 1.1842109999999977
          },
          {
            "name": "E4",
            "midi": 64,
            "time": 34.73685599999996,
            "velocity": 0.6929133858267716,
            "duration": 1.1842109999999977
          },
          {
            "name": "E3",
            "midi": 52,
            "time": 35.92106699999996,
            "velocity": 0.6929133858267716,
            "duration": 0.13075663125000148
          },
          {
            "name": "G#3",
            "midi": 56,
            "time": 36.05182363124996,
            "velocity": 0.6929133858267716,
            "duration": 0.13240136875000275
          },
          {
            "name": "B3",
            "midi": 59,
            "time": 36.18422499999996,
            "velocity": 0.6929133858267716,
            "duration": 0.1315790000000021
          },
          {
            "name": "E4",
            "midi": 64,
            "time": 36.315803999999964,
            "velocity": 0.6929133858267716,
            "duration": 0.19736850000000317
          },
          {
            "name": "E4",
            "midi": 64,
            "time": 36.71054099999997,
            "velocity": 0.6929133858267716,
            "duration": 0.13075663125000148
          },
          {
            "name": "G#4",
            "midi": 68,
            "time": 36.84129763124997,
            "velocity": 0.6929133858267716,
            "duration": 0.13240136875000275
          },
          {
            "name": "B4",
            "midi": 71,
            "time": 36.973698999999975,
            "velocity": 0.6929133858267716,
            "duration": 0.1315790000000021
          },
          {
            "name": "E5",
            "midi": 76,
            "time": 37.10527799999998,
            "velocity": 0.6929133858267716,
            "duration": 0.19736850000000317
          },
          {
            "name": "E5",
            "midi": 76,
            "time": 37.50001499999998,
            "velocity": 0.6929133858267716,
            "duration": 0.13075663125000148
          },
          {
            "name": "G#5",
            "midi": 80,
            "time": 37.630771631249985,
            "velocity": 0.6929133858267716,
            "duration": 0.13240136875000275
          },
          {
            "name": "B5",
            "midi": 83,
            "time": 37.76317299999999,
            "velocity": 0.6929133858267716,
            "duration": 0.1315790000000021
          },
          {
            "name": "E6",
            "midi": 88,
            "time": 37.89475199999999,
            "velocity": 0.6929133858267716,
            "duration": 0.19736850000000317
          },
          {
            "name": "E6",
            "midi": 88,
            "time": 38.09212049999999,
            "velocity": 0.6929133858267716,
            "duration": 0.03865133125000142
          },
          {
            "name": "D#6",
            "midi": 87,
            "time": 38.289488999999996,
            "velocity": 0.6929133858267716,
            "duration": 0.03865133125000142
          },
          {
            "name": "C#6",
            "midi": 85,
            "time": 38.4868575,
            "velocity": 0.6929133858267716,
            "duration": 0.03865133125000142
          },
          {
            "name": "B5",
            "midi": 83,
            "time": 38.684226,
            "velocity": 0.6929133858267716,
            "duration": 0.03865133125000142
          },
          {
            "name": "A5",
            "midi": 81,
            "time": 38.881594500000006,
            "velocity": 0.6929133858267716,
            "duration": 0.03865133125000142
          },
          {
            "name": "G#5",
            "midi": 80,
            "time": 39.07896300000001,
            "velocity": 0.6929133858267716,
            "duration": 0.03865133125000142
          },
          {
            "name": "F#5",
            "midi": 78,
            "time": 39.27633150000001,
            "velocity": 0.6929133858267716,
            "duration": 0.03865133125000142
          },
          {
            "name": "E5",
            "midi": 76,
            "time": 39.473700000000015,
            "velocity": 0.6929133858267716,
            "duration": 0.03865133125000142
          },
          {
            "name": "D#5",
            "midi": 75,
            "time": 39.67106850000002,
            "velocity": 0.6929133858267716,
            "duration": 0.03865133125000142
          },
          {
            "name": "C#5",
            "midi": 73,
            "time": 39.86843700000002,
            "velocity": 0.6929133858267716,
            "duration": 0.03865133125000142
          },
          {
            "name": "B4",
            "midi": 71,
            "time": 40.065805500000025,
            "velocity": 0.6929133858267716,
            "duration": 0.03865133125000142
          },
          {
            "name": "A4",
            "midi": 69,
            "time": 40.26317400000003,
            "velocity": 0.6929133858267716,
            "duration": 0.03865133125000142
          },
          {
            "name": "G#4",
            "midi": 68,
            "time": 40.46054250000003,
            "velocity": 0.6929133858267716,
            "duration": 0.03865133125000142
          },
          {
            "name": "F#4",
            "midi": 66,
            "time": 40.657911000000034,
            "velocity": 0.6929133858267716,
            "duration": 0.03865133125000142
          },
          {
            "name": "E4",
            "midi": 64,
            "time": 40.85527950000004,
            "velocity": 0.6929133858267716,
            "duration": 0.03865133125000142
          },
          {
            "name": "E3",
            "midi": 52,
            "time": 41.05264800000004,
            "velocity": 0.8976377952755905,
            "duration": 1.1842109999999977
          },
          {
            "name": "G#3",
            "midi": 56,
            "time": 41.05264800000004,
            "velocity": 0.8976377952755905,
            "duration": 1.1842109999999977
          },
          {
            "name": "C#4",
            "midi": 61,
            "time": 41.05264800000004,
            "velocity": 0.8976377952755905,
            "duration": 1.1842109999999977
          },
          {
            "name": "C#3",
            "midi": 49,
            "time": 42.23685900000004,
            "velocity": 0.6929133858267716,
            "duration": 0.13075663125000148
          },
          {
            "name": "E3",
            "midi": 52,
            "time": 42.36761563125004,
            "velocity": 0.6929133858267716,
            "duration": 0.13240136875000275
          },
          {
            "name": "G#3",
            "midi": 56,
            "time": 42.50001700000004,
            "velocity": 0.6929133858267716,
            "duration": 0.1315790000000021
          },
          {
            "name": "C#4",
            "midi": 61,
            "time": 42.631596000000044,
            "velocity": 0.6929133858267716,
            "duration": 0.19736850000000317
          },
          {
            "name": "C#4",
            "midi": 61,
            "time": 43.02633300000005,
            "velocity": 0.6929133858267716,
            "duration": 0.13075663125000148
          },
          {
            "name": "E4",
            "midi": 64,
            "time": 43.15708963125005,
            "velocity": 0.6929133858267716,
            "duration": 0.13240136875000275
          },
          {
            "name": "G#4",
            "midi": 68,
            "time": 43.289491000000055,
            "velocity": 0.6929133858267716,
            "duration": 0.1315790000000021
          },
          {
            "name": "C#5",
            "midi": 73,
            "time": 43.42107000000006,
            "velocity": 0.6929133858267716,
            "duration": 0.19736850000000317
          },
          {
            "name": "C#5",
            "midi": 73,
            "time": 43.81580700000006,
            "velocity": 0.6929133858267716,
            "duration": 0.13075663125000148
          },
          {
            "name": "E5",
            "midi": 76,
            "time": 43.946563631250065,
            "velocity": 0.6929133858267716,
            "duration": 0.13240136875000275
          },
          {
            "name": "G#5",
            "midi": 80,
            "time": 44.07896500000007,
            "velocity": 0.6929133858267716,
            "duration": 0.1315790000000021
          },
          {
            "name": "C#6",
            "midi": 85,
            "time": 44.21054400000007,
            "velocity": 0.6929133858267716,
            "duration": 0.19736850000000317
          },
          {
            "name": "C#6",
            "midi": 85,
            "time": 44.40791250000007,
            "velocity": 0.6929133858267716,
            "duration": 0.03865133125000142
          },
          {
            "name": "B5",
            "midi": 83,
            "time": 44.605281000000076,
            "velocity": 0.6929133858267716,
            "duration": 0.03865133125000142
          },
          {
            "name": "A5",
            "midi": 81,
            "time": 44.80264950000008,
            "velocity": 0.6929133858267716,
            "duration": 0.03865133125000142
          },
          {
            "name": "G#5",
            "midi": 80,
            "time": 45.00001800000008,
            "velocity": 0.6929133858267716,
            "duration": 0.03865133125000142
          },
          {
            "name": "F#5",
            "midi": 78,
            "time": 45.197386500000086,
            "velocity": 0.6929133858267716,
            "duration": 0.03865133125000142
          },
          {
            "name": "E5",
            "midi": 76,
            "time": 45.39475500000009,
            "velocity": 0.6929133858267716,
            "duration": 0.03865133125000142
          },
          {
            "name": "D#5",
            "midi": 75,
            "time": 45.59212350000009,
            "velocity": 0.6929133858267716,
            "duration": 0.03865133125000142
          },
          {
            "name": "C#5",
            "midi": 73,
            "time": 45.789492000000095,
            "velocity": 0.6929133858267716,
            "duration": 0.03865133125000142
          },
          {
            "name": "B4",
            "midi": 71,
            "time": 45.9868605000001,
            "velocity": 0.6929133858267716,
            "duration": 0.03865133125000142
          },
          {
            "name": "A4",
            "midi": 69,
            "time": 46.1842290000001,
            "velocity": 0.6929133858267716,
            "duration": 0.03865133125000142
          },
          {
            "name": "G#4",
            "midi": 68,
            "time": 46.381597500000105,
            "velocity": 0.6929133858267716,
            "duration": 0.03865133125000142
          },
          {
            "name": "F#4",
            "midi": 66,
            "time": 46.57896600000011,
            "velocity": 0.6929133858267716,
            "duration": 0.03865133125000142
          },
          {
            "name": "E4",
            "midi": 64,
            "time": 46.77633450000011,
            "velocity": 0.6929133858267716,
            "duration": 0.03865133125000142
          },
          {
            "name": "D#4",
            "midi": 63,
            "time": 46.973703000000114,
            "velocity": 0.6929133858267716,
            "duration": 0.03865133125000142
          },
          {
            "name": "C#4",
            "midi": 61,
            "time": 47.17107150000012,
            "velocity": 0.6929133858267716,
            "duration": 0.03865133125000142
          },
          {
            "name": "C#3",
            "midi": 49,
            "time": 47.36844000000012,
            "velocity": 0.8976377952755905,
            "duration": 1.1842109999999977
          },
          {
            "name": "E3",
            "midi": 52,
            "time": 47.36844000000012,
            "velocity": 0.8976377952755905,
            "duration": 1.1842109999999977
          },
          {
            "name": "A3",
            "midi": 57,
            "time": 47.36844000000012,
            "velocity": 0.8976377952755905,
            "duration": 1.1842109999999977
          },
          {
            "name": "A2",
            "midi": 45,
            "time": 48.55265100000012,
            "velocity": 0.6929133858267716,
            "duration": 0.13075663125000148
          },
          {
            "name": "C#3",
            "midi": 49,
            "time": 48.68340763125012,
            "velocity": 0.6929133858267716,
            "duration": 0.13240136875000275
          },
          {
            "name": "E3",
            "midi": 52,
            "time": 48.81580900000012,
            "velocity": 0.6929133858267716,
            "duration": 0.1315790000000021
          },
          {
            "name": "A3",
            "midi": 57,
            "time": 48.947388000000124,
            "velocity": 0.6929133858267716,
            "duration": 0.19736850000000317
          },
          {
            "name": "A3",
            "midi": 57,
            "time": 49.34212500000013,
            "velocity": 0.6929133858267716,
            "duration": 0.13075663125000148
          },
          {
            "name": "C#4",
            "midi": 61,
            "time": 49.47288163125013,
            "velocity": 0.6929133858267716,
            "duration": 0.13240136875000275
          },
          {
            "name": "E4",
            "midi": 64,
            "time": 49.605283000000135,
            "velocity": 0.6929133858267716,
            "duration": 0.1315790000000021
          },
          {
            "name": "A4",
            "midi": 69,
            "time": 49.73686200000014,
            "velocity": 0.6929133858267716,
            "duration": 0.19736850000000317
          },
          {
            "name": "A4",
            "midi": 69,
            "time": 50.13159900000014,
            "velocity": 0.6929133858267716,
            "duration": 0.13075663125000148
          },
          {
            "name": "C#5",
            "midi": 73,
            "time": 50.262355631250145,
            "velocity": 0.6929133858267716,
            "duration": 0.13240136875000275
          },
          {
            "name": "E5",
            "midi": 76,
            "time": 50.39475700000015,
            "velocity": 0.6929133858267716,
            "duration": 0.1315790000000021
          },
          {
            "name": "A5",
            "midi": 81,
            "time": 50.52633600000015,
            "velocity": 0.6929133858267716,
            "duration": 0.19736850000000317
          },
          {
            "name": "C#5",
            "midi": 73,
            "time": 51.315810000000155,
            "velocity": 0.8976377952755905,
            "duration": 0.3947369999999992
          },
          {
            "name": "E5",
            "midi": 76,
            "time": 51.315810000000155,
            "velocity": 0.8976377952755905,
            "duration": 0.3947369999999992
          },
          {
            "name": "A5",
            "midi": 81,
            "time": 51.315810000000155,
            "velocity": 0.8976377952755905,
            "duration": 0.3947369999999992
          },
          {
            "name": "C#6",
            "midi": 85,
            "time": 51.315810000000155,
            "velocity": 0.8976377952755905,
            "duration": 0.3947369999999992
          },
          {
            "name": "A#5",
            "midi": 82,
            "time": 53.68423200000015,
            "velocity": 0.4881889763779528,
            "duration": 0.19736850000000317
          },
          {
            "name": "B5",
            "midi": 83,
            "time": 53.881600500000154,
            "velocity": 0.4881889763779528,
            "duration": 0.19736850000000317
          },
          {
            "name": "C#6",
            "midi": 85,
            "time": 54.07896900000016,
            "velocity": 0.4881889763779528,
            "duration": 0.19736850000000317
          },
          {
            "name": "B5",
            "midi": 83,
            "time": 54.27633750000016,
            "velocity": 0.4881889763779528,
            "duration": 0.19736850000000317
          },
          {
            "name": "A5",
            "midi": 81,
            "time": 54.47370600000016,
            "velocity": 0.4881889763779528,
            "duration": 0.19736850000000317
          },
          {
            "name": "G#5",
            "midi": 80,
            "time": 54.67107450000017,
            "velocity": 0.4881889763779528,
            "duration": 0.19736850000000317
          },
          {
            "name": "F#5",
            "midi": 78,
            "time": 54.86844300000017,
            "velocity": 0.4881889763779528,
            "duration": 0.19736850000000317
          },
          {
            "name": "E5",
            "midi": 76,
            "time": 55.06581150000017,
            "velocity": 0.4881889763779528,
            "duration": 0.19736850000000317
          },
          {
            "name": "D#5",
            "midi": 75,
            "time": 55.263180000000176,
            "velocity": 0.4881889763779528,
            "duration": 0.19736850000000317
          },
          {
            "name": "C#5",
            "midi": 73,
            "time": 55.46054850000018,
            "velocity": 0.4881889763779528,
            "duration": 0.19736850000000317
          },
          {
            "name": "B4",
            "midi": 71,
            "time": 55.65791700000018,
            "velocity": 0.4881889763779528,
            "duration": 0.19736850000000317
          },
          {
            "name": "A4",
            "midi": 69,
            "time": 55.855285500000186,
            "velocity": 0.4881889763779528,
            "duration": 0.19736850000000317
          },
          {
            "name": "G#4",
            "midi": 68,
            "time": 56.05265400000019,
            "velocity": 0.4881889763779528,
            "duration": 0.19736850000000317
          },
          {
            "name": "F#4",
            "midi": 66,
            "time": 56.25002250000019,
            "velocity": 0.4881889763779528,
            "duration": 0.19736850000000317
          },
          {
            "name": "E4",
            "midi": 64,
            "time": 56.447391000000195,
            "velocity": 0.4881889763779528,
            "duration": 0.19736850000000317
          },
          {
            "name": "D#4",
            "midi": 63,
            "time": 56.6447595000002,
            "velocity": 0.4881889763779528,
            "duration": 0.19736850000000317
          },
          {
            "name": "A#4",
            "midi": 70,
            "time": 56.8421280000002,
            "velocity": 0.4881889763779528,
            "duration": 0.19736850000000317
          },
          {
            "name": "B4",
            "midi": 71,
            "time": 57.039496500000205,
            "velocity": 0.4881889763779528,
            "duration": 0.19736850000000317
          },
          {
            "name": "C#5",
            "midi": 73,
            "time": 57.23686500000021,
            "velocity": 0.4881889763779528,
            "duration": 0.19736850000000317
          },
          {
            "name": "B4",
            "midi": 71,
            "time": 57.43423350000021,
            "velocity": 0.4881889763779528,
            "duration": 0.19736850000000317
          },
          {
            "name": "A4",
            "midi": 69,
            "time": 57.631602000000214,
            "velocity": 0.4881889763779528,
            "duration": 0.19736850000000317
          },
          {
            "name": "G#4",
            "midi": 68,
            "time": 57.82897050000022,
            "velocity": 0.4881889763779528,
            "duration": 0.19736850000000317
          },
          {
            "name": "F#4",
            "midi": 66,
            "time": 58.02633900000022,
            "velocity": 0.4881889763779528,
            "duration": 0.19736850000000317
          },
          {
            "name": "E4",
            "midi": 64,
            "time": 58.22370750000022,
            "velocity": 0.4881889763779528,
            "duration": 0.19736850000000317
          },
          {
            "name": "D#4",
            "midi": 63,
            "time": 58.42107600000023,
            "velocity": 0.4881889763779528,
            "duration": 0.19736850000000317
          },
          {
            "name": "C#4",
            "midi": 61,
            "time": 58.61844450000023,
            "velocity": 0.4881889763779528,
            "duration": 0.19736850000000317
          },
          {
            "name": "B3",
            "midi": 59,
            "time": 58.81581300000023,
            "velocity": 0.4881889763779528,
            "duration": 0.19736850000000317
          },
          {
            "name": "A3",
            "midi": 57,
            "time": 59.013181500000236,
            "velocity": 0.4881889763779528,
            "duration": 0.19736850000000317
          },
          {
            "name": "G#3",
            "midi": 56,
            "time": 59.21055000000024,
            "velocity": 0.4881889763779528,
            "duration": 0.19736850000000317
          },
          {
            "name": "F#3",
            "midi": 54,
            "time": 59.40791850000024,
            "velocity": 0.4881889763779528,
            "duration": 0.19736850000000317
          },
          {
            "name": "E3",
            "midi": 52,
            "time": 59.605287000000246,
            "velocity": 0.4881889763779528,
            "duration": 0.19736850000000317
          },
          {
            "name": "D#3",
            "midi": 51,
            "time": 59.80265550000025,
            "velocity": 0.4881889763779528,
            "duration": 0.19736850000000317
          },
          {
            "name": "G5",
            "midi": 79,
            "time": 60.00002400000025,
            "velocity": 0.4881889763779528,
            "duration": 0.19736850000000317
          },
          {
            "name": "G#5",
            "midi": 80,
            "time": 60.197392500000255,
            "velocity": 0.4881889763779528,
            "duration": 0.19736850000000317
          },
          {
            "name": "A5",
            "midi": 81,
            "time": 60.39476100000026,
            "velocity": 0.4881889763779528,
            "duration": 0.19736850000000317
          },
          {
            "name": "G#5",
            "midi": 80,
            "time": 60.59212950000026,
            "velocity": 0.4881889763779528,
            "duration": 0.19736850000000317
          },
          {
            "name": "F#5",
            "midi": 78,
            "time": 60.789498000000265,
            "velocity": 0.4881889763779528,
            "duration": 0.19736850000000317
          },
          {
            "name": "E5",
            "midi": 76,
            "time": 60.98686650000027,
            "velocity": 0.4881889763779528,
            "duration": 0.19736850000000317
          },
          {
            "name": "D#5",
            "midi": 75,
            "time": 61.18423500000027,
            "velocity": 0.4881889763779528,
            "duration": 0.19736850000000317
          },
          {
            "name": "C#5",
            "midi": 73,
            "time": 61.381603500000274,
            "velocity": 0.4881889763779528,
            "duration": 0.19736850000000317
          },
          {
            "name": "C5",
            "midi": 72,
            "time": 61.57897200000028,
            "velocity": 0.4881889763779528,
            "duration": 0.19736850000000317
          },
          {
            "name": "A4",
            "midi": 69,
            "time": 61.77634050000028,
            "velocity": 0.4881889763779528,
            "duration": 0.19736850000000317
          },
          {
            "name": "G#4",
            "midi": 68,
            "time": 61.973709000000284,
            "velocity": 0.4881889763779528,
            "duration": 0.19736850000000317
          },
          {
            "name": "F#4",
            "midi": 66,
            "time": 62.17107750000029,
            "velocity": 0.4881889763779528,
            "duration": 0.19736850000000317
          },
          {
            "name": "E4",
            "midi": 64,
            "time": 62.36844600000029,
            "velocity": 0.4881889763779528,
            "duration": 0.19736850000000317
          },
          {
            "name": "D#4",
            "midi": 63,
            "time": 62.56581450000029,
            "velocity": 0.4881889763779528,
            "duration": 0.19736850000000317
          },
          {
            "name": "C#4",
            "midi": 61,
            "time": 62.763183000000296,
            "velocity": 0.4881889763779528,
            "duration": 0.19736850000000317
          },
          {
            "name": "C4",
            "midi": 60,
            "time": 62.9605515000003,
            "velocity": 0.4881889763779528,
            "duration": 0.19736850000000317
          },
          {
            "name": "G4",
            "midi": 67,
            "time": 63.1579200000003,
            "velocity": 0.4881889763779528,
            "duration": 0.19736850000000317
          },
          {
            "name": "G#4",
            "midi": 68,
            "time": 63.355288500000306,
            "velocity": 0.4881889763779528,
            "duration": 0.19736850000000317
          },
          {
            "name": "A4",
            "midi": 69,
            "time": 63.55265700000031,
            "velocity": 0.4881889763779528,
            "duration": 0.19736850000000317
          },
          {
            "name": "G#4",
            "midi": 68,
            "time": 63.75002550000031,
            "velocity": 0.4881889763779528,
            "duration": 0.19736850000000317
          },
          {
            "name": "F#4",
            "midi": 66,
            "time": 63.947394000000315,
            "velocity": 0.4881889763779528,
            "duration": 0.19736849999999606
          },
          {
            "name": "E4",
            "midi": 64,
            "time": 64.14476250000031,
            "velocity": 0.4881889763779528,
            "duration": 0.19736849999999606
          },
          {
            "name": "D#4",
            "midi": 63,
            "time": 64.34213100000031,
            "velocity": 0.4881889763779528,
            "duration": 0.19736849999999606
          },
          {
            "name": "C#4",
            "midi": 61,
            "time": 64.5394995000003,
            "velocity": 0.4881889763779528,
            "duration": 0.19736849999999606
          },
          {
            "name": "C4",
            "midi": 60,
            "time": 64.7368680000003,
            "velocity": 0.4881889763779528,
            "duration": 0.19736849999999606
          },
          {
            "name": "A3",
            "midi": 57,
            "time": 64.9342365000003,
            "velocity": 0.4881889763779528,
            "duration": 0.19736849999999606
          },
          {
            "name": "G#3",
            "midi": 56,
            "time": 65.13160500000029,
            "velocity": 0.4881889763779528,
            "duration": 0.19736849999999606
          },
          {
            "name": "F#3",
            "midi": 54,
            "time": 65.32897350000029,
            "velocity": 0.4881889763779528,
            "duration": 0.19736849999999606
          },
          {
            "name": "E3",
            "midi": 52,
            "time": 65.52634200000028,
            "velocity": 0.4881889763779528,
            "duration": 0.19736849999999606
          },
          {
            "name": "D#3",
            "midi": 51,
            "time": 65.72371050000028,
            "velocity": 0.4881889763779528,
            "duration": 0.19736849999999606
          },
          {
            "name": "C#3",
            "midi": 49,
            "time": 65.92107900000028,
            "velocity": 0.4881889763779528,
            "duration": 0.19736849999999606
          },
          {
            "name": "C3",
            "midi": 48,
            "time": 66.11844750000027,
            "velocity": 0.4881889763779528,
            "duration": 0.19736849999999606
          },
          {
            "name": "F5",
            "midi": 77,
            "time": 69.47371200000026,
            "velocity": 0.4881889763779528,
            "duration": 0.19736849999999606
          },
          {
            "name": "F#5",
            "midi": 78,
            "time": 69.67108050000026,
            "velocity": 0.4881889763779528,
            "duration": 0.19736849999999606
          },
          {
            "name": "G#5",
            "midi": 80,
            "time": 69.86844900000025,
            "velocity": 0.4881889763779528,
            "duration": 0.19736849999999606
          },
          {
            "name": "F#5",
            "midi": 78,
            "time": 70.06581750000025,
            "velocity": 0.4881889763779528,
            "duration": 0.19736849999999606
          },
          {
            "name": "E5",
            "midi": 76,
            "time": 70.26318600000025,
            "velocity": 0.4881889763779528,
            "duration": 0.19736849999999606
          },
          {
            "name": "D#5",
            "midi": 75,
            "time": 70.46055450000024,
            "velocity": 0.4881889763779528,
            "duration": 0.19736849999999606
          },
          {
            "name": "C#5",
            "midi": 73,
            "time": 70.65792300000024,
            "velocity": 0.4881889763779528,
            "duration": 0.19736849999999606
          },
          {
            "name": "B4",
            "midi": 71,
            "time": 70.85529150000023,
            "velocity": 0.4881889763779528,
            "duration": 0.19736849999999606
          },
          {
            "name": "A#4",
            "midi": 70,
            "time": 71.05266000000023,
            "velocity": 0.4881889763779528,
            "duration": 0.19736849999999606
          },
          {
            "name": "G#4",
            "midi": 68,
            "time": 71.25002850000023,
            "velocity": 0.4881889763779528,
            "duration": 0.19736849999999606
          },
          {
            "name": "F#4",
            "midi": 66,
            "time": 71.44739700000022,
            "velocity": 0.4881889763779528,
            "duration": 0.19736849999999606
          },
          {
            "name": "E4",
            "midi": 64,
            "time": 71.64476550000022,
            "velocity": 0.4881889763779528,
            "duration": 0.19736849999999606
          },
          {
            "name": "D#4",
            "midi": 63,
            "time": 71.84213400000021,
            "velocity": 0.4881889763779528,
            "duration": 0.19736849999999606
          },
          {
            "name": "C#4",
            "midi": 61,
            "time": 72.03950250000021,
            "velocity": 0.4881889763779528,
            "duration": 0.19736849999999606
          },
          {
            "name": "B3",
            "midi": 59,
            "time": 72.2368710000002,
            "velocity": 0.4881889763779528,
            "duration": 0.19736849999999606
          },
          {
            "name": "A#3",
            "midi": 58,
            "time": 72.4342395000002,
            "velocity": 0.4881889763779528,
            "duration": 0.19736849999999606
          },
          {
            "name": "B3",
            "midi": 59,
            "time": 72.6316080000002,
            "velocity": 0.4881889763779528,
            "duration": 0.39473700000000633
          },
          {
            "name": "D#5",
            "midi": 75,
            "time": 73.3223977500002,
            "velocity": 0.4881889763779528,
            "duration": 0.04934212499999546
          },
          {
            "name": "E5",
            "midi": 76,
            "time": 73.3717398750002,
            "velocity": 0.4881889763779528,
            "duration": 0.04934212499999546
          },
          {
            "name": "F#5",
            "midi": 78,
            "time": 73.4210820000002,
            "velocity": 0.4881889763779528,
            "duration": 0.07894740000000411
          },
          {
            "name": "B4",
            "midi": 71,
            "time": 73.8158190000002,
            "velocity": 0.4881889763779528,
            "duration": 0.07894740000000411
          },
          {
            "name": "B4",
            "midi": 71,
            "time": 74.1118717500002,
            "velocity": 0.4881889763779528,
            "duration": 0.04934212499999546
          },
          {
            "name": "C#5",
            "midi": 73,
            "time": 74.1612138750002,
            "velocity": 0.4881889763779528,
            "duration": 0.04934212499999546
          },
          {
            "name": "D#5",
            "midi": 75,
            "time": 74.2105560000002,
            "velocity": 0.4881889763779528,
            "duration": 0.07894740000000411
          },
          {
            "name": "F#4",
            "midi": 66,
            "time": 74.6052930000002,
            "velocity": 0.4881889763779528,
            "duration": 0.07894740000000411
          },
          {
            "name": "G#4",
            "midi": 68,
            "time": 74.9013457500002,
            "velocity": 0.4881889763779528,
            "duration": 0.04934212499999546
          },
          {
            "name": "A#4",
            "midi": 70,
            "time": 74.9506878750002,
            "velocity": 0.4881889763779528,
            "duration": 0.04934212499999546
          },
          {
            "name": "B4",
            "midi": 71,
            "time": 75.0000300000002,
            "velocity": 0.4881889763779528,
            "duration": 0.07894740000000411
          },
          {
            "name": "D#4",
            "midi": 63,
            "time": 75.3947670000002,
            "velocity": 0.4881889763779528,
            "duration": 0.07894740000000411
          },
          {
            "name": "F#4",
            "midi": 66,
            "time": 75.7895040000002,
            "velocity": 0.4881889763779528,
            "duration": 0.39473700000000633
          },
          {
            "name": "E4",
            "midi": 64,
            "time": 76.18424100000021,
            "velocity": 0.4881889763779528,
            "duration": 0.19736849999999606
          },
          {
            "name": "E5",
            "midi": 76,
            "time": 76.48029375000021,
            "velocity": 0.4881889763779528,
            "duration": 0.04934212499999546
          },
          {
            "name": "F#5",
            "midi": 78,
            "time": 76.52963587500021,
            "velocity": 0.4881889763779528,
            "duration": 0.04934212499999546
          },
          {
            "name": "G#5",
            "midi": 80,
            "time": 76.5789780000002,
            "velocity": 0.4881889763779528,
            "duration": 0.07894740000000411
          },
          {
            "name": "C#5",
            "midi": 73,
            "time": 76.97371500000021,
            "velocity": 0.4881889763779528,
            "duration": 0.07894740000000411
          },
          {
            "name": "C#5",
            "midi": 73,
            "time": 77.26976775000021,
            "velocity": 0.4881889763779528,
            "duration": 0.04934212499999546
          },
          {
            "name": "D#5",
            "midi": 75,
            "time": 77.31910987500021,
            "velocity": 0.4881889763779528,
            "duration": 0.04934212499999546
          },
          {
            "name": "E5",
            "midi": 76,
            "time": 77.3684520000002,
            "velocity": 0.4881889763779528,
            "duration": 0.07894740000000411
          },
          {
            "name": "A#4",
            "midi": 70,
            "time": 77.76318900000021,
            "velocity": 0.4881889763779528,
            "duration": 0.07894740000000411
          },
          {
            "name": "A#4",
            "midi": 70,
            "time": 78.05924175000021,
            "velocity": 0.4881889763779528,
            "duration": 0.04934212499999546
          },
          {
            "name": "B4",
            "midi": 71,
            "time": 78.1085838750002,
            "velocity": 0.4881889763779528,
            "duration": 0.04934212499999546
          },
          {
            "name": "C#5",
            "midi": 73,
            "time": 78.1579260000002,
            "velocity": 0.4881889763779528,
            "duration": 0.07894740000000411
          },
          {
            "name": "F#4",
            "midi": 66,
            "time": 78.55266300000021,
            "velocity": 0.4881889763779528,
            "duration": 0.07894740000000411
          },
          {
            "name": "C#5",
            "midi": 73,
            "time": 78.94740000000021,
            "velocity": 0.4881889763779528,
            "duration": 0.39473700000000633
          },
          {
            "name": "B4",
            "midi": 71,
            "time": 79.34213700000022,
            "velocity": 0.4881889763779528,
            "duration": 0.19736849999999606
          },
          {
            "name": "A#5",
            "midi": 82,
            "time": 79.63818975000022,
            "velocity": 0.4881889763779528,
            "duration": 0.04934212499999546
          },
          {
            "name": "B5",
            "midi": 83,
            "time": 79.68753187500022,
            "velocity": 0.4881889763779528,
            "duration": 0.04934212499999546
          },
          {
            "name": "C#6",
            "midi": 85,
            "time": 79.73687400000021,
            "velocity": 0.4881889763779528,
            "duration": 0.07894740000000411
          },
          {
            "name": "F#5",
            "midi": 78,
            "time": 80.13161100000022,
            "velocity": 0.4881889763779528,
            "duration": 0.07894740000000411
          },
          {
            "name": "C#6",
            "midi": 85,
            "time": 80.52634800000023,
            "velocity": 0.4881889763779528,
            "duration": 0.39473700000000633
          },
          {
            "name": "B5",
            "midi": 83,
            "time": 80.92108500000023,
            "velocity": 0.4881889763779528,
            "duration": 0.19736849999999606
          },
          {
            "name": "A#4",
            "midi": 70,
            "time": 81.21713775000023,
            "velocity": 0.4881889763779528,
            "duration": 0.04934212499999546
          },
          {
            "name": "B4",
            "midi": 71,
            "time": 81.26647987500023,
            "velocity": 0.4881889763779528,
            "duration": 0.04934212499999546
          },
          {
            "name": "C#5",
            "midi": 73,
            "time": 81.31582200000022,
            "velocity": 0.4881889763779528,
            "duration": 0.07894740000000411
          },
          {
            "name": "F#4",
            "midi": 66,
            "time": 81.71055900000023,
            "velocity": 0.4881889763779528,
            "duration": 0.07894740000000411
          },
          {
            "name": "C#5",
            "midi": 73,
            "time": 82.10529600000024,
            "velocity": 0.4881889763779528,
            "duration": 0.39473700000000633
          },
          {
            "name": "B4",
            "midi": 71,
            "time": 82.50003300000024,
            "velocity": 0.4881889763779528,
            "duration": 0.19736849999999606
          },
          {
            "name": "B5",
            "midi": 83,
            "time": 82.89477000000024,
            "velocity": 0.4881889763779528,
            "duration": 0.19736849999999606
          },
          {
            "name": "A#5",
            "midi": 82,
            "time": 83.09213850000023,
            "velocity": 0.4881889763779528,
            "duration": 0.19736849999999606
          },
          {
            "name": "B5",
            "midi": 83,
            "time": 83.28950700000023,
            "velocity": 0.4881889763779528,
            "duration": 0.19736849999999606
          },
          {
            "name": "G#5",
            "midi": 80,
            "time": 83.48687550000022,
            "velocity": 0.4881889763779528,
            "duration": 0.19736849999999606
          },
          {
            "name": "F#5",
            "midi": 78,
            "time": 83.68424400000022,
            "velocity": 0.4881889763779528,
            "duration": 0.07894740000000411
          },
          {
            "name": "D#5",
            "midi": 75,
            "time": 84.07898100000023,
            "velocity": 0.4881889763779528,
            "duration": 0.07894740000000411
          },
          {
            "name": "C#5",
            "midi": 73,
            "time": 84.37503375000023,
            "velocity": 0.4881889763779528,
            "duration": 0.04934212499999546
          },
          {
            "name": "D#5",
            "midi": 75,
            "time": 84.42437587500022,
            "velocity": 0.4881889763779528,
            "duration": 0.04934212499999546
          },
          {
            "name": "E5",
            "midi": 76,
            "time": 84.47371800000022,
            "velocity": 0.4881889763779528,
            "duration": 0.07894740000000411
          },
          {
            "name": "A#4",
            "midi": 70,
            "time": 84.86845500000022,
            "velocity": 0.4881889763779528,
            "duration": 0.07894740000000411
          },
          {
            "name": "B4",
            "midi": 71,
            "time": 85.26319200000023,
            "velocity": 0.4881889763779528,
            "duration": 0.7894739999999842
          },
          {
            "name": "D#5",
            "midi": 75,
            "time": 85.95398175000022,
            "velocity": 0.5905511811023622,
            "duration": 0.04934212499999546
          },
          {
            "name": "E5",
            "midi": 76,
            "time": 86.00332387500022,
            "velocity": 0.5905511811023622,
            "duration": 0.04934212499999546
          },
          {
            "name": "F#5",
            "midi": 78,
            "time": 86.05266600000022,
            "velocity": 0.5905511811023622,
            "duration": 0.07894740000000411
          },
          {
            "name": "B4",
            "midi": 71,
            "time": 86.44740300000022,
            "velocity": 0.5905511811023622,
            "duration": 0.07894740000000411
          },
          {
            "name": "B4",
            "midi": 71,
            "time": 86.74345575000022,
            "velocity": 0.5905511811023622,
            "duration": 0.04934212499999546
          },
          {
            "name": "C#5",
            "midi": 73,
            "time": 86.79279787500022,
            "velocity": 0.5905511811023622,
            "duration": 0.04934212499999546
          },
          {
            "name": "D#5",
            "midi": 75,
            "time": 86.84214000000021,
            "velocity": 0.5905511811023622,
            "duration": 0.07894740000000411
          },
          {
            "name": "F#4",
            "midi": 66,
            "time": 87.23687700000022,
            "velocity": 0.5905511811023622,
            "duration": 0.07894740000000411
          },
          {
            "name": "G#4",
            "midi": 68,
            "time": 87.53292975000022,
            "velocity": 0.5905511811023622,
            "duration": 0.04934212499999546
          },
          {
            "name": "A#4",
            "midi": 70,
            "time": 87.58227187500022,
            "velocity": 0.5905511811023622,
            "duration": 0.04934212499999546
          },
          {
            "name": "B4",
            "midi": 71,
            "time": 87.63161400000021,
            "velocity": 0.5905511811023622,
            "duration": 0.07894740000000411
          },
          {
            "name": "D#4",
            "midi": 63,
            "time": 88.02635100000022,
            "velocity": 0.5905511811023622,
            "duration": 0.07894740000000411
          },
          {
            "name": "F#4",
            "midi": 66,
            "time": 88.42108800000022,
            "velocity": 0.5905511811023622,
            "duration": 0.39473700000000633
          },
          {
            "name": "E4",
            "midi": 64,
            "time": 88.81582500000023,
            "velocity": 0.5905511811023622,
            "duration": 0.19736849999999606
          },
          {
            "name": "E5",
            "midi": 76,
            "time": 89.11187775000023,
            "velocity": 0.5905511811023622,
            "duration": 0.04934212499999546
          },
          {
            "name": "F#5",
            "midi": 78,
            "time": 89.16121987500023,
            "velocity": 0.5905511811023622,
            "duration": 0.04934212499999546
          },
          {
            "name": "G#5",
            "midi": 80,
            "time": 89.21056200000022,
            "velocity": 0.5905511811023622,
            "duration": 0.07894740000000411
          },
          {
            "name": "C#5",
            "midi": 73,
            "time": 89.60529900000023,
            "velocity": 0.5905511811023622,
            "duration": 0.07894740000000411
          },
          {
            "name": "C#5",
            "midi": 73,
            "time": 89.90135175000023,
            "velocity": 0.5905511811023622,
            "duration": 0.04934212499999546
          },
          {
            "name": "D#5",
            "midi": 75,
            "time": 89.95069387500023,
            "velocity": 0.5905511811023622,
            "duration": 0.04934212499999546
          },
          {
            "name": "E5",
            "midi": 76,
            "time": 90.00003600000022,
            "velocity": 0.5905511811023622,
            "duration": 0.07894740000000411
          },
          {
            "name": "A#4",
            "midi": 70,
            "time": 90.39477300000023,
            "velocity": 0.5905511811023622,
            "duration": 0.07894740000000411
          },
          {
            "name": "A#4",
            "midi": 70,
            "time": 90.69082575000023,
            "velocity": 0.5905511811023622,
            "duration": 0.04934212499999546
          },
          {
            "name": "B4",
            "midi": 71,
            "time": 90.74016787500022,
            "velocity": 0.5905511811023622,
            "duration": 0.04934212499999546
          },
          {
            "name": "C#5",
            "midi": 73,
            "time": 90.78951000000022,
            "velocity": 0.5905511811023622,
            "duration": 0.07894740000000411
          },
          {
            "name": "F#4",
            "midi": 66,
            "time": 91.18424700000023,
            "velocity": 0.5905511811023622,
            "duration": 0.07894740000000411
          },
          {
            "name": "C#5",
            "midi": 73,
            "time": 91.57898400000023,
            "velocity": 0.5905511811023622,
            "duration": 0.39473700000000633
          },
          {
            "name": "B4",
            "midi": 71,
            "time": 91.97372100000024,
            "velocity": 0.5905511811023622,
            "duration": 0.19736849999999606
          },
          {
            "name": "A#5",
            "midi": 82,
            "time": 92.26977375000024,
            "velocity": 0.5905511811023622,
            "duration": 0.04934212499999546
          },
          {
            "name": "B5",
            "midi": 83,
            "time": 92.31911587500024,
            "velocity": 0.5905511811023622,
            "duration": 0.04934212499999546
          },
          {
            "name": "C#6",
            "midi": 85,
            "time": 92.36845800000023,
            "velocity": 0.5905511811023622,
            "duration": 0.07894740000000411
          },
          {
            "name": "F#5",
            "midi": 78,
            "time": 92.76319500000024,
            "velocity": 0.5905511811023622,
            "duration": 0.07894740000000411
          },
          {
            "name": "C#6",
            "midi": 85,
            "time": 93.15793200000024,
            "velocity": 0.5905511811023622,
            "duration": 0.39473700000000633
          },
          {
            "name": "B5",
            "midi": 83,
            "time": 93.55266900000025,
            "velocity": 0.5905511811023622,
            "duration": 0.19736849999999606
          },
          {
            "name": "A#4",
            "midi": 70,
            "time": 93.84872175000025,
            "velocity": 0.5905511811023622,
            "duration": 0.04934212499999546
          },
          {
            "name": "B4",
            "midi": 71,
            "time": 93.89806387500025,
            "velocity": 0.5905511811023622,
            "duration": 0.04934212499999546
          },
          {
            "name": "C#5",
            "midi": 73,
            "time": 93.94740600000024,
            "velocity": 0.5905511811023622,
            "duration": 0.07894740000000411
          },
          {
            "name": "F#4",
            "midi": 66,
            "time": 94.34214300000025,
            "velocity": 0.5905511811023622,
            "duration": 0.07894740000000411
          },
          {
            "name": "C#5",
            "midi": 73,
            "time": 94.73688000000026,
            "velocity": 0.5905511811023622,
            "duration": 0.39473700000000633
          },
          {
            "name": "B4",
            "midi": 71,
            "time": 95.13161700000026,
            "velocity": 0.5905511811023622,
            "duration": 0.19736849999999606
          },
          {
            "name": "B5",
            "midi": 83,
            "time": 95.52635400000025,
            "velocity": 0.5905511811023622,
            "duration": 0.19736849999999606
          },
          {
            "name": "A#5",
            "midi": 82,
            "time": 95.72372250000025,
            "velocity": 0.5905511811023622,
            "duration": 0.19736849999999606
          },
          {
            "name": "B5",
            "midi": 83,
            "time": 95.92109100000025,
            "velocity": 0.5905511811023622,
            "duration": 0.19736849999999606
          },
          {
            "name": "G#5",
            "midi": 80,
            "time": 96.11845950000024,
            "velocity": 0.5905511811023622,
            "duration": 0.19736849999999606
          },
          {
            "name": "F#5",
            "midi": 78,
            "time": 96.31582800000024,
            "velocity": 0.5905511811023622,
            "duration": 0.07894740000000411
          },
          {
            "name": "D#5",
            "midi": 75,
            "time": 96.71056500000024,
            "velocity": 0.5905511811023622,
            "duration": 0.07894740000000411
          },
          {
            "name": "C#5",
            "midi": 73,
            "time": 97.00661775000025,
            "velocity": 0.5905511811023622,
            "duration": 0.04934212499999546
          },
          {
            "name": "D#5",
            "midi": 75,
            "time": 97.05595987500024,
            "velocity": 0.5905511811023622,
            "duration": 0.04934212499999546
          },
          {
            "name": "E5",
            "midi": 76,
            "time": 97.10530200000024,
            "velocity": 0.5905511811023622,
            "duration": 0.07894740000000411
          },
          {
            "name": "A#4",
            "midi": 70,
            "time": 97.50003900000024,
            "velocity": 0.5905511811023622,
            "duration": 0.07894740000000411
          },
          {
            "name": "B4",
            "midi": 71,
            "time": 97.89477600000025,
            "velocity": 0.5905511811023622,
            "duration": 0.7894739999999985
          },
          {
            "name": "B5",
            "midi": 83,
            "time": 98.68425000000025,
            "velocity": 0.5905511811023622,
            "duration": 0.19736849999999606
          },
          {
            "name": "A#5",
            "midi": 82,
            "time": 98.88161850000024,
            "velocity": 0.5905511811023622,
            "duration": 0.19736849999999606
          },
          {
            "name": "B5",
            "midi": 83,
            "time": 99.07898700000024,
            "velocity": 0.5905511811023622,
            "duration": 0.19736849999999606
          },
          {
            "name": "G#5",
            "midi": 80,
            "time": 99.27635550000024,
            "velocity": 0.5905511811023622,
            "duration": 0.19736849999999606
          },
          {
            "name": "F#5",
            "midi": 78,
            "time": 99.47372400000023,
            "velocity": 0.5905511811023622,
            "duration": 0.07894740000000411
          },
          {
            "name": "D#5",
            "midi": 75,
            "time": 99.86846100000024,
            "velocity": 0.5905511811023622,
            "duration": 0.07894740000000411
          },
          {
            "name": "C#5",
            "midi": 73,
            "time": 100.16451375000024,
            "velocity": 0.5905511811023622,
            "duration": 0.04934212499999546
          },
          {
            "name": "D#5",
            "midi": 75,
            "time": 100.21385587500023,
            "velocity": 0.5905511811023622,
            "duration": 0.04934212499999546
          },
          {
            "name": "E5",
            "midi": 76,
            "time": 100.26319800000023,
            "velocity": 0.5905511811023622,
            "duration": 0.07894740000000411
          },
          {
            "name": "A#4",
            "midi": 70,
            "time": 100.65793500000024,
            "velocity": 0.5905511811023622,
            "duration": 0.07894740000000411
          },
          {
            "name": "B4",
            "midi": 71,
            "time": 101.05267200000024,
            "velocity": 0.6929133858267716,
            "duration": 0.19736849999999606
          },
          {
            "name": "B5",
            "midi": 83,
            "time": 101.25004050000024,
            "velocity": 0.8976377952755905,
            "duration": 0.19736849999999606
          },
          {
            "name": "D#6",
            "midi": 87,
            "time": 101.44740900000023,
            "velocity": 0.6929133858267716,
            "duration": 0.19736849999999606
          },
          {
            "name": "F#5",
            "midi": 78,
            "time": 101.64477750000023,
            "velocity": 0.8976377952755905,
            "duration": 0.19736849999999606
          },
          {
            "name": "B5",
            "midi": 83,
            "time": 101.84214600000023,
            "velocity": 0.6929133858267716,
            "duration": 0.19736849999999606
          },
          {
            "name": "D#5",
            "midi": 75,
            "time": 102.03951450000022,
            "velocity": 0.8976377952755905,
            "duration": 0.19736849999999606
          },
          {
            "name": "F#5",
            "midi": 78,
            "time": 102.23688300000022,
            "velocity": 0.6929133858267716,
            "duration": 0.19736849999999606
          },
          {
            "name": "B4",
            "midi": 71,
            "time": 102.43425150000022,
            "velocity": 0.8976377952755905,
            "duration": 0.19736849999999606
          },
          {
            "name": "E5",
            "midi": 76,
            "time": 102.63162000000021,
            "velocity": 0.6929133858267716,
            "duration": 0.19736849999999606
          },
          {
            "name": "A#4",
            "midi": 70,
            "time": 102.82898850000021,
            "velocity": 0.8976377952755905,
            "duration": 0.19736849999999606
          },
          {
            "name": "C#5",
            "midi": 73,
            "time": 103.0263570000002,
            "velocity": 0.6929133858267716,
            "duration": 0.19736849999999606
          },
          {
            "name": "F#4",
            "midi": 66,
            "time": 103.2237255000002,
            "velocity": 0.8976377952755905,
            "duration": 0.19736849999999606
          },
          {
            "name": "A#4",
            "midi": 70,
            "time": 103.4210940000002,
            "velocity": 0.6929133858267716,
            "duration": 0.19736849999999606
          },
          {
            "name": "E4",
            "midi": 64,
            "time": 103.61846250000019,
            "velocity": 0.8976377952755905,
            "duration": 0.19736849999999606
          },
          {
            "name": "F#4",
            "midi": 66,
            "time": 103.81583100000019,
            "velocity": 0.6929133858267716,
            "duration": 0.19736849999999606
          },
          {
            "name": "C#4",
            "midi": 61,
            "time": 104.01319950000018,
            "velocity": 0.6929133858267716,
            "duration": 0.19736849999999606
          },
          {
            "name": "B3",
            "midi": 59,
            "time": 104.21056800000018,
            "velocity": 0.6929133858267716,
            "duration": 0.19736849999999606
          },
          {
            "name": "B5",
            "midi": 83,
            "time": 104.40793650000018,
            "velocity": 0.8976377952755905,
            "duration": 0.19736849999999606
          },
          {
            "name": "D#6",
            "midi": 87,
            "time": 104.60530500000017,
            "velocity": 0.6929133858267716,
            "duration": 0.19736849999999606
          },
          {
            "name": "F#5",
            "midi": 78,
            "time": 104.80267350000017,
            "velocity": 0.8976377952755905,
            "duration": 0.19736849999999606
          },
          {
            "name": "B5",
            "midi": 83,
            "time": 105.00004200000016,
            "velocity": 0.6929133858267716,
            "duration": 0.19736849999999606
          },
          {
            "name": "D#5",
            "midi": 75,
            "time": 105.19741050000016,
            "velocity": 0.8976377952755905,
            "duration": 0.19736849999999606
          },
          {
            "name": "F#5",
            "midi": 78,
            "time": 105.39477900000016,
            "velocity": 0.6929133858267716,
            "duration": 0.19736849999999606
          },
          {
            "name": "B4",
            "midi": 71,
            "time": 105.59214750000015,
            "velocity": 0.8976377952755905,
            "duration": 0.19736849999999606
          },
          {
            "name": "E5",
            "midi": 76,
            "time": 105.78951600000015,
            "velocity": 0.6929133858267716,
            "duration": 0.19736849999999606
          },
          {
            "name": "A#4",
            "midi": 70,
            "time": 105.98688450000014,
            "velocity": 0.8976377952755905,
            "duration": 0.19736849999999606
          },
          {
            "name": "C#5",
            "midi": 73,
            "time": 106.18425300000014,
            "velocity": 0.6929133858267716,
            "duration": 0.19736849999999606
          },
          {
            "name": "F#4",
            "midi": 66,
            "time": 106.38162150000014,
            "velocity": 0.8976377952755905,
            "duration": 0.19736849999999606
          },
          {
            "name": "A#4",
            "midi": 70,
            "time": 106.57899000000013,
            "velocity": 0.6929133858267716,
            "duration": 0.19736849999999606
          },
          {
            "name": "E4",
            "midi": 64,
            "time": 106.77635850000013,
            "velocity": 0.8976377952755905,
            "duration": 0.19736849999999606
          },
          {
            "name": "F#4",
            "midi": 66,
            "time": 106.97372700000012,
            "velocity": 0.6929133858267716,
            "duration": 0.19736849999999606
          },
          {
            "name": "C#4",
            "midi": 61,
            "time": 107.17109550000012,
            "velocity": 0.6929133858267716,
            "duration": 0.19736849999999606
          },
          {
            "name": "B3",
            "midi": 59,
            "time": 107.36846400000012,
            "velocity": 0.6929133858267716,
            "duration": 0.19736849999999606
          },
          {
            "name": "F#3",
            "midi": 54,
            "time": 107.56583250000011,
            "velocity": 0.6929133858267716,
            "duration": 0.19736849999999606
          },
          {
            "name": "A#3",
            "midi": 58,
            "time": 107.76320100000011,
            "velocity": 0.6929133858267716,
            "duration": 0.19736849999999606
          },
          {
            "name": "F#3",
            "midi": 54,
            "time": 107.9605695000001,
            "velocity": 0.6929133858267716,
            "duration": 0.19736849999999606
          },
          {
            "name": "B3",
            "midi": 59,
            "time": 108.1579380000001,
            "velocity": 0.6929133858267716,
            "duration": 0.19736849999999606
          },
          {
            "name": "F#3",
            "midi": 54,
            "time": 108.3553065000001,
            "velocity": 0.6929133858267716,
            "duration": 0.19736849999999606
          },
          {
            "name": "A#3",
            "midi": 58,
            "time": 108.5526750000001,
            "velocity": 0.6929133858267716,
            "duration": 0.19736849999999606
          },
          {
            "name": "F#3",
            "midi": 54,
            "time": 108.75004350000009,
            "velocity": 0.6929133858267716,
            "duration": 0.19736849999999606
          },
          {
            "name": "B3",
            "midi": 59,
            "time": 108.94741200000009,
            "velocity": 0.6929133858267716,
            "duration": 0.19736849999999606
          },
          {
            "name": "F#3",
            "midi": 54,
            "time": 109.14478050000008,
            "velocity": 0.6929133858267716,
            "duration": 0.19736849999999606
          },
          {
            "name": "A#3",
            "midi": 58,
            "time": 109.34214900000008,
            "velocity": 0.6929133858267716,
            "duration": 0.19736849999999606
          },
          {
            "name": "F#3",
            "midi": 54,
            "time": 109.53951750000007,
            "velocity": 0.6929133858267716,
            "duration": 0.19736849999999606
          },
          {
            "name": "B3",
            "midi": 59,
            "time": 109.73688600000007,
            "velocity": 0.6929133858267716,
            "duration": 0.19736849999999606
          },
          {
            "name": "F#3",
            "midi": 54,
            "time": 109.93425450000007,
            "velocity": 0.6929133858267716,
            "duration": 0.19736849999999606
          },
          {
            "name": "A#3",
            "midi": 58,
            "time": 110.13162300000006,
            "velocity": 0.6929133858267716,
            "duration": 0.19736849999999606
          },
          {
            "name": "F#3",
            "midi": 54,
            "time": 110.32899150000006,
            "velocity": 0.6929133858267716,
            "duration": 0.19736849999999606
          },
          {
            "name": "B3",
            "midi": 59,
            "time": 110.52636000000005,
            "velocity": 0.6929133858267716,
            "duration": 0.19736849999999606
          },
          {
            "name": "F#5",
            "midi": 78,
            "time": 110.72372850000005,
            "velocity": 0.6929133858267716,
            "duration": 0.19736849999999606
          },
          {
            "name": "A#5",
            "midi": 82,
            "time": 110.92109700000005,
            "velocity": 0.6929133858267716,
            "duration": 0.19736849999999606
          },
          {
            "name": "F#5",
            "midi": 78,
            "time": 111.11846550000004,
            "velocity": 0.6929133858267716,
            "duration": 0.19736849999999606
          },
          {
            "name": "B5",
            "midi": 83,
            "time": 111.31583400000004,
            "velocity": 0.6929133858267716,
            "duration": 0.19736849999999606
          },
          {
            "name": "F#5",
            "midi": 78,
            "time": 111.51320250000003,
            "velocity": 0.6929133858267716,
            "duration": 0.19736849999999606
          },
          {
            "name": "A#5",
            "midi": 82,
            "time": 111.71057100000003,
            "velocity": 0.6929133858267716,
            "duration": 0.19736849999999606
          },
          {
            "name": "F#5",
            "midi": 78,
            "time": 111.90793950000003,
            "velocity": 0.6929133858267716,
            "duration": 0.19736849999999606
          },
          {
            "name": "B5",
            "midi": 83,
            "time": 112.10530800000002,
            "velocity": 0.6929133858267716,
            "duration": 0.19736849999999606
          },
          {
            "name": "F#5",
            "midi": 78,
            "time": 112.30267650000002,
            "velocity": 0.6929133858267716,
            "duration": 0.19736849999999606
          },
          {
            "name": "A#5",
            "midi": 82,
            "time": 112.50004500000001,
            "velocity": 0.6929133858267716,
            "duration": 0.19736849999999606
          },
          {
            "name": "F#5",
            "midi": 78,
            "time": 112.69741350000001,
            "velocity": 0.6929133858267716,
            "duration": 0.19736849999999606
          },
          {
            "name": "B5",
            "midi": 83,
            "time": 112.894782,
            "velocity": 0.6929133858267716,
            "duration": 0.19736849999999606
          },
          {
            "name": "F#5",
            "midi": 78,
            "time": 113.0921505,
            "velocity": 0.6929133858267716,
            "duration": 0.19736849999999606
          },
          {
            "name": "A#5",
            "midi": 82,
            "time": 113.289519,
            "velocity": 0.6929133858267716,
            "duration": 0.19736849999999606
          },
          {
            "name": "F#5",
            "midi": 78,
            "time": 113.4868875,
            "velocity": 0.6929133858267716,
            "duration": 0.19736849999999606
          },
          {
            "name": "B5",
            "midi": 83,
            "time": 113.68425599999999,
            "velocity": 0.6929133858267716,
            "duration": 0.19736849999999606
          },
          {
            "name": "B5",
            "midi": 83,
            "time": 113.88162449999999,
            "velocity": 0.8976377952755905,
            "duration": 0.19736849999999606
          },
          {
            "name": "D6",
            "midi": 86,
            "time": 114.07899299999998,
            "velocity": 0.6929133858267716,
            "duration": 0.19736849999999606
          },
          {
            "name": "F#5",
            "midi": 78,
            "time": 114.27636149999998,
            "velocity": 0.8976377952755905,
            "duration": 0.19736849999999606
          },
          {
            "name": "B5",
            "midi": 83,
            "time": 114.47372999999997,
            "velocity": 0.6929133858267716,
            "duration": 0.19736849999999606
          },
          {
            "name": "D5",
            "midi": 74,
            "time": 114.67109849999997,
            "velocity": 0.8976377952755905,
            "duration": 0.19736849999999606
          },
          {
            "name": "F#5",
            "midi": 78,
            "time": 114.86846699999997,
            "velocity": 0.6929133858267716,
            "duration": 0.19736849999999606
          },
          {
            "name": "B4",
            "midi": 71,
            "time": 115.06583549999996,
            "velocity": 0.8976377952755905,
            "duration": 0.19736849999999606
          },
          {
            "name": "E5",
            "midi": 76,
            "time": 115.26320399999996,
            "velocity": 0.6929133858267716,
            "duration": 0.19736849999999606
          },
          {
            "name": "A#4",
            "midi": 70,
            "time": 115.46057249999996,
            "velocity": 0.8976377952755905,
            "duration": 0.19736849999999606
          },
          {
            "name": "C#5",
            "midi": 73,
            "time": 115.65794099999995,
            "velocity": 0.6929133858267716,
            "duration": 0.19736849999999606
          },
          {
            "name": "F#4",
            "midi": 66,
            "time": 115.85530949999995,
            "velocity": 0.8976377952755905,
            "duration": 0.19736849999999606
          },
          {
            "name": "A#4",
            "midi": 70,
            "time": 116.05267799999994,
            "velocity": 0.6929133858267716,
            "duration": 0.19736849999999606
          },
          {
            "name": "E4",
            "midi": 64,
            "time": 116.25004649999994,
            "velocity": 0.8976377952755905,
            "duration": 0.19736849999999606
          },
          {
            "name": "F#4",
            "midi": 66,
            "time": 116.44741499999994,
            "velocity": 0.6929133858267716,
            "duration": 0.19736849999999606
          },
          {
            "name": "C#4",
            "midi": 61,
            "time": 116.64478349999993,
            "velocity": 0.8976377952755905,
            "duration": 0.19736849999999606
          },
          {
            "name": "B3",
            "midi": 59,
            "time": 116.84215199999993,
            "velocity": 0.6929133858267716,
            "duration": 0.19736849999999606
          },
          {
            "name": "B5",
            "midi": 83,
            "time": 117.03952049999992,
            "velocity": 0.8976377952755905,
            "duration": 0.19736849999999606
          },
          {
            "name": "D6",
            "midi": 86,
            "time": 117.23688899999992,
            "velocity": 0.6929133858267716,
            "duration": 0.19736849999999606
          },
          {
            "name": "F#5",
            "midi": 78,
            "time": 117.43425749999992,
            "velocity": 0.8976377952755905,
            "duration": 0.19736849999999606
          },
          {
            "name": "B5",
            "midi": 83,
            "time": 117.63162599999991,
            "velocity": 0.6929133858267716,
            "duration": 0.19736849999999606
          },
          {
            "name": "D5",
            "midi": 74,
            "time": 117.82899449999991,
            "velocity": 0.8976377952755905,
            "duration": 0.19736849999999606
          },
          {
            "name": "F#5",
            "midi": 78,
            "time": 118.0263629999999,
            "velocity": 0.6929133858267716,
            "duration": 0.19736849999999606
          },
          {
            "name": "B4",
            "midi": 71,
            "time": 118.2237314999999,
            "velocity": 0.8976377952755905,
            "duration": 0.19736849999999606
          },
          {
            "name": "E5",
            "midi": 76,
            "time": 118.4210999999999,
            "velocity": 0.6929133858267716,
            "duration": 0.19736849999999606
          },
          {
            "name": "A#4",
            "midi": 70,
            "time": 118.61846849999989,
            "velocity": 0.8976377952755905,
            "duration": 0.19736849999999606
          },
          {
            "name": "C#5",
            "midi": 73,
            "time": 118.81583699999989,
            "velocity": 0.6929133858267716,
            "duration": 0.19736849999999606
          },
          {
            "name": "F#4",
            "midi": 66,
            "time": 119.01320549999988,
            "velocity": 0.8976377952755905,
            "duration": 0.19736849999999606
          },
          {
            "name": "A#4",
            "midi": 70,
            "time": 119.21057399999988,
            "velocity": 0.6929133858267716,
            "duration": 0.19736849999999606
          },
          {
            "name": "E4",
            "midi": 64,
            "time": 119.40794249999988,
            "velocity": 0.8976377952755905,
            "duration": 0.19736849999999606
          },
          {
            "name": "F#4",
            "midi": 66,
            "time": 119.60531099999987,
            "velocity": 0.6929133858267716,
            "duration": 0.19736849999999606
          },
          {
            "name": "C#4",
            "midi": 61,
            "time": 119.80267949999987,
            "velocity": 0.8976377952755905,
            "duration": 0.19736849999999606
          },
          {
            "name": "B3",
            "midi": 59,
            "time": 120.00004799999986,
            "velocity": 0.6929133858267716,
            "duration": 0.19736849999999606
          },
          {
            "name": "G5",
            "midi": 79,
            "time": 120.19741649999986,
            "velocity": 0.8976377952755905,
            "duration": 0.19736849999999606
          },
          {
            "name": "B5",
            "midi": 83,
            "time": 120.39478499999986,
            "velocity": 0.6929133858267716,
            "duration": 0.19736849999999606
          },
          {
            "name": "D5",
            "midi": 74,
            "time": 120.59215349999985,
            "velocity": 0.6929133858267716,
            "duration": 0.19736849999999606
          },
          {
            "name": "G5",
            "midi": 79,
            "time": 120.78952199999985,
            "velocity": 0.6929133858267716,
            "duration": 0.19736849999999606
          },
          {
            "name": "B4",
            "midi": 71,
            "time": 120.98689049999984,
            "velocity": 0.8976377952755905,
            "duration": 0.19736849999999606
          },
          {
            "name": "D5",
            "midi": 74,
            "time": 121.18425899999984,
            "velocity": 0.6929133858267716,
            "duration": 0.19736849999999606
          },
          {
            "name": "G4",
            "midi": 67,
            "time": 121.38162749999984,
            "velocity": 0.8976377952755905,
            "duration": 0.19736849999999606
          },
          {
            "name": "C5",
            "midi": 72,
            "time": 121.57899599999983,
            "velocity": 0.6929133858267716,
            "duration": 0.19736849999999606
          },
          {
            "name": "F#4",
            "midi": 66,
            "time": 121.77636449999983,
            "velocity": 0.8976377952755905,
            "duration": 0.19736849999999606
          },
          {
            "name": "A4",
            "midi": 69,
            "time": 121.97373299999983,
            "velocity": 0.6929133858267716,
            "duration": 0.19736849999999606
          },
          {
            "name": "D4",
            "midi": 62,
            "time": 122.17110149999982,
            "velocity": 0.8976377952755905,
            "duration": 0.19736849999999606
          },
          {
            "name": "F#4",
            "midi": 66,
            "time": 122.36846999999982,
            "velocity": 0.6929133858267716,
            "duration": 0.19736849999999606
          },
          {
            "name": "C4",
            "midi": 60,
            "time": 122.56583849999981,
            "velocity": 0.8976377952755905,
            "duration": 0.19736849999999606
          },
          {
            "name": "D4",
            "midi": 62,
            "time": 122.76320699999981,
            "velocity": 0.6929133858267716,
            "duration": 0.19736849999999606
          },
          {
            "name": "A3",
            "midi": 57,
            "time": 122.9605754999998,
            "velocity": 0.8976377952755905,
            "duration": 0.19736849999999606
          },
          {
            "name": "G3",
            "midi": 55,
            "time": 123.1579439999998,
            "velocity": 0.6929133858267716,
            "duration": 0.19736849999999606
          },
          {
            "name": "G5",
            "midi": 79,
            "time": 123.3553124999998,
            "velocity": 0.8976377952755905,
            "duration": 0.19736849999999606
          },
          {
            "name": "B5",
            "midi": 83,
            "time": 123.5526809999998,
            "velocity": 0.6929133858267716,
            "duration": 0.19736849999999606
          },
          {
            "name": "D5",
            "midi": 74,
            "time": 123.75004949999979,
            "velocity": 0.6929133858267716,
            "duration": 0.19736849999999606
          },
          {
            "name": "G5",
            "midi": 79,
            "time": 123.94741799999979,
            "velocity": 0.6929133858267716,
            "duration": 0.19736849999999606
          },
          {
            "name": "B4",
            "midi": 71,
            "time": 124.14478649999978,
            "velocity": 0.8976377952755905,
            "duration": 0.19736849999999606
          },
          {
            "name": "D5",
            "midi": 74,
            "time": 124.34215499999978,
            "velocity": 0.6929133858267716,
            "duration": 0.19736849999999606
          },
          {
            "name": "G4",
            "midi": 67,
            "time": 124.53952349999977,
            "velocity": 0.8976377952755905,
            "duration": 0.19736849999999606
          },
          {
            "name": "C5",
            "midi": 72,
            "time": 124.73689199999977,
            "velocity": 0.6929133858267716,
            "duration": 0.19736849999999606
          },
          {
            "name": "F#4",
            "midi": 66,
            "time": 124.93426049999977,
            "velocity": 0.8976377952755905,
            "duration": 0.19736849999999606
          },
          {
            "name": "A4",
            "midi": 69,
            "time": 125.13162899999976,
            "velocity": 0.6929133858267716,
            "duration": 0.19736849999999606
          },
          {
            "name": "D4",
            "midi": 62,
            "time": 125.32899749999976,
            "velocity": 0.8976377952755905,
            "duration": 0.19736849999999606
          },
          {
            "name": "F#4",
            "midi": 66,
            "time": 125.52636599999975,
            "velocity": 0.6929133858267716,
            "duration": 0.19736849999999606
          },
          {
            "name": "C4",
            "midi": 60,
            "time": 125.72373449999975,
            "velocity": 0.8976377952755905,
            "duration": 0.19736849999999606
          },
          {
            "name": "D4",
            "midi": 62,
            "time": 125.92110299999975,
            "velocity": 0.6929133858267716,
            "duration": 0.19736849999999606
          },
          {
            "name": "A3",
            "midi": 57,
            "time": 126.11847149999974,
            "velocity": 0.8976377952755905,
            "duration": 0.19736849999999606
          },
          {
            "name": "G3",
            "midi": 55,
            "time": 126.31583999999974,
            "velocity": 0.6929133858267716,
            "duration": 0.19736849999999606
          },
          {
            "name": "D3",
            "midi": 50,
            "time": 126.51320849999973,
            "velocity": 0.6929133858267716,
            "duration": 0.19736849999999606
          },
          {
            "name": "F#3",
            "midi": 54,
            "time": 126.71057699999973,
            "velocity": 0.6929133858267716,
            "duration": 0.19736849999999606
          },
          {
            "name": "D3",
            "midi": 50,
            "time": 126.90794549999973,
            "velocity": 0.6929133858267716,
            "duration": 0.19736849999999606
          },
          {
            "name": "G3",
            "midi": 55,
            "time": 127.10531399999972,
            "velocity": 0.6929133858267716,
            "duration": 0.19736849999999606
          },
          {
            "name": "D3",
            "midi": 50,
            "time": 127.30268249999972,
            "velocity": 0.6929133858267716,
            "duration": 0.19736849999999606
          },
          {
            "name": "F#3",
            "midi": 54,
            "time": 127.50005099999971,
            "velocity": 0.6929133858267716,
            "duration": 0.19736849999999606
          },
          {
            "name": "D3",
            "midi": 50,
            "time": 127.69741949999971,
            "velocity": 0.6929133858267716,
            "duration": 0.19736849999999606
          },
          {
            "name": "G3",
            "midi": 55,
            "time": 127.8947879999997,
            "velocity": 0.6929133858267716,
            "duration": 0.19736849999999606
          },
          {
            "name": "D3",
            "midi": 50,
            "time": 128.0921564999997,
            "velocity": 0.6929133858267716,
            "duration": 0.19736850000001027
          },
          {
            "name": "G#3",
            "midi": 56,
            "time": 128.2895249999997,
            "velocity": 0.6929133858267716,
            "duration": 0.19736850000001027
          },
          {
            "name": "E3",
            "midi": 52,
            "time": 128.48689349999972,
            "velocity": 0.6929133858267716,
            "duration": 0.19736850000001027
          },
          {
            "name": "A3",
            "midi": 57,
            "time": 128.68426199999973,
            "velocity": 0.6929133858267716,
            "duration": 0.19736850000001027
          },
          {
            "name": "E3",
            "midi": 52,
            "time": 128.88163049999974,
            "velocity": 0.6929133858267716,
            "duration": 0.19736850000001027
          },
          {
            "name": "G#3",
            "midi": 56,
            "time": 129.07899899999975,
            "velocity": 0.6929133858267716,
            "duration": 0.19736850000001027
          },
          {
            "name": "E3",
            "midi": 52,
            "time": 129.27636749999976,
            "velocity": 0.6929133858267716,
            "duration": 0.19736850000001027
          },
          {
            "name": "A3",
            "midi": 57,
            "time": 129.47373599999978,
            "velocity": 0.6929133858267716,
            "duration": 0.19736850000001027
          },
          {
            "name": "E3",
            "midi": 52,
            "time": 129.67110449999979,
            "velocity": 0.6929133858267716,
            "duration": 0.19736850000001027
          },
          {
            "name": "A#3",
            "midi": 58,
            "time": 129.8684729999998,
            "velocity": 0.6929133858267716,
            "duration": 0.19736850000001027
          },
          {
            "name": "F#3",
            "midi": 54,
            "time": 130.0658414999998,
            "velocity": 0.6929133858267716,
            "duration": 0.19736850000001027
          },
          {
            "name": "B3",
            "midi": 59,
            "time": 130.26320999999982,
            "velocity": 0.6929133858267716,
            "duration": 0.19736850000001027
          },
          {
            "name": "F#3",
            "midi": 54,
            "time": 130.46057849999983,
            "velocity": 0.6929133858267716,
            "duration": 0.19736850000001027
          },
          {
            "name": "A#3",
            "midi": 58,
            "time": 130.65794699999984,
            "velocity": 0.6929133858267716,
            "duration": 0.19736850000001027
          },
          {
            "name": "F#3",
            "midi": 54,
            "time": 130.85531549999985,
            "velocity": 0.6929133858267716,
            "duration": 0.19736850000001027
          },
          {
            "name": "B3",
            "midi": 59,
            "time": 131.05268399999986,
            "velocity": 0.6929133858267716,
            "duration": 0.19736850000001027
          },
          {
            "name": "F#3",
            "midi": 54,
            "time": 131.25005249999987,
            "velocity": 0.6929133858267716,
            "duration": 0.19736850000001027
          },
          {
            "name": "B3",
            "midi": 59,
            "time": 131.44742099999988,
            "velocity": 0.6929133858267716,
            "duration": 0.19736850000001027
          },
          {
            "name": "G3",
            "midi": 55,
            "time": 131.6447894999999,
            "velocity": 0.6929133858267716,
            "duration": 0.19736850000001027
          },
          {
            "name": "C4",
            "midi": 60,
            "time": 131.8421579999999,
            "velocity": 0.6929133858267716,
            "duration": 0.19736850000001027
          },
          {
            "name": "G3",
            "midi": 55,
            "time": 132.0395264999999,
            "velocity": 0.6929133858267716,
            "duration": 0.19736850000001027
          },
          {
            "name": "B3",
            "midi": 59,
            "time": 132.23689499999992,
            "velocity": 0.6929133858267716,
            "duration": 0.19736850000001027
          },
          {
            "name": "G3",
            "midi": 55,
            "time": 132.43426349999993,
            "velocity": 0.6929133858267716,
            "duration": 0.19736850000001027
          },
          {
            "name": "C4",
            "midi": 60,
            "time": 132.63163199999994,
            "velocity": 0.6929133858267716,
            "duration": 0.19736850000001027
          },
          {
            "name": "G3",
            "midi": 55,
            "time": 132.82900049999995,
            "velocity": 0.6929133858267716,
            "duration": 0.19736850000001027
          },
          {
            "name": "B3",
            "midi": 59,
            "time": 133.02636899999996,
            "velocity": 0.6929133858267716,
            "duration": 0.19736850000001027
          },
          {
            "name": "G3",
            "midi": 55,
            "time": 133.22373749999997,
            "velocity": 0.6929133858267716,
            "duration": 0.19736850000001027
          },
          {
            "name": "C4",
            "midi": 60,
            "time": 133.42110599999998,
            "velocity": 0.6929133858267716,
            "duration": 0.19736850000001027
          },
          {
            "name": "G3",
            "midi": 55,
            "time": 133.6184745,
            "velocity": 0.6929133858267716,
            "duration": 0.19736850000001027
          },
          {
            "name": "B3",
            "midi": 59,
            "time": 133.815843,
            "velocity": 0.6929133858267716,
            "duration": 0.19736850000001027
          },
          {
            "name": "G3",
            "midi": 55,
            "time": 134.0132115,
            "velocity": 0.6929133858267716,
            "duration": 0.19736850000001027
          },
          {
            "name": "C4",
            "midi": 60,
            "time": 134.21058000000002,
            "velocity": 0.6929133858267716,
            "duration": 0.19736850000001027
          },
          {
            "name": "E3",
            "midi": 52,
            "time": 134.40794850000003,
            "velocity": 0.8976377952755905,
            "duration": 0.19736850000001027
          },
          {
            "name": "C3",
            "midi": 48,
            "time": 134.60531700000004,
            "velocity": 0.6929133858267716,
            "duration": 0.19736850000001027
          },
          {
            "name": "G3",
            "midi": 55,
            "time": 134.80268550000005,
            "velocity": 0.8976377952755905,
            "duration": 0.19736850000001027
          },
          {
            "name": "E3",
            "midi": 52,
            "time": 135.00005400000006,
            "velocity": 0.6929133858267716,
            "duration": 0.19736850000001027
          },
          {
            "name": "C4",
            "midi": 60,
            "time": 135.19742250000007,
            "velocity": 0.8976377952755905,
            "duration": 0.19736850000001027
          },
          {
            "name": "G3",
            "midi": 55,
            "time": 135.39479100000008,
            "velocity": 0.6929133858267716,
            "duration": 0.19736850000001027
          },
          {
            "name": "E4",
            "midi": 64,
            "time": 135.5921595000001,
            "velocity": 0.8976377952755905,
            "duration": 0.19736850000001027
          },
          {
            "name": "C4",
            "midi": 60,
            "time": 135.7895280000001,
            "velocity": 0.6929133858267716,
            "duration": 0.19736850000001027
          },
          {
            "name": "G4",
            "midi": 67,
            "time": 135.9868965000001,
            "velocity": 0.8976377952755905,
            "duration": 0.19736850000001027
          },
          {
            "name": "E4",
            "midi": 64,
            "time": 136.18426500000012,
            "velocity": 0.6929133858267716,
            "duration": 0.19736850000001027
          },
          {
            "name": "C5",
            "midi": 72,
            "time": 136.38163350000013,
            "velocity": 0.8976377952755905,
            "duration": 0.19736850000001027
          },
          {
            "name": "G4",
            "midi": 67,
            "time": 136.57900200000014,
            "velocity": 0.6929133858267716,
            "duration": 0.19736850000001027
          },
          {
            "name": "E5",
            "midi": 76,
            "time": 136.77637050000016,
            "velocity": 0.8976377952755905,
            "duration": 0.19736850000001027
          },
          {
            "name": "C5",
            "midi": 72,
            "time": 136.97373900000017,
            "velocity": 0.6929133858267716,
            "duration": 0.19736850000001027
          },
          {
            "name": "G5",
            "midi": 79,
            "time": 137.17110750000018,
            "velocity": 0.8976377952755905,
            "duration": 0.19736850000001027
          },
          {
            "name": "C5",
            "midi": 72,
            "time": 137.3684760000002,
            "velocity": 0.6929133858267716,
            "duration": 0.3947369999999921
          },
          {
            "name": "C6",
            "midi": 84,
            "time": 137.3684760000002,
            "velocity": 0.6929133858267716,
            "duration": 0.3947369999999921
          },
          {
            "name": "G5",
            "midi": 79,
            "time": 137.76321300000018,
            "velocity": 0.6929133858267716,
            "duration": 0.3947369999999921
          },
          {
            "name": "E6",
            "midi": 88,
            "time": 137.76321300000018,
            "velocity": 0.6929133858267716,
            "duration": 0.3947369999999921
          },
          {
            "name": "G#5",
            "midi": 80,
            "time": 138.15795000000017,
            "velocity": 0.4881889763779528,
            "duration": 0.3947369999999921
          },
          {
            "name": "D#6",
            "midi": 87,
            "time": 138.15795000000017,
            "velocity": 0.4881889763779528,
            "duration": 0.3947369999999921
          },
          {
            "name": "C#5",
            "midi": 73,
            "time": 138.55268700000016,
            "velocity": 0.4881889763779528,
            "duration": 0.3947369999999921
          },
          {
            "name": "C#6",
            "midi": 85,
            "time": 138.55268700000016,
            "velocity": 0.4881889763779528,
            "duration": 0.3947369999999921
          },
          {
            "name": "B5",
            "midi": 83,
            "time": 138.94742400000015,
            "velocity": 0.4881889763779528,
            "duration": 0.2960527500000012
          },
          {
            "name": "A#5",
            "midi": 82,
            "time": 139.24347675000016,
            "velocity": 0.4881889763779528,
            "duration": 0.09868424999999093
          },
          {
            "name": "G#5",
            "midi": 80,
            "time": 139.34216100000015,
            "velocity": 0.4881889763779528,
            "duration": 0.2960527500000012
          },
          {
            "name": "F#5",
            "midi": 78,
            "time": 139.63821375000015,
            "velocity": 0.4881889763779528,
            "duration": 0.09868424999999093
          },
          {
            "name": "E5",
            "midi": 76,
            "time": 139.73689800000014,
            "velocity": 0.4881889763779528,
            "duration": 0.2960527500000012
          },
          {
            "name": "D#5",
            "midi": 75,
            "time": 140.03295075000014,
            "velocity": 0.4881889763779528,
            "duration": 0.09868424999999093
          },
          {
            "name": "C#5",
            "midi": 73,
            "time": 140.13163500000013,
            "velocity": 0.4881889763779528,
            "duration": 0.2960527500000012
          },
          {
            "name": "B4",
            "midi": 71,
            "time": 140.42768775000013,
            "velocity": 0.4881889763779528,
            "duration": 0.09868424999999093
          },
          {
            "name": "A#4",
            "midi": 70,
            "time": 140.52637200000012,
            "velocity": 0.4881889763779528,
            "duration": 0.2960527500000012
          },
          {
            "name": "G#4",
            "midi": 68,
            "time": 140.82242475000012,
            "velocity": 0.4881889763779528,
            "duration": 0.09868424999999093
          },
          {
            "name": "F#4",
            "midi": 66,
            "time": 140.92110900000011,
            "velocity": 0.4881889763779528,
            "duration": 0.2960527500000012
          },
          {
            "name": "E4",
            "midi": 64,
            "time": 141.21716175000012,
            "velocity": 0.4881889763779528,
            "duration": 0.09868424999999093
          },
          {
            "name": "D#4",
            "midi": 63,
            "time": 141.3158460000001,
            "velocity": 0.4881889763779528,
            "duration": 0.2960527500000012
          },
          {
            "name": "C#4",
            "midi": 61,
            "time": 141.6118987500001,
            "velocity": 0.4881889763779528,
            "duration": 0.09868424999999093
          },
          {
            "name": "B3",
            "midi": 59,
            "time": 141.7105830000001,
            "velocity": 0.4881889763779528,
            "duration": 0.2960527500000012
          },
          {
            "name": "A#3",
            "midi": 58,
            "time": 142.0066357500001,
            "velocity": 0.4881889763779528,
            "duration": 0.09868424999999093
          },
          {
            "name": "B3",
            "midi": 59,
            "time": 142.1053200000001,
            "velocity": 0.4881889763779528,
            "duration": 0.3947369999999921
          },
          {
            "name": "D#5",
            "midi": 75,
            "time": 142.79610975000008,
            "velocity": 0.5905511811023622,
            "duration": 0.04934212500000967
          },
          {
            "name": "E5",
            "midi": 76,
            "time": 142.8454518750001,
            "velocity": 0.5905511811023622,
            "duration": 0.04934212500000967
          },
          {
            "name": "F#5",
            "midi": 78,
            "time": 142.8947940000001,
            "velocity": 0.5905511811023622,
            "duration": 0.07894740000000411
          },
          {
            "name": "B4",
            "midi": 71,
            "time": 143.2895310000001,
            "velocity": 0.5905511811023622,
            "duration": 0.07894740000000411
          },
          {
            "name": "D#5",
            "midi": 75,
            "time": 143.6842680000001,
            "velocity": 0.5905511811023622,
            "duration": 0.3947369999999921
          },
          {
            "name": "E5",
            "midi": 76,
            "time": 144.07900500000008,
            "velocity": 0.5905511811023622,
            "duration": 0.19736850000001027
          },
          {
            "name": "A#4",
            "midi": 70,
            "time": 144.37505775000008,
            "velocity": 0.5905511811023622,
            "duration": 0.04934212500000967
          },
          {
            "name": "B4",
            "midi": 71,
            "time": 144.4243998750001,
            "velocity": 0.5905511811023622,
            "duration": 0.04934212500000967
          },
          {
            "name": "C#5",
            "midi": 73,
            "time": 144.4737420000001,
            "velocity": 0.5905511811023622,
            "duration": 0.07894740000000411
          },
          {
            "name": "G#5",
            "midi": 80,
            "time": 144.8684790000001,
            "velocity": 0.5905511811023622,
            "duration": 0.07894740000000411
          },
          {
            "name": "F#5",
            "midi": 78,
            "time": 145.26321600000009,
            "velocity": 0.5905511811023622,
            "duration": 0.3947369999999921
          },
          {
            "name": "B5",
            "midi": 83,
            "time": 145.65795300000008,
            "velocity": 0.5905511811023622,
            "duration": 0.19736850000001027
          },
          {
            "name": "D#5",
            "midi": 75,
            "time": 145.95400575000008,
            "velocity": 0.5905511811023622,
            "duration": 0.04934212500000967
          },
          {
            "name": "E5",
            "midi": 76,
            "time": 146.0033478750001,
            "velocity": 0.5905511811023622,
            "duration": 0.04934212500000967
          },
          {
            "name": "F#5",
            "midi": 78,
            "time": 146.0526900000001,
            "velocity": 0.5905511811023622,
            "duration": 0.07894740000000411
          },
          {
            "name": "B4",
            "midi": 71,
            "time": 146.4474270000001,
            "velocity": 0.5905511811023622,
            "duration": 0.07894740000000411
          },
          {
            "name": "F#5",
            "midi": 78,
            "time": 146.84216400000008,
            "velocity": 0.5905511811023622,
            "duration": 0.3947369999999921
          },
          {
            "name": "E5",
            "midi": 76,
            "time": 147.23690100000007,
            "velocity": 0.5905511811023622,
            "duration": 0.19736850000001027
          },
          {
            "name": "A#4",
            "midi": 70,
            "time": 147.53295375000008,
            "velocity": 0.5905511811023622,
            "duration": 0.04934212500000967
          },
          {
            "name": "B4",
            "midi": 71,
            "time": 147.58229587500009,
            "velocity": 0.5905511811023622,
            "duration": 0.04934212500000967
          },
          {
            "name": "C#5",
            "midi": 73,
            "time": 147.6316380000001,
            "velocity": 0.5905511811023622,
            "duration": 0.07894740000000411
          },
          {
            "name": "G#5",
            "midi": 80,
            "time": 148.0263750000001,
            "velocity": 0.5905511811023622,
            "duration": 0.07894740000000411
          },
          {
            "name": "F#5",
            "midi": 78,
            "time": 148.42111200000008,
            "velocity": 0.5905511811023622,
            "duration": 0.3947369999999921
          },
          {
            "name": "B5",
            "midi": 83,
            "time": 148.81584900000007,
            "velocity": 0.5905511811023622,
            "duration": 0.19736850000001027
          },
          {
            "name": "C#6",
            "midi": 85,
            "time": 149.11190175000007,
            "velocity": 0.4881889763779528,
            "duration": 0.04934212500000967
          },
          {
            "name": "D#6",
            "midi": 87,
            "time": 149.16124387500008,
            "velocity": 0.4881889763779528,
            "duration": 0.04934212500000967
          },
          {
            "name": "E6",
            "midi": 88,
            "time": 149.2105860000001,
            "velocity": 0.4881889763779528,
            "duration": 0.07894740000000411
          },
          {
            "name": "G5",
            "midi": 79,
            "time": 149.60532300000008,
            "velocity": 0.4881889763779528,
            "duration": 0.07894740000000411
          },
          {
            "name": "B5",
            "midi": 83,
            "time": 149.90137575000008,
            "velocity": 0.4881889763779528,
            "duration": 0.04934212500000967
          },
          {
            "name": "C#6",
            "midi": 85,
            "time": 149.9507178750001,
            "velocity": 0.4881889763779528,
            "duration": 0.04934212500000967
          },
          {
            "name": "D#6",
            "midi": 87,
            "time": 150.0000600000001,
            "velocity": 0.4881889763779528,
            "duration": 0.07894740000000411
          },
          {
            "name": "F#5",
            "midi": 78,
            "time": 150.3947970000001,
            "velocity": 0.4881889763779528,
            "duration": 0.07894740000000411
          },
          {
            "name": "A#5",
            "midi": 82,
            "time": 150.6908497500001,
            "velocity": 0.4881889763779528,
            "duration": 0.04934212500000967
          },
          {
            "name": "B5",
            "midi": 83,
            "time": 150.7401918750001,
            "velocity": 0.4881889763779528,
            "duration": 0.04934212500000967
          },
          {
            "name": "C#6",
            "midi": 85,
            "time": 150.78953400000012,
            "velocity": 0.4881889763779528,
            "duration": 0.07894740000000411
          },
          {
            "name": "E5",
            "midi": 76,
            "time": 151.1842710000001,
            "velocity": 0.4881889763779528,
            "duration": 0.07894740000000411
          },
          {
            "name": "D#5",
            "midi": 75,
            "time": 151.4803237500001,
            "velocity": 0.4881889763779528,
            "duration": 0.04934212500000967
          },
          {
            "name": "F#5",
            "midi": 78,
            "time": 151.52966587500012,
            "velocity": 0.4881889763779528,
            "duration": 0.04934212500000967
          },
          {
            "name": "B5",
            "midi": 83,
            "time": 151.57900800000013,
            "velocity": 0.4881889763779528,
            "duration": 0.7894740000000127
          },
          {
            "name": "C#5",
            "midi": 73,
            "time": 152.26979775000012,
            "velocity": 0.4881889763779528,
            "duration": 0.04934212500000967
          },
          {
            "name": "D#5",
            "midi": 75,
            "time": 152.31913987500013,
            "velocity": 0.4881889763779528,
            "duration": 0.04934212500000967
          },
          {
            "name": "E5",
            "midi": 76,
            "time": 152.36848200000014,
            "velocity": 0.4881889763779528,
            "duration": 0.07894740000000411
          },
          {
            "name": "G4",
            "midi": 67,
            "time": 152.76321900000013,
            "velocity": 0.4881889763779528,
            "duration": 0.07894740000000411
          },
          {
            "name": "B4",
            "midi": 71,
            "time": 153.05927175000014,
            "velocity": 0.4881889763779528,
            "duration": 0.04934212500000967
          },
          {
            "name": "C#5",
            "midi": 73,
            "time": 153.10861387500015,
            "velocity": 0.4881889763779528,
            "duration": 0.04934212500000967
          },
          {
            "name": "D#5",
            "midi": 75,
            "time": 153.15795600000015,
            "velocity": 0.4881889763779528,
            "duration": 0.07894740000000411
          },
          {
            "name": "F#4",
            "midi": 66,
            "time": 153.55269300000015,
            "velocity": 0.4881889763779528,
            "duration": 0.07894740000000411
          },
          {
            "name": "A#4",
            "midi": 70,
            "time": 153.84874575000015,
            "velocity": 0.4881889763779528,
            "duration": 0.04934212500000967
          },
          {
            "name": "B4",
            "midi": 71,
            "time": 153.89808787500016,
            "velocity": 0.4881889763779528,
            "duration": 0.04934212500000967
          },
          {
            "name": "C#5",
            "midi": 73,
            "time": 153.94743000000017,
            "velocity": 0.4881889763779528,
            "duration": 0.07894740000000411
          },
          {
            "name": "E4",
            "midi": 64,
            "time": 154.34216700000016,
            "velocity": 0.4881889763779528,
            "duration": 0.07894740000000411
          },
          {
            "name": "D#4",
            "midi": 63,
            "time": 154.63821975000016,
            "velocity": 0.4881889763779528,
            "duration": 0.04934212500000967
          },
          {
            "name": "F#4",
            "midi": 66,
            "time": 154.68756187500017,
            "velocity": 0.4881889763779528,
            "duration": 0.04934212500000967
          },
          {
            "name": "B4",
            "midi": 71,
            "time": 154.73690400000018,
            "velocity": 0.4881889763779528,
            "duration": 0.7894740000000127
          },
          {
            "name": "A#5",
            "midi": 82,
            "time": 155.42769375000017,
            "velocity": 0.3858267716535433,
            "duration": 0.04934212500000967
          },
          {
            "name": "B5",
            "midi": 83,
            "time": 155.47703587500018,
            "velocity": 0.3858267716535433,
            "duration": 0.04934212500000967
          },
          {
            "name": "C#6",
            "midi": 85,
            "time": 155.5263780000002,
            "velocity": 0.3858267716535433,
            "duration": 0.07894740000000411
          },
          {
            "name": "F#5",
            "midi": 78,
            "time": 155.92111500000019,
            "velocity": 0.3858267716535433,
            "duration": 0.39473700000002054
          },
          {
            "name": "B5",
            "midi": 83,
            "time": 156.2171677500002,
            "velocity": 0.3858267716535433,
            "duration": 0.04934212500000967
          },
          {
            "name": "C#6",
            "midi": 85,
            "time": 156.2665098750002,
            "velocity": 0.3858267716535433,
            "duration": 0.04934212500000967
          },
          {
            "name": "D#6",
            "midi": 87,
            "time": 156.3158520000002,
            "velocity": 0.3858267716535433,
            "duration": 0.7894740000000127
          },
          {
            "name": "A#4",
            "midi": 70,
            "time": 157.0066417500002,
            "velocity": 0.3858267716535433,
            "duration": 0.04934212500000967
          },
          {
            "name": "B4",
            "midi": 71,
            "time": 157.0559838750002,
            "velocity": 0.3858267716535433,
            "duration": 0.04934212500000967
          },
          {
            "name": "C#5",
            "midi": 73,
            "time": 157.10532600000022,
            "velocity": 0.3858267716535433,
            "duration": 0.07894740000000411
          },
          {
            "name": "F#4",
            "midi": 66,
            "time": 157.5000630000002,
            "velocity": 0.3858267716535433,
            "duration": 0.07894740000000411
          },
          {
            "name": "B4",
            "midi": 71,
            "time": 157.8948000000002,
            "velocity": 0.3858267716535433,
            "duration": 0.7894740000000127
          },
          {
            "name": "A#5",
            "midi": 82,
            "time": 158.5855897500002,
            "velocity": 0.3858267716535433,
            "duration": 0.04934212500000967
          },
          {
            "name": "B5",
            "midi": 83,
            "time": 158.6349318750002,
            "velocity": 0.3858267716535433,
            "duration": 0.04934212500000967
          },
          {
            "name": "C#6",
            "midi": 85,
            "time": 158.68427400000022,
            "velocity": 0.3858267716535433,
            "duration": 0.07894740000000411
          },
          {
            "name": "F#5",
            "midi": 78,
            "time": 159.0790110000002,
            "velocity": 0.3858267716535433,
            "duration": 0.07894740000000411
          },
          {
            "name": "B5",
            "midi": 83,
            "time": 159.3750637500002,
            "velocity": 0.3858267716535433,
            "duration": 0.04934212500000967
          },
          {
            "name": "C#6",
            "midi": 85,
            "time": 159.42440587500022,
            "velocity": 0.3858267716535433,
            "duration": 0.04934212500000967
          },
          {
            "name": "D#6",
            "midi": 87,
            "time": 159.47374800000023,
            "velocity": 0.3858267716535433,
            "duration": 0.7894740000000127
          },
          {
            "name": "A#4",
            "midi": 70,
            "time": 160.16453775000022,
            "velocity": 0.3858267716535433,
            "duration": 0.04934212500000967
          },
          {
            "name": "B4",
            "midi": 71,
            "time": 160.21387987500023,
            "velocity": 0.3858267716535433,
            "duration": 0.04934212500000967
          },
          {
            "name": "C#5",
            "midi": 73,
            "time": 160.26322200000024,
            "velocity": 0.3858267716535433,
            "duration": 0.07894740000000411
          },
          {
            "name": "F#4",
            "midi": 66,
            "time": 160.65795900000023,
            "velocity": 0.3858267716535433,
            "duration": 0.07894740000000411
          },
          {
            "name": "B4",
            "midi": 71,
            "time": 161.05269600000022,
            "velocity": 0.3858267716535433,
            "duration": 0.3947369999999921
          },
          {
            "name": "C#5",
            "midi": 73,
            "time": 161.8421700000002,
            "velocity": 0.7952755905511811,
            "duration": 0.3947369999999921
          },
          {
            "name": "E5",
            "midi": 76,
            "time": 161.8421700000002,
            "velocity": 0.7952755905511811,
            "duration": 0.3947369999999921
          },
          {
            "name": "F#5",
            "midi": 78,
            "time": 161.8421700000002,
            "velocity": 0.7952755905511811,
            "duration": 0.3947369999999921
          },
          {
            "name": "A#5",
            "midi": 82,
            "time": 161.8421700000002,
            "velocity": 0.7952755905511811,
            "duration": 0.3947369999999921
          },
          {
            "name": "B4",
            "midi": 71,
            "time": 162.6316440000002,
            "velocity": 0.7952755905511811,
            "duration": 0.3947369999999921
          },
          {
            "name": "D#5",
            "midi": 75,
            "time": 162.6316440000002,
            "velocity": 0.7952755905511811,
            "duration": 0.3947369999999921
          },
          {
            "name": "F#5",
            "midi": 78,
            "time": 162.6316440000002,
            "velocity": 0.7952755905511811,
            "duration": 0.3947369999999921
          },
          {
            "name": "B5",
            "midi": 83,
            "time": 162.6316440000002,
            "velocity": 0.7952755905511811,
            "duration": 0.3947369999999921
          },
          {
            "name": "G#3",
            "midi": 56,
            "time": 164.2105920000002,
            "velocity": 0.6929133858267716,
            "duration": 1.1842110000000048
          },
          {
            "name": "B3",
            "midi": 59,
            "time": 164.2105920000002,
            "velocity": 0.6929133858267716,
            "duration": 1.1842110000000048
          },
          {
            "name": "E4",
            "midi": 64,
            "time": 164.2105920000002,
            "velocity": 0.6929133858267716,
            "duration": 1.1842110000000048
          },
          {
            "name": "E3",
            "midi": 52,
            "time": 165.3948030000002,
            "velocity": 0.6929133858267716,
            "duration": 0.13075663124999437
          },
          {
            "name": "G#3",
            "midi": 56,
            "time": 165.5255596312502,
            "velocity": 0.6929133858267716,
            "duration": 0.13240136875000985
          },
          {
            "name": "B3",
            "midi": 59,
            "time": 165.6579610000002,
            "velocity": 0.6929133858267716,
            "duration": 0.1315789999999879
          },
          {
            "name": "E4",
            "midi": 64,
            "time": 165.7895400000002,
            "velocity": 0.6929133858267716,
            "duration": 0.19736850000001027
          },
          {
            "name": "E4",
            "midi": 64,
            "time": 166.1842770000002,
            "velocity": 0.6929133858267716,
            "duration": 0.13075663124999437
          },
          {
            "name": "G#4",
            "midi": 68,
            "time": 166.3150336312502,
            "velocity": 0.6929133858267716,
            "duration": 0.13240136875000985
          },
          {
            "name": "B4",
            "midi": 71,
            "time": 166.4474350000002,
            "velocity": 0.6929133858267716,
            "duration": 0.1315789999999879
          },
          {
            "name": "E5",
            "midi": 76,
            "time": 166.5790140000002,
            "velocity": 0.6929133858267716,
            "duration": 0.19736850000001027
          },
          {
            "name": "E5",
            "midi": 76,
            "time": 166.97375100000022,
            "velocity": 0.6929133858267716,
            "duration": 0.13075663124999437
          },
          {
            "name": "G#5",
            "midi": 80,
            "time": 167.10450763125021,
            "velocity": 0.6929133858267716,
            "duration": 0.13240136875000985
          },
          {
            "name": "B5",
            "midi": 83,
            "time": 167.23690900000022,
            "velocity": 0.6929133858267716,
            "duration": 0.1315789999999879
          },
          {
            "name": "E6",
            "midi": 88,
            "time": 167.3684880000002,
            "velocity": 0.6929133858267716,
            "duration": 0.19736850000001027
          },
          {
            "name": "E6",
            "midi": 88,
            "time": 167.56585650000022,
            "velocity": 0.6929133858267716,
            "duration": 0.038651331250008525
          },
          {
            "name": "D#6",
            "midi": 87,
            "time": 167.76322500000023,
            "velocity": 0.6929133858267716,
            "duration": 0.038651331250008525
          },
          {
            "name": "C#6",
            "midi": 85,
            "time": 167.96059350000024,
            "velocity": 0.6929133858267716,
            "duration": 0.038651331250008525
          },
          {
            "name": "B5",
            "midi": 83,
            "time": 168.15796200000025,
            "velocity": 0.6929133858267716,
            "duration": 0.038651331250008525
          },
          {
            "name": "A5",
            "midi": 81,
            "time": 168.35533050000026,
            "velocity": 0.6929133858267716,
            "duration": 0.038651331250008525
          },
          {
            "name": "G#5",
            "midi": 80,
            "time": 168.55269900000027,
            "velocity": 0.6929133858267716,
            "duration": 0.038651331250008525
          },
          {
            "name": "F#5",
            "midi": 78,
            "time": 168.75006750000028,
            "velocity": 0.6929133858267716,
            "duration": 0.038651331250008525
          },
          {
            "name": "E5",
            "midi": 76,
            "time": 168.9474360000003,
            "velocity": 0.6929133858267716,
            "duration": 0.038651331250008525
          },
          {
            "name": "D#5",
            "midi": 75,
            "time": 169.1448045000003,
            "velocity": 0.6929133858267716,
            "duration": 0.038651331250008525
          },
          {
            "name": "C#5",
            "midi": 73,
            "time": 169.34217300000032,
            "velocity": 0.6929133858267716,
            "duration": 0.038651331250008525
          },
          {
            "name": "B4",
            "midi": 71,
            "time": 169.53954150000033,
            "velocity": 0.6929133858267716,
            "duration": 0.038651331250008525
          },
          {
            "name": "A4",
            "midi": 69,
            "time": 169.73691000000034,
            "velocity": 0.6929133858267716,
            "duration": 0.038651331250008525
          },
          {
            "name": "G#4",
            "midi": 68,
            "time": 169.93427850000035,
            "velocity": 0.6929133858267716,
            "duration": 0.038651331250008525
          },
          {
            "name": "F#4",
            "midi": 66,
            "time": 170.13164700000036,
            "velocity": 0.6929133858267716,
            "duration": 0.038651331250008525
          },
          {
            "name": "E4",
            "midi": 64,
            "time": 170.32901550000037,
            "velocity": 0.6929133858267716,
            "duration": 0.038651331250008525
          },
          {
            "name": "D#3",
            "midi": 51,
            "time": 170.52638400000038,
            "velocity": 0.8976377952755905,
            "duration": 1.1842110000000048
          },
          {
            "name": "F#3",
            "midi": 54,
            "time": 170.52638400000038,
            "velocity": 0.8976377952755905,
            "duration": 1.1842110000000048
          },
          {
            "name": "B3",
            "midi": 59,
            "time": 170.52638400000038,
            "velocity": 0.8976377952755905,
            "duration": 1.1842110000000048
          },
          {
            "name": "B2",
            "midi": 47,
            "time": 171.71059500000038,
            "velocity": 0.6929133858267716,
            "duration": 0.13075663124999437
          },
          {
            "name": "D#3",
            "midi": 51,
            "time": 171.84135163125038,
            "velocity": 0.6929133858267716,
            "duration": 0.13240136875000985
          },
          {
            "name": "F#3",
            "midi": 54,
            "time": 171.97375300000039,
            "velocity": 0.6929133858267716,
            "duration": 0.1315789999999879
          },
          {
            "name": "B3",
            "midi": 59,
            "time": 172.10533200000037,
            "velocity": 0.6929133858267716,
            "duration": 0.19736850000001027
          },
          {
            "name": "B3",
            "midi": 59,
            "time": 172.5000690000004,
            "velocity": 0.6929133858267716,
            "duration": 0.13075663124999437
          },
          {
            "name": "D#4",
            "midi": 63,
            "time": 172.6308256312504,
            "velocity": 0.6929133858267716,
            "duration": 0.13240136875000985
          },
          {
            "name": "F#4",
            "midi": 66,
            "time": 172.7632270000004,
            "velocity": 0.6929133858267716,
            "duration": 0.1315789999999879
          },
          {
            "name": "B4",
            "midi": 71,
            "time": 172.8948060000004,
            "velocity": 0.6929133858267716,
            "duration": 0.19736850000001027
          },
          {
            "name": "B4",
            "midi": 71,
            "time": 173.2895430000004,
            "velocity": 0.6929133858267716,
            "duration": 0.13075663124999437
          },
          {
            "name": "D#5",
            "midi": 75,
            "time": 173.4202996312504,
            "velocity": 0.6929133858267716,
            "duration": 0.13240136875000985
          },
          {
            "name": "F#5",
            "midi": 78,
            "time": 173.5527010000004,
            "velocity": 0.6929133858267716,
            "duration": 0.1315789999999879
          },
          {
            "name": "B5",
            "midi": 83,
            "time": 173.6842800000004,
            "velocity": 0.6929133858267716,
            "duration": 0.19736850000001027
          },
          {
            "name": "B5",
            "midi": 83,
            "time": 173.8816485000004,
            "velocity": 0.6929133858267716,
            "duration": 0.038651331250008525
          },
          {
            "name": "A5",
            "midi": 81,
            "time": 174.07901700000042,
            "velocity": 0.6929133858267716,
            "duration": 0.038651331250008525
          },
          {
            "name": "G#5",
            "midi": 80,
            "time": 174.27638550000043,
            "velocity": 0.6929133858267716,
            "duration": 0.038651331250008525
          },
          {
            "name": "F#5",
            "midi": 78,
            "time": 174.47375400000044,
            "velocity": 0.6929133858267716,
            "duration": 0.038651331250008525
          },
          {
            "name": "E5",
            "midi": 76,
            "time": 174.67112250000045,
            "velocity": 0.6929133858267716,
            "duration": 0.038651331250008525
          },
          {
            "name": "D#5",
            "midi": 75,
            "time": 174.86849100000046,
            "velocity": 0.6929133858267716,
            "duration": 0.038651331250008525
          },
          {
            "name": "C#5",
            "midi": 73,
            "time": 175.06585950000047,
            "velocity": 0.6929133858267716,
            "duration": 0.038651331250008525
          },
          {
            "name": "B4",
            "midi": 71,
            "time": 175.26322800000048,
            "velocity": 0.6929133858267716,
            "duration": 0.038651331250008525
          },
          {
            "name": "A4",
            "midi": 69,
            "time": 175.4605965000005,
            "velocity": 0.6929133858267716,
            "duration": 0.038651331250008525
          },
          {
            "name": "G#4",
            "midi": 68,
            "time": 175.6579650000005,
            "velocity": 0.6929133858267716,
            "duration": 0.038651331250008525
          },
          {
            "name": "F#4",
            "midi": 66,
            "time": 175.8553335000005,
            "velocity": 0.6929133858267716,
            "duration": 0.038651331250008525
          },
          {
            "name": "E4",
            "midi": 64,
            "time": 176.05270200000052,
            "velocity": 0.6929133858267716,
            "duration": 0.038651331250008525
          },
          {
            "name": "D#4",
            "midi": 63,
            "time": 176.25007050000053,
            "velocity": 0.6929133858267716,
            "duration": 0.038651331250008525
          },
          {
            "name": "C#4",
            "midi": 61,
            "time": 176.44743900000054,
            "velocity": 0.6929133858267716,
            "duration": 0.038651331250008525
          },
          {
            "name": "B3",
            "midi": 59,
            "time": 176.64480750000055,
            "velocity": 0.6929133858267716,
            "duration": 0.038651331250008525
          },
          {
            "name": "E4",
            "midi": 64,
            "time": 176.84217600000056,
            "velocity": 0.8976377952755905,
            "duration": 0.7894740000000127
          },
          {
            "name": "G#4",
            "midi": 68,
            "time": 177.53296575000056,
            "velocity": 0.4881889763779528,
            "duration": 0.04934212500000967
          },
          {
            "name": "A4",
            "midi": 69,
            "time": 177.58230787500057,
            "velocity": 0.4881889763779528,
            "duration": 0.04934212500000967
          },
          {
            "name": "B4",
            "midi": 71,
            "time": 177.63165000000058,
            "velocity": 0.4881889763779528,
            "duration": 0.07894740000000411
          },
          {
            "name": "E4",
            "midi": 64,
            "time": 178.02638700000057,
            "velocity": 0.4881889763779528,
            "duration": 0.07894740000000411
          },
          {
            "name": "A4",
            "midi": 69,
            "time": 178.42112400000056,
            "velocity": 0.4881889763779528,
            "duration": 0.740131875000003
          },
          {
            "name": "A4",
            "midi": 69,
            "time": 179.11191375000055,
            "velocity": 0.6929133858267716,
            "duration": 0.09868425000001935
          },
          {
            "name": "B4",
            "midi": 71,
            "time": 179.16125587500056,
            "velocity": 0.6929133858267716,
            "duration": 0.04934212500000967
          },
          {
            "name": "C#4",
            "midi": 61,
            "time": 179.21059800000057,
            "velocity": 0.6929133858267716,
            "duration": 0.07894740000000411
          },
          {
            "name": "C#5",
            "midi": 73,
            "time": 179.21059800000057,
            "velocity": 0.6929133858267716,
            "duration": 0.07894740000000411
          },
          {
            "name": "D#4",
            "midi": 63,
            "time": 179.60533500000057,
            "velocity": 0.6929133858267716,
            "duration": 0.07894740000000411
          },
          {
            "name": "D#5",
            "midi": 75,
            "time": 179.60533500000057,
            "velocity": 0.6929133858267716,
            "duration": 0.07894740000000411
          },
          {
            "name": "E4",
            "midi": 64,
            "time": 180.00007200000056,
            "velocity": 0.6929133858267716,
            "duration": 0.7894740000000127
          },
          {
            "name": "E5",
            "midi": 76,
            "time": 180.00007200000056,
            "velocity": 0.6929133858267716,
            "duration": 0.7894740000000127
          },
          {
            "name": "G#4",
            "midi": 68,
            "time": 180.69086175000055,
            "velocity": 0.6929133858267716,
            "duration": 0.04934212500000967
          },
          {
            "name": "A4",
            "midi": 69,
            "time": 180.74020387500056,
            "velocity": 0.6929133858267716,
            "duration": 0.04934212500000967
          },
          {
            "name": "B4",
            "midi": 71,
            "time": 180.78954600000057,
            "velocity": 0.6929133858267716,
            "duration": 0.07894740000000411
          },
          {
            "name": "E4",
            "midi": 64,
            "time": 181.18428300000056,
            "velocity": 0.6929133858267716,
            "duration": 0.07894740000000411
          },
          {
            "name": "A4",
            "midi": 69,
            "time": 181.57902000000055,
            "velocity": 0.6929133858267716,
            "duration": 0.740131875000003
          },
          {
            "name": "A4",
            "midi": 69,
            "time": 182.26980975000055,
            "velocity": 0.6929133858267716,
            "duration": 0.09868425000001935
          },
          {
            "name": "B4",
            "midi": 71,
            "time": 182.31915187500056,
            "velocity": 0.6929133858267716,
            "duration": 0.04934212500000967
          },
          {
            "name": "C#4",
            "midi": 61,
            "time": 182.36849400000057,
            "velocity": 0.6929133858267716,
            "duration": 0.07894740000000411
          },
          {
            "name": "C#5",
            "midi": 73,
            "time": 182.36849400000057,
            "velocity": 0.6929133858267716,
            "duration": 0.07894740000000411
          },
          {
            "name": "D#4",
            "midi": 63,
            "time": 182.76323100000056,
            "velocity": 0.6929133858267716,
            "duration": 0.07894740000000411
          },
          {
            "name": "D#5",
            "midi": 75,
            "time": 182.76323100000056,
            "velocity": 0.6929133858267716,
            "duration": 0.07894740000000411
          },
          {
            "name": "E4",
            "midi": 64,
            "time": 183.15796800000055,
            "velocity": 0.6929133858267716,
            "duration": 0.7894740000000127
          },
          {
            "name": "E5",
            "midi": 76,
            "time": 183.15796800000055,
            "velocity": 0.6929133858267716,
            "duration": 0.7894740000000127
          },
          {
            "name": "C#4",
            "midi": 61,
            "time": 183.94744200000056,
            "velocity": 0.6929133858267716,
            "duration": 0.07894740000000411
          },
          {
            "name": "C#5",
            "midi": 73,
            "time": 183.94744200000056,
            "velocity": 0.6929133858267716,
            "duration": 0.07894740000000411
          },
          {
            "name": "D#4",
            "midi": 63,
            "time": 184.34217900000056,
            "velocity": 0.6929133858267716,
            "duration": 0.07894740000000411
          },
          {
            "name": "D#5",
            "midi": 75,
            "time": 184.34217900000056,
            "velocity": 0.6929133858267716,
            "duration": 0.07894740000000411
          },
          {
            "name": "E4",
            "midi": 64,
            "time": 184.73691600000055,
            "velocity": 0.6929133858267716,
            "duration": 0.7894740000000127
          },
          {
            "name": "E5",
            "midi": 76,
            "time": 184.73691600000055,
            "velocity": 0.6929133858267716,
            "duration": 0.7894740000000127
          },
          {
            "name": "C#4",
            "midi": 61,
            "time": 185.52639000000056,
            "velocity": 0.6929133858267716,
            "duration": 0.07894740000000411
          },
          {
            "name": "C#5",
            "midi": 73,
            "time": 185.52639000000056,
            "velocity": 0.6929133858267716,
            "duration": 0.07894740000000411
          },
          {
            "name": "D#4",
            "midi": 63,
            "time": 185.92112700000055,
            "velocity": 0.6929133858267716,
            "duration": 0.07894740000000411
          },
          {
            "name": "D#5",
            "midi": 75,
            "time": 185.92112700000055,
            "velocity": 0.6929133858267716,
            "duration": 0.07894740000000411
          },
          {
            "name": "E4",
            "midi": 64,
            "time": 186.31586400000054,
            "velocity": 0.6929133858267716,
            "duration": 0.19736850000001027
          },
          {
            "name": "E5",
            "midi": 76,
            "time": 186.31586400000054,
            "velocity": 0.6929133858267716,
            "duration": 0.19736850000001027
          },
          {
            "name": "E5",
            "midi": 76,
            "time": 186.51323250000056,
            "velocity": 0.4881889763779528,
            "duration": 0.19736850000001027
          },
          {
            "name": "F#5",
            "midi": 78,
            "time": 186.71060100000057,
            "velocity": 0.4881889763779528,
            "duration": 0.19736850000001027
          },
          {
            "name": "G#5",
            "midi": 80,
            "time": 186.90796950000058,
            "velocity": 0.4881889763779528,
            "duration": 0.19736850000001027
          },
          {
            "name": "A5",
            "midi": 81,
            "time": 187.1053380000006,
            "velocity": 0.4881889763779528,
            "duration": 0.19736850000001027
          },
          {
            "name": "B5",
            "midi": 83,
            "time": 187.3027065000006,
            "velocity": 0.4881889763779528,
            "duration": 0.19736850000001027
          },
          {
            "name": "C#6",
            "midi": 85,
            "time": 187.5000750000006,
            "velocity": 0.4881889763779528,
            "duration": 0.19736850000001027
          },
          {
            "name": "D#6",
            "midi": 87,
            "time": 187.69744350000062,
            "velocity": 0.4881889763779528,
            "duration": 0.19736850000001027
          },
          {
            "name": "E6",
            "midi": 88,
            "time": 187.89481200000063,
            "velocity": 0.4881889763779528,
            "duration": 0.19736850000001027
          },
          {
            "name": "D#6",
            "midi": 87,
            "time": 188.09218050000064,
            "velocity": 0.4881889763779528,
            "duration": 0.19736850000001027
          },
          {
            "name": "C#6",
            "midi": 85,
            "time": 188.28954900000065,
            "velocity": 0.4881889763779528,
            "duration": 0.19736850000001027
          },
          {
            "name": "B5",
            "midi": 83,
            "time": 188.48691750000066,
            "velocity": 0.4881889763779528,
            "duration": 0.19736850000001027
          },
          {
            "name": "A5",
            "midi": 81,
            "time": 188.68428600000067,
            "velocity": 0.4881889763779528,
            "duration": 0.19736850000001027
          },
          {
            "name": "G#5",
            "midi": 80,
            "time": 188.88165450000068,
            "velocity": 0.4881889763779528,
            "duration": 0.19736850000001027
          },
          {
            "name": "F#5",
            "midi": 78,
            "time": 189.0790230000007,
            "velocity": 0.4881889763779528,
            "duration": 0.19736850000001027
          },
          {
            "name": "E5",
            "midi": 76,
            "time": 189.2763915000007,
            "velocity": 0.4881889763779528,
            "duration": 0.19736850000001027
          },
          {
            "name": "A4",
            "midi": 69,
            "time": 189.4737600000007,
            "velocity": 0.4881889763779528,
            "duration": 1.1842110000000048
          },
          {
            "name": "F#5",
            "midi": 78,
            "time": 189.4737600000007,
            "velocity": 0.4881889763779528,
            "duration": 1.1842110000000048
          },
          {
            "name": "G#4",
            "midi": 68,
            "time": 190.6579710000007,
            "velocity": 0.4881889763779528,
            "duration": 0.3947369999999921
          },
          {
            "name": "G#5",
            "midi": 80,
            "time": 190.6579710000007,
            "velocity": 0.4881889763779528,
            "duration": 0.3947369999999921
          },
          {
            "name": "B5",
            "midi": 83,
            "time": 191.0527080000007,
            "velocity": 0.4881889763779528,
            "duration": 0.3947369999999921
          },
          {
            "name": "A5",
            "midi": 81,
            "time": 191.4474450000007,
            "velocity": 0.4881889763779528,
            "duration": 0.3947369999999921
          },
          {
            "name": "G#4",
            "midi": 68,
            "time": 191.8421820000007,
            "velocity": 0.4881889763779528,
            "duration": 0.3947369999999921
          },
          {
            "name": "G#5",
            "midi": 80,
            "time": 191.8421820000007,
            "velocity": 0.4881889763779528,
            "duration": 0.3947369999999921
          },
          {
            "name": "A4",
            "midi": 69,
            "time": 192.23691900000068,
            "velocity": 0.4881889763779528,
            "duration": 0.3947369999999921
          },
          {
            "name": "F#5",
            "midi": 78,
            "time": 192.23691900000068,
            "velocity": 0.4881889763779528,
            "duration": 0.3947369999999921
          },
          {
            "name": "E5",
            "midi": 76,
            "time": 192.63165600000067,
            "velocity": 0.4881889763779528,
            "duration": 0.19736850000001027
          },
          {
            "name": "E5",
            "midi": 76,
            "time": 192.82902450000068,
            "velocity": 0.4881889763779528,
            "duration": 0.19736850000001027
          },
          {
            "name": "G#5",
            "midi": 80,
            "time": 193.0263930000007,
            "velocity": 0.4881889763779528,
            "duration": 0.19736850000001027
          },
          {
            "name": "A5",
            "midi": 81,
            "time": 193.2237615000007,
            "velocity": 0.4881889763779528,
            "duration": 0.19736850000001027
          },
          {
            "name": "A#5",
            "midi": 82,
            "time": 193.42113000000072,
            "velocity": 0.4881889763779528,
            "duration": 0.19736850000001027
          },
          {
            "name": "B5",
            "midi": 83,
            "time": 193.61849850000073,
            "velocity": 0.4881889763779528,
            "duration": 0.19736850000001027
          },
          {
            "name": "C#6",
            "midi": 85,
            "time": 193.81586700000074,
            "velocity": 0.4881889763779528,
            "duration": 0.19736850000001027
          },
          {
            "name": "B5",
            "midi": 83,
            "time": 194.01323550000075,
            "velocity": 0.4881889763779528,
            "duration": 0.19736850000001027
          },
          {
            "name": "A5",
            "midi": 81,
            "time": 194.21060400000076,
            "velocity": 0.4881889763779528,
            "duration": 0.19736850000001027
          },
          {
            "name": "G#5",
            "midi": 80,
            "time": 194.40797250000077,
            "velocity": 0.4881889763779528,
            "duration": 0.19736850000001027
          },
          {
            "name": "F#5",
            "midi": 78,
            "time": 194.60534100000078,
            "velocity": 0.4881889763779528,
            "duration": 0.19736850000001027
          },
          {
            "name": "E5",
            "midi": 76,
            "time": 194.8027095000008,
            "velocity": 0.4881889763779528,
            "duration": 0.19736850000001027
          },
          {
            "name": "D#5",
            "midi": 75,
            "time": 195.0000780000008,
            "velocity": 0.4881889763779528,
            "duration": 0.19736850000001027
          },
          {
            "name": "C#5",
            "midi": 73,
            "time": 195.1974465000008,
            "velocity": 0.4881889763779528,
            "duration": 0.19736850000001027
          },
          {
            "name": "B4",
            "midi": 71,
            "time": 195.39481500000082,
            "velocity": 0.4881889763779528,
            "duration": 0.19736850000001027
          },
          {
            "name": "A#4",
            "midi": 70,
            "time": 195.59218350000083,
            "velocity": 0.4881889763779528,
            "duration": 0.19736850000001027
          },
          {
            "name": "A4",
            "midi": 69,
            "time": 195.78955200000084,
            "velocity": 0.4881889763779528,
            "duration": 1.1842110000000048
          },
          {
            "name": "G#4",
            "midi": 68,
            "time": 196.97376300000084,
            "velocity": 0.4881889763779528,
            "duration": 0.3947369999999921
          },
          {
            "name": "B4",
            "midi": 71,
            "time": 197.36850000000084,
            "velocity": 0.4881889763779528,
            "duration": 0.3947369999999921
          },
          {
            "name": "A4",
            "midi": 69,
            "time": 197.76323700000083,
            "velocity": 0.4881889763779528,
            "duration": 0.3947369999999921
          },
          {
            "name": "G#4",
            "midi": 68,
            "time": 198.15797400000082,
            "velocity": 0.4881889763779528,
            "duration": 0.3947369999999921
          },
          {
            "name": "F#4",
            "midi": 66,
            "time": 198.5527110000008,
            "velocity": 0.4881889763779528,
            "duration": 0.3947369999999921
          },
          {
            "name": "G#3",
            "midi": 56,
            "time": 198.9474480000008,
            "velocity": 0.6929133858267716,
            "duration": 1.1842110000000048
          },
          {
            "name": "B3",
            "midi": 59,
            "time": 198.9474480000008,
            "velocity": 0.6929133858267716,
            "duration": 1.1842110000000048
          },
          {
            "name": "E4",
            "midi": 64,
            "time": 198.9474480000008,
            "velocity": 0.6929133858267716,
            "duration": 1.1842110000000048
          },
          {
            "name": "E3",
            "midi": 52,
            "time": 200.1316590000008,
            "velocity": 0.6929133858267716,
            "duration": 0.13075663124999437
          },
          {
            "name": "G#3",
            "midi": 56,
            "time": 200.2624156312508,
            "velocity": 0.6929133858267716,
            "duration": 0.13240136875000985
          },
          {
            "name": "B3",
            "midi": 59,
            "time": 200.3948170000008,
            "velocity": 0.6929133858267716,
            "duration": 0.1315789999999879
          },
          {
            "name": "E4",
            "midi": 64,
            "time": 200.5263960000008,
            "velocity": 0.6929133858267716,
            "duration": 0.19736850000001027
          },
          {
            "name": "E4",
            "midi": 64,
            "time": 200.92113300000082,
            "velocity": 0.6929133858267716,
            "duration": 0.13075663124999437
          },
          {
            "name": "G#4",
            "midi": 68,
            "time": 201.05188963125082,
            "velocity": 0.6929133858267716,
            "duration": 0.13240136875000985
          },
          {
            "name": "B4",
            "midi": 71,
            "time": 201.18429100000083,
            "velocity": 0.6929133858267716,
            "duration": 0.1315789999999879
          },
          {
            "name": "E5",
            "midi": 76,
            "time": 201.3158700000008,
            "velocity": 0.6929133858267716,
            "duration": 0.19736850000001027
          },
          {
            "name": "E5",
            "midi": 76,
            "time": 201.71060700000083,
            "velocity": 0.6929133858267716,
            "duration": 0.13075663124999437
          },
          {
            "name": "G#5",
            "midi": 80,
            "time": 201.84136363125083,
            "velocity": 0.6929133858267716,
            "duration": 0.13240136875000985
          },
          {
            "name": "B5",
            "midi": 83,
            "time": 201.97376500000084,
            "velocity": 0.6929133858267716,
            "duration": 0.1315789999999879
          },
          {
            "name": "E6",
            "midi": 88,
            "time": 202.10534400000083,
            "velocity": 0.6929133858267716,
            "duration": 0.19736850000001027
          },
          {
            "name": "E6",
            "midi": 88,
            "time": 202.30271250000084,
            "velocity": 0.6929133858267716,
            "duration": 0.038651331250008525
          },
          {
            "name": "D#6",
            "midi": 87,
            "time": 202.50008100000085,
            "velocity": 0.6929133858267716,
            "duration": 0.038651331250008525
          },
          {
            "name": "C#6",
            "midi": 85,
            "time": 202.69744950000086,
            "velocity": 0.6929133858267716,
            "duration": 0.038651331250008525
          },
          {
            "name": "B5",
            "midi": 83,
            "time": 202.89481800000087,
            "velocity": 0.6929133858267716,
            "duration": 0.038651331250008525
          },
          {
            "name": "A5",
            "midi": 81,
            "time": 203.09218650000088,
            "velocity": 0.6929133858267716,
            "duration": 0.038651331250008525
          },
          {
            "name": "G#5",
            "midi": 80,
            "time": 203.2895550000009,
            "velocity": 0.6929133858267716,
            "duration": 0.038651331250008525
          },
          {
            "name": "F#5",
            "midi": 78,
            "time": 203.4869235000009,
            "velocity": 0.6929133858267716,
            "duration": 0.038651331250008525
          },
          {
            "name": "E5",
            "midi": 76,
            "time": 203.6842920000009,
            "velocity": 0.6929133858267716,
            "duration": 0.038651331250008525
          },
          {
            "name": "D#5",
            "midi": 75,
            "time": 203.88166050000092,
            "velocity": 0.6929133858267716,
            "duration": 0.038651331250008525
          },
          {
            "name": "C#5",
            "midi": 73,
            "time": 204.07902900000093,
            "velocity": 0.6929133858267716,
            "duration": 0.038651331250008525
          },
          {
            "name": "B4",
            "midi": 71,
            "time": 204.27639750000094,
            "velocity": 0.6929133858267716,
            "duration": 0.038651331250008525
          },
          {
            "name": "A4",
            "midi": 69,
            "time": 204.47376600000095,
            "velocity": 0.6929133858267716,
            "duration": 0.038651331250008525
          },
          {
            "name": "G#4",
            "midi": 68,
            "time": 204.67113450000096,
            "velocity": 0.6929133858267716,
            "duration": 0.038651331250008525
          },
          {
            "name": "F#4",
            "midi": 66,
            "time": 204.86850300000097,
            "velocity": 0.6929133858267716,
            "duration": 0.038651331250008525
          },
          {
            "name": "E4",
            "midi": 64,
            "time": 205.06587150000098,
            "velocity": 0.6929133858267716,
            "duration": 0.038651331250008525
          },
          {
            "name": "E3",
            "midi": 52,
            "time": 205.263240000001,
            "velocity": 0.8976377952755905,
            "duration": 1.1842110000000048
          },
          {
            "name": "G#3",
            "midi": 56,
            "time": 205.263240000001,
            "velocity": 0.8976377952755905,
            "duration": 1.1842110000000048
          },
          {
            "name": "C#4",
            "midi": 61,
            "time": 205.263240000001,
            "velocity": 0.8976377952755905,
            "duration": 1.1842110000000048
          },
          {
            "name": "C#3",
            "midi": 49,
            "time": 206.447451000001,
            "velocity": 0.6929133858267716,
            "duration": 0.13075663124999437
          },
          {
            "name": "E3",
            "midi": 52,
            "time": 206.578207631251,
            "velocity": 0.6929133858267716,
            "duration": 0.13240136875000985
          },
          {
            "name": "G#3",
            "midi": 56,
            "time": 206.710609000001,
            "velocity": 0.6929133858267716,
            "duration": 0.1315789999999879
          },
          {
            "name": "C#4",
            "midi": 61,
            "time": 206.842188000001,
            "velocity": 0.6929133858267716,
            "duration": 0.19736850000001027
          },
          {
            "name": "C#4",
            "midi": 61,
            "time": 207.236925000001,
            "velocity": 0.6929133858267716,
            "duration": 0.13075663124999437
          },
          {
            "name": "E4",
            "midi": 64,
            "time": 207.367681631251,
            "velocity": 0.6929133858267716,
            "duration": 0.13240136875000985
          },
          {
            "name": "G#4",
            "midi": 68,
            "time": 207.500083000001,
            "velocity": 0.6929133858267716,
            "duration": 0.1315789999999879
          },
          {
            "name": "C#5",
            "midi": 73,
            "time": 207.631662000001,
            "velocity": 0.6929133858267716,
            "duration": 0.19736850000001027
          },
          {
            "name": "C#5",
            "midi": 73,
            "time": 208.02639900000102,
            "velocity": 0.6929133858267716,
            "duration": 0.13075663124999437
          },
          {
            "name": "E5",
            "midi": 76,
            "time": 208.15715563125102,
            "velocity": 0.6929133858267716,
            "duration": 0.13240136875000985
          },
          {
            "name": "G#5",
            "midi": 80,
            "time": 208.28955700000103,
            "velocity": 0.6929133858267716,
            "duration": 0.1315789999999879
          },
          {
            "name": "C#6",
            "midi": 85,
            "time": 208.421136000001,
            "velocity": 0.6929133858267716,
            "duration": 0.19736850000001027
          },
          {
            "name": "C#6",
            "midi": 85,
            "time": 208.61850450000102,
            "velocity": 0.6929133858267716,
            "duration": 0.038651331250008525
          },
          {
            "name": "B5",
            "midi": 83,
            "time": 208.81587300000103,
            "velocity": 0.6929133858267716,
            "duration": 0.038651331250008525
          },
          {
            "name": "A5",
            "midi": 81,
            "time": 209.01324150000104,
            "velocity": 0.6929133858267716,
            "duration": 0.038651331250008525
          },
          {
            "name": "G#5",
            "midi": 80,
            "time": 209.21061000000105,
            "velocity": 0.6929133858267716,
            "duration": 0.038651331250008525
          },
          {
            "name": "F#5",
            "midi": 78,
            "time": 209.40797850000106,
            "velocity": 0.6929133858267716,
            "duration": 0.038651331250008525
          },
          {
            "name": "E5",
            "midi": 76,
            "time": 209.60534700000107,
            "velocity": 0.6929133858267716,
            "duration": 0.038651331250008525
          },
          {
            "name": "D#5",
            "midi": 75,
            "time": 209.80271550000109,
            "velocity": 0.6929133858267716,
            "duration": 0.038651331250008525
          },
          {
            "name": "C#5",
            "midi": 73,
            "time": 210.0000840000011,
            "velocity": 0.6929133858267716,
            "duration": 0.038651331250008525
          },
          {
            "name": "B4",
            "midi": 71,
            "time": 210.1974525000011,
            "velocity": 0.6929133858267716,
            "duration": 0.038651331250008525
          },
          {
            "name": "A4",
            "midi": 69,
            "time": 210.39482100000112,
            "velocity": 0.6929133858267716,
            "duration": 0.038651331250008525
          },
          {
            "name": "G#4",
            "midi": 68,
            "time": 210.59218950000113,
            "velocity": 0.6929133858267716,
            "duration": 0.038651331250008525
          },
          {
            "name": "F#4",
            "midi": 66,
            "time": 210.78955800000114,
            "velocity": 0.6929133858267716,
            "duration": 0.038651331250008525
          },
          {
            "name": "E4",
            "midi": 64,
            "time": 210.98692650000115,
            "velocity": 0.6929133858267716,
            "duration": 0.038651331250008525
          },
          {
            "name": "D#4",
            "midi": 63,
            "time": 211.18429500000116,
            "velocity": 0.6929133858267716,
            "duration": 0.038651331250008525
          },
          {
            "name": "C#4",
            "midi": 61,
            "time": 211.38166350000117,
            "velocity": 0.6929133858267716,
            "duration": 0.038651331250008525
          },
          {
            "name": "C#3",
            "midi": 49,
            "time": 211.57903200000118,
            "velocity": 0.8976377952755905,
            "duration": 1.1842110000000048
          },
          {
            "name": "E3",
            "midi": 52,
            "time": 211.57903200000118,
            "velocity": 0.8976377952755905,
            "duration": 1.1842110000000048
          },
          {
            "name": "A3",
            "midi": 57,
            "time": 211.57903200000118,
            "velocity": 0.8976377952755905,
            "duration": 1.1842110000000048
          },
          {
            "name": "A2",
            "midi": 45,
            "time": 212.76324300000118,
            "velocity": 0.6929133858267716,
            "duration": 0.13075663124999437
          },
          {
            "name": "C#3",
            "midi": 49,
            "time": 212.89399963125118,
            "velocity": 0.6929133858267716,
            "duration": 0.13240136875000985
          },
          {
            "name": "E3",
            "midi": 52,
            "time": 213.0264010000012,
            "velocity": 0.6929133858267716,
            "duration": 0.1315789999999879
          },
          {
            "name": "A3",
            "midi": 57,
            "time": 213.15798000000117,
            "velocity": 0.6929133858267716,
            "duration": 0.19736850000001027
          },
          {
            "name": "A3",
            "midi": 57,
            "time": 213.5527170000012,
            "velocity": 0.6929133858267716,
            "duration": 0.13075663124999437
          },
          {
            "name": "C#4",
            "midi": 61,
            "time": 213.6834736312512,
            "velocity": 0.6929133858267716,
            "duration": 0.13240136875000985
          },
          {
            "name": "E4",
            "midi": 64,
            "time": 213.8158750000012,
            "velocity": 0.6929133858267716,
            "duration": 0.1315789999999879
          },
          {
            "name": "A4",
            "midi": 69,
            "time": 213.9474540000012,
            "velocity": 0.6929133858267716,
            "duration": 0.19736850000001027
          },
          {
            "name": "A4",
            "midi": 69,
            "time": 214.3421910000012,
            "velocity": 0.6929133858267716,
            "duration": 0.13075663124999437
          },
          {
            "name": "C#5",
            "midi": 73,
            "time": 214.4729476312512,
            "velocity": 0.6929133858267716,
            "duration": 0.13240136875000985
          },
          {
            "name": "E5",
            "midi": 76,
            "time": 214.6053490000012,
            "velocity": 0.6929133858267716,
            "duration": 0.1315789999999879
          },
          {
            "name": "A5",
            "midi": 81,
            "time": 214.7369280000012,
            "velocity": 0.6929133858267716,
            "duration": 0.19736850000001027
          },
          {
            "name": "C#5",
            "midi": 73,
            "time": 215.5264020000012,
            "velocity": 0.8976377952755905,
            "duration": 0.3947369999999921
          },
          {
            "name": "E5",
            "midi": 76,
            "time": 215.5264020000012,
            "velocity": 0.8976377952755905,
            "duration": 0.3947369999999921
          },
          {
            "name": "A5",
            "midi": 81,
            "time": 215.5264020000012,
            "velocity": 0.8976377952755905,
            "duration": 0.3947369999999921
          },
          {
            "name": "C#6",
            "midi": 85,
            "time": 215.5264020000012,
            "velocity": 0.8976377952755905,
            "duration": 0.3947369999999921
          },
          {
            "name": "A#5",
            "midi": 82,
            "time": 217.8948240000012,
            "velocity": 0.4881889763779528,
            "duration": 0.19736850000001027
          },
          {
            "name": "B5",
            "midi": 83,
            "time": 218.0921925000012,
            "velocity": 0.4881889763779528,
            "duration": 0.19736850000001027
          },
          {
            "name": "C#6",
            "midi": 85,
            "time": 218.2895610000012,
            "velocity": 0.4881889763779528,
            "duration": 0.19736850000001027
          },
          {
            "name": "B5",
            "midi": 83,
            "time": 218.48692950000122,
            "velocity": 0.4881889763779528,
            "duration": 0.19736850000001027
          },
          {
            "name": "A5",
            "midi": 81,
            "time": 218.68429800000123,
            "velocity": 0.4881889763779528,
            "duration": 0.19736850000001027
          },
          {
            "name": "G#5",
            "midi": 80,
            "time": 218.88166650000124,
            "velocity": 0.4881889763779528,
            "duration": 0.19736850000001027
          },
          {
            "name": "F#5",
            "midi": 78,
            "time": 219.07903500000126,
            "velocity": 0.4881889763779528,
            "duration": 0.19736850000001027
          },
          {
            "name": "E5",
            "midi": 76,
            "time": 219.27640350000127,
            "velocity": 0.4881889763779528,
            "duration": 0.19736850000001027
          },
          {
            "name": "D#5",
            "midi": 75,
            "time": 219.47377200000128,
            "velocity": 0.4881889763779528,
            "duration": 0.19736850000001027
          },
          {
            "name": "C#5",
            "midi": 73,
            "time": 219.6711405000013,
            "velocity": 0.4881889763779528,
            "duration": 0.19736850000001027
          },
          {
            "name": "B4",
            "midi": 71,
            "time": 219.8685090000013,
            "velocity": 0.4881889763779528,
            "duration": 0.19736850000001027
          },
          {
            "name": "A4",
            "midi": 69,
            "time": 220.0658775000013,
            "velocity": 0.4881889763779528,
            "duration": 0.19736850000001027
          },
          {
            "name": "G#4",
            "midi": 68,
            "time": 220.26324600000132,
            "velocity": 0.4881889763779528,
            "duration": 0.19736850000001027
          },
          {
            "name": "F#4",
            "midi": 66,
            "time": 220.46061450000133,
            "velocity": 0.4881889763779528,
            "duration": 0.19736850000001027
          },
          {
            "name": "E4",
            "midi": 64,
            "time": 220.65798300000134,
            "velocity": 0.4881889763779528,
            "duration": 0.19736850000001027
          },
          {
            "name": "D#4",
            "midi": 63,
            "time": 220.85535150000135,
            "velocity": 0.4881889763779528,
            "duration": 0.19736850000001027
          },
          {
            "name": "A#4",
            "midi": 70,
            "time": 221.05272000000136,
            "velocity": 0.4881889763779528,
            "duration": 0.19736850000001027
          },
          {
            "name": "B4",
            "midi": 71,
            "time": 221.25008850000137,
            "velocity": 0.4881889763779528,
            "duration": 0.19736850000001027
          },
          {
            "name": "C#5",
            "midi": 73,
            "time": 221.44745700000138,
            "velocity": 0.4881889763779528,
            "duration": 0.19736850000001027
          },
          {
            "name": "B4",
            "midi": 71,
            "time": 221.6448255000014,
            "velocity": 0.4881889763779528,
            "duration": 0.19736850000001027
          },
          {
            "name": "A4",
            "midi": 69,
            "time": 221.8421940000014,
            "velocity": 0.4881889763779528,
            "duration": 0.19736850000001027
          },
          {
            "name": "G#4",
            "midi": 68,
            "time": 222.0395625000014,
            "velocity": 0.4881889763779528,
            "duration": 0.19736850000001027
          },
          {
            "name": "F#4",
            "midi": 66,
            "time": 222.23693100000142,
            "velocity": 0.4881889763779528,
            "duration": 0.19736850000001027
          },
          {
            "name": "E4",
            "midi": 64,
            "time": 222.43429950000143,
            "velocity": 0.4881889763779528,
            "duration": 0.19736850000001027
          },
          {
            "name": "D#4",
            "midi": 63,
            "time": 222.63166800000144,
            "velocity": 0.4881889763779528,
            "duration": 0.19736850000001027
          },
          {
            "name": "C#4",
            "midi": 61,
            "time": 222.82903650000145,
            "velocity": 0.4881889763779528,
            "duration": 0.19736850000001027
          },
          {
            "name": "B3",
            "midi": 59,
            "time": 223.02640500000146,
            "velocity": 0.4881889763779528,
            "duration": 0.19736850000001027
          },
          {
            "name": "A3",
            "midi": 57,
            "time": 223.22377350000147,
            "velocity": 0.4881889763779528,
            "duration": 0.19736850000001027
          },
          {
            "name": "G#3",
            "midi": 56,
            "time": 223.42114200000148,
            "velocity": 0.4881889763779528,
            "duration": 0.19736850000001027
          },
          {
            "name": "F#3",
            "midi": 54,
            "time": 223.6185105000015,
            "velocity": 0.4881889763779528,
            "duration": 0.19736850000001027
          },
          {
            "name": "E3",
            "midi": 52,
            "time": 223.8158790000015,
            "velocity": 0.4881889763779528,
            "duration": 0.19736850000001027
          },
          {
            "name": "D#3",
            "midi": 51,
            "time": 224.0132475000015,
            "velocity": 0.4881889763779528,
            "duration": 0.19736850000001027
          },
          {
            "name": "G5",
            "midi": 79,
            "time": 224.21061600000152,
            "velocity": 0.4881889763779528,
            "duration": 0.19736850000001027
          },
          {
            "name": "G#5",
            "midi": 80,
            "time": 224.40798450000153,
            "velocity": 0.4881889763779528,
            "duration": 0.19736850000001027
          },
          {
            "name": "A5",
            "midi": 81,
            "time": 224.60535300000154,
            "velocity": 0.4881889763779528,
            "duration": 0.19736850000001027
          },
          {
            "name": "G#5",
            "midi": 80,
            "time": 224.80272150000155,
            "velocity": 0.4881889763779528,
            "duration": 0.19736850000001027
          },
          {
            "name": "F#5",
            "midi": 78,
            "time": 225.00009000000156,
            "velocity": 0.4881889763779528,
            "duration": 0.19736850000001027
          },
          {
            "name": "E5",
            "midi": 76,
            "time": 225.19745850000157,
            "velocity": 0.4881889763779528,
            "duration": 0.19736850000001027
          },
          {
            "name": "D#5",
            "midi": 75,
            "time": 225.39482700000158,
            "velocity": 0.4881889763779528,
            "duration": 0.19736850000001027
          },
          {
            "name": "C#5",
            "midi": 73,
            "time": 225.5921955000016,
            "velocity": 0.4881889763779528,
            "duration": 0.19736850000001027
          },
          {
            "name": "C5",
            "midi": 72,
            "time": 225.7895640000016,
            "velocity": 0.4881889763779528,
            "duration": 0.19736850000001027
          },
          {
            "name": "A4",
            "midi": 69,
            "time": 225.98693250000161,
            "velocity": 0.4881889763779528,
            "duration": 0.19736850000001027
          },
          {
            "name": "G#4",
            "midi": 68,
            "time": 226.18430100000162,
            "velocity": 0.4881889763779528,
            "duration": 0.19736850000001027
          },
          {
            "name": "F#4",
            "midi": 66,
            "time": 226.38166950000164,
            "velocity": 0.4881889763779528,
            "duration": 0.19736850000001027
          },
          {
            "name": "E4",
            "midi": 64,
            "time": 226.57903800000165,
            "velocity": 0.4881889763779528,
            "duration": 0.19736850000001027
          },
          {
            "name": "D#4",
            "midi": 63,
            "time": 226.77640650000166,
            "velocity": 0.4881889763779528,
            "duration": 0.19736850000001027
          },
          {
            "name": "C#4",
            "midi": 61,
            "time": 226.97377500000167,
            "velocity": 0.4881889763779528,
            "duration": 0.19736850000001027
          },
          {
            "name": "C4",
            "midi": 60,
            "time": 227.17114350000168,
            "velocity": 0.4881889763779528,
            "duration": 0.19736850000001027
          },
          {
            "name": "G4",
            "midi": 67,
            "time": 227.3685120000017,
            "velocity": 0.4881889763779528,
            "duration": 0.19736850000001027
          },
          {
            "name": "G#4",
            "midi": 68,
            "time": 227.5658805000017,
            "velocity": 0.4881889763779528,
            "duration": 0.19736850000001027
          },
          {
            "name": "A4",
            "midi": 69,
            "time": 227.7632490000017,
            "velocity": 0.4881889763779528,
            "duration": 0.19736850000001027
          },
          {
            "name": "G#4",
            "midi": 68,
            "time": 227.96061750000172,
            "velocity": 0.4881889763779528,
            "duration": 0.19736850000001027
          },
          {
            "name": "F#4",
            "midi": 66,
            "time": 228.15798600000173,
            "velocity": 0.4881889763779528,
            "duration": 0.19736850000001027
          },
          {
            "name": "E4",
            "midi": 64,
            "time": 228.35535450000174,
            "velocity": 0.4881889763779528,
            "duration": 0.19736850000001027
          },
          {
            "name": "D#4",
            "midi": 63,
            "time": 228.55272300000175,
            "velocity": 0.4881889763779528,
            "duration": 0.19736850000001027
          },
          {
            "name": "C#4",
            "midi": 61,
            "time": 228.75009150000176,
            "velocity": 0.4881889763779528,
            "duration": 0.19736850000001027
          },
          {
            "name": "C4",
            "midi": 60,
            "time": 228.94746000000177,
            "velocity": 0.4881889763779528,
            "duration": 0.19736850000001027
          },
          {
            "name": "A3",
            "midi": 57,
            "time": 229.14482850000178,
            "velocity": 0.4881889763779528,
            "duration": 0.19736850000001027
          },
          {
            "name": "G#3",
            "midi": 56,
            "time": 229.3421970000018,
            "velocity": 0.4881889763779528,
            "duration": 0.19736850000001027
          },
          {
            "name": "F#3",
            "midi": 54,
            "time": 229.5395655000018,
            "velocity": 0.4881889763779528,
            "duration": 0.19736850000001027
          },
          {
            "name": "E3",
            "midi": 52,
            "time": 229.7369340000018,
            "velocity": 0.4881889763779528,
            "duration": 0.19736850000001027
          },
          {
            "name": "D#3",
            "midi": 51,
            "time": 229.93430250000182,
            "velocity": 0.4881889763779528,
            "duration": 0.19736850000001027
          },
          {
            "name": "C#3",
            "midi": 49,
            "time": 230.13167100000183,
            "velocity": 0.4881889763779528,
            "duration": 0.19736850000001027
          },
          {
            "name": "C3",
            "midi": 48,
            "time": 230.32903950000184,
            "velocity": 0.4881889763779528,
            "duration": 0.19736850000001027
          },
          {
            "name": "F5",
            "midi": 77,
            "time": 233.68430400000184,
            "velocity": 0.4881889763779528,
            "duration": 0.19736850000001027
          },
          {
            "name": "F#5",
            "midi": 78,
            "time": 233.88167250000186,
            "velocity": 0.4881889763779528,
            "duration": 0.19736850000001027
          },
          {
            "name": "G#5",
            "midi": 80,
            "time": 234.07904100000187,
            "velocity": 0.4881889763779528,
            "duration": 0.19736850000001027
          },
          {
            "name": "F#5",
            "midi": 78,
            "time": 234.27640950000188,
            "velocity": 0.4881889763779528,
            "duration": 0.19736850000001027
          },
          {
            "name": "E5",
            "midi": 76,
            "time": 234.4737780000019,
            "velocity": 0.4881889763779528,
            "duration": 0.19736850000001027
          },
          {
            "name": "D#5",
            "midi": 75,
            "time": 234.6711465000019,
            "velocity": 0.4881889763779528,
            "duration": 0.19736850000001027
          },
          {
            "name": "C#5",
            "midi": 73,
            "time": 234.8685150000019,
            "velocity": 0.4881889763779528,
            "duration": 0.19736850000001027
          },
          {
            "name": "B4",
            "midi": 71,
            "time": 235.06588350000192,
            "velocity": 0.4881889763779528,
            "duration": 0.19736850000001027
          },
          {
            "name": "A#4",
            "midi": 70,
            "time": 235.26325200000193,
            "velocity": 0.4881889763779528,
            "duration": 0.19736850000001027
          },
          {
            "name": "G#4",
            "midi": 68,
            "time": 235.46062050000194,
            "velocity": 0.4881889763779528,
            "duration": 0.19736850000001027
          },
          {
            "name": "F#4",
            "midi": 66,
            "time": 235.65798900000195,
            "velocity": 0.4881889763779528,
            "duration": 0.19736850000001027
          },
          {
            "name": "E4",
            "midi": 64,
            "time": 235.85535750000196,
            "velocity": 0.4881889763779528,
            "duration": 0.19736850000001027
          },
          {
            "name": "D#4",
            "midi": 63,
            "time": 236.05272600000197,
            "velocity": 0.4881889763779528,
            "duration": 0.19736850000001027
          },
          {
            "name": "C#4",
            "midi": 61,
            "time": 236.25009450000198,
            "velocity": 0.4881889763779528,
            "duration": 0.19736850000001027
          },
          {
            "name": "B3",
            "midi": 59,
            "time": 236.447463000002,
            "velocity": 0.4881889763779528,
            "duration": 0.19736850000001027
          },
          {
            "name": "A#3",
            "midi": 58,
            "time": 236.644831500002,
            "velocity": 0.4881889763779528,
            "duration": 0.19736850000001027
          },
          {
            "name": "B3",
            "midi": 59,
            "time": 236.842200000002,
            "velocity": 0.4881889763779528,
            "duration": 0.3947369999999921
          },
          {
            "name": "D#5",
            "midi": 75,
            "time": 237.532989750002,
            "velocity": 0.4881889763779528,
            "duration": 0.04934212500000967
          },
          {
            "name": "E5",
            "midi": 76,
            "time": 237.582331875002,
            "velocity": 0.4881889763779528,
            "duration": 0.04934212500000967
          },
          {
            "name": "F#5",
            "midi": 78,
            "time": 237.63167400000202,
            "velocity": 0.4881889763779528,
            "duration": 0.07894740000000411
          },
          {
            "name": "B4",
            "midi": 71,
            "time": 238.026411000002,
            "velocity": 0.4881889763779528,
            "duration": 0.07894740000000411
          },
          {
            "name": "B4",
            "midi": 71,
            "time": 238.32246375000202,
            "velocity": 0.4881889763779528,
            "duration": 0.04934212500000967
          },
          {
            "name": "C#5",
            "midi": 73,
            "time": 238.37180587500202,
            "velocity": 0.4881889763779528,
            "duration": 0.04934212500000967
          },
          {
            "name": "D#5",
            "midi": 75,
            "time": 238.42114800000203,
            "velocity": 0.4881889763779528,
            "duration": 0.07894740000000411
          },
          {
            "name": "F#4",
            "midi": 66,
            "time": 238.81588500000203,
            "velocity": 0.4881889763779528,
            "duration": 0.07894740000000411
          },
          {
            "name": "G#4",
            "midi": 68,
            "time": 239.11193775000203,
            "velocity": 0.4881889763779528,
            "duration": 0.04934212500000967
          },
          {
            "name": "A#4",
            "midi": 70,
            "time": 239.16127987500204,
            "velocity": 0.4881889763779528,
            "duration": 0.04934212500000967
          },
          {
            "name": "B4",
            "midi": 71,
            "time": 239.21062200000205,
            "velocity": 0.4881889763779528,
            "duration": 0.07894740000000411
          },
          {
            "name": "D#4",
            "midi": 63,
            "time": 239.60535900000204,
            "velocity": 0.4881889763779528,
            "duration": 0.07894740000000411
          },
          {
            "name": "F#4",
            "midi": 66,
            "time": 240.00009600000203,
            "velocity": 0.4881889763779528,
            "duration": 0.3947369999999921
          },
          {
            "name": "E4",
            "midi": 64,
            "time": 240.39483300000202,
            "velocity": 0.4881889763779528,
            "duration": 0.19736850000001027
          },
          {
            "name": "E5",
            "midi": 76,
            "time": 240.69088575000202,
            "velocity": 0.4881889763779528,
            "duration": 0.04934212500000967
          },
          {
            "name": "F#5",
            "midi": 78,
            "time": 240.74022787500203,
            "velocity": 0.4881889763779528,
            "duration": 0.04934212500000967
          },
          {
            "name": "G#5",
            "midi": 80,
            "time": 240.78957000000204,
            "velocity": 0.4881889763779528,
            "duration": 0.07894740000000411
          },
          {
            "name": "C#5",
            "midi": 73,
            "time": 241.18430700000204,
            "velocity": 0.4881889763779528,
            "duration": 0.07894740000000411
          },
          {
            "name": "C#5",
            "midi": 73,
            "time": 241.48035975000204,
            "velocity": 0.4881889763779528,
            "duration": 0.04934212500000967
          },
          {
            "name": "D#5",
            "midi": 75,
            "time": 241.52970187500205,
            "velocity": 0.4881889763779528,
            "duration": 0.04934212500000967
          },
          {
            "name": "E5",
            "midi": 76,
            "time": 241.57904400000206,
            "velocity": 0.4881889763779528,
            "duration": 0.07894740000000411
          },
          {
            "name": "A#4",
            "midi": 70,
            "time": 241.97378100000205,
            "velocity": 0.4881889763779528,
            "duration": 0.07894740000000411
          },
          {
            "name": "A#4",
            "midi": 70,
            "time": 242.26983375000205,
            "velocity": 0.4881889763779528,
            "duration": 0.04934212500000967
          },
          {
            "name": "B4",
            "midi": 71,
            "time": 242.31917587500206,
            "velocity": 0.4881889763779528,
            "duration": 0.04934212500000967
          },
          {
            "name": "C#5",
            "midi": 73,
            "time": 242.36851800000207,
            "velocity": 0.4881889763779528,
            "duration": 0.07894740000000411
          },
          {
            "name": "F#4",
            "midi": 66,
            "time": 242.76325500000206,
            "velocity": 0.4881889763779528,
            "duration": 0.07894740000000411
          },
          {
            "name": "C#5",
            "midi": 73,
            "time": 243.15799200000205,
            "velocity": 0.4881889763779528,
            "duration": 0.3947369999999921
          },
          {
            "name": "B4",
            "midi": 71,
            "time": 243.55272900000205,
            "velocity": 0.4881889763779528,
            "duration": 0.19736850000001027
          },
          {
            "name": "A#5",
            "midi": 82,
            "time": 243.84878175000205,
            "velocity": 0.4881889763779528,
            "duration": 0.04934212500000967
          },
          {
            "name": "B5",
            "midi": 83,
            "time": 243.89812387500206,
            "velocity": 0.4881889763779528,
            "duration": 0.04934212500000967
          },
          {
            "name": "C#6",
            "midi": 85,
            "time": 243.94746600000207,
            "velocity": 0.4881889763779528,
            "duration": 0.07894740000000411
          },
          {
            "name": "F#5",
            "midi": 78,
            "time": 244.34220300000206,
            "velocity": 0.4881889763779528,
            "duration": 0.07894740000000411
          },
          {
            "name": "C#6",
            "midi": 85,
            "time": 244.73694000000205,
            "velocity": 0.4881889763779528,
            "duration": 0.3947369999999921
          },
          {
            "name": "B5",
            "midi": 83,
            "time": 245.13167700000204,
            "velocity": 0.4881889763779528,
            "duration": 0.19736850000001027
          },
          {
            "name": "A#4",
            "midi": 70,
            "time": 245.42772975000204,
            "velocity": 0.4881889763779528,
            "duration": 0.04934212500000967
          },
          {
            "name": "B4",
            "midi": 71,
            "time": 245.47707187500205,
            "velocity": 0.4881889763779528,
            "duration": 0.04934212500000967
          },
          {
            "name": "C#5",
            "midi": 73,
            "time": 245.52641400000206,
            "velocity": 0.4881889763779528,
            "duration": 0.07894740000000411
          },
          {
            "name": "F#4",
            "midi": 66,
            "time": 245.92115100000206,
            "velocity": 0.4881889763779528,
            "duration": 0.07894740000000411
          },
          {
            "name": "C#5",
            "midi": 73,
            "time": 246.31588800000205,
            "velocity": 0.4881889763779528,
            "duration": 0.3947369999999921
          },
          {
            "name": "B4",
            "midi": 71,
            "time": 246.71062500000204,
            "velocity": 0.4881889763779528,
            "duration": 0.19736850000001027
          },
          {
            "name": "B5",
            "midi": 83,
            "time": 247.10536200000206,
            "velocity": 0.4881889763779528,
            "duration": 0.19736850000001027
          },
          {
            "name": "A#5",
            "midi": 82,
            "time": 247.30273050000207,
            "velocity": 0.4881889763779528,
            "duration": 0.19736850000001027
          },
          {
            "name": "B5",
            "midi": 83,
            "time": 247.50009900000208,
            "velocity": 0.4881889763779528,
            "duration": 0.19736850000001027
          },
          {
            "name": "G#5",
            "midi": 80,
            "time": 247.6974675000021,
            "velocity": 0.4881889763779528,
            "duration": 0.19736850000001027
          },
          {
            "name": "F#5",
            "midi": 78,
            "time": 247.8948360000021,
            "velocity": 0.4881889763779528,
            "duration": 0.07894740000000411
          },
          {
            "name": "D#5",
            "midi": 75,
            "time": 248.2895730000021,
            "velocity": 0.4881889763779528,
            "duration": 0.07894740000000411
          },
          {
            "name": "C#5",
            "midi": 73,
            "time": 248.5856257500021,
            "velocity": 0.4881889763779528,
            "duration": 0.04934212500000967
          },
          {
            "name": "D#5",
            "midi": 75,
            "time": 248.6349678750021,
            "velocity": 0.4881889763779528,
            "duration": 0.04934212500000967
          },
          {
            "name": "E5",
            "midi": 76,
            "time": 248.6843100000021,
            "velocity": 0.4881889763779528,
            "duration": 0.07894740000000411
          },
          {
            "name": "A#4",
            "midi": 70,
            "time": 249.0790470000021,
            "velocity": 0.4881889763779528,
            "duration": 0.07894740000000411
          },
          {
            "name": "B4",
            "midi": 71,
            "time": 249.4737840000021,
            "velocity": 0.4881889763779528,
            "duration": 0.7894740000000127
          },
          {
            "name": "D#5",
            "midi": 75,
            "time": 250.1645737500021,
            "velocity": 0.5905511811023622,
            "duration": 0.04934212500000967
          },
          {
            "name": "E5",
            "midi": 76,
            "time": 250.2139158750021,
            "velocity": 0.5905511811023622,
            "duration": 0.04934212500000967
          },
          {
            "name": "F#5",
            "midi": 78,
            "time": 250.2632580000021,
            "velocity": 0.5905511811023622,
            "duration": 0.07894740000000411
          },
          {
            "name": "B4",
            "midi": 71,
            "time": 250.6579950000021,
            "velocity": 0.5905511811023622,
            "duration": 0.07894740000000411
          },
          {
            "name": "B4",
            "midi": 71,
            "time": 250.9540477500021,
            "velocity": 0.5905511811023622,
            "duration": 0.04934212500000967
          },
          {
            "name": "C#5",
            "midi": 73,
            "time": 251.0033898750021,
            "velocity": 0.5905511811023622,
            "duration": 0.04934212500000967
          },
          {
            "name": "D#5",
            "midi": 75,
            "time": 251.05273200000212,
            "velocity": 0.5905511811023622,
            "duration": 0.07894740000000411
          },
          {
            "name": "F#4",
            "midi": 66,
            "time": 251.44746900000212,
            "velocity": 0.5905511811023622,
            "duration": 0.07894740000000411
          },
          {
            "name": "G#4",
            "midi": 68,
            "time": 251.74352175000212,
            "velocity": 0.5905511811023622,
            "duration": 0.04934212500000967
          },
          {
            "name": "A#4",
            "midi": 70,
            "time": 251.79286387500213,
            "velocity": 0.5905511811023622,
            "duration": 0.04934212500000967
          },
          {
            "name": "B4",
            "midi": 71,
            "time": 251.84220600000214,
            "velocity": 0.5905511811023622,
            "duration": 0.07894740000000411
          },
          {
            "name": "D#4",
            "midi": 63,
            "time": 252.23694300000213,
            "velocity": 0.5905511811023622,
            "duration": 0.07894740000000411
          },
          {
            "name": "F#4",
            "midi": 66,
            "time": 252.63168000000212,
            "velocity": 0.5905511811023622,
            "duration": 0.3947369999999921
          },
          {
            "name": "E4",
            "midi": 64,
            "time": 253.0264170000021,
            "velocity": 0.5905511811023622,
            "duration": 0.19736850000001027
          },
          {
            "name": "E5",
            "midi": 76,
            "time": 253.3224697500021,
            "velocity": 0.5905511811023622,
            "duration": 0.04934212500000967
          },
          {
            "name": "F#5",
            "midi": 78,
            "time": 253.37181187500212,
            "velocity": 0.5905511811023622,
            "duration": 0.04934212500000967
          },
          {
            "name": "G#5",
            "midi": 80,
            "time": 253.42115400000213,
            "velocity": 0.5905511811023622,
            "duration": 0.07894740000000411
          },
          {
            "name": "C#5",
            "midi": 73,
            "time": 253.81589100000213,
            "velocity": 0.5905511811023622,
            "duration": 0.07894740000000411
          },
          {
            "name": "C#5",
            "midi": 73,
            "time": 254.11194375000213,
            "velocity": 0.5905511811023622,
            "duration": 0.04934212500000967
          },
          {
            "name": "D#5",
            "midi": 75,
            "time": 254.16128587500214,
            "velocity": 0.5905511811023622,
            "duration": 0.04934212500000967
          },
          {
            "name": "E5",
            "midi": 76,
            "time": 254.21062800000215,
            "velocity": 0.5905511811023622,
            "duration": 0.07894740000000411
          },
          {
            "name": "A#4",
            "midi": 70,
            "time": 254.60536500000214,
            "velocity": 0.5905511811023622,
            "duration": 0.07894740000000411
          },
          {
            "name": "A#4",
            "midi": 70,
            "time": 254.90141775000214,
            "velocity": 0.5905511811023622,
            "duration": 0.04934212500000967
          },
          {
            "name": "B4",
            "midi": 71,
            "time": 254.95075987500215,
            "velocity": 0.5905511811023622,
            "duration": 0.04934212500000967
          },
          {
            "name": "C#5",
            "midi": 73,
            "time": 255.00010200000216,
            "velocity": 0.5905511811023622,
            "duration": 0.07894740000000411
          },
          {
            "name": "F#4",
            "midi": 66,
            "time": 255.39483900000215,
            "velocity": 0.5905511811023622,
            "duration": 0.07894740000000411
          },
          {
            "name": "C#5",
            "midi": 73,
            "time": 255.78957600000214,
            "velocity": 0.5905511811023622,
            "duration": 0.3947369999999921
          },
          {
            "name": "B4",
            "midi": 71,
            "time": 256.18431300000213,
            "velocity": 0.5905511811023622,
            "duration": 0.19736849999998185
          },
          {
            "name": "A#5",
            "midi": 82,
            "time": 256.48036575000214,
            "velocity": 0.5905511811023622,
            "duration": 0.04934212500000967
          },
          {
            "name": "B5",
            "midi": 83,
            "time": 256.52970787500215,
            "velocity": 0.5905511811023622,
            "duration": 0.04934212500000967
          },
          {
            "name": "C#6",
            "midi": 85,
            "time": 256.57905000000216,
            "velocity": 0.5905511811023622,
            "duration": 0.07894740000000411
          },
          {
            "name": "F#5",
            "midi": 78,
            "time": 256.9737870000022,
            "velocity": 0.5905511811023622,
            "duration": 0.07894740000000411
          },
          {
            "name": "C#6",
            "midi": 85,
            "time": 257.3685240000022,
            "velocity": 0.5905511811023622,
            "duration": 0.39473700000002054
          },
          {
            "name": "B5",
            "midi": 83,
            "time": 257.7632610000022,
            "velocity": 0.5905511811023622,
            "duration": 0.19736849999998185
          },
          {
            "name": "A#4",
            "midi": 70,
            "time": 258.0593137500022,
            "velocity": 0.5905511811023622,
            "duration": 0.04934212500000967
          },
          {
            "name": "B4",
            "midi": 71,
            "time": 258.1086558750022,
            "velocity": 0.5905511811023622,
            "duration": 0.04934212500000967
          },
          {
            "name": "C#5",
            "midi": 73,
            "time": 258.15799800000224,
            "velocity": 0.5905511811023622,
            "duration": 0.07894740000000411
          },
          {
            "name": "F#4",
            "midi": 66,
            "time": 258.55273500000226,
            "velocity": 0.5905511811023622,
            "duration": 0.07894740000000411
          },
          {
            "name": "C#5",
            "midi": 73,
            "time": 258.9474720000023,
            "velocity": 0.5905511811023622,
            "duration": 0.39473700000002054
          },
          {
            "name": "B4",
            "midi": 71,
            "time": 259.3422090000023,
            "velocity": 0.5905511811023622,
            "duration": 0.19736849999998185
          },
          {
            "name": "B5",
            "midi": 83,
            "time": 259.73694600000226,
            "velocity": 0.5905511811023622,
            "duration": 0.19736849999998185
          },
          {
            "name": "A#5",
            "midi": 82,
            "time": 259.93431450000224,
            "velocity": 0.5905511811023622,
            "duration": 0.19736849999998185
          },
          {
            "name": "B5",
            "midi": 83,
            "time": 260.1316830000022,
            "velocity": 0.5905511811023622,
            "duration": 0.19736849999998185
          },
          {
            "name": "G#5",
            "midi": 80,
            "time": 260.3290515000022,
            "velocity": 0.5905511811023622,
            "duration": 0.19736849999998185
          },
          {
            "name": "F#5",
            "midi": 78,
            "time": 260.5264200000022,
            "velocity": 0.5905511811023622,
            "duration": 0.07894740000000411
          },
          {
            "name": "D#5",
            "midi": 75,
            "time": 260.9211570000022,
            "velocity": 0.5905511811023622,
            "duration": 0.07894740000000411
          },
          {
            "name": "C#5",
            "midi": 73,
            "time": 261.2172097500022,
            "velocity": 0.5905511811023622,
            "duration": 0.04934212500000967
          },
          {
            "name": "D#5",
            "midi": 75,
            "time": 261.2665518750022,
            "velocity": 0.5905511811023622,
            "duration": 0.04934212500000967
          },
          {
            "name": "E5",
            "midi": 76,
            "time": 261.31589400000223,
            "velocity": 0.5905511811023622,
            "duration": 0.07894740000000411
          },
          {
            "name": "A#4",
            "midi": 70,
            "time": 261.71063100000225,
            "velocity": 0.5905511811023622,
            "duration": 0.07894740000000411
          },
          {
            "name": "B4",
            "midi": 71,
            "time": 262.1053680000023,
            "velocity": 0.5905511811023622,
            "duration": 0.7894739999999842
          },
          {
            "name": "B5",
            "midi": 83,
            "time": 262.89484200000226,
            "velocity": 0.5905511811023622,
            "duration": 0.19736849999998185
          },
          {
            "name": "A#5",
            "midi": 82,
            "time": 263.09221050000224,
            "velocity": 0.5905511811023622,
            "duration": 0.19736849999998185
          },
          {
            "name": "B5",
            "midi": 83,
            "time": 263.2895790000022,
            "velocity": 0.5905511811023622,
            "duration": 0.19736849999998185
          },
          {
            "name": "G#5",
            "midi": 80,
            "time": 263.4869475000022,
            "velocity": 0.5905511811023622,
            "duration": 0.19736849999998185
          },
          {
            "name": "F#5",
            "midi": 78,
            "time": 263.6843160000022,
            "velocity": 0.5905511811023622,
            "duration": 0.07894740000000411
          },
          {
            "name": "D#5",
            "midi": 75,
            "time": 264.0790530000022,
            "velocity": 0.5905511811023622,
            "duration": 0.07894740000000411
          },
          {
            "name": "C#5",
            "midi": 73,
            "time": 264.3751057500022,
            "velocity": 0.5905511811023622,
            "duration": 0.04934212500000967
          },
          {
            "name": "D#5",
            "midi": 75,
            "time": 264.4244478750022,
            "velocity": 0.5905511811023622,
            "duration": 0.04934212500000967
          },
          {
            "name": "E5",
            "midi": 76,
            "time": 264.4737900000022,
            "velocity": 0.5905511811023622,
            "duration": 0.07894740000000411
          },
          {
            "name": "A#4",
            "midi": 70,
            "time": 264.86852700000225,
            "velocity": 0.5905511811023622,
            "duration": 0.07894740000000411
          },
          {
            "name": "B4",
            "midi": 71,
            "time": 265.26326400000227,
            "velocity": 0.6929133858267716,
            "duration": 0.19736849999998185
          },
          {
            "name": "B5",
            "midi": 83,
            "time": 265.46063250000225,
            "velocity": 0.8976377952755905,
            "duration": 0.19736849999998185
          },
          {
            "name": "D#6",
            "midi": 87,
            "time": 265.65800100000223,
            "velocity": 0.6929133858267716,
            "duration": 0.19736849999998185
          },
          {
            "name": "F#5",
            "midi": 78,
            "time": 265.8553695000022,
            "velocity": 0.8976377952755905,
            "duration": 0.19736849999998185
          },
          {
            "name": "B5",
            "midi": 83,
            "time": 266.0527380000022,
            "velocity": 0.6929133858267716,
            "duration": 0.19736849999998185
          },
          {
            "name": "D#5",
            "midi": 75,
            "time": 266.2501065000022,
            "velocity": 0.8976377952755905,
            "duration": 0.19736849999998185
          },
          {
            "name": "F#5",
            "midi": 78,
            "time": 266.44747500000216,
            "velocity": 0.6929133858267716,
            "duration": 0.19736849999998185
          },
          {
            "name": "B4",
            "midi": 71,
            "time": 266.64484350000214,
            "velocity": 0.8976377952755905,
            "duration": 0.19736849999998185
          },
          {
            "name": "E5",
            "midi": 76,
            "time": 266.8422120000021,
            "velocity": 0.6929133858267716,
            "duration": 0.19736849999998185
          },
          {
            "name": "A#4",
            "midi": 70,
            "time": 267.0395805000021,
            "velocity": 0.8976377952755905,
            "duration": 0.19736849999998185
          },
          {
            "name": "C#5",
            "midi": 73,
            "time": 267.2369490000021,
            "velocity": 0.6929133858267716,
            "duration": 0.19736849999998185
          },
          {
            "name": "F#4",
            "midi": 66,
            "time": 267.43431750000207,
            "velocity": 0.8976377952755905,
            "duration": 0.19736849999998185
          },
          {
            "name": "A#4",
            "midi": 70,
            "time": 267.63168600000205,
            "velocity": 0.6929133858267716,
            "duration": 0.19736849999998185
          },
          {
            "name": "E4",
            "midi": 64,
            "time": 267.82905450000203,
            "velocity": 0.8976377952755905,
            "duration": 0.19736849999998185
          },
          {
            "name": "F#4",
            "midi": 66,
            "time": 268.026423000002,
            "velocity": 0.6929133858267716,
            "duration": 0.19736849999998185
          },
          {
            "name": "C#4",
            "midi": 61,
            "time": 268.223791500002,
            "velocity": 0.6929133858267716,
            "duration": 0.19736849999998185
          },
          {
            "name": "B3",
            "midi": 59,
            "time": 268.421160000002,
            "velocity": 0.6929133858267716,
            "duration": 0.19736849999998185
          },
          {
            "name": "B5",
            "midi": 83,
            "time": 268.61852850000196,
            "velocity": 0.8976377952755905,
            "duration": 0.19736849999998185
          },
          {
            "name": "D#6",
            "midi": 87,
            "time": 268.81589700000194,
            "velocity": 0.6929133858267716,
            "duration": 0.19736849999998185
          },
          {
            "name": "F#5",
            "midi": 78,
            "time": 269.0132655000019,
            "velocity": 0.8976377952755905,
            "duration": 0.19736849999998185
          },
          {
            "name": "B5",
            "midi": 83,
            "time": 269.2106340000019,
            "velocity": 0.6929133858267716,
            "duration": 0.19736849999998185
          },
          {
            "name": "D#5",
            "midi": 75,
            "time": 269.4080025000019,
            "velocity": 0.8976377952755905,
            "duration": 0.19736849999998185
          },
          {
            "name": "F#5",
            "midi": 78,
            "time": 269.60537100000187,
            "velocity": 0.6929133858267716,
            "duration": 0.19736849999998185
          },
          {
            "name": "B4",
            "midi": 71,
            "time": 269.80273950000185,
            "velocity": 0.8976377952755905,
            "duration": 0.19736849999998185
          },
          {
            "name": "E5",
            "midi": 76,
            "time": 270.00010800000183,
            "velocity": 0.6929133858267716,
            "duration": 0.19736849999998185
          },
          {
            "name": "A#4",
            "midi": 70,
            "time": 270.1974765000018,
            "velocity": 0.8976377952755905,
            "duration": 0.19736849999998185
          },
          {
            "name": "C#5",
            "midi": 73,
            "time": 270.3948450000018,
            "velocity": 0.6929133858267716,
            "duration": 0.19736849999998185
          },
          {
            "name": "F#4",
            "midi": 66,
            "time": 270.5922135000018,
            "velocity": 0.8976377952755905,
            "duration": 0.19736849999998185
          },
          {
            "name": "A#4",
            "midi": 70,
            "time": 270.78958200000176,
            "velocity": 0.6929133858267716,
            "duration": 0.19736849999998185
          },
          {
            "name": "E4",
            "midi": 64,
            "time": 270.98695050000174,
            "velocity": 0.8976377952755905,
            "duration": 0.19736849999998185
          },
          {
            "name": "F#4",
            "midi": 66,
            "time": 271.1843190000017,
            "velocity": 0.6929133858267716,
            "duration": 0.19736849999998185
          },
          {
            "name": "C#4",
            "midi": 61,
            "time": 271.3816875000017,
            "velocity": 0.6929133858267716,
            "duration": 0.19736849999998185
          },
          {
            "name": "B3",
            "midi": 59,
            "time": 271.5790560000017,
            "velocity": 0.6929133858267716,
            "duration": 0.19736849999998185
          },
          {
            "name": "F#3",
            "midi": 54,
            "time": 271.77642450000167,
            "velocity": 0.6929133858267716,
            "duration": 0.19736849999998185
          },
          {
            "name": "A#3",
            "midi": 58,
            "time": 271.97379300000165,
            "velocity": 0.6929133858267716,
            "duration": 0.19736849999998185
          },
          {
            "name": "F#3",
            "midi": 54,
            "time": 272.17116150000163,
            "velocity": 0.6929133858267716,
            "duration": 0.19736849999998185
          },
          {
            "name": "B3",
            "midi": 59,
            "time": 272.3685300000016,
            "velocity": 0.6929133858267716,
            "duration": 0.19736849999998185
          },
          {
            "name": "F#3",
            "midi": 54,
            "time": 272.5658985000016,
            "velocity": 0.6929133858267716,
            "duration": 0.19736849999998185
          },
          {
            "name": "A#3",
            "midi": 58,
            "time": 272.7632670000016,
            "velocity": 0.6929133858267716,
            "duration": 0.19736849999998185
          },
          {
            "name": "F#3",
            "midi": 54,
            "time": 272.96063550000156,
            "velocity": 0.6929133858267716,
            "duration": 0.19736849999998185
          },
          {
            "name": "B3",
            "midi": 59,
            "time": 273.15800400000154,
            "velocity": 0.6929133858267716,
            "duration": 0.19736849999998185
          },
          {
            "name": "F#3",
            "midi": 54,
            "time": 273.3553725000015,
            "velocity": 0.6929133858267716,
            "duration": 0.19736849999998185
          },
          {
            "name": "A#3",
            "midi": 58,
            "time": 273.5527410000015,
            "velocity": 0.6929133858267716,
            "duration": 0.19736849999998185
          },
          {
            "name": "F#3",
            "midi": 54,
            "time": 273.7501095000015,
            "velocity": 0.6929133858267716,
            "duration": 0.19736849999998185
          },
          {
            "name": "B3",
            "midi": 59,
            "time": 273.94747800000147,
            "velocity": 0.6929133858267716,
            "duration": 0.19736849999998185
          },
          {
            "name": "F#3",
            "midi": 54,
            "time": 274.14484650000145,
            "velocity": 0.6929133858267716,
            "duration": 0.19736849999998185
          },
          {
            "name": "A#3",
            "midi": 58,
            "time": 274.34221500000143,
            "velocity": 0.6929133858267716,
            "duration": 0.19736849999998185
          },
          {
            "name": "F#3",
            "midi": 54,
            "time": 274.5395835000014,
            "velocity": 0.6929133858267716,
            "duration": 0.19736849999998185
          },
          {
            "name": "B3",
            "midi": 59,
            "time": 274.7369520000014,
            "velocity": 0.6929133858267716,
            "duration": 0.19736849999998185
          },
          {
            "name": "F#5",
            "midi": 78,
            "time": 274.9343205000014,
            "velocity": 0.6929133858267716,
            "duration": 0.19736849999998185
          },
          {
            "name": "A#5",
            "midi": 82,
            "time": 275.13168900000136,
            "velocity": 0.6929133858267716,
            "duration": 0.19736849999998185
          },
          {
            "name": "F#5",
            "midi": 78,
            "time": 275.32905750000134,
            "velocity": 0.6929133858267716,
            "duration": 0.19736849999998185
          },
          {
            "name": "B5",
            "midi": 83,
            "time": 275.5264260000013,
            "velocity": 0.6929133858267716,
            "duration": 0.19736849999998185
          },
          {
            "name": "F#5",
            "midi": 78,
            "time": 275.7237945000013,
            "velocity": 0.6929133858267716,
            "duration": 0.19736849999998185
          },
          {
            "name": "A#5",
            "midi": 82,
            "time": 275.9211630000013,
            "velocity": 0.6929133858267716,
            "duration": 0.19736849999998185
          },
          {
            "name": "F#5",
            "midi": 78,
            "time": 276.11853150000127,
            "velocity": 0.6929133858267716,
            "duration": 0.19736849999998185
          },
          {
            "name": "B5",
            "midi": 83,
            "time": 276.31590000000125,
            "velocity": 0.6929133858267716,
            "duration": 0.19736849999998185
          },
          {
            "name": "F#5",
            "midi": 78,
            "time": 276.51326850000123,
            "velocity": 0.6929133858267716,
            "duration": 0.19736849999998185
          },
          {
            "name": "A#5",
            "midi": 82,
            "time": 276.7106370000012,
            "velocity": 0.6929133858267716,
            "duration": 0.19736849999998185
          },
          {
            "name": "F#5",
            "midi": 78,
            "time": 276.9080055000012,
            "velocity": 0.6929133858267716,
            "duration": 0.19736849999998185
          },
          {
            "name": "B5",
            "midi": 83,
            "time": 277.1053740000012,
            "velocity": 0.6929133858267716,
            "duration": 0.19736849999998185
          },
          {
            "name": "F#5",
            "midi": 78,
            "time": 277.30274250000116,
            "velocity": 0.6929133858267716,
            "duration": 0.19736849999998185
          },
          {
            "name": "A#5",
            "midi": 82,
            "time": 277.50011100000114,
            "velocity": 0.6929133858267716,
            "duration": 0.19736849999998185
          },
          {
            "name": "F#5",
            "midi": 78,
            "time": 277.6974795000011,
            "velocity": 0.6929133858267716,
            "duration": 0.19736849999998185
          },
          {
            "name": "B5",
            "midi": 83,
            "time": 277.8948480000011,
            "velocity": 0.6929133858267716,
            "duration": 0.19736849999998185
          },
          {
            "name": "B5",
            "midi": 83,
            "time": 278.0922165000011,
            "velocity": 0.8976377952755905,
            "duration": 0.19736849999998185
          },
          {
            "name": "D6",
            "midi": 86,
            "time": 278.28958500000107,
            "velocity": 0.6929133858267716,
            "duration": 0.19736849999998185
          },
          {
            "name": "F#5",
            "midi": 78,
            "time": 278.48695350000105,
            "velocity": 0.8976377952755905,
            "duration": 0.19736849999998185
          },
          {
            "name": "B5",
            "midi": 83,
            "time": 278.68432200000103,
            "velocity": 0.6929133858267716,
            "duration": 0.19736849999998185
          },
          {
            "name": "D5",
            "midi": 74,
            "time": 278.881690500001,
            "velocity": 0.8976377952755905,
            "duration": 0.19736849999998185
          },
          {
            "name": "F#5",
            "midi": 78,
            "time": 279.079059000001,
            "velocity": 0.6929133858267716,
            "duration": 0.19736849999998185
          },
          {
            "name": "B4",
            "midi": 71,
            "time": 279.276427500001,
            "velocity": 0.8976377952755905,
            "duration": 0.19736849999998185
          },
          {
            "name": "E5",
            "midi": 76,
            "time": 279.47379600000096,
            "velocity": 0.6929133858267716,
            "duration": 0.19736849999998185
          },
          {
            "name": "A#4",
            "midi": 70,
            "time": 279.67116450000094,
            "velocity": 0.8976377952755905,
            "duration": 0.19736849999998185
          },
          {
            "name": "C#5",
            "midi": 73,
            "time": 279.8685330000009,
            "velocity": 0.6929133858267716,
            "duration": 0.19736849999998185
          },
          {
            "name": "F#4",
            "midi": 66,
            "time": 280.0659015000009,
            "velocity": 0.8976377952755905,
            "duration": 0.19736849999998185
          },
          {
            "name": "A#4",
            "midi": 70,
            "time": 280.2632700000009,
            "velocity": 0.6929133858267716,
            "duration": 0.19736849999998185
          },
          {
            "name": "E4",
            "midi": 64,
            "time": 280.46063850000087,
            "velocity": 0.8976377952755905,
            "duration": 0.19736849999998185
          },
          {
            "name": "F#4",
            "midi": 66,
            "time": 280.65800700000085,
            "velocity": 0.6929133858267716,
            "duration": 0.19736849999998185
          },
          {
            "name": "C#4",
            "midi": 61,
            "time": 280.85537550000083,
            "velocity": 0.8976377952755905,
            "duration": 0.19736849999998185
          },
          {
            "name": "B3",
            "midi": 59,
            "time": 281.0527440000008,
            "velocity": 0.6929133858267716,
            "duration": 0.19736849999998185
          },
          {
            "name": "B5",
            "midi": 83,
            "time": 281.2501125000008,
            "velocity": 0.8976377952755905,
            "duration": 0.19736849999998185
          },
          {
            "name": "D6",
            "midi": 86,
            "time": 281.4474810000008,
            "velocity": 0.6929133858267716,
            "duration": 0.19736849999998185
          },
          {
            "name": "F#5",
            "midi": 78,
            "time": 281.64484950000076,
            "velocity": 0.8976377952755905,
            "duration": 0.19736849999998185
          },
          {
            "name": "B5",
            "midi": 83,
            "time": 281.84221800000074,
            "velocity": 0.6929133858267716,
            "duration": 0.19736849999998185
          },
          {
            "name": "D5",
            "midi": 74,
            "time": 282.0395865000007,
            "velocity": 0.8976377952755905,
            "duration": 0.19736849999998185
          },
          {
            "name": "F#5",
            "midi": 78,
            "time": 282.2369550000007,
            "velocity": 0.6929133858267716,
            "duration": 0.19736849999998185
          },
          {
            "name": "B4",
            "midi": 71,
            "time": 282.4343235000007,
            "velocity": 0.8976377952755905,
            "duration": 0.19736849999998185
          },
          {
            "name": "E5",
            "midi": 76,
            "time": 282.63169200000067,
            "velocity": 0.6929133858267716,
            "duration": 0.19736849999998185
          },
          {
            "name": "A#4",
            "midi": 70,
            "time": 282.82906050000065,
            "velocity": 0.8976377952755905,
            "duration": 0.19736849999998185
          },
          {
            "name": "C#5",
            "midi": 73,
            "time": 283.02642900000063,
            "velocity": 0.6929133858267716,
            "duration": 0.19736849999998185
          },
          {
            "name": "F#4",
            "midi": 66,
            "time": 283.2237975000006,
            "velocity": 0.8976377952755905,
            "duration": 0.19736849999998185
          },
          {
            "name": "A#4",
            "midi": 70,
            "time": 283.4211660000006,
            "velocity": 0.6929133858267716,
            "duration": 0.19736849999998185
          },
          {
            "name": "E4",
            "midi": 64,
            "time": 283.6185345000006,
            "velocity": 0.8976377952755905,
            "duration": 0.19736849999998185
          },
          {
            "name": "F#4",
            "midi": 66,
            "time": 283.81590300000056,
            "velocity": 0.6929133858267716,
            "duration": 0.19736849999998185
          },
          {
            "name": "C#4",
            "midi": 61,
            "time": 284.01327150000054,
            "velocity": 0.8976377952755905,
            "duration": 0.19736849999998185
          },
          {
            "name": "B3",
            "midi": 59,
            "time": 284.2106400000005,
            "velocity": 0.6929133858267716,
            "duration": 0.19736849999998185
          },
          {
            "name": "G5",
            "midi": 79,
            "time": 284.4080085000005,
            "velocity": 0.8976377952755905,
            "duration": 0.19736849999998185
          },
          {
            "name": "B5",
            "midi": 83,
            "time": 284.6053770000005,
            "velocity": 0.6929133858267716,
            "duration": 0.19736849999998185
          },
          {
            "name": "D5",
            "midi": 74,
            "time": 284.80274550000047,
            "velocity": 0.6929133858267716,
            "duration": 0.19736849999998185
          },
          {
            "name": "G5",
            "midi": 79,
            "time": 285.00011400000045,
            "velocity": 0.6929133858267716,
            "duration": 0.19736849999998185
          },
          {
            "name": "B4",
            "midi": 71,
            "time": 285.19748250000043,
            "velocity": 0.8976377952755905,
            "duration": 0.19736849999998185
          },
          {
            "name": "D5",
            "midi": 74,
            "time": 285.3948510000004,
            "velocity": 0.6929133858267716,
            "duration": 0.19736849999998185
          },
          {
            "name": "G4",
            "midi": 67,
            "time": 285.5922195000004,
            "velocity": 0.8976377952755905,
            "duration": 0.19736849999998185
          },
          {
            "name": "C5",
            "midi": 72,
            "time": 285.7895880000004,
            "velocity": 0.6929133858267716,
            "duration": 0.19736849999998185
          },
          {
            "name": "F#4",
            "midi": 66,
            "time": 285.98695650000036,
            "velocity": 0.8976377952755905,
            "duration": 0.19736849999998185
          },
          {
            "name": "A4",
            "midi": 69,
            "time": 286.18432500000034,
            "velocity": 0.6929133858267716,
            "duration": 0.19736849999998185
          },
          {
            "name": "D4",
            "midi": 62,
            "time": 286.3816935000003,
            "velocity": 0.8976377952755905,
            "duration": 0.19736849999998185
          },
          {
            "name": "F#4",
            "midi": 66,
            "time": 286.5790620000003,
            "velocity": 0.6929133858267716,
            "duration": 0.19736849999998185
          },
          {
            "name": "C4",
            "midi": 60,
            "time": 286.7764305000003,
            "velocity": 0.8976377952755905,
            "duration": 0.19736849999998185
          },
          {
            "name": "D4",
            "midi": 62,
            "time": 286.97379900000027,
            "velocity": 0.6929133858267716,
            "duration": 0.19736849999998185
          },
          {
            "name": "A3",
            "midi": 57,
            "time": 287.17116750000025,
            "velocity": 0.8976377952755905,
            "duration": 0.19736849999998185
          },
          {
            "name": "G3",
            "midi": 55,
            "time": 287.36853600000023,
            "velocity": 0.6929133858267716,
            "duration": 0.19736849999998185
          },
          {
            "name": "G5",
            "midi": 79,
            "time": 287.5659045000002,
            "velocity": 0.8976377952755905,
            "duration": 0.19736849999998185
          },
          {
            "name": "B5",
            "midi": 83,
            "time": 287.7632730000002,
            "velocity": 0.6929133858267716,
            "duration": 0.19736849999998185
          },
          {
            "name": "D5",
            "midi": 74,
            "time": 287.9606415000002,
            "velocity": 0.6929133858267716,
            "duration": 0.19736849999998185
          },
          {
            "name": "G5",
            "midi": 79,
            "time": 288.15801000000016,
            "velocity": 0.6929133858267716,
            "duration": 0.19736849999998185
          },
          {
            "name": "B4",
            "midi": 71,
            "time": 288.35537850000014,
            "velocity": 0.8976377952755905,
            "duration": 0.19736849999998185
          },
          {
            "name": "D5",
            "midi": 74,
            "time": 288.5527470000001,
            "velocity": 0.6929133858267716,
            "duration": 0.19736849999998185
          },
          {
            "name": "G4",
            "midi": 67,
            "time": 288.7501155000001,
            "velocity": 0.8976377952755905,
            "duration": 0.19736849999998185
          },
          {
            "name": "C5",
            "midi": 72,
            "time": 288.9474840000001,
            "velocity": 0.6929133858267716,
            "duration": 0.19736849999998185
          },
          {
            "name": "F#4",
            "midi": 66,
            "time": 289.14485250000007,
            "velocity": 0.8976377952755905,
            "duration": 0.19736849999998185
          },
          {
            "name": "A4",
            "midi": 69,
            "time": 289.34222100000005,
            "velocity": 0.6929133858267716,
            "duration": 0.19736849999998185
          },
          {
            "name": "D4",
            "midi": 62,
            "time": 289.53958950000003,
            "velocity": 0.8976377952755905,
            "duration": 0.19736849999998185
          },
          {
            "name": "F#4",
            "midi": 66,
            "time": 289.736958,
            "velocity": 0.6929133858267716,
            "duration": 0.19736849999998185
          },
          {
            "name": "C4",
            "midi": 60,
            "time": 289.9343265,
            "velocity": 0.8976377952755905,
            "duration": 0.19736849999998185
          },
          {
            "name": "D4",
            "midi": 62,
            "time": 290.131695,
            "velocity": 0.6929133858267716,
            "duration": 0.19736849999998185
          },
          {
            "name": "A3",
            "midi": 57,
            "time": 290.32906349999996,
            "velocity": 0.8976377952755905,
            "duration": 0.19736849999998185
          },
          {
            "name": "G3",
            "midi": 55,
            "time": 290.52643199999994,
            "velocity": 0.6929133858267716,
            "duration": 0.19736849999998185
          },
          {
            "name": "D3",
            "midi": 50,
            "time": 290.7238004999999,
            "velocity": 0.6929133858267716,
            "duration": 0.19736849999998185
          },
          {
            "name": "F#3",
            "midi": 54,
            "time": 290.9211689999999,
            "velocity": 0.6929133858267716,
            "duration": 0.19736849999998185
          },
          {
            "name": "D3",
            "midi": 50,
            "time": 291.1185374999999,
            "velocity": 0.6929133858267716,
            "duration": 0.19736849999998185
          },
          {
            "name": "G3",
            "midi": 55,
            "time": 291.31590599999987,
            "velocity": 0.6929133858267716,
            "duration": 0.19736849999998185
          },
          {
            "name": "D3",
            "midi": 50,
            "time": 291.51327449999985,
            "velocity": 0.6929133858267716,
            "duration": 0.19736849999998185
          },
          {
            "name": "F#3",
            "midi": 54,
            "time": 291.71064299999983,
            "velocity": 0.6929133858267716,
            "duration": 0.19736849999998185
          },
          {
            "name": "D3",
            "midi": 50,
            "time": 291.9080114999998,
            "velocity": 0.6929133858267716,
            "duration": 0.19736849999998185
          },
          {
            "name": "G3",
            "midi": 55,
            "time": 292.1053799999998,
            "velocity": 0.6929133858267716,
            "duration": 0.19736849999998185
          },
          {
            "name": "D3",
            "midi": 50,
            "time": 292.3027484999998,
            "velocity": 0.6929133858267716,
            "duration": 0.19736849999998185
          },
          {
            "name": "G#3",
            "midi": 56,
            "time": 292.50011699999976,
            "velocity": 0.6929133858267716,
            "duration": 0.19736849999998185
          },
          {
            "name": "E3",
            "midi": 52,
            "time": 292.69748549999974,
            "velocity": 0.6929133858267716,
            "duration": 0.19736849999998185
          },
          {
            "name": "A3",
            "midi": 57,
            "time": 292.8948539999997,
            "velocity": 0.6929133858267716,
            "duration": 0.19736849999998185
          },
          {
            "name": "E3",
            "midi": 52,
            "time": 293.0922224999997,
            "velocity": 0.6929133858267716,
            "duration": 0.19736849999998185
          },
          {
            "name": "G#3",
            "midi": 56,
            "time": 293.2895909999997,
            "velocity": 0.6929133858267716,
            "duration": 0.19736849999998185
          },
          {
            "name": "E3",
            "midi": 52,
            "time": 293.48695949999967,
            "velocity": 0.6929133858267716,
            "duration": 0.19736849999998185
          },
          {
            "name": "A3",
            "midi": 57,
            "time": 293.68432799999965,
            "velocity": 0.6929133858267716,
            "duration": 0.19736849999998185
          },
          {
            "name": "E3",
            "midi": 52,
            "time": 293.88169649999963,
            "velocity": 0.6929133858267716,
            "duration": 0.19736849999998185
          },
          {
            "name": "A#3",
            "midi": 58,
            "time": 294.0790649999996,
            "velocity": 0.6929133858267716,
            "duration": 0.19736849999998185
          },
          {
            "name": "F#3",
            "midi": 54,
            "time": 294.2764334999996,
            "velocity": 0.6929133858267716,
            "duration": 0.19736849999998185
          },
          {
            "name": "B3",
            "midi": 59,
            "time": 294.4738019999996,
            "velocity": 0.6929133858267716,
            "duration": 0.19736849999998185
          },
          {
            "name": "F#3",
            "midi": 54,
            "time": 294.67117049999956,
            "velocity": 0.6929133858267716,
            "duration": 0.19736849999998185
          },
          {
            "name": "A#3",
            "midi": 58,
            "time": 294.86853899999954,
            "velocity": 0.6929133858267716,
            "duration": 0.19736849999998185
          },
          {
            "name": "F#3",
            "midi": 54,
            "time": 295.0659074999995,
            "velocity": 0.6929133858267716,
            "duration": 0.19736849999998185
          },
          {
            "name": "B3",
            "midi": 59,
            "time": 295.2632759999995,
            "velocity": 0.6929133858267716,
            "duration": 0.19736849999998185
          },
          {
            "name": "F#3",
            "midi": 54,
            "time": 295.4606444999995,
            "velocity": 0.6929133858267716,
            "duration": 0.19736849999998185
          },
          {
            "name": "B3",
            "midi": 59,
            "time": 295.65801299999947,
            "velocity": 0.6929133858267716,
            "duration": 0.19736849999998185
          },
          {
            "name": "G3",
            "midi": 55,
            "time": 295.85538149999945,
            "velocity": 0.6929133858267716,
            "duration": 0.19736849999998185
          },
          {
            "name": "C4",
            "midi": 60,
            "time": 296.05274999999943,
            "velocity": 0.6929133858267716,
            "duration": 0.19736849999998185
          },
          {
            "name": "G3",
            "midi": 55,
            "time": 296.2501184999994,
            "velocity": 0.6929133858267716,
            "duration": 0.19736849999998185
          },
          {
            "name": "B3",
            "midi": 59,
            "time": 296.4474869999994,
            "velocity": 0.6929133858267716,
            "duration": 0.19736849999998185
          },
          {
            "name": "G3",
            "midi": 55,
            "time": 296.6448554999994,
            "velocity": 0.6929133858267716,
            "duration": 0.19736849999998185
          },
          {
            "name": "C4",
            "midi": 60,
            "time": 296.84222399999936,
            "velocity": 0.6929133858267716,
            "duration": 0.19736849999998185
          },
          {
            "name": "G3",
            "midi": 55,
            "time": 297.03959249999934,
            "velocity": 0.6929133858267716,
            "duration": 0.19736849999998185
          },
          {
            "name": "B3",
            "midi": 59,
            "time": 297.2369609999993,
            "velocity": 0.6929133858267716,
            "duration": 0.19736849999998185
          },
          {
            "name": "G3",
            "midi": 55,
            "time": 297.4343294999993,
            "velocity": 0.6929133858267716,
            "duration": 0.19736849999998185
          },
          {
            "name": "C4",
            "midi": 60,
            "time": 297.6316979999993,
            "velocity": 0.6929133858267716,
            "duration": 0.19736849999998185
          },
          {
            "name": "G3",
            "midi": 55,
            "time": 297.82906649999927,
            "velocity": 0.6929133858267716,
            "duration": 0.19736849999998185
          },
          {
            "name": "B3",
            "midi": 59,
            "time": 298.02643499999925,
            "velocity": 0.6929133858267716,
            "duration": 0.19736849999998185
          },
          {
            "name": "G3",
            "midi": 55,
            "time": 298.22380349999924,
            "velocity": 0.6929133858267716,
            "duration": 0.19736849999998185
          },
          {
            "name": "C4",
            "midi": 60,
            "time": 298.4211719999992,
            "velocity": 0.6929133858267716,
            "duration": 0.19736849999998185
          },
          {
            "name": "E3",
            "midi": 52,
            "time": 298.6185404999992,
            "velocity": 0.8976377952755905,
            "duration": 0.19736849999998185
          },
          {
            "name": "C3",
            "midi": 48,
            "time": 298.8159089999992,
            "velocity": 0.6929133858267716,
            "duration": 0.19736849999998185
          },
          {
            "name": "G3",
            "midi": 55,
            "time": 299.01327749999916,
            "velocity": 0.8976377952755905,
            "duration": 0.19736849999998185
          },
          {
            "name": "E3",
            "midi": 52,
            "time": 299.21064599999914,
            "velocity": 0.6929133858267716,
            "duration": 0.19736849999998185
          },
          {
            "name": "C4",
            "midi": 60,
            "time": 299.4080144999991,
            "velocity": 0.8976377952755905,
            "duration": 0.19736849999998185
          },
          {
            "name": "G3",
            "midi": 55,
            "time": 299.6053829999991,
            "velocity": 0.6929133858267716,
            "duration": 0.19736849999998185
          },
          {
            "name": "E4",
            "midi": 64,
            "time": 299.8027514999991,
            "velocity": 0.8976377952755905,
            "duration": 0.19736849999998185
          },
          {
            "name": "C4",
            "midi": 60,
            "time": 300.0001199999991,
            "velocity": 0.6929133858267716,
            "duration": 0.19736849999998185
          },
          {
            "name": "G4",
            "midi": 67,
            "time": 300.19748849999905,
            "velocity": 0.8976377952755905,
            "duration": 0.19736849999998185
          },
          {
            "name": "E4",
            "midi": 64,
            "time": 300.39485699999904,
            "velocity": 0.6929133858267716,
            "duration": 0.19736849999998185
          },
          {
            "name": "C5",
            "midi": 72,
            "time": 300.592225499999,
            "velocity": 0.8976377952755905,
            "duration": 0.19736849999998185
          },
          {
            "name": "G4",
            "midi": 67,
            "time": 300.789593999999,
            "velocity": 0.6929133858267716,
            "duration": 0.19736849999998185
          },
          {
            "name": "E5",
            "midi": 76,
            "time": 300.986962499999,
            "velocity": 0.8976377952755905,
            "duration": 0.19736849999998185
          },
          {
            "name": "C5",
            "midi": 72,
            "time": 301.18433099999896,
            "velocity": 0.6929133858267716,
            "duration": 0.19736849999998185
          },
          {
            "name": "G5",
            "midi": 79,
            "time": 301.38169949999894,
            "velocity": 0.8976377952755905,
            "duration": 0.19736849999998185
          },
          {
            "name": "C5",
            "midi": 72,
            "time": 301.5790679999989,
            "velocity": 0.6929133858267716,
            "duration": 0.39473700000002054
          },
          {
            "name": "C6",
            "midi": 84,
            "time": 301.5790679999989,
            "velocity": 0.6929133858267716,
            "duration": 0.39473700000002054
          },
          {
            "name": "G5",
            "midi": 79,
            "time": 301.97380499999895,
            "velocity": 0.6929133858267716,
            "duration": 0.39473700000002054
          },
          {
            "name": "E6",
            "midi": 88,
            "time": 301.97380499999895,
            "velocity": 0.6929133858267716,
            "duration": 0.39473700000002054
          },
          {
            "name": "G#5",
            "midi": 80,
            "time": 302.36854199999897,
            "velocity": 0.4881889763779528,
            "duration": 0.39473700000002054
          },
          {
            "name": "D#6",
            "midi": 87,
            "time": 302.36854199999897,
            "velocity": 0.4881889763779528,
            "duration": 0.39473700000002054
          },
          {
            "name": "C#5",
            "midi": 73,
            "time": 302.763278999999,
            "velocity": 0.4881889763779528,
            "duration": 0.39473700000002054
          },
          {
            "name": "C#6",
            "midi": 85,
            "time": 302.763278999999,
            "velocity": 0.4881889763779528,
            "duration": 0.39473700000002054
          },
          {
            "name": "B5",
            "midi": 83,
            "time": 303.158015999999,
            "velocity": 0.4881889763779528,
            "duration": 0.2960527500000012
          },
          {
            "name": "A#5",
            "midi": 82,
            "time": 303.454068749999,
            "velocity": 0.4881889763779528,
            "duration": 0.09868425000001935
          },
          {
            "name": "G#5",
            "midi": 80,
            "time": 303.55275299999903,
            "velocity": 0.4881889763779528,
            "duration": 0.2960527500000012
          },
          {
            "name": "F#5",
            "midi": 78,
            "time": 303.84880574999903,
            "velocity": 0.4881889763779528,
            "duration": 0.09868425000001935
          },
          {
            "name": "E5",
            "midi": 76,
            "time": 303.94748999999905,
            "velocity": 0.4881889763779528,
            "duration": 0.2960527500000012
          },
          {
            "name": "D#5",
            "midi": 75,
            "time": 304.24354274999905,
            "velocity": 0.4881889763779528,
            "duration": 0.09868425000001935
          },
          {
            "name": "C#5",
            "midi": 73,
            "time": 304.34222699999907,
            "velocity": 0.4881889763779528,
            "duration": 0.2960527500000012
          },
          {
            "name": "B4",
            "midi": 71,
            "time": 304.63827974999907,
            "velocity": 0.4881889763779528,
            "duration": 0.09868425000001935
          },
          {
            "name": "A#4",
            "midi": 70,
            "time": 304.7369639999991,
            "velocity": 0.4881889763779528,
            "duration": 0.2960527500000012
          },
          {
            "name": "G#4",
            "midi": 68,
            "time": 305.0330167499991,
            "velocity": 0.4881889763779528,
            "duration": 0.09868425000001935
          },
          {
            "name": "F#4",
            "midi": 66,
            "time": 305.1317009999991,
            "velocity": 0.4881889763779528,
            "duration": 0.2960527500000012
          },
          {
            "name": "E4",
            "midi": 64,
            "time": 305.4277537499991,
            "velocity": 0.4881889763779528,
            "duration": 0.09868425000001935
          },
          {
            "name": "D#4",
            "midi": 63,
            "time": 305.52643799999913,
            "velocity": 0.4881889763779528,
            "duration": 0.2960527500000012
          },
          {
            "name": "C#4",
            "midi": 61,
            "time": 305.82249074999913,
            "velocity": 0.4881889763779528,
            "duration": 0.09868425000001935
          },
          {
            "name": "B3",
            "midi": 59,
            "time": 305.92117499999915,
            "velocity": 0.4881889763779528,
            "duration": 0.2960527500000012
          },
          {
            "name": "A#3",
            "midi": 58,
            "time": 306.21722774999915,
            "velocity": 0.4881889763779528,
            "duration": 0.09868425000001935
          },
          {
            "name": "B3",
            "midi": 59,
            "time": 306.3159119999992,
            "velocity": 0.4881889763779528,
            "duration": 0.39473700000002054
          },
          {
            "name": "D#5",
            "midi": 75,
            "time": 307.0067017499992,
            "velocity": 0.5905511811023622,
            "duration": 0.04934212500000967
          },
          {
            "name": "E5",
            "midi": 76,
            "time": 307.0560438749992,
            "velocity": 0.5905511811023622,
            "duration": 0.04934212500000967
          },
          {
            "name": "F#5",
            "midi": 78,
            "time": 307.1053859999992,
            "velocity": 0.5905511811023622,
            "duration": 0.07894740000000411
          },
          {
            "name": "B4",
            "midi": 71,
            "time": 307.50012299999923,
            "velocity": 0.5905511811023622,
            "duration": 0.07894740000000411
          },
          {
            "name": "D#5",
            "midi": 75,
            "time": 307.89485999999926,
            "velocity": 0.5905511811023622,
            "duration": 0.39473700000002054
          },
          {
            "name": "E5",
            "midi": 76,
            "time": 308.2895969999993,
            "velocity": 0.5905511811023622,
            "duration": 0.19736849999998185
          },
          {
            "name": "A#4",
            "midi": 70,
            "time": 308.5856497499993,
            "velocity": 0.5905511811023622,
            "duration": 0.04934212500000967
          },
          {
            "name": "B4",
            "midi": 71,
            "time": 308.6349918749993,
            "velocity": 0.5905511811023622,
            "duration": 0.04934212500000967
          },
          {
            "name": "C#5",
            "midi": 73,
            "time": 308.6843339999993,
            "velocity": 0.5905511811023622,
            "duration": 0.07894740000000411
          },
          {
            "name": "G#5",
            "midi": 80,
            "time": 309.0790709999993,
            "velocity": 0.5905511811023622,
            "duration": 0.07894740000000411
          },
          {
            "name": "F#5",
            "midi": 78,
            "time": 309.47380799999934,
            "velocity": 0.5905511811023622,
            "duration": 0.39473700000002054
          },
          {
            "name": "B5",
            "midi": 83,
            "time": 309.86854499999936,
            "velocity": 0.5905511811023622,
            "duration": 0.19736849999998185
          },
          {
            "name": "D#5",
            "midi": 75,
            "time": 310.16459774999936,
            "velocity": 0.5905511811023622,
            "duration": 0.04934212500000967
          },
          {
            "name": "E5",
            "midi": 76,
            "time": 310.21393987499937,
            "velocity": 0.5905511811023622,
            "duration": 0.04934212500000967
          },
          {
            "name": "F#5",
            "midi": 78,
            "time": 310.2632819999994,
            "velocity": 0.5905511811023622,
            "duration": 0.07894740000000411
          },
          {
            "name": "B4",
            "midi": 71,
            "time": 310.6580189999994,
            "velocity": 0.5905511811023622,
            "duration": 0.07894740000000411
          },
          {
            "name": "F#5",
            "midi": 78,
            "time": 311.0527559999994,
            "velocity": 0.5905511811023622,
            "duration": 0.39473700000002054
          },
          {
            "name": "E5",
            "midi": 76,
            "time": 311.44749299999944,
            "velocity": 0.5905511811023622,
            "duration": 0.19736849999998185
          },
          {
            "name": "A#4",
            "midi": 70,
            "time": 311.74354574999944,
            "velocity": 0.5905511811023622,
            "duration": 0.04934212500000967
          },
          {
            "name": "B4",
            "midi": 71,
            "time": 311.79288787499945,
            "velocity": 0.5905511811023622,
            "duration": 0.04934212500000967
          },
          {
            "name": "C#5",
            "midi": 73,
            "time": 311.84222999999946,
            "velocity": 0.5905511811023622,
            "duration": 0.07894740000000411
          },
          {
            "name": "G#5",
            "midi": 80,
            "time": 312.2369669999995,
            "velocity": 0.5905511811023622,
            "duration": 0.07894740000000411
          },
          {
            "name": "F#5",
            "midi": 78,
            "time": 312.6317039999995,
            "velocity": 0.5905511811023622,
            "duration": 0.39473700000002054
          },
          {
            "name": "B5",
            "midi": 83,
            "time": 313.0264409999995,
            "velocity": 0.5905511811023622,
            "duration": 0.19736849999998185
          },
          {
            "name": "C#6",
            "midi": 85,
            "time": 313.3224937499995,
            "velocity": 0.4881889763779528,
            "duration": 0.04934212500000967
          },
          {
            "name": "D#6",
            "midi": 87,
            "time": 313.37183587499953,
            "velocity": 0.4881889763779528,
            "duration": 0.04934212500000967
          },
          {
            "name": "E6",
            "midi": 88,
            "time": 313.42117799999954,
            "velocity": 0.4881889763779528,
            "duration": 0.07894740000000411
          },
          {
            "name": "G5",
            "midi": 79,
            "time": 313.81591499999956,
            "velocity": 0.4881889763779528,
            "duration": 0.07894740000000411
          },
          {
            "name": "B5",
            "midi": 83,
            "time": 314.11196774999956,
            "velocity": 0.4881889763779528,
            "duration": 0.04934212500000967
          },
          {
            "name": "C#6",
            "midi": 85,
            "time": 314.1613098749996,
            "velocity": 0.4881889763779528,
            "duration": 0.04934212500000967
          },
          {
            "name": "D#6",
            "midi": 87,
            "time": 314.2106519999996,
            "velocity": 0.4881889763779528,
            "duration": 0.07894740000000411
          },
          {
            "name": "F#5",
            "midi": 78,
            "time": 314.6053889999996,
            "velocity": 0.4881889763779528,
            "duration": 0.07894740000000411
          },
          {
            "name": "A#5",
            "midi": 82,
            "time": 314.9014417499996,
            "velocity": 0.4881889763779528,
            "duration": 0.04934212500000967
          },
          {
            "name": "B5",
            "midi": 83,
            "time": 314.9507838749996,
            "velocity": 0.4881889763779528,
            "duration": 0.04934212500000967
          },
          {
            "name": "C#6",
            "midi": 85,
            "time": 315.0001259999996,
            "velocity": 0.4881889763779528,
            "duration": 0.07894740000000411
          },
          {
            "name": "E5",
            "midi": 76,
            "time": 315.39486299999965,
            "velocity": 0.4881889763779528,
            "duration": 0.07894740000000411
          },
          {
            "name": "D#5",
            "midi": 75,
            "time": 315.69091574999965,
            "velocity": 0.4881889763779528,
            "duration": 0.04934212500000967
          },
          {
            "name": "F#5",
            "midi": 78,
            "time": 315.74025787499966,
            "velocity": 0.4881889763779528,
            "duration": 0.04934212500000967
          },
          {
            "name": "B5",
            "midi": 83,
            "time": 315.78959999999967,
            "velocity": 0.4881889763779528,
            "duration": 0.7894740000000411
          },
          {
            "name": "C#5",
            "midi": 73,
            "time": 316.4803897499997,
            "velocity": 0.4881889763779528,
            "duration": 0.04934212500000967
          },
          {
            "name": "D#5",
            "midi": 75,
            "time": 316.5297318749997,
            "velocity": 0.4881889763779528,
            "duration": 0.04934212500000967
          },
          {
            "name": "E5",
            "midi": 76,
            "time": 316.5790739999997,
            "velocity": 0.4881889763779528,
            "duration": 0.07894740000000411
          },
          {
            "name": "G4",
            "midi": 67,
            "time": 316.9738109999997,
            "velocity": 0.4881889763779528,
            "duration": 0.07894740000000411
          },
          {
            "name": "B4",
            "midi": 71,
            "time": 317.26986374999973,
            "velocity": 0.4881889763779528,
            "duration": 0.04934212500000967
          },
          {
            "name": "C#5",
            "midi": 73,
            "time": 317.31920587499974,
            "velocity": 0.4881889763779528,
            "duration": 0.04934212500000967
          },
          {
            "name": "D#5",
            "midi": 75,
            "time": 317.36854799999975,
            "velocity": 0.4881889763779528,
            "duration": 0.07894740000000411
          },
          {
            "name": "F#4",
            "midi": 66,
            "time": 317.76328499999977,
            "velocity": 0.4881889763779528,
            "duration": 0.07894740000000411
          },
          {
            "name": "A#4",
            "midi": 70,
            "time": 318.05933774999977,
            "velocity": 0.4881889763779528,
            "duration": 0.04934212500000967
          },
          {
            "name": "B4",
            "midi": 71,
            "time": 318.1086798749998,
            "velocity": 0.4881889763779528,
            "duration": 0.04934212500000967
          },
          {
            "name": "C#5",
            "midi": 73,
            "time": 318.1580219999998,
            "velocity": 0.4881889763779528,
            "duration": 0.07894740000000411
          },
          {
            "name": "E4",
            "midi": 64,
            "time": 318.5527589999998,
            "velocity": 0.4881889763779528,
            "duration": 0.07894740000000411
          },
          {
            "name": "D#4",
            "midi": 63,
            "time": 318.8488117499998,
            "velocity": 0.4881889763779528,
            "duration": 0.04934212500000967
          },
          {
            "name": "F#4",
            "midi": 66,
            "time": 318.8981538749998,
            "velocity": 0.4881889763779528,
            "duration": 0.04934212500000967
          },
          {
            "name": "B4",
            "midi": 71,
            "time": 318.94749599999983,
            "velocity": 0.4881889763779528,
            "duration": 0.7894740000000411
          },
          {
            "name": "A#5",
            "midi": 82,
            "time": 319.63828574999985,
            "velocity": 0.3858267716535433,
            "duration": 0.04934212500000967
          },
          {
            "name": "B5",
            "midi": 83,
            "time": 319.68762787499986,
            "velocity": 0.3858267716535433,
            "duration": 0.04934212500000967
          },
          {
            "name": "C#6",
            "midi": 85,
            "time": 319.73696999999987,
            "velocity": 0.3858267716535433,
            "duration": 0.07894740000000411
          },
          {
            "name": "F#5",
            "midi": 78,
            "time": 320.1317069999999,
            "velocity": 0.3858267716535433,
            "duration": 0.39473700000002054
          },
          {
            "name": "B5",
            "midi": 83,
            "time": 320.4277597499999,
            "velocity": 0.3858267716535433,
            "duration": 0.04934212500000967
          },
          {
            "name": "C#6",
            "midi": 85,
            "time": 320.4771018749999,
            "velocity": 0.3858267716535433,
            "duration": 0.04934212500000967
          },
          {
            "name": "D#6",
            "midi": 87,
            "time": 320.5264439999999,
            "velocity": 0.3858267716535433,
            "duration": 0.7894740000000411
          },
          {
            "name": "A#4",
            "midi": 70,
            "time": 321.21723374999993,
            "velocity": 0.3858267716535433,
            "duration": 0.04934212500000967
          },
          {
            "name": "B4",
            "midi": 71,
            "time": 321.26657587499994,
            "velocity": 0.3858267716535433,
            "duration": 0.04934212500000967
          },
          {
            "name": "C#5",
            "midi": 73,
            "time": 321.31591799999995,
            "velocity": 0.3858267716535433,
            "duration": 0.07894740000000411
          },
          {
            "name": "F#4",
            "midi": 66,
            "time": 321.710655,
            "velocity": 0.3858267716535433,
            "duration": 0.07894740000000411
          },
          {
            "name": "B4",
            "midi": 71,
            "time": 322.105392,
            "velocity": 0.3858267716535433,
            "duration": 0.7894740000000411
          },
          {
            "name": "A#5",
            "midi": 82,
            "time": 322.79618175,
            "velocity": 0.3858267716535433,
            "duration": 0.04934212500000967
          },
          {
            "name": "B5",
            "midi": 83,
            "time": 322.845523875,
            "velocity": 0.3858267716535433,
            "duration": 0.04934212500000967
          },
          {
            "name": "C#6",
            "midi": 85,
            "time": 322.89486600000004,
            "velocity": 0.3858267716535433,
            "duration": 0.07894740000000411
          },
          {
            "name": "F#5",
            "midi": 78,
            "time": 323.28960300000006,
            "velocity": 0.3858267716535433,
            "duration": 0.07894740000000411
          },
          {
            "name": "B5",
            "midi": 83,
            "time": 323.58565575000006,
            "velocity": 0.3858267716535433,
            "duration": 0.04934212500000967
          },
          {
            "name": "C#6",
            "midi": 85,
            "time": 323.63499787500007,
            "velocity": 0.3858267716535433,
            "duration": 0.04934212500000967
          },
          {
            "name": "D#6",
            "midi": 87,
            "time": 323.6843400000001,
            "velocity": 0.3858267716535433,
            "duration": 0.7894740000000411
          },
          {
            "name": "A#4",
            "midi": 70,
            "time": 324.3751297500001,
            "velocity": 0.3858267716535433,
            "duration": 0.04934212500000967
          },
          {
            "name": "B4",
            "midi": 71,
            "time": 324.4244718750001,
            "velocity": 0.3858267716535433,
            "duration": 0.04934212500000967
          },
          {
            "name": "C#5",
            "midi": 73,
            "time": 324.4738140000001,
            "velocity": 0.3858267716535433,
            "duration": 0.07894740000000411
          },
          {
            "name": "F#4",
            "midi": 66,
            "time": 324.86855100000014,
            "velocity": 0.3858267716535433,
            "duration": 0.07894740000000411
          },
          {
            "name": "B4",
            "midi": 71,
            "time": 325.26328800000016,
            "velocity": 0.3858267716535433,
            "duration": 0.39473700000002054
          },
          {
            "name": "C#5",
            "midi": 73,
            "time": 326.0527620000002,
            "velocity": 0.7952755905511811,
            "duration": 0.39473700000002054
          },
          {
            "name": "E5",
            "midi": 76,
            "time": 326.0527620000002,
            "velocity": 0.7952755905511811,
            "duration": 0.39473700000002054
          },
          {
            "name": "F#5",
            "midi": 78,
            "time": 326.0527620000002,
            "velocity": 0.7952755905511811,
            "duration": 0.39473700000002054
          },
          {
            "name": "A#5",
            "midi": 82,
            "time": 326.0527620000002,
            "velocity": 0.7952755905511811,
            "duration": 0.39473700000002054
          },
          {
            "name": "B4",
            "midi": 71,
            "time": 326.84223600000024,
            "velocity": 0.7952755905511811,
            "duration": 0.39473700000002054
          },
          {
            "name": "D#5",
            "midi": 75,
            "time": 326.84223600000024,
            "velocity": 0.7952755905511811,
            "duration": 0.39473700000002054
          },
          {
            "name": "F#5",
            "midi": 78,
            "time": 326.84223600000024,
            "velocity": 0.7952755905511811,
            "duration": 0.39473700000002054
          },
          {
            "name": "B5",
            "midi": 83,
            "time": 326.84223600000024,
            "velocity": 0.7952755905511811,
            "duration": 0.39473700000002054
          },
          {
            "name": "B4",
            "midi": 71,
            "time": 329.21065800000025,
            "velocity": 0.7952755905511811,
            "duration": 0.39473700000002054
          },
          {
            "name": "D5",
            "midi": 74,
            "time": 329.21065800000025,
            "velocity": 0.7952755905511811,
            "duration": 0.39473700000002054
          },
          {
            "name": "E5",
            "midi": 76,
            "time": 329.21065800000025,
            "velocity": 0.7952755905511811,
            "duration": 0.39473700000002054
          },
          {
            "name": "G#5",
            "midi": 80,
            "time": 329.21065800000025,
            "velocity": 0.7952755905511811,
            "duration": 0.39473700000002054
          },
          {
            "name": "A4",
            "midi": 69,
            "time": 330.0001320000003,
            "velocity": 0.7952755905511811,
            "duration": 0.39473700000002054
          },
          {
            "name": "C#5",
            "midi": 73,
            "time": 330.0001320000003,
            "velocity": 0.7952755905511811,
            "duration": 0.39473700000002054
          },
          {
            "name": "E5",
            "midi": 76,
            "time": 330.0001320000003,
            "velocity": 0.7952755905511811,
            "duration": 0.39473700000002054
          },
          {
            "name": "A5",
            "midi": 81,
            "time": 330.0001320000003,
            "velocity": 0.7952755905511811,
            "duration": 0.39473700000002054
          },
          {
            "name": "A4",
            "midi": 69,
            "time": 330.78960600000033,
            "velocity": 0.7952755905511811,
            "duration": 0.39473700000002054
          },
          {
            "name": "C5",
            "midi": 72,
            "time": 330.78960600000033,
            "velocity": 0.7952755905511811,
            "duration": 0.39473700000002054
          },
          {
            "name": "D5",
            "midi": 74,
            "time": 330.78960600000033,
            "velocity": 0.7952755905511811,
            "duration": 0.39473700000002054
          },
          {
            "name": "F#5",
            "midi": 78,
            "time": 330.78960600000033,
            "velocity": 0.7952755905511811,
            "duration": 0.39473700000002054
          },
          {
            "name": "G4",
            "midi": 67,
            "time": 331.5790800000004,
            "velocity": 0.7952755905511811,
            "duration": 0.39473700000002054
          },
          {
            "name": "B4",
            "midi": 71,
            "time": 331.5790800000004,
            "velocity": 0.7952755905511811,
            "duration": 0.39473700000002054
          },
          {
            "name": "D5",
            "midi": 74,
            "time": 331.5790800000004,
            "velocity": 0.7952755905511811,
            "duration": 0.39473700000002054
          },
          {
            "name": "G5",
            "midi": 79,
            "time": 331.5790800000004,
            "velocity": 0.7952755905511811,
            "duration": 0.39473700000002054
          },
          {
            "name": "G4",
            "midi": 67,
            "time": 332.3685540000004,
            "velocity": 0.7952755905511811,
            "duration": 0.39473700000002054
          },
          {
            "name": "A#4",
            "midi": 70,
            "time": 332.3685540000004,
            "velocity": 0.7952755905511811,
            "duration": 0.39473700000002054
          },
          {
            "name": "C5",
            "midi": 72,
            "time": 332.3685540000004,
            "velocity": 0.7952755905511811,
            "duration": 0.39473700000002054
          },
          {
            "name": "E5",
            "midi": 76,
            "time": 332.3685540000004,
            "velocity": 0.7952755905511811,
            "duration": 0.39473700000002054
          },
          {
            "name": "F4",
            "midi": 65,
            "time": 333.15802800000046,
            "velocity": 0.5905511811023622,
            "duration": 0.7894740000000411
          },
          {
            "name": "A4",
            "midi": 69,
            "time": 333.15802800000046,
            "velocity": 0.5905511811023622,
            "duration": 0.7894740000000411
          },
          {
            "name": "C5",
            "midi": 72,
            "time": 333.15802800000046,
            "velocity": 0.5905511811023622,
            "duration": 0.7894740000000411
          },
          {
            "name": "F5",
            "midi": 77,
            "time": 333.15802800000046,
            "velocity": 0.5905511811023622,
            "duration": 0.7894740000000411
          },
          {
            "name": "A5",
            "midi": 81,
            "time": 333.8488177500005,
            "velocity": 0.5905511811023622,
            "duration": 0.04934212500000967
          },
          {
            "name": "A#5",
            "midi": 82,
            "time": 333.8981598750005,
            "velocity": 0.5905511811023622,
            "duration": 0.04934212500000967
          },
          {
            "name": "C5",
            "midi": 72,
            "time": 333.9475020000005,
            "velocity": 0.5905511811023622,
            "duration": 0.39473700000002054
          },
          {
            "name": "C6",
            "midi": 84,
            "time": 333.9475020000005,
            "velocity": 0.5905511811023622,
            "duration": 0.39473700000002054
          },
          {
            "name": "F4",
            "midi": 65,
            "time": 334.3422390000005,
            "velocity": 0.5905511811023622,
            "duration": 0.39473700000002054
          },
          {
            "name": "F5",
            "midi": 77,
            "time": 334.3422390000005,
            "velocity": 0.5905511811023622,
            "duration": 0.39473700000002054
          },
          {
            "name": "A#4",
            "midi": 70,
            "time": 334.73697600000054,
            "velocity": 0.5905511811023622,
            "duration": 0.7894740000000411
          },
          {
            "name": "A#5",
            "midi": 82,
            "time": 334.73697600000054,
            "velocity": 0.5905511811023622,
            "duration": 0.7894740000000411
          },
          {
            "name": "G5",
            "midi": 79,
            "time": 335.42776575000056,
            "velocity": 0.5905511811023622,
            "duration": 0.04934212500000967
          },
          {
            "name": "A5",
            "midi": 81,
            "time": 335.47710787500057,
            "velocity": 0.5905511811023622,
            "duration": 0.04934212500000967
          },
          {
            "name": "A#4",
            "midi": 70,
            "time": 335.5264500000006,
            "velocity": 0.5905511811023622,
            "duration": 0.39473700000002054
          },
          {
            "name": "A#5",
            "midi": 82,
            "time": 335.5264500000006,
            "velocity": 0.5905511811023622,
            "duration": 0.39473700000002054
          },
          {
            "name": "F4",
            "midi": 65,
            "time": 335.9211870000006,
            "velocity": 0.5905511811023622,
            "duration": 0.39473700000002054
          },
          {
            "name": "F5",
            "midi": 77,
            "time": 335.9211870000006,
            "velocity": 0.5905511811023622,
            "duration": 0.39473700000002054
          },
          {
            "name": "A4",
            "midi": 69,
            "time": 336.3159240000006,
            "velocity": 0.5905511811023622,
            "duration": 0.7894739999999842
          },
          {
            "name": "A5",
            "midi": 81,
            "time": 336.3159240000006,
            "velocity": 0.5905511811023622,
            "duration": 0.7894739999999842
          },
          {
            "name": "G4",
            "midi": 67,
            "time": 337.1053980000006,
            "velocity": 0.5905511811023622,
            "duration": 0.39473700000002054
          },
          {
            "name": "G5",
            "midi": 79,
            "time": 337.1053980000006,
            "velocity": 0.5905511811023622,
            "duration": 0.39473700000002054
          },
          {
            "name": "F4",
            "midi": 65,
            "time": 337.5001350000006,
            "velocity": 0.5905511811023622,
            "duration": 0.39473700000002054
          },
          {
            "name": "F5",
            "midi": 77,
            "time": 337.5001350000006,
            "velocity": 0.5905511811023622,
            "duration": 0.39473700000002054
          },
          {
            "name": "E5",
            "midi": 76,
            "time": 337.89487200000065,
            "velocity": 0.7952755905511811,
            "duration": 0.19736849999998185
          },
          {
            "name": "C#5",
            "midi": 73,
            "time": 338.0922405000006,
            "velocity": 0.5905511811023622,
            "duration": 0.19736849999998185
          },
          {
            "name": "A#4",
            "midi": 70,
            "time": 338.2896090000006,
            "velocity": 0.5905511811023622,
            "duration": 0.19736849999998185
          },
          {
            "name": "G4",
            "midi": 67,
            "time": 338.4869775000006,
            "velocity": 0.5905511811023622,
            "duration": 0.19736849999998185
          },
          {
            "name": "E4",
            "midi": 64,
            "time": 338.6843460000006,
            "velocity": 0.5905511811023622,
            "duration": 0.19736849999998185
          },
          {
            "name": "C#4",
            "midi": 61,
            "time": 338.88171450000056,
            "velocity": 0.5905511811023622,
            "duration": 0.19736849999998185
          },
          {
            "name": "A#3",
            "midi": 58,
            "time": 339.07908300000054,
            "velocity": 0.5905511811023622,
            "duration": 0.19736849999998185
          },
          {
            "name": "G3",
            "midi": 55,
            "time": 339.2764515000005,
            "velocity": 0.5905511811023622,
            "duration": 0.19736849999998185
          },
          {
            "name": "A3",
            "midi": 57,
            "time": 339.4738200000005,
            "velocity": 0.5905511811023622,
            "duration": 0.39473700000002054
          },
          {
            "name": "F4",
            "midi": 65,
            "time": 339.4738200000005,
            "velocity": 0.5905511811023622,
            "duration": 0.39473700000002054
          },
          {
            "name": "A5",
            "midi": 81,
            "time": 340.1646097500005,
            "velocity": 0.5905511811023622,
            "duration": 0.04934212500000967
          },
          {
            "name": "A#5",
            "midi": 82,
            "time": 340.21395187500053,
            "velocity": 0.5905511811023622,
            "duration": 0.04934212500000967
          },
          {
            "name": "C5",
            "midi": 72,
            "time": 340.26329400000054,
            "velocity": 0.5905511811023622,
            "duration": 0.39473700000002054
          },
          {
            "name": "C6",
            "midi": 84,
            "time": 340.26329400000054,
            "velocity": 0.5905511811023622,
            "duration": 0.39473700000002054
          },
          {
            "name": "F4",
            "midi": 65,
            "time": 340.65803100000056,
            "velocity": 0.5905511811023622,
            "duration": 0.39473700000002054
          },
          {
            "name": "F5",
            "midi": 77,
            "time": 340.65803100000056,
            "velocity": 0.5905511811023622,
            "duration": 0.39473700000002054
          },
          {
            "name": "A#4",
            "midi": 70,
            "time": 341.0527680000006,
            "velocity": 0.5905511811023622,
            "duration": 0.7894740000000411
          },
          {
            "name": "A#5",
            "midi": 82,
            "time": 341.0527680000006,
            "velocity": 0.5905511811023622,
            "duration": 0.7894740000000411
          },
          {
            "name": "G5",
            "midi": 79,
            "time": 341.7435577500006,
            "velocity": 0.5905511811023622,
            "duration": 0.04934212500000967
          },
          {
            "name": "A5",
            "midi": 81,
            "time": 341.7928998750006,
            "velocity": 0.5905511811023622,
            "duration": 0.04934212500000967
          },
          {
            "name": "A#4",
            "midi": 70,
            "time": 341.8422420000006,
            "velocity": 0.5905511811023622,
            "duration": 0.39473700000002054
          },
          {
            "name": "A#5",
            "midi": 82,
            "time": 341.8422420000006,
            "velocity": 0.5905511811023622,
            "duration": 0.39473700000002054
          },
          {
            "name": "F4",
            "midi": 65,
            "time": 342.23697900000064,
            "velocity": 0.5905511811023622,
            "duration": 0.39473700000002054
          },
          {
            "name": "F5",
            "midi": 77,
            "time": 342.23697900000064,
            "velocity": 0.5905511811023622,
            "duration": 0.39473700000002054
          },
          {
            "name": "A4",
            "midi": 69,
            "time": 342.63171600000067,
            "velocity": 0.5905511811023622,
            "duration": 0.7894739999999842
          },
          {
            "name": "A5",
            "midi": 81,
            "time": 342.63171600000067,
            "velocity": 0.5905511811023622,
            "duration": 0.7894739999999842
          },
          {
            "name": "G4",
            "midi": 67,
            "time": 343.42119000000065,
            "velocity": 0.5905511811023622,
            "duration": 0.39473700000002054
          },
          {
            "name": "G5",
            "midi": 79,
            "time": 343.42119000000065,
            "velocity": 0.5905511811023622,
            "duration": 0.39473700000002054
          },
          {
            "name": "F4",
            "midi": 65,
            "time": 343.81592700000067,
            "velocity": 0.5905511811023622,
            "duration": 0.39473700000002054
          },
          {
            "name": "F5",
            "midi": 77,
            "time": 343.81592700000067,
            "velocity": 0.5905511811023622,
            "duration": 0.39473700000002054
          },
          {
            "name": "E5",
            "midi": 76,
            "time": 344.2106640000007,
            "velocity": 0.7952755905511811,
            "duration": 0.19736849999998185
          },
          {
            "name": "C#5",
            "midi": 73,
            "time": 344.4080325000007,
            "velocity": 0.5905511811023622,
            "duration": 0.19736849999998185
          },
          {
            "name": "A#4",
            "midi": 70,
            "time": 344.60540100000065,
            "velocity": 0.5905511811023622,
            "duration": 0.19736849999998185
          },
          {
            "name": "G4",
            "midi": 67,
            "time": 344.80276950000064,
            "velocity": 0.5905511811023622,
            "duration": 0.19736849999998185
          },
          {
            "name": "E4",
            "midi": 64,
            "time": 345.0001380000006,
            "velocity": 0.5905511811023622,
            "duration": 0.19736849999998185
          },
          {
            "name": "C#4",
            "midi": 61,
            "time": 345.1975065000006,
            "velocity": 0.5905511811023622,
            "duration": 0.19736849999998185
          },
          {
            "name": "A#3",
            "midi": 58,
            "time": 345.3948750000006,
            "velocity": 0.5905511811023622,
            "duration": 0.19736849999998185
          },
          {
            "name": "G3",
            "midi": 55,
            "time": 345.59224350000056,
            "velocity": 0.5905511811023622,
            "duration": 0.19736849999998185
          },
          {
            "name": "G5",
            "midi": 79,
            "time": 345.78961200000055,
            "velocity": 0.7952755905511811,
            "duration": 0.19736849999998185
          },
          {
            "name": "E5",
            "midi": 76,
            "time": 345.9869805000005,
            "velocity": 0.5905511811023622,
            "duration": 0.19736849999998185
          },
          {
            "name": "C#5",
            "midi": 73,
            "time": 346.1843490000005,
            "velocity": 0.5905511811023622,
            "duration": 0.19736849999998185
          },
          {
            "name": "A#4",
            "midi": 70,
            "time": 346.3817175000005,
            "velocity": 0.5905511811023622,
            "duration": 0.19736849999998185
          },
          {
            "name": "G4",
            "midi": 67,
            "time": 346.5790860000005,
            "velocity": 0.5905511811023622,
            "duration": 0.19736849999998185
          },
          {
            "name": "E4",
            "midi": 64,
            "time": 346.77645450000045,
            "velocity": 0.5905511811023622,
            "duration": 0.19736849999998185
          },
          {
            "name": "C#4",
            "midi": 61,
            "time": 346.97382300000044,
            "velocity": 0.5905511811023622,
            "duration": 0.19736849999998185
          },
          {
            "name": "A#3",
            "midi": 58,
            "time": 347.1711915000004,
            "velocity": 0.5905511811023622,
            "duration": 0.19736849999998185
          },
          {
            "name": "A#5",
            "midi": 82,
            "time": 347.3685600000004,
            "velocity": 0.7952755905511811,
            "duration": 0.19736849999998185
          },
          {
            "name": "G5",
            "midi": 79,
            "time": 347.5659285000004,
            "velocity": 0.5905511811023622,
            "duration": 0.19736849999998185
          },
          {
            "name": "E5",
            "midi": 76,
            "time": 347.76329700000036,
            "velocity": 0.5905511811023622,
            "duration": 0.19736849999998185
          },
          {
            "name": "C#5",
            "midi": 73,
            "time": 347.96066550000035,
            "velocity": 0.5905511811023622,
            "duration": 0.19736849999998185
          },
          {
            "name": "C#6",
            "midi": 85,
            "time": 348.1580340000003,
            "velocity": 0.7952755905511811,
            "duration": 0.19736849999998185
          },
          {
            "name": "A#5",
            "midi": 82,
            "time": 348.3554025000003,
            "velocity": 0.5905511811023622,
            "duration": 0.19736849999998185
          },
          {
            "name": "G5",
            "midi": 79,
            "time": 348.5527710000003,
            "velocity": 0.5905511811023622,
            "duration": 0.19736849999998185
          },
          {
            "name": "E5",
            "midi": 76,
            "time": 348.7501395000003,
            "velocity": 0.5905511811023622,
            "duration": 0.19736849999998185
          },
          {
            "name": "E6",
            "midi": 88,
            "time": 348.94750800000025,
            "velocity": 0.7952755905511811,
            "duration": 0.19736849999998185
          },
          {
            "name": "C#6",
            "midi": 85,
            "time": 349.14487650000024,
            "velocity": 0.5905511811023622,
            "duration": 0.19736849999998185
          },
          {
            "name": "A#5",
            "midi": 82,
            "time": 349.3422450000002,
            "velocity": 0.5905511811023622,
            "duration": 0.19736849999998185
          },
          {
            "name": "G5",
            "midi": 79,
            "time": 349.5396135000002,
            "velocity": 0.5905511811023622,
            "duration": 0.19736849999998185
          },
          {
            "name": "E5",
            "midi": 76,
            "time": 349.7369820000002,
            "velocity": 0.5905511811023622,
            "duration": 0.19736849999998185
          },
          {
            "name": "C#5",
            "midi": 73,
            "time": 349.93435050000016,
            "velocity": 0.5905511811023622,
            "duration": 0.19736849999998185
          },
          {
            "name": "A#4",
            "midi": 70,
            "time": 350.13171900000015,
            "velocity": 0.5905511811023622,
            "duration": 0.19736849999998185
          },
          {
            "name": "G4",
            "midi": 67,
            "time": 350.3290875000001,
            "velocity": 0.5905511811023622,
            "duration": 0.19736849999998185
          },
          {
            "name": "F4",
            "midi": 65,
            "time": 350.5264560000001,
            "velocity": 0.5905511811023622,
            "duration": 0.19736849999998185
          },
          {
            "name": "F6",
            "midi": 89,
            "time": 350.7238245000001,
            "velocity": 0.5905511811023622,
            "duration": 0.19736849999998185
          },
          {
            "name": "E6",
            "midi": 88,
            "time": 350.9211930000001,
            "velocity": 0.5905511811023622,
            "duration": 0.19736849999998185
          },
          {
            "name": "F6",
            "midi": 89,
            "time": 351.11856150000006,
            "velocity": 0.5905511811023622,
            "duration": 0.19736849999998185
          },
          {
            "name": "D#6",
            "midi": 87,
            "time": 351.31593000000004,
            "velocity": 0.5905511811023622,
            "duration": 0.19736849999998185
          },
          {
            "name": "F6",
            "midi": 89,
            "time": 351.5132985,
            "velocity": 0.5905511811023622,
            "duration": 0.19736849999998185
          },
          {
            "name": "E6",
            "midi": 88,
            "time": 351.710667,
            "velocity": 0.5905511811023622,
            "duration": 0.19736849999998185
          },
          {
            "name": "F6",
            "midi": 89,
            "time": 351.9080355,
            "velocity": 0.5905511811023622,
            "duration": 0.19736849999998185
          },
          {
            "name": "D6",
            "midi": 86,
            "time": 352.10540399999996,
            "velocity": 0.5905511811023622,
            "duration": 0.19736849999998185
          },
          {
            "name": "F6",
            "midi": 89,
            "time": 352.30277249999995,
            "velocity": 0.5905511811023622,
            "duration": 0.19736849999998185
          },
          {
            "name": "E6",
            "midi": 88,
            "time": 352.5001409999999,
            "velocity": 0.5905511811023622,
            "duration": 0.19736849999998185
          },
          {
            "name": "F6",
            "midi": 89,
            "time": 352.6975094999999,
            "velocity": 0.5905511811023622,
            "duration": 0.19736849999998185
          },
          {
            "name": "C#6",
            "midi": 85,
            "time": 352.8948779999999,
            "velocity": 0.5905511811023622,
            "duration": 0.19736849999998185
          },
          {
            "name": "F6",
            "midi": 89,
            "time": 353.0922464999999,
            "velocity": 0.5905511811023622,
            "duration": 0.19736849999998185
          },
          {
            "name": "E6",
            "midi": 88,
            "time": 353.28961499999986,
            "velocity": 0.5905511811023622,
            "duration": 0.19736849999998185
          },
          {
            "name": "F6",
            "midi": 89,
            "time": 353.48698349999984,
            "velocity": 0.5905511811023622,
            "duration": 0.19736849999998185
          },
          {
            "name": "C6",
            "midi": 84,
            "time": 353.6843519999998,
            "velocity": 0.5905511811023622,
            "duration": 0.19736849999998185
          },
          {
            "name": "F6",
            "midi": 89,
            "time": 353.8817204999998,
            "velocity": 0.5905511811023622,
            "duration": 0.19736849999998185
          },
          {
            "name": "E6",
            "midi": 88,
            "time": 354.0790889999998,
            "velocity": 0.5905511811023622,
            "duration": 0.19736849999998185
          },
          {
            "name": "F6",
            "midi": 89,
            "time": 354.27645749999976,
            "velocity": 0.5905511811023622,
            "duration": 0.19736849999998185
          },
          {
            "name": "C6",
            "midi": 84,
            "time": 354.47382599999975,
            "velocity": 0.5905511811023622,
            "duration": 0.19736849999998185
          },
          {
            "name": "F6",
            "midi": 89,
            "time": 354.67119449999973,
            "velocity": 0.5905511811023622,
            "duration": 0.19736849999998185
          },
          {
            "name": "E6",
            "midi": 88,
            "time": 354.8685629999997,
            "velocity": 0.5905511811023622,
            "duration": 0.19736849999998185
          },
          {
            "name": "F6",
            "midi": 89,
            "time": 355.0659314999997,
            "velocity": 0.5905511811023622,
            "duration": 0.19736849999998185
          },
          {
            "name": "D#6",
            "midi": 87,
            "time": 355.2632999999997,
            "velocity": 0.5905511811023622,
            "duration": 0.19736849999998185
          },
          {
            "name": "A#5",
            "midi": 82,
            "time": 355.46066849999966,
            "velocity": 0.5905511811023622,
            "duration": 0.19736849999998185
          },
          {
            "name": "D6",
            "midi": 86,
            "time": 355.65803699999964,
            "velocity": 0.5905511811023622,
            "duration": 0.19736849999998185
          },
          {
            "name": "A#5",
            "midi": 82,
            "time": 355.8554054999996,
            "velocity": 0.5905511811023622,
            "duration": 0.19736849999998185
          },
          {
            "name": "C#6",
            "midi": 85,
            "time": 356.0527739999996,
            "velocity": 0.5905511811023622,
            "duration": 0.19736849999998185
          },
          {
            "name": "A#5",
            "midi": 82,
            "time": 356.2501424999996,
            "velocity": 0.5905511811023622,
            "duration": 0.19736849999998185
          },
          {
            "name": "A5",
            "midi": 81,
            "time": 356.44751099999957,
            "velocity": 0.5905511811023622,
            "duration": 0.19736849999998185
          },
          {
            "name": "G5",
            "midi": 79,
            "time": 356.64487949999955,
            "velocity": 0.5905511811023622,
            "duration": 0.19736849999998185
          },
          {
            "name": "F#5",
            "midi": 78,
            "time": 356.84224799999953,
            "velocity": 0.5905511811023622,
            "duration": 0.19736849999998185
          },
          {
            "name": "D6",
            "midi": 86,
            "time": 357.0396164999995,
            "velocity": 0.5905511811023622,
            "duration": 0.19736849999998185
          },
          {
            "name": "C#6",
            "midi": 85,
            "time": 357.2369849999995,
            "velocity": 0.5905511811023622,
            "duration": 0.19736849999998185
          },
          {
            "name": "D6",
            "midi": 86,
            "time": 357.4343534999995,
            "velocity": 0.5905511811023622,
            "duration": 0.19736849999998185
          },
          {
            "name": "C6",
            "midi": 84,
            "time": 357.63172199999946,
            "velocity": 0.5905511811023622,
            "duration": 0.19736849999998185
          },
          {
            "name": "D6",
            "midi": 86,
            "time": 357.82909049999944,
            "velocity": 0.5905511811023622,
            "duration": 0.19736849999998185
          },
          {
            "name": "C#6",
            "midi": 85,
            "time": 358.0264589999994,
            "velocity": 0.5905511811023622,
            "duration": 0.19736849999998185
          },
          {
            "name": "D6",
            "midi": 86,
            "time": 358.2238274999994,
            "velocity": 0.5905511811023622,
            "duration": 0.19736849999998185
          },
          {
            "name": "B5",
            "midi": 83,
            "time": 358.4211959999994,
            "velocity": 0.5905511811023622,
            "duration": 0.19736849999998185
          },
          {
            "name": "D6",
            "midi": 86,
            "time": 358.61856449999937,
            "velocity": 0.5905511811023622,
            "duration": 0.19736849999998185
          },
          {
            "name": "C#6",
            "midi": 85,
            "time": 358.81593299999935,
            "velocity": 0.5905511811023622,
            "duration": 0.19736849999998185
          },
          {
            "name": "D6",
            "midi": 86,
            "time": 359.01330149999933,
            "velocity": 0.5905511811023622,
            "duration": 0.19736849999998185
          },
          {
            "name": "A#5",
            "midi": 82,
            "time": 359.2106699999993,
            "velocity": 0.5905511811023622,
            "duration": 0.19736849999998185
          },
          {
            "name": "D6",
            "midi": 86,
            "time": 359.4080384999993,
            "velocity": 0.5905511811023622,
            "duration": 0.19736849999998185
          },
          {
            "name": "C#6",
            "midi": 85,
            "time": 359.6054069999993,
            "velocity": 0.5905511811023622,
            "duration": 0.19736849999998185
          },
          {
            "name": "D6",
            "midi": 86,
            "time": 359.80277549999926,
            "velocity": 0.5905511811023622,
            "duration": 0.19736849999998185
          },
          {
            "name": "A5",
            "midi": 81,
            "time": 360.00014399999924,
            "velocity": 0.5905511811023622,
            "duration": 0.19736849999998185
          },
          {
            "name": "D6",
            "midi": 86,
            "time": 360.1975124999992,
            "velocity": 0.5905511811023622,
            "duration": 0.19736849999998185
          },
          {
            "name": "C#6",
            "midi": 85,
            "time": 360.3948809999992,
            "velocity": 0.5905511811023622,
            "duration": 0.19736849999998185
          },
          {
            "name": "D6",
            "midi": 86,
            "time": 360.5922494999992,
            "velocity": 0.5905511811023622,
            "duration": 0.19736849999998185
          },
          {
            "name": "G5",
            "midi": 79,
            "time": 360.78961799999917,
            "velocity": 0.5905511811023622,
            "duration": 0.19736849999998185
          },
          {
            "name": "E6",
            "midi": 88,
            "time": 360.98698649999915,
            "velocity": 0.5905511811023622,
            "duration": 0.19736849999998185
          },
          {
            "name": "F5",
            "midi": 77,
            "time": 361.18435499999913,
            "velocity": 0.5905511811023622,
            "duration": 0.19736849999998185
          },
          {
            "name": "F6",
            "midi": 89,
            "time": 361.3817234999991,
            "velocity": 0.5905511811023622,
            "duration": 0.19736849999998185
          },
          {
            "name": "E6",
            "midi": 88,
            "time": 361.5790919999991,
            "velocity": 0.7952755905511811,
            "duration": 0.19736849999998185
          },
          {
            "name": "A#5",
            "midi": 82,
            "time": 361.7764604999991,
            "velocity": 0.5905511811023622,
            "duration": 0.19736849999998185
          },
          {
            "name": "G5",
            "midi": 79,
            "time": 361.97382899999906,
            "velocity": 0.5905511811023622,
            "duration": 0.19736849999998185
          },
          {
            "name": "E5",
            "midi": 76,
            "time": 362.17119749999904,
            "velocity": 0.5905511811023622,
            "duration": 0.19736849999998185
          },
          {
            "name": "A#5",
            "midi": 82,
            "time": 362.368565999999,
            "velocity": 0.7952755905511811,
            "duration": 0.19736849999998185
          },
          {
            "name": "G5",
            "midi": 79,
            "time": 362.565934499999,
            "velocity": 0.5905511811023622,
            "duration": 0.19736849999998185
          },
          {
            "name": "E5",
            "midi": 76,
            "time": 362.763302999999,
            "velocity": 0.5905511811023622,
            "duration": 0.19736849999998185
          },
          {
            "name": "A#4",
            "midi": 70,
            "time": 362.96067149999897,
            "velocity": 0.5905511811023622,
            "duration": 0.19736849999998185
          },
          {
            "name": "G5",
            "midi": 79,
            "time": 363.15803999999895,
            "velocity": 0.5905511811023622,
            "duration": 0.19736849999998185
          },
          {
            "name": "E5",
            "midi": 76,
            "time": 363.35540849999893,
            "velocity": 0.5905511811023622,
            "duration": 0.19736849999998185
          },
          {
            "name": "A#4",
            "midi": 70,
            "time": 363.5527769999989,
            "velocity": 0.5905511811023622,
            "duration": 0.19736849999998185
          },
          {
            "name": "G4",
            "midi": 67,
            "time": 363.7501454999989,
            "velocity": 0.5905511811023622,
            "duration": 0.19736849999998185
          },
          {
            "name": "E5",
            "midi": 76,
            "time": 363.9475139999989,
            "velocity": 0.5905511811023622,
            "duration": 0.19736849999998185
          },
          {
            "name": "A#4",
            "midi": 70,
            "time": 364.14488249999886,
            "velocity": 0.5905511811023622,
            "duration": 0.19736849999998185
          },
          {
            "name": "G4",
            "midi": 67,
            "time": 364.34225099999884,
            "velocity": 0.5905511811023622,
            "duration": 0.19736849999998185
          },
          {
            "name": "E4",
            "midi": 64,
            "time": 364.5396194999988,
            "velocity": 0.5905511811023622,
            "duration": 0.19736849999998185
          },
          {
            "name": "B3",
            "midi": 59,
            "time": 364.7369879999988,
            "velocity": 0.5905511811023622,
            "duration": 0.19736849999998185
          },
          {
            "name": "B4",
            "midi": 71,
            "time": 364.9343564999988,
            "velocity": 0.5905511811023622,
            "duration": 0.19736849999998185
          },
          {
            "name": "C5",
            "midi": 72,
            "time": 365.13172499999877,
            "velocity": 0.5905511811023622,
            "duration": 0.19736849999998185
          },
          {
            "name": "B4",
            "midi": 71,
            "time": 365.32909349999875,
            "velocity": 0.5905511811023622,
            "duration": 0.19736849999998185
          },
          {
            "name": "A#4",
            "midi": 70,
            "time": 365.52646199999873,
            "velocity": 0.5905511811023622,
            "duration": 0.19736849999998185
          },
          {
            "name": "B4",
            "midi": 71,
            "time": 365.7238304999987,
            "velocity": 0.5905511811023622,
            "duration": 0.19736849999998185
          },
          {
            "name": "A4",
            "midi": 69,
            "time": 365.9211989999987,
            "velocity": 0.5905511811023622,
            "duration": 0.19736849999998185
          },
          {
            "name": "B4",
            "midi": 71,
            "time": 366.1185674999987,
            "velocity": 0.5905511811023622,
            "duration": 0.19736849999998185
          },
          {
            "name": "G#4",
            "midi": 68,
            "time": 366.31593599999866,
            "velocity": 0.5905511811023622,
            "duration": 0.19736849999998185
          },
          {
            "name": "B4",
            "midi": 71,
            "time": 366.51330449999864,
            "velocity": 0.5905511811023622,
            "duration": 0.19736849999998185
          },
          {
            "name": "G4",
            "midi": 67,
            "time": 366.7106729999986,
            "velocity": 0.5905511811023622,
            "duration": 0.19736849999998185
          },
          {
            "name": "B4",
            "midi": 71,
            "time": 366.9080414999986,
            "velocity": 0.5905511811023622,
            "duration": 0.19736849999998185
          },
          {
            "name": "F#4",
            "midi": 66,
            "time": 367.1054099999986,
            "velocity": 0.5905511811023622,
            "duration": 0.19736849999998185
          },
          {
            "name": "B4",
            "midi": 71,
            "time": 367.30277849999857,
            "velocity": 0.5905511811023622,
            "duration": 0.19736849999998185
          },
          {
            "name": "E4",
            "midi": 64,
            "time": 367.50014699999855,
            "velocity": 0.5905511811023622,
            "duration": 0.19736849999998185
          },
          {
            "name": "B4",
            "midi": 71,
            "time": 367.69751549999853,
            "velocity": 0.5905511811023622,
            "duration": 0.19736849999998185
          },
          {
            "name": "B3",
            "midi": 59,
            "time": 367.8948839999985,
            "velocity": 0.5905511811023622,
            "duration": 0.19736849999998185
          },
          {
            "name": "B3",
            "midi": 59,
            "time": 368.0922524999985,
            "velocity": 0.5905511811023622,
            "duration": 0.19736849999998185
          },
          {
            "name": "C4",
            "midi": 60,
            "time": 368.2896209999985,
            "velocity": 0.5905511811023622,
            "duration": 0.19736849999998185
          },
          {
            "name": "B3",
            "midi": 59,
            "time": 368.48698949999846,
            "velocity": 0.5905511811023622,
            "duration": 0.19736849999998185
          },
          {
            "name": "A#3",
            "midi": 58,
            "time": 368.68435799999844,
            "velocity": 0.5905511811023622,
            "duration": 0.19736849999998185
          },
          {
            "name": "B3",
            "midi": 59,
            "time": 368.8817264999984,
            "velocity": 0.5905511811023622,
            "duration": 0.19736849999998185
          },
          {
            "name": "A3",
            "midi": 57,
            "time": 369.0790949999984,
            "velocity": 0.5905511811023622,
            "duration": 0.19736849999998185
          },
          {
            "name": "B3",
            "midi": 59,
            "time": 369.2764634999984,
            "velocity": 0.5905511811023622,
            "duration": 0.19736849999998185
          },
          {
            "name": "G#3",
            "midi": 56,
            "time": 369.47383199999837,
            "velocity": 0.5905511811023622,
            "duration": 0.19736849999998185
          },
          {
            "name": "B3",
            "midi": 59,
            "time": 369.67120049999835,
            "velocity": 0.5905511811023622,
            "duration": 0.19736849999998185
          },
          {
            "name": "G3",
            "midi": 55,
            "time": 369.86856899999833,
            "velocity": 0.5905511811023622,
            "duration": 0.19736849999998185
          },
          {
            "name": "B3",
            "midi": 59,
            "time": 370.0659374999983,
            "velocity": 0.5905511811023622,
            "duration": 0.19736849999998185
          },
          {
            "name": "F#3",
            "midi": 54,
            "time": 370.2633059999983,
            "velocity": 0.5905511811023622,
            "duration": 0.19736849999998185
          },
          {
            "name": "B3",
            "midi": 59,
            "time": 370.4606744999983,
            "velocity": 0.5905511811023622,
            "duration": 0.19736849999998185
          },
          {
            "name": "E3",
            "midi": 52,
            "time": 370.65804299999826,
            "velocity": 0.5905511811023622,
            "duration": 0.19736849999998185
          },
          {
            "name": "B3",
            "midi": 59,
            "time": 370.85541149999824,
            "velocity": 0.5905511811023622,
            "duration": 0.19736849999998185
          },
          {
            "name": "B3",
            "midi": 59,
            "time": 371.0527799999982,
            "velocity": 0.5905511811023622,
            "duration": 0.7894740000000411
          },
          {
            "name": "D#4",
            "midi": 63,
            "time": 371.74356974999824,
            "velocity": 0.4881889763779528,
            "duration": 0.04934212500000967
          },
          {
            "name": "E4",
            "midi": 64,
            "time": 371.79291187499825,
            "velocity": 0.4881889763779528,
            "duration": 0.04934212500000967
          },
          {
            "name": "F#4",
            "midi": 66,
            "time": 371.84225399999826,
            "velocity": 0.4881889763779528,
            "duration": 0.07894740000000411
          },
          {
            "name": "B3",
            "midi": 59,
            "time": 372.2369909999983,
            "velocity": 0.4881889763779528,
            "duration": 0.07894740000000411
          },
          {
            "name": "E4",
            "midi": 64,
            "time": 372.6317279999983,
            "velocity": 0.4881889763779528,
            "duration": 0.7894740000000411
          },
          {
            "name": "C#5",
            "midi": 73,
            "time": 373.3225177499983,
            "velocity": 0.4881889763779528,
            "duration": 0.04934212500000967
          },
          {
            "name": "D#5",
            "midi": 75,
            "time": 373.37185987499834,
            "velocity": 0.4881889763779528,
            "duration": 0.04934212500000967
          },
          {
            "name": "E4",
            "midi": 64,
            "time": 373.42120199999835,
            "velocity": 0.4881889763779528,
            "duration": 0.39473700000002054
          },
          {
            "name": "E5",
            "midi": 76,
            "time": 373.42120199999835,
            "velocity": 0.4881889763779528,
            "duration": 0.39473700000002054
          },
          {
            "name": "B3",
            "midi": 59,
            "time": 373.81593899999837,
            "velocity": 0.4881889763779528,
            "duration": 0.39473700000002054
          },
          {
            "name": "B4",
            "midi": 71,
            "time": 373.81593899999837,
            "velocity": 0.4881889763779528,
            "duration": 0.39473700000002054
          },
          {
            "name": "D#4",
            "midi": 63,
            "time": 374.2106759999984,
            "velocity": 0.4881889763779528,
            "duration": 0.7894739999999842
          },
          {
            "name": "D#5",
            "midi": 75,
            "time": 374.2106759999984,
            "velocity": 0.4881889763779528,
            "duration": 0.7894739999999842
          },
          {
            "name": "C#4",
            "midi": 61,
            "time": 375.00014999999837,
            "velocity": 0.4881889763779528,
            "duration": 0.39473700000002054
          },
          {
            "name": "C#5",
            "midi": 73,
            "time": 375.00014999999837,
            "velocity": 0.4881889763779528,
            "duration": 0.39473700000002054
          },
          {
            "name": "B3",
            "midi": 59,
            "time": 375.3948869999984,
            "velocity": 0.4881889763779528,
            "duration": 0.39473700000002054
          },
          {
            "name": "B4",
            "midi": 71,
            "time": 375.3948869999984,
            "velocity": 0.4881889763779528,
            "duration": 0.39473700000002054
          },
          {
            "name": "A#3",
            "midi": 58,
            "time": 375.7896239999984,
            "velocity": 0.4881889763779528,
            "duration": 0.19736849999998185
          },
          {
            "name": "A#4",
            "midi": 70,
            "time": 375.7896239999984,
            "velocity": 0.4881889763779528,
            "duration": 0.19736849999998185
          },
          {
            "name": "G#4",
            "midi": 68,
            "time": 375.9869924999984,
            "velocity": 0.4881889763779528,
            "duration": 0.19736849999998185
          },
          {
            "name": "F#4",
            "midi": 66,
            "time": 376.1843609999984,
            "velocity": 0.4881889763779528,
            "duration": 0.19736849999998185
          },
          {
            "name": "E4",
            "midi": 64,
            "time": 376.38172949999836,
            "velocity": 0.4881889763779528,
            "duration": 0.19736849999998185
          },
          {
            "name": "D#4",
            "midi": 63,
            "time": 376.57909799999834,
            "velocity": 0.4881889763779528,
            "duration": 0.19736849999998185
          },
          {
            "name": "C#4",
            "midi": 61,
            "time": 376.7764664999983,
            "velocity": 0.4881889763779528,
            "duration": 0.19736849999998185
          },
          {
            "name": "B3",
            "midi": 59,
            "time": 376.9738349999983,
            "velocity": 0.4881889763779528,
            "duration": 0.19736849999998185
          },
          {
            "name": "A#3",
            "midi": 58,
            "time": 377.1712034999983,
            "velocity": 0.4881889763779528,
            "duration": 0.19736849999998185
          },
          {
            "name": "B3",
            "midi": 59,
            "time": 377.36857199999827,
            "velocity": 0.4881889763779528,
            "duration": 0.7894740000000411
          },
          {
            "name": "D#5",
            "midi": 75,
            "time": 378.0593617499983,
            "velocity": 0.4881889763779528,
            "duration": 0.04934212500000967
          },
          {
            "name": "E5",
            "midi": 76,
            "time": 378.1087038749983,
            "velocity": 0.4881889763779528,
            "duration": 0.04934212500000967
          },
          {
            "name": "F#5",
            "midi": 78,
            "time": 378.1580459999983,
            "velocity": 0.4881889763779528,
            "duration": 0.07894740000000411
          },
          {
            "name": "B4",
            "midi": 71,
            "time": 378.5527829999983,
            "velocity": 0.4881889763779528,
            "duration": 0.07894740000000411
          },
          {
            "name": "E5",
            "midi": 76,
            "time": 378.94751999999835,
            "velocity": 0.4881889763779528,
            "duration": 0.7894740000000411
          },
          {
            "name": "C#6",
            "midi": 85,
            "time": 379.63830974999837,
            "velocity": 0.4881889763779528,
            "duration": 0.04934212500000967
          },
          {
            "name": "D#6",
            "midi": 87,
            "time": 379.6876518749984,
            "velocity": 0.4881889763779528,
            "duration": 0.04934212500000967
          },
          {
            "name": "E5",
            "midi": 76,
            "time": 379.7369939999984,
            "velocity": 0.4881889763779528,
            "duration": 0.39473700000002054
          },
          {
            "name": "E6",
            "midi": 88,
            "time": 379.7369939999984,
            "velocity": 0.4881889763779528,
            "duration": 0.39473700000002054
          },
          {
            "name": "B4",
            "midi": 71,
            "time": 380.1317309999984,
            "velocity": 0.4881889763779528,
            "duration": 0.39473700000002054
          },
          {
            "name": "B5",
            "midi": 83,
            "time": 380.1317309999984,
            "velocity": 0.4881889763779528,
            "duration": 0.39473700000002054
          },
          {
            "name": "D#5",
            "midi": 75,
            "time": 380.52646799999843,
            "velocity": 0.4881889763779528,
            "duration": 0.7894739999999842
          },
          {
            "name": "D#6",
            "midi": 87,
            "time": 380.52646799999843,
            "velocity": 0.4881889763779528,
            "duration": 0.7894739999999842
          },
          {
            "name": "C#5",
            "midi": 73,
            "time": 381.3159419999984,
            "velocity": 0.4881889763779528,
            "duration": 0.39473700000002054
          },
          {
            "name": "C#6",
            "midi": 85,
            "time": 381.3159419999984,
            "velocity": 0.4881889763779528,
            "duration": 0.39473700000002054
          },
          {
            "name": "B4",
            "midi": 71,
            "time": 381.71067899999844,
            "velocity": 0.4881889763779528,
            "duration": 0.39473700000002054
          },
          {
            "name": "B5",
            "midi": 83,
            "time": 381.71067899999844,
            "velocity": 0.4881889763779528,
            "duration": 0.39473700000002054
          },
          {
            "name": "A#4",
            "midi": 70,
            "time": 382.10541599999846,
            "velocity": 0.4881889763779528,
            "duration": 0.39473700000002054
          },
          {
            "name": "A#5",
            "midi": 82,
            "time": 382.10541599999846,
            "velocity": 0.4881889763779528,
            "duration": 0.39473700000002054
          },
          {
            "name": "G#5",
            "midi": 80,
            "time": 382.5001529999985,
            "velocity": 0.4881889763779528,
            "duration": 0.19736849999998185
          },
          {
            "name": "F#5",
            "midi": 78,
            "time": 382.69752149999846,
            "velocity": 0.4881889763779528,
            "duration": 0.19736849999998185
          },
          {
            "name": "E5",
            "midi": 76,
            "time": 382.89488999999844,
            "velocity": 0.4881889763779528,
            "duration": 0.19736849999998185
          },
          {
            "name": "D#5",
            "midi": 75,
            "time": 383.0922584999984,
            "velocity": 0.4881889763779528,
            "duration": 0.19736849999998185
          },
          {
            "name": "C#5",
            "midi": 73,
            "time": 383.2896269999984,
            "velocity": 0.4881889763779528,
            "duration": 0.19736849999998185
          },
          {
            "name": "B4",
            "midi": 71,
            "time": 383.4869954999984,
            "velocity": 0.4881889763779528,
            "duration": 0.19736849999998185
          },
          {
            "name": "A#4",
            "midi": 70,
            "time": 383.68436399999837,
            "velocity": 0.4881889763779528,
            "duration": 0.19736849999998185
          },
          {
            "name": "G#4",
            "midi": 68,
            "time": 383.88173249999835,
            "velocity": 0.4881889763779528,
            "duration": 0.19736849999998185
          },
          {
            "name": "F#4",
            "midi": 66,
            "time": 384.07910099999833,
            "velocity": 0.4881889763779528,
            "duration": 0.19736849999998185
          },
          {
            "name": "E4",
            "midi": 64,
            "time": 384.2764694999983,
            "velocity": 0.4881889763779528,
            "duration": 0.19736849999998185
          },
          {
            "name": "D#4",
            "midi": 63,
            "time": 384.4738379999983,
            "velocity": 0.4881889763779528,
            "duration": 0.19736849999998185
          },
          {
            "name": "C#4",
            "midi": 61,
            "time": 384.6712064999983,
            "velocity": 0.4881889763779528,
            "duration": 0.19736849999998185
          },
          {
            "name": "B3",
            "midi": 59,
            "time": 384.86857499999826,
            "velocity": 0.4881889763779528,
            "duration": 0.19736849999998185
          },
          {
            "name": "A#3",
            "midi": 58,
            "time": 385.06594349999824,
            "velocity": 0.4881889763779528,
            "duration": 0.19736849999998185
          },
          {
            "name": "D#3",
            "midi": 51,
            "time": 385.2633119999982,
            "velocity": 0.6929133858267716,
            "duration": 1.1842110000000048
          },
          {
            "name": "F#3",
            "midi": 54,
            "time": 385.2633119999982,
            "velocity": 0.6929133858267716,
            "duration": 1.1842110000000048
          },
          {
            "name": "A3",
            "midi": 57,
            "time": 385.2633119999982,
            "velocity": 0.6929133858267716,
            "duration": 1.1842110000000048
          },
          {
            "name": "B2",
            "midi": 47,
            "time": 386.4475229999982,
            "velocity": 0.4881889763779528,
            "duration": 0.13075663124999437
          },
          {
            "name": "D#3",
            "midi": 51,
            "time": 386.5782796312482,
            "velocity": 0.4881889763779528,
            "duration": 0.13240136874998143
          },
          {
            "name": "F#3",
            "midi": 54,
            "time": 386.7106809999982,
            "velocity": 0.4881889763779528,
            "duration": 0.1315789999999879
          },
          {
            "name": "A3",
            "midi": 57,
            "time": 386.8422599999982,
            "velocity": 0.4881889763779528,
            "duration": 0.19736849999998185
          },
          {
            "name": "B3",
            "midi": 59,
            "time": 387.23699699999815,
            "velocity": 0.4881889763779528,
            "duration": 0.13075663124999437
          },
          {
            "name": "D#4",
            "midi": 63,
            "time": 387.36775363124815,
            "velocity": 0.4881889763779528,
            "duration": 0.13240136874998143
          },
          {
            "name": "F#4",
            "midi": 66,
            "time": 387.50015499999813,
            "velocity": 0.4881889763779528,
            "duration": 0.1315789999999879
          },
          {
            "name": "A4",
            "midi": 69,
            "time": 387.6317339999981,
            "velocity": 0.4881889763779528,
            "duration": 0.19736849999998185
          },
          {
            "name": "B4",
            "midi": 71,
            "time": 388.0264709999981,
            "velocity": 0.4881889763779528,
            "duration": 0.13075663124999437
          },
          {
            "name": "D#5",
            "midi": 75,
            "time": 388.1572276312481,
            "velocity": 0.4881889763779528,
            "duration": 0.13240136874998143
          },
          {
            "name": "F#5",
            "midi": 78,
            "time": 388.28962899999806,
            "velocity": 0.4881889763779528,
            "duration": 0.1315789999999879
          },
          {
            "name": "A5",
            "midi": 81,
            "time": 388.42120799999805,
            "velocity": 0.4881889763779528,
            "duration": 0.19736849999998185
          },
          {
            "name": "C#6",
            "midi": 85,
            "time": 390.000155999998,
            "velocity": 0.3858267716535433,
            "duration": 0.19736849999998185
          },
          {
            "name": "G#5",
            "midi": 80,
            "time": 390.197524499998,
            "velocity": 0.3858267716535433,
            "duration": 0.19736849999998185
          },
          {
            "name": "B5",
            "midi": 83,
            "time": 390.394892999998,
            "velocity": 0.3858267716535433,
            "duration": 0.19736849999998185
          },
          {
            "name": "F#5",
            "midi": 78,
            "time": 390.59226149999796,
            "velocity": 0.3858267716535433,
            "duration": 0.19736849999998185
          },
          {
            "name": "A5",
            "midi": 81,
            "time": 390.78962999999794,
            "velocity": 0.3858267716535433,
            "duration": 0.19736849999998185
          },
          {
            "name": "E5",
            "midi": 76,
            "time": 390.9869984999979,
            "velocity": 0.3858267716535433,
            "duration": 0.19736849999998185
          },
          {
            "name": "G#5",
            "midi": 80,
            "time": 391.1843669999979,
            "velocity": 0.3858267716535433,
            "duration": 0.19736849999998185
          },
          {
            "name": "D#5",
            "midi": 75,
            "time": 391.3817354999979,
            "velocity": 0.3858267716535433,
            "duration": 0.19736849999998185
          },
          {
            "name": "F#5",
            "midi": 78,
            "time": 391.57910399999787,
            "velocity": 0.3858267716535433,
            "duration": 0.19736849999998185
          },
          {
            "name": "C#5",
            "midi": 73,
            "time": 391.77647249999785,
            "velocity": 0.3858267716535433,
            "duration": 0.19736849999998185
          },
          {
            "name": "E5",
            "midi": 76,
            "time": 391.97384099999783,
            "velocity": 0.3858267716535433,
            "duration": 0.19736849999998185
          },
          {
            "name": "B4",
            "midi": 71,
            "time": 392.1712094999978,
            "velocity": 0.3858267716535433,
            "duration": 0.19736849999998185
          },
          {
            "name": "D#5",
            "midi": 75,
            "time": 392.3685779999978,
            "velocity": 0.3858267716535433,
            "duration": 0.19736849999998185
          },
          {
            "name": "A4",
            "midi": 69,
            "time": 392.5659464999978,
            "velocity": 0.3858267716535433,
            "duration": 0.19736849999998185
          },
          {
            "name": "C#5",
            "midi": 73,
            "time": 392.76331499999776,
            "velocity": 0.3858267716535433,
            "duration": 0.19736849999998185
          },
          {
            "name": "G#4",
            "midi": 68,
            "time": 392.96068349999774,
            "velocity": 0.3858267716535433,
            "duration": 0.19736849999998185
          },
          {
            "name": "B4",
            "midi": 71,
            "time": 393.1580519999977,
            "velocity": 0.3858267716535433,
            "duration": 0.19736849999998185
          },
          {
            "name": "F#4",
            "midi": 66,
            "time": 393.3554204999977,
            "velocity": 0.3858267716535433,
            "duration": 0.19736849999998185
          },
          {
            "name": "A4",
            "midi": 69,
            "time": 393.5527889999977,
            "velocity": 0.3858267716535433,
            "duration": 0.19736849999998185
          },
          {
            "name": "E4",
            "midi": 64,
            "time": 393.75015749999767,
            "velocity": 0.3858267716535433,
            "duration": 0.19736849999998185
          },
          {
            "name": "G#4",
            "midi": 68,
            "time": 393.94752599999765,
            "velocity": 0.3858267716535433,
            "duration": 0.19736849999998185
          },
          {
            "name": "D#4",
            "midi": 63,
            "time": 394.14489449999763,
            "velocity": 0.3858267716535433,
            "duration": 0.19736849999998185
          },
          {
            "name": "F#4",
            "midi": 66,
            "time": 394.3422629999976,
            "velocity": 0.3858267716535433,
            "duration": 0.19736849999998185
          },
          {
            "name": "C#4",
            "midi": 61,
            "time": 394.5396314999976,
            "velocity": 0.3858267716535433,
            "duration": 0.19736849999998185
          },
          {
            "name": "E4",
            "midi": 64,
            "time": 394.7369999999976,
            "velocity": 0.3858267716535433,
            "duration": 0.19736849999998185
          },
          {
            "name": "B3",
            "midi": 59,
            "time": 394.93436849999756,
            "velocity": 0.3858267716535433,
            "duration": 0.19736849999998185
          },
          {
            "name": "D#4",
            "midi": 63,
            "time": 395.13173699999754,
            "velocity": 0.3858267716535433,
            "duration": 0.19736849999998185
          },
          {
            "name": "B3",
            "midi": 59,
            "time": 395.3291054999975,
            "velocity": 0.3858267716535433,
            "duration": 0.19736849999998185
          },
          {
            "name": "C#4",
            "midi": 61,
            "time": 395.5264739999975,
            "velocity": 0.3858267716535433,
            "duration": 0.19736849999998185
          },
          {
            "name": "B3",
            "midi": 59,
            "time": 395.7238424999975,
            "velocity": 0.3858267716535433,
            "duration": 0.19736849999998185
          },
          {
            "name": "A#3",
            "midi": 58,
            "time": 395.92121099999747,
            "velocity": 0.3858267716535433,
            "duration": 0.19736849999998185
          },
          {
            "name": "B3",
            "midi": 59,
            "time": 396.11857949999745,
            "velocity": 0.3858267716535433,
            "duration": 0.19736849999998185
          },
          {
            "name": "G#3",
            "midi": 56,
            "time": 396.31594799999743,
            "velocity": 0.6929133858267716,
            "duration": 1.1842110000000048
          },
          {
            "name": "B3",
            "midi": 59,
            "time": 396.31594799999743,
            "velocity": 0.6929133858267716,
            "duration": 1.1842110000000048
          },
          {
            "name": "E4",
            "midi": 64,
            "time": 396.31594799999743,
            "velocity": 0.6929133858267716,
            "duration": 1.1842110000000048
          },
          {
            "name": "E3",
            "midi": 52,
            "time": 397.50015899999744,
            "velocity": 0.6929133858267716,
            "duration": 0.13075663124999437
          },
          {
            "name": "G#3",
            "midi": 56,
            "time": 397.63091563124743,
            "velocity": 0.6929133858267716,
            "duration": 0.13240136874998143
          },
          {
            "name": "B3",
            "midi": 59,
            "time": 397.7633169999974,
            "velocity": 0.6929133858267716,
            "duration": 0.1315789999999879
          },
          {
            "name": "E4",
            "midi": 64,
            "time": 397.8948959999974,
            "velocity": 0.6929133858267716,
            "duration": 0.19736849999998185
          },
          {
            "name": "E4",
            "midi": 64,
            "time": 398.28963299999737,
            "velocity": 0.6929133858267716,
            "duration": 0.13075663124999437
          },
          {
            "name": "G#4",
            "midi": 68,
            "time": 398.42038963124736,
            "velocity": 0.6929133858267716,
            "duration": 0.13240136874998143
          },
          {
            "name": "B4",
            "midi": 71,
            "time": 398.55279099999734,
            "velocity": 0.6929133858267716,
            "duration": 0.1315789999999879
          },
          {
            "name": "E5",
            "midi": 76,
            "time": 398.68436999999733,
            "velocity": 0.6929133858267716,
            "duration": 0.19736849999998185
          },
          {
            "name": "E5",
            "midi": 76,
            "time": 399.0791069999973,
            "velocity": 0.6929133858267716,
            "duration": 0.13075663124999437
          },
          {
            "name": "G#5",
            "midi": 80,
            "time": 399.2098636312473,
            "velocity": 0.6929133858267716,
            "duration": 0.13240136874998143
          },
          {
            "name": "B5",
            "midi": 83,
            "time": 399.34226499999727,
            "velocity": 0.6929133858267716,
            "duration": 0.1315789999999879
          },
          {
            "name": "E6",
            "midi": 88,
            "time": 399.47384399999726,
            "velocity": 0.6929133858267716,
            "duration": 0.19736849999998185
          },
          {
            "name": "E6",
            "midi": 88,
            "time": 399.67121249999724,
            "velocity": 0.6929133858267716,
            "duration": 0.0386513312499801
          },
          {
            "name": "D#6",
            "midi": 87,
            "time": 399.8685809999972,
            "velocity": 0.6929133858267716,
            "duration": 0.0386513312499801
          },
          {
            "name": "C#6",
            "midi": 85,
            "time": 400.0659494999972,
            "velocity": 0.6929133858267716,
            "duration": 0.0386513312499801
          },
          {
            "name": "B5",
            "midi": 83,
            "time": 400.2633179999972,
            "velocity": 0.6929133858267716,
            "duration": 0.0386513312499801
          },
          {
            "name": "A5",
            "midi": 81,
            "time": 400.46068649999717,
            "velocity": 0.6929133858267716,
            "duration": 0.0386513312499801
          },
          {
            "name": "G#5",
            "midi": 80,
            "time": 400.65805499999715,
            "velocity": 0.6929133858267716,
            "duration": 0.0386513312499801
          },
          {
            "name": "F#5",
            "midi": 78,
            "time": 400.85542349999713,
            "velocity": 0.6929133858267716,
            "duration": 0.0386513312499801
          },
          {
            "name": "E5",
            "midi": 76,
            "time": 401.0527919999971,
            "velocity": 0.6929133858267716,
            "duration": 0.0386513312499801
          },
          {
            "name": "D#5",
            "midi": 75,
            "time": 401.2501604999971,
            "velocity": 0.6929133858267716,
            "duration": 0.0386513312499801
          },
          {
            "name": "C#5",
            "midi": 73,
            "time": 401.4475289999971,
            "velocity": 0.6929133858267716,
            "duration": 0.0386513312499801
          },
          {
            "name": "B4",
            "midi": 71,
            "time": 401.64489749999706,
            "velocity": 0.6929133858267716,
            "duration": 0.0386513312499801
          },
          {
            "name": "A4",
            "midi": 69,
            "time": 401.84226599999704,
            "velocity": 0.6929133858267716,
            "duration": 0.0386513312499801
          },
          {
            "name": "G#4",
            "midi": 68,
            "time": 402.039634499997,
            "velocity": 0.6929133858267716,
            "duration": 0.0386513312499801
          },
          {
            "name": "F#4",
            "midi": 66,
            "time": 402.237002999997,
            "velocity": 0.6929133858267716,
            "duration": 0.0386513312499801
          },
          {
            "name": "E4",
            "midi": 64,
            "time": 402.434371499997,
            "velocity": 0.6929133858267716,
            "duration": 0.0386513312499801
          },
          {
            "name": "D#3",
            "midi": 51,
            "time": 402.63173999999697,
            "velocity": 0.8976377952755905,
            "duration": 1.1842110000000048
          },
          {
            "name": "F#3",
            "midi": 54,
            "time": 402.63173999999697,
            "velocity": 0.8976377952755905,
            "duration": 1.1842110000000048
          },
          {
            "name": "B3",
            "midi": 59,
            "time": 402.63173999999697,
            "velocity": 0.8976377952755905,
            "duration": 1.1842110000000048
          },
          {
            "name": "B2",
            "midi": 47,
            "time": 403.81595099999697,
            "velocity": 0.6929133858267716,
            "duration": 0.13075663124999437
          },
          {
            "name": "D#3",
            "midi": 51,
            "time": 403.94670763124697,
            "velocity": 0.6929133858267716,
            "duration": 0.13240136874998143
          },
          {
            "name": "F#3",
            "midi": 54,
            "time": 404.07910899999695,
            "velocity": 0.6929133858267716,
            "duration": 0.1315789999999879
          },
          {
            "name": "B3",
            "midi": 59,
            "time": 404.21068799999694,
            "velocity": 0.6929133858267716,
            "duration": 0.19736849999998185
          },
          {
            "name": "B3",
            "midi": 59,
            "time": 404.6054249999969,
            "velocity": 0.6929133858267716,
            "duration": 0.13075663124999437
          },
          {
            "name": "D#4",
            "midi": 63,
            "time": 404.7361816312469,
            "velocity": 0.6929133858267716,
            "duration": 0.13240136874998143
          },
          {
            "name": "F#4",
            "midi": 66,
            "time": 404.8685829999969,
            "velocity": 0.6929133858267716,
            "duration": 0.1315789999999879
          },
          {
            "name": "B4",
            "midi": 71,
            "time": 405.00016199999686,
            "velocity": 0.6929133858267716,
            "duration": 0.19736849999998185
          },
          {
            "name": "B4",
            "midi": 71,
            "time": 405.3948989999968,
            "velocity": 0.6929133858267716,
            "duration": 0.13075663124999437
          },
          {
            "name": "D#5",
            "midi": 75,
            "time": 405.5256556312468,
            "velocity": 0.6929133858267716,
            "duration": 0.13240136874998143
          },
          {
            "name": "F#5",
            "midi": 78,
            "time": 405.6580569999968,
            "velocity": 0.6929133858267716,
            "duration": 0.1315789999999879
          },
          {
            "name": "B5",
            "midi": 83,
            "time": 405.7896359999968,
            "velocity": 0.6929133858267716,
            "duration": 0.19736849999998185
          },
          {
            "name": "B5",
            "midi": 83,
            "time": 405.9870044999968,
            "velocity": 0.6929133858267716,
            "duration": 0.0386513312499801
          },
          {
            "name": "A5",
            "midi": 81,
            "time": 406.18437299999675,
            "velocity": 0.6929133858267716,
            "duration": 0.0386513312499801
          },
          {
            "name": "G#5",
            "midi": 80,
            "time": 406.38174149999674,
            "velocity": 0.6929133858267716,
            "duration": 0.0386513312499801
          },
          {
            "name": "F#5",
            "midi": 78,
            "time": 406.5791099999967,
            "velocity": 0.6929133858267716,
            "duration": 0.0386513312499801
          },
          {
            "name": "E5",
            "midi": 76,
            "time": 406.7764784999967,
            "velocity": 0.6929133858267716,
            "duration": 0.0386513312499801
          },
          {
            "name": "D#5",
            "midi": 75,
            "time": 406.9738469999967,
            "velocity": 0.6929133858267716,
            "duration": 0.0386513312499801
          },
          {
            "name": "C#5",
            "midi": 73,
            "time": 407.17121549999666,
            "velocity": 0.6929133858267716,
            "duration": 0.0386513312499801
          },
          {
            "name": "B4",
            "midi": 71,
            "time": 407.36858399999664,
            "velocity": 0.6929133858267716,
            "duration": 0.0386513312499801
          },
          {
            "name": "A4",
            "midi": 69,
            "time": 407.5659524999966,
            "velocity": 0.6929133858267716,
            "duration": 0.0386513312499801
          },
          {
            "name": "G#4",
            "midi": 68,
            "time": 407.7633209999966,
            "velocity": 0.6929133858267716,
            "duration": 0.0386513312499801
          },
          {
            "name": "F#4",
            "midi": 66,
            "time": 407.9606894999966,
            "velocity": 0.6929133858267716,
            "duration": 0.0386513312499801
          },
          {
            "name": "E4",
            "midi": 64,
            "time": 408.1580579999966,
            "velocity": 0.6929133858267716,
            "duration": 0.0386513312499801
          },
          {
            "name": "D#4",
            "midi": 63,
            "time": 408.35542649999655,
            "velocity": 0.6929133858267716,
            "duration": 0.0386513312499801
          },
          {
            "name": "C#4",
            "midi": 61,
            "time": 408.55279499999654,
            "velocity": 0.6929133858267716,
            "duration": 0.0386513312499801
          },
          {
            "name": "B3",
            "midi": 59,
            "time": 408.7501634999965,
            "velocity": 0.6929133858267716,
            "duration": 0.0386513312499801
          },
          {
            "name": "E4",
            "midi": 64,
            "time": 408.9475319999965,
            "velocity": 0.8976377952755905,
            "duration": 0.7894740000000411
          },
          {
            "name": "G#4",
            "midi": 68,
            "time": 409.6383217499965,
            "velocity": 0.4881889763779528,
            "duration": 0.04934212500000967
          },
          {
            "name": "A4",
            "midi": 69,
            "time": 409.68766387499653,
            "velocity": 0.4881889763779528,
            "duration": 0.04934212500000967
          },
          {
            "name": "B4",
            "midi": 71,
            "time": 409.73700599999654,
            "velocity": 0.4881889763779528,
            "duration": 0.07894740000000411
          },
          {
            "name": "E4",
            "midi": 64,
            "time": 410.13174299999656,
            "velocity": 0.4881889763779528,
            "duration": 0.07894740000000411
          },
          {
            "name": "A4",
            "midi": 69,
            "time": 410.5264799999966,
            "velocity": 0.6929133858267716,
            "duration": 0.7401318750000314
          },
          {
            "name": "A4",
            "midi": 69,
            "time": 411.2172697499966,
            "velocity": 0.6929133858267716,
            "duration": 0.09868425000001935
          },
          {
            "name": "B4",
            "midi": 71,
            "time": 411.2666118749966,
            "velocity": 0.6929133858267716,
            "duration": 0.04934212500000967
          },
          {
            "name": "C#4",
            "midi": 61,
            "time": 411.3159539999966,
            "velocity": 0.6929133858267716,
            "duration": 0.07894740000000411
          },
          {
            "name": "C#5",
            "midi": 73,
            "time": 411.3159539999966,
            "velocity": 0.6929133858267716,
            "duration": 0.07894740000000411
          },
          {
            "name": "D#4",
            "midi": 63,
            "time": 411.71069099999664,
            "velocity": 0.6929133858267716,
            "duration": 0.07894740000000411
          },
          {
            "name": "D#5",
            "midi": 75,
            "time": 411.71069099999664,
            "velocity": 0.6929133858267716,
            "duration": 0.07894740000000411
          },
          {
            "name": "E4",
            "midi": 64,
            "time": 412.10542799999666,
            "velocity": 0.6929133858267716,
            "duration": 0.7894740000000411
          },
          {
            "name": "E5",
            "midi": 76,
            "time": 412.10542799999666,
            "velocity": 0.6929133858267716,
            "duration": 0.7894740000000411
          },
          {
            "name": "G#5",
            "midi": 80,
            "time": 412.7962177499967,
            "velocity": 0.4881889763779528,
            "duration": 0.04934212500000967
          },
          {
            "name": "A5",
            "midi": 81,
            "time": 412.8455598749967,
            "velocity": 0.4881889763779528,
            "duration": 0.04934212500000967
          },
          {
            "name": "B5",
            "midi": 83,
            "time": 412.8949019999967,
            "velocity": 0.4881889763779528,
            "duration": 0.07894740000000411
          },
          {
            "name": "E5",
            "midi": 76,
            "time": 413.2896389999967,
            "velocity": 0.4881889763779528,
            "duration": 0.07894740000000411
          },
          {
            "name": "A5",
            "midi": 81,
            "time": 413.68437599999675,
            "velocity": 0.4881889763779528,
            "duration": 0.7401318750000314
          },
          {
            "name": "A5",
            "midi": 81,
            "time": 414.37516574999677,
            "velocity": 0.6929133858267716,
            "duration": 0.09868425000001935
          },
          {
            "name": "B5",
            "midi": 83,
            "time": 414.4245078749968,
            "velocity": 0.6929133858267716,
            "duration": 0.04934212500000967
          },
          {
            "name": "C#5",
            "midi": 73,
            "time": 414.4738499999968,
            "velocity": 0.6929133858267716,
            "duration": 0.07894740000000411
          },
          {
            "name": "C#6",
            "midi": 85,
            "time": 414.4738499999968,
            "velocity": 0.6929133858267716,
            "duration": 0.07894740000000411
          },
          {
            "name": "D#5",
            "midi": 75,
            "time": 414.8685869999968,
            "velocity": 0.6929133858267716,
            "duration": 0.07894740000000411
          },
          {
            "name": "D#6",
            "midi": 87,
            "time": 414.8685869999968,
            "velocity": 0.6929133858267716,
            "duration": 0.07894740000000411
          },
          {
            "name": "E5",
            "midi": 76,
            "time": 415.2633239999968,
            "velocity": 0.6929133858267716,
            "duration": 0.7894739999999842
          },
          {
            "name": "E6",
            "midi": 88,
            "time": 415.2633239999968,
            "velocity": 0.6929133858267716,
            "duration": 0.7894739999999842
          },
          {
            "name": "C#5",
            "midi": 73,
            "time": 416.0527979999968,
            "velocity": 0.6929133858267716,
            "duration": 0.07894740000000411
          },
          {
            "name": "C#6",
            "midi": 85,
            "time": 416.0527979999968,
            "velocity": 0.6929133858267716,
            "duration": 0.07894740000000411
          },
          {
            "name": "D#5",
            "midi": 75,
            "time": 416.44753499999683,
            "velocity": 0.6929133858267716,
            "duration": 0.07894740000000411
          },
          {
            "name": "D#6",
            "midi": 87,
            "time": 416.44753499999683,
            "velocity": 0.6929133858267716,
            "duration": 0.07894740000000411
          },
          {
            "name": "E5",
            "midi": 76,
            "time": 416.84227199999685,
            "velocity": 0.6929133858267716,
            "duration": 0.7894739999999842
          },
          {
            "name": "E6",
            "midi": 88,
            "time": 416.84227199999685,
            "velocity": 0.6929133858267716,
            "duration": 0.7894739999999842
          },
          {
            "name": "C#5",
            "midi": 73,
            "time": 417.63174599999684,
            "velocity": 0.6929133858267716,
            "duration": 0.07894740000000411
          },
          {
            "name": "C#6",
            "midi": 85,
            "time": 417.63174599999684,
            "velocity": 0.6929133858267716,
            "duration": 0.07894740000000411
          },
          {
            "name": "D#5",
            "midi": 75,
            "time": 418.02648299999686,
            "velocity": 0.6929133858267716,
            "duration": 0.07894740000000411
          },
          {
            "name": "D#6",
            "midi": 87,
            "time": 418.02648299999686,
            "velocity": 0.6929133858267716,
            "duration": 0.07894740000000411
          },
          {
            "name": "E5",
            "midi": 76,
            "time": 418.4212199999969,
            "velocity": 0.6929133858267716,
            "duration": 0.19736849999998185
          },
          {
            "name": "E6",
            "midi": 88,
            "time": 418.4212199999969,
            "velocity": 0.6929133858267716,
            "duration": 0.19736849999998185
          },
          {
            "name": "E6",
            "midi": 88,
            "time": 418.61858849999686,
            "velocity": 0.4881889763779528,
            "duration": 0.19736849999998185
          },
          {
            "name": "D#6",
            "midi": 87,
            "time": 418.81595699999684,
            "velocity": 0.4881889763779528,
            "duration": 0.19736849999998185
          },
          {
            "name": "C#6",
            "midi": 85,
            "time": 419.0133254999968,
            "velocity": 0.4881889763779528,
            "duration": 0.19736849999998185
          },
          {
            "name": "B5",
            "midi": 83,
            "time": 419.2106939999968,
            "velocity": 0.4881889763779528,
            "duration": 0.19736849999998185
          },
          {
            "name": "A5",
            "midi": 81,
            "time": 419.4080624999968,
            "velocity": 0.4881889763779528,
            "duration": 0.19736849999998185
          },
          {
            "name": "G#5",
            "midi": 80,
            "time": 419.60543099999677,
            "velocity": 0.4881889763779528,
            "duration": 0.19736849999998185
          },
          {
            "name": "F#5",
            "midi": 78,
            "time": 419.80279949999675,
            "velocity": 0.4881889763779528,
            "duration": 0.19736849999998185
          },
          {
            "name": "E5",
            "midi": 76,
            "time": 420.00016799999673,
            "velocity": 0.4881889763779528,
            "duration": 0.19736849999998185
          },
          {
            "name": "D#5",
            "midi": 75,
            "time": 420.1975364999967,
            "velocity": 0.4881889763779528,
            "duration": 0.19736849999998185
          },
          {
            "name": "C#5",
            "midi": 73,
            "time": 420.3949049999967,
            "velocity": 0.4881889763779528,
            "duration": 0.19736849999998185
          },
          {
            "name": "B4",
            "midi": 71,
            "time": 420.5922734999967,
            "velocity": 0.4881889763779528,
            "duration": 0.19736849999998185
          },
          {
            "name": "A4",
            "midi": 69,
            "time": 420.78964199999666,
            "velocity": 0.4881889763779528,
            "duration": 0.19736849999998185
          },
          {
            "name": "G#4",
            "midi": 68,
            "time": 420.98701049999664,
            "velocity": 0.4881889763779528,
            "duration": 0.19736849999998185
          },
          {
            "name": "F#4",
            "midi": 66,
            "time": 421.1843789999966,
            "velocity": 0.4881889763779528,
            "duration": 0.19736849999998185
          },
          {
            "name": "E4",
            "midi": 64,
            "time": 421.3817474999966,
            "velocity": 0.4881889763779528,
            "duration": 0.19736849999998185
          },
          {
            "name": "F#4",
            "midi": 66,
            "time": 421.5791159999966,
            "velocity": 0.4881889763779528,
            "duration": 1.1842110000000048
          },
          {
            "name": "G#4",
            "midi": 68,
            "time": 422.7633269999966,
            "velocity": 0.4881889763779528,
            "duration": 0.39473700000002054
          },
          {
            "name": "B4",
            "midi": 71,
            "time": 423.1580639999966,
            "velocity": 0.4881889763779528,
            "duration": 0.39473700000002054
          },
          {
            "name": "A4",
            "midi": 69,
            "time": 423.55280099999663,
            "velocity": 0.4881889763779528,
            "duration": 0.39473700000002054
          },
          {
            "name": "G#4",
            "midi": 68,
            "time": 423.94753799999665,
            "velocity": 0.4881889763779528,
            "duration": 0.39473700000002054
          },
          {
            "name": "F#4",
            "midi": 66,
            "time": 424.3422749999967,
            "velocity": 0.4881889763779528,
            "duration": 0.39473700000002054
          },
          {
            "name": "E4",
            "midi": 64,
            "time": 424.7370119999967,
            "velocity": 0.4881889763779528,
            "duration": 0.19736849999998185
          },
          {
            "name": "B5",
            "midi": 83,
            "time": 424.9343804999967,
            "velocity": 0.4881889763779528,
            "duration": 0.19736849999998185
          },
          {
            "name": "C#6",
            "midi": 85,
            "time": 425.13174899999666,
            "velocity": 0.4881889763779528,
            "duration": 0.19736849999998185
          },
          {
            "name": "D#6",
            "midi": 87,
            "time": 425.32911749999664,
            "velocity": 0.4881889763779528,
            "duration": 0.19736849999998185
          },
          {
            "name": "E6",
            "midi": 88,
            "time": 425.5264859999966,
            "velocity": 0.4881889763779528,
            "duration": 0.19736849999998185
          },
          {
            "name": "D#6",
            "midi": 87,
            "time": 425.7238544999966,
            "velocity": 0.4881889763779528,
            "duration": 0.19736849999998185
          },
          {
            "name": "C#6",
            "midi": 85,
            "time": 425.9212229999966,
            "velocity": 0.4881889763779528,
            "duration": 0.19736849999998185
          },
          {
            "name": "B5",
            "midi": 83,
            "time": 426.11859149999657,
            "velocity": 0.4881889763779528,
            "duration": 0.19736849999998185
          },
          {
            "name": "A#5",
            "midi": 82,
            "time": 426.31595999999655,
            "velocity": 0.4881889763779528,
            "duration": 0.19736849999998185
          },
          {
            "name": "B5",
            "midi": 83,
            "time": 426.51332849999653,
            "velocity": 0.4881889763779528,
            "duration": 0.19736849999998185
          },
          {
            "name": "C#6",
            "midi": 85,
            "time": 426.7106969999965,
            "velocity": 0.4881889763779528,
            "duration": 0.19736849999998185
          },
          {
            "name": "B5",
            "midi": 83,
            "time": 426.9080654999965,
            "velocity": 0.4881889763779528,
            "duration": 0.19736849999998185
          },
          {
            "name": "A5",
            "midi": 81,
            "time": 427.1054339999965,
            "velocity": 0.4881889763779528,
            "duration": 0.19736849999998185
          },
          {
            "name": "G#5",
            "midi": 80,
            "time": 427.30280249999646,
            "velocity": 0.4881889763779528,
            "duration": 0.19736849999998185
          },
          {
            "name": "F#5",
            "midi": 78,
            "time": 427.50017099999644,
            "velocity": 0.4881889763779528,
            "duration": 0.19736849999998185
          },
          {
            "name": "E5",
            "midi": 76,
            "time": 427.6975394999964,
            "velocity": 0.4881889763779528,
            "duration": 0.19736849999998185
          },
          {
            "name": "D#5",
            "midi": 75,
            "time": 427.8949079999964,
            "velocity": 0.4881889763779528,
            "duration": 1.1842110000000048
          },
          {
            "name": "D5",
            "midi": 74,
            "time": 429.0791189999964,
            "velocity": 0.4881889763779528,
            "duration": 0.39473700000002054
          },
          {
            "name": "C#5",
            "midi": 73,
            "time": 429.47385599999643,
            "velocity": 0.4881889763779528,
            "duration": 0.39473700000002054
          },
          {
            "name": "D#5",
            "midi": 75,
            "time": 429.86859299999645,
            "velocity": 0.4881889763779528,
            "duration": 0.39473700000002054
          },
          {
            "name": "E5",
            "midi": 76,
            "time": 430.2633299999965,
            "velocity": 0.4881889763779528,
            "duration": 0.39473700000002054
          },
          {
            "name": "F#5",
            "midi": 78,
            "time": 430.6580669999965,
            "velocity": 0.4881889763779528,
            "duration": 0.39473700000002054
          },
          {
            "name": "D#3",
            "midi": 51,
            "time": 431.0528039999965,
            "velocity": 0.6929133858267716,
            "duration": 1.1842110000000048
          },
          {
            "name": "F#3",
            "midi": 54,
            "time": 431.0528039999965,
            "velocity": 0.6929133858267716,
            "duration": 1.1842110000000048
          },
          {
            "name": "B3",
            "midi": 59,
            "time": 431.0528039999965,
            "velocity": 0.6929133858267716,
            "duration": 1.1842110000000048
          },
          {
            "name": "B2",
            "midi": 47,
            "time": 432.2370149999965,
            "velocity": 0.6929133858267716,
            "duration": 0.13075663124999437
          },
          {
            "name": "D#3",
            "midi": 51,
            "time": 432.3677716312465,
            "velocity": 0.6929133858267716,
            "duration": 0.13240136874998143
          },
          {
            "name": "F#3",
            "midi": 54,
            "time": 432.5001729999965,
            "velocity": 0.6929133858267716,
            "duration": 0.1315789999999879
          },
          {
            "name": "B3",
            "midi": 59,
            "time": 432.6317519999965,
            "velocity": 0.6929133858267716,
            "duration": 0.19736849999998185
          },
          {
            "name": "B3",
            "midi": 59,
            "time": 433.02648899999645,
            "velocity": 0.6929133858267716,
            "duration": 0.13075663124999437
          },
          {
            "name": "D#4",
            "midi": 63,
            "time": 433.15724563124644,
            "velocity": 0.6929133858267716,
            "duration": 0.13240136874998143
          },
          {
            "name": "F#4",
            "midi": 66,
            "time": 433.2896469999964,
            "velocity": 0.6929133858267716,
            "duration": 0.1315789999999879
          },
          {
            "name": "B4",
            "midi": 71,
            "time": 433.4212259999964,
            "velocity": 0.6929133858267716,
            "duration": 0.19736849999998185
          },
          {
            "name": "B4",
            "midi": 71,
            "time": 433.8159629999964,
            "velocity": 0.6929133858267716,
            "duration": 0.13075663124999437
          },
          {
            "name": "D#5",
            "midi": 75,
            "time": 433.94671963124637,
            "velocity": 0.6929133858267716,
            "duration": 0.13240136874998143
          },
          {
            "name": "F#5",
            "midi": 78,
            "time": 434.07912099999635,
            "velocity": 0.6929133858267716,
            "duration": 0.1315789999999879
          },
          {
            "name": "B5",
            "midi": 83,
            "time": 434.21069999999634,
            "velocity": 0.6929133858267716,
            "duration": 0.19736849999998185
          },
          {
            "name": "B5",
            "midi": 83,
            "time": 434.4080684999963,
            "velocity": 0.6929133858267716,
            "duration": 0.0386513312499801
          },
          {
            "name": "A#5",
            "midi": 82,
            "time": 434.6054369999963,
            "velocity": 0.6929133858267716,
            "duration": 0.0386513312499801
          },
          {
            "name": "G#5",
            "midi": 80,
            "time": 434.8028054999963,
            "velocity": 0.6929133858267716,
            "duration": 0.0386513312499801
          },
          {
            "name": "F#5",
            "midi": 78,
            "time": 435.00017399999626,
            "velocity": 0.6929133858267716,
            "duration": 0.0386513312499801
          },
          {
            "name": "E5",
            "midi": 76,
            "time": 435.19754249999625,
            "velocity": 0.6929133858267716,
            "duration": 0.0386513312499801
          },
          {
            "name": "D#5",
            "midi": 75,
            "time": 435.3949109999962,
            "velocity": 0.6929133858267716,
            "duration": 0.0386513312499801
          },
          {
            "name": "C#5",
            "midi": 73,
            "time": 435.5922794999962,
            "velocity": 0.6929133858267716,
            "duration": 0.0386513312499801
          },
          {
            "name": "B4",
            "midi": 71,
            "time": 435.7896479999962,
            "velocity": 0.6929133858267716,
            "duration": 0.0386513312499801
          },
          {
            "name": "A#4",
            "midi": 70,
            "time": 435.9870164999962,
            "velocity": 0.6929133858267716,
            "duration": 0.0386513312499801
          },
          {
            "name": "G#4",
            "midi": 68,
            "time": 436.18438499999615,
            "velocity": 0.6929133858267716,
            "duration": 0.0386513312499801
          },
          {
            "name": "F#4",
            "midi": 66,
            "time": 436.38175349999614,
            "velocity": 0.6929133858267716,
            "duration": 0.0386513312499801
          },
          {
            "name": "E4",
            "midi": 64,
            "time": 436.5791219999961,
            "velocity": 0.6929133858267716,
            "duration": 0.0386513312499801
          },
          {
            "name": "D#4",
            "midi": 63,
            "time": 436.7764904999961,
            "velocity": 0.6929133858267716,
            "duration": 0.0386513312499801
          },
          {
            "name": "C#4",
            "midi": 61,
            "time": 436.9738589999961,
            "velocity": 0.6929133858267716,
            "duration": 0.0386513312499801
          },
          {
            "name": "B3",
            "midi": 59,
            "time": 437.17122749999606,
            "velocity": 0.6929133858267716,
            "duration": 0.0386513312499801
          },
          {
            "name": "C#3",
            "midi": 49,
            "time": 437.36859599999605,
            "velocity": 0.8976377952755905,
            "duration": 1.1842110000000048
          },
          {
            "name": "E3",
            "midi": 52,
            "time": 437.36859599999605,
            "velocity": 0.8976377952755905,
            "duration": 1.1842110000000048
          },
          {
            "name": "A3",
            "midi": 57,
            "time": 437.36859599999605,
            "velocity": 0.8976377952755905,
            "duration": 1.1842110000000048
          },
          {
            "name": "C#4",
            "midi": 61,
            "time": 437.36859599999605,
            "velocity": 0.8976377952755905,
            "duration": 1.1842110000000048
          },
          {
            "name": "C#3",
            "midi": 49,
            "time": 438.55280699999605,
            "velocity": 0.6929133858267716,
            "duration": 0.13075663124999437
          },
          {
            "name": "E3",
            "midi": 52,
            "time": 438.68356363124605,
            "velocity": 0.6929133858267716,
            "duration": 0.13240136874998143
          },
          {
            "name": "A3",
            "midi": 57,
            "time": 438.815964999996,
            "velocity": 0.6929133858267716,
            "duration": 0.1315789999999879
          },
          {
            "name": "C#4",
            "midi": 61,
            "time": 438.947543999996,
            "velocity": 0.6929133858267716,
            "duration": 0.19736849999998185
          },
          {
            "name": "C#4",
            "midi": 61,
            "time": 439.342280999996,
            "velocity": 0.6929133858267716,
            "duration": 0.13075663124999437
          },
          {
            "name": "E4",
            "midi": 64,
            "time": 439.473037631246,
            "velocity": 0.6929133858267716,
            "duration": 0.13240136874998143
          },
          {
            "name": "A4",
            "midi": 69,
            "time": 439.60543899999595,
            "velocity": 0.6929133858267716,
            "duration": 0.1315789999999879
          },
          {
            "name": "C#5",
            "midi": 73,
            "time": 439.73701799999594,
            "velocity": 0.6929133858267716,
            "duration": 0.19736849999998185
          },
          {
            "name": "C#5",
            "midi": 73,
            "time": 440.1317549999959,
            "velocity": 0.6929133858267716,
            "duration": 0.13075663124999437
          },
          {
            "name": "E5",
            "midi": 76,
            "time": 440.2625116312459,
            "velocity": 0.6929133858267716,
            "duration": 0.13240136874998143
          },
          {
            "name": "A5",
            "midi": 81,
            "time": 440.3949129999959,
            "velocity": 0.6929133858267716,
            "duration": 0.1315789999999879
          },
          {
            "name": "C#6",
            "midi": 85,
            "time": 440.52649199999587,
            "velocity": 0.6929133858267716,
            "duration": 0.19736849999998185
          },
          {
            "name": "C#6",
            "midi": 85,
            "time": 440.72386049999585,
            "velocity": 0.6929133858267716,
            "duration": 0.0386513312499801
          },
          {
            "name": "D6",
            "midi": 86,
            "time": 440.92122899999583,
            "velocity": 0.6929133858267716,
            "duration": 0.0386513312499801
          },
          {
            "name": "E6",
            "midi": 88,
            "time": 441.1185974999958,
            "velocity": 0.6929133858267716,
            "duration": 0.0386513312499801
          },
          {
            "name": "D6",
            "midi": 86,
            "time": 441.3159659999958,
            "velocity": 0.6929133858267716,
            "duration": 0.0386513312499801
          },
          {
            "name": "C#6",
            "midi": 85,
            "time": 441.5133344999958,
            "velocity": 0.6929133858267716,
            "duration": 0.0386513312499801
          },
          {
            "name": "B5",
            "midi": 83,
            "time": 441.71070299999576,
            "velocity": 0.6929133858267716,
            "duration": 0.0386513312499801
          },
          {
            "name": "A5",
            "midi": 81,
            "time": 441.90807149999574,
            "velocity": 0.6929133858267716,
            "duration": 0.0386513312499801
          },
          {
            "name": "G5",
            "midi": 79,
            "time": 442.1054399999957,
            "velocity": 0.6929133858267716,
            "duration": 0.0386513312499801
          },
          {
            "name": "F#5",
            "midi": 78,
            "time": 442.3028084999957,
            "velocity": 0.6929133858267716,
            "duration": 0.0386513312499801
          },
          {
            "name": "E5",
            "midi": 76,
            "time": 442.5001769999957,
            "velocity": 0.6929133858267716,
            "duration": 0.0386513312499801
          },
          {
            "name": "D5",
            "midi": 74,
            "time": 442.69754549999567,
            "velocity": 0.6929133858267716,
            "duration": 0.0386513312499801
          },
          {
            "name": "C#5",
            "midi": 73,
            "time": 442.89491399999565,
            "velocity": 0.6929133858267716,
            "duration": 0.0386513312499801
          },
          {
            "name": "B4",
            "midi": 71,
            "time": 443.09228249999563,
            "velocity": 0.6929133858267716,
            "duration": 0.0386513312499801
          },
          {
            "name": "A4",
            "midi": 69,
            "time": 443.2896509999956,
            "velocity": 0.6929133858267716,
            "duration": 0.0386513312499801
          },
          {
            "name": "G4",
            "midi": 67,
            "time": 443.4870194999956,
            "velocity": 0.6929133858267716,
            "duration": 0.0386513312499801
          },
          {
            "name": "F#3",
            "midi": 54,
            "time": 443.6843879999956,
            "velocity": 0.8976377952755905,
            "duration": 1.1842110000000048
          },
          {
            "name": "A3",
            "midi": 57,
            "time": 443.6843879999956,
            "velocity": 0.8976377952755905,
            "duration": 1.1842110000000048
          },
          {
            "name": "D4",
            "midi": 62,
            "time": 443.6843879999956,
            "velocity": 0.8976377952755905,
            "duration": 1.1842110000000048
          },
          {
            "name": "F#4",
            "midi": 66,
            "time": 443.6843879999956,
            "velocity": 0.8976377952755905,
            "duration": 1.1842110000000048
          },
          {
            "name": "D3",
            "midi": 50,
            "time": 444.8685989999956,
            "velocity": 0.6929133858267716,
            "duration": 0.13075663124999437
          },
          {
            "name": "F#3",
            "midi": 54,
            "time": 444.9993556312456,
            "velocity": 0.6929133858267716,
            "duration": 0.13240136874998143
          },
          {
            "name": "A3",
            "midi": 57,
            "time": 445.13175699999556,
            "velocity": 0.6929133858267716,
            "duration": 0.1315789999999879
          },
          {
            "name": "D4",
            "midi": 62,
            "time": 445.26333599999555,
            "velocity": 0.6929133858267716,
            "duration": 0.19736849999998185
          },
          {
            "name": "D4",
            "midi": 62,
            "time": 445.6580729999955,
            "velocity": 0.6929133858267716,
            "duration": 0.13075663124999437
          },
          {
            "name": "F#4",
            "midi": 66,
            "time": 445.7888296312455,
            "velocity": 0.6929133858267716,
            "duration": 0.13240136874998143
          },
          {
            "name": "A4",
            "midi": 69,
            "time": 445.9212309999955,
            "velocity": 0.6929133858267716,
            "duration": 0.1315789999999879
          },
          {
            "name": "D5",
            "midi": 74,
            "time": 446.0528099999955,
            "velocity": 0.6929133858267716,
            "duration": 0.19736849999998185
          },
          {
            "name": "D5",
            "midi": 74,
            "time": 446.44754699999544,
            "velocity": 0.6929133858267716,
            "duration": 0.13075663124999437
          },
          {
            "name": "F#5",
            "midi": 78,
            "time": 446.57830363124543,
            "velocity": 0.6929133858267716,
            "duration": 0.13240136874998143
          },
          {
            "name": "A5",
            "midi": 81,
            "time": 446.7107049999954,
            "velocity": 0.6929133858267716,
            "duration": 0.1315789999999879
          },
          {
            "name": "D6",
            "midi": 86,
            "time": 446.8422839999954,
            "velocity": 0.6929133858267716,
            "duration": 0.19736849999998185
          },
          {
            "name": "F#5",
            "midi": 78,
            "time": 447.6317579999954,
            "velocity": 0.7952755905511811,
            "duration": 0.39473700000002054
          },
          {
            "name": "A5",
            "midi": 81,
            "time": 447.6317579999954,
            "velocity": 0.7952755905511811,
            "duration": 0.39473700000002054
          },
          {
            "name": "D6",
            "midi": 86,
            "time": 447.6317579999954,
            "velocity": 0.7952755905511811,
            "duration": 0.39473700000002054
          },
          {
            "name": "F#6",
            "midi": 90,
            "time": 447.6317579999954,
            "velocity": 0.7952755905511811,
            "duration": 0.39473700000002054
          },
          {
            "name": "D#6",
            "midi": 87,
            "time": 450.0001799999954,
            "velocity": 0.4881889763779528,
            "duration": 0.19736849999998185
          },
          {
            "name": "E6",
            "midi": 88,
            "time": 450.1975484999954,
            "velocity": 0.4881889763779528,
            "duration": 0.19736849999998185
          },
          {
            "name": "F#6",
            "midi": 90,
            "time": 450.39491699999536,
            "velocity": 0.4881889763779528,
            "duration": 0.19736849999998185
          },
          {
            "name": "E6",
            "midi": 88,
            "time": 450.59228549999534,
            "velocity": 0.4881889763779528,
            "duration": 0.19736849999998185
          },
          {
            "name": "D6",
            "midi": 86,
            "time": 450.7896539999953,
            "velocity": 0.4881889763779528,
            "duration": 0.19736849999998185
          },
          {
            "name": "C#6",
            "midi": 85,
            "time": 450.9870224999953,
            "velocity": 0.4881889763779528,
            "duration": 0.19736849999998185
          },
          {
            "name": "B5",
            "midi": 83,
            "time": 451.1843909999953,
            "velocity": 0.4881889763779528,
            "duration": 0.19736849999998185
          },
          {
            "name": "A5",
            "midi": 81,
            "time": 451.38175949999527,
            "velocity": 0.4881889763779528,
            "duration": 0.19736849999998185
          },
          {
            "name": "G#5",
            "midi": 80,
            "time": 451.57912799999525,
            "velocity": 0.3858267716535433,
            "duration": 0.19736849999998185
          },
          {
            "name": "F#5",
            "midi": 78,
            "time": 451.77649649999523,
            "velocity": 0.3858267716535433,
            "duration": 0.19736849999998185
          },
          {
            "name": "E5",
            "midi": 76,
            "time": 451.9738649999952,
            "velocity": 0.3858267716535433,
            "duration": 0.19736849999998185
          },
          {
            "name": "D5",
            "midi": 74,
            "time": 452.1712334999952,
            "velocity": 0.3858267716535433,
            "duration": 0.19736849999998185
          },
          {
            "name": "C#5",
            "midi": 73,
            "time": 452.3686019999952,
            "velocity": 0.3858267716535433,
            "duration": 0.19736849999998185
          },
          {
            "name": "B4",
            "midi": 71,
            "time": 452.56597049999516,
            "velocity": 0.3858267716535433,
            "duration": 0.19736849999998185
          },
          {
            "name": "A4",
            "midi": 69,
            "time": 452.76333899999514,
            "velocity": 0.3858267716535433,
            "duration": 0.19736849999998185
          },
          {
            "name": "G#4",
            "midi": 68,
            "time": 452.9607074999951,
            "velocity": 0.3858267716535433,
            "duration": 0.19736849999998185
          },
          {
            "name": "D#5",
            "midi": 75,
            "time": 453.1580759999951,
            "velocity": 0.4881889763779528,
            "duration": 0.19736849999998185
          },
          {
            "name": "E5",
            "midi": 76,
            "time": 453.3554444999951,
            "velocity": 0.4881889763779528,
            "duration": 0.19736849999998185
          },
          {
            "name": "F#5",
            "midi": 78,
            "time": 453.55281299999507,
            "velocity": 0.4881889763779528,
            "duration": 0.19736849999998185
          },
          {
            "name": "E5",
            "midi": 76,
            "time": 453.75018149999505,
            "velocity": 0.4881889763779528,
            "duration": 0.19736849999998185
          },
          {
            "name": "D5",
            "midi": 74,
            "time": 453.94754999999503,
            "velocity": 0.4881889763779528,
            "duration": 0.19736849999998185
          },
          {
            "name": "C#5",
            "midi": 73,
            "time": 454.144918499995,
            "velocity": 0.4881889763779528,
            "duration": 0.19736849999998185
          },
          {
            "name": "B4",
            "midi": 71,
            "time": 454.342286999995,
            "velocity": 0.4881889763779528,
            "duration": 0.19736849999998185
          },
          {
            "name": "A4",
            "midi": 69,
            "time": 454.539655499995,
            "velocity": 0.4881889763779528,
            "duration": 0.19736849999998185
          },
          {
            "name": "G#4",
            "midi": 68,
            "time": 454.73702399999496,
            "velocity": 0.3858267716535433,
            "duration": 0.19736849999998185
          },
          {
            "name": "F#4",
            "midi": 66,
            "time": 454.93439249999494,
            "velocity": 0.3858267716535433,
            "duration": 0.19736849999998185
          },
          {
            "name": "E4",
            "midi": 64,
            "time": 455.1317609999949,
            "velocity": 0.3858267716535433,
            "duration": 0.19736849999998185
          },
          {
            "name": "D4",
            "midi": 62,
            "time": 455.3291294999949,
            "velocity": 0.3858267716535433,
            "duration": 0.19736849999998185
          },
          {
            "name": "C#4",
            "midi": 61,
            "time": 455.5264979999949,
            "velocity": 0.3858267716535433,
            "duration": 0.19736849999998185
          },
          {
            "name": "B3",
            "midi": 59,
            "time": 455.72386649999487,
            "velocity": 0.3858267716535433,
            "duration": 0.19736849999998185
          },
          {
            "name": "A3",
            "midi": 57,
            "time": 455.92123499999485,
            "velocity": 0.3858267716535433,
            "duration": 0.19736849999998185
          },
          {
            "name": "G#3",
            "midi": 56,
            "time": 456.11860349999483,
            "velocity": 0.3858267716535433,
            "duration": 0.19736849999998185
          },
          {
            "name": "C6",
            "midi": 84,
            "time": 456.3159719999948,
            "velocity": 0.4881889763779528,
            "duration": 0.19736849999998185
          },
          {
            "name": "C#6",
            "midi": 85,
            "time": 456.5133404999948,
            "velocity": 0.4881889763779528,
            "duration": 0.19736849999998185
          },
          {
            "name": "D6",
            "midi": 86,
            "time": 456.7107089999948,
            "velocity": 0.4881889763779528,
            "duration": 0.19736849999998185
          },
          {
            "name": "C#6",
            "midi": 85,
            "time": 456.90807749999476,
            "velocity": 0.4881889763779528,
            "duration": 0.19736849999998185
          },
          {
            "name": "B5",
            "midi": 83,
            "time": 457.10544599999474,
            "velocity": 0.4881889763779528,
            "duration": 0.19736849999998185
          },
          {
            "name": "A5",
            "midi": 81,
            "time": 457.3028144999947,
            "velocity": 0.4881889763779528,
            "duration": 0.19736849999998185
          },
          {
            "name": "G#5",
            "midi": 80,
            "time": 457.5001829999947,
            "velocity": 0.4881889763779528,
            "duration": 0.19736849999998185
          },
          {
            "name": "F#5",
            "midi": 78,
            "time": 457.6975514999947,
            "velocity": 0.4881889763779528,
            "duration": 0.19736849999998185
          },
          {
            "name": "F5",
            "midi": 77,
            "time": 457.89491999999467,
            "velocity": 0.3858267716535433,
            "duration": 0.19736849999998185
          },
          {
            "name": "D5",
            "midi": 74,
            "time": 458.09228849999465,
            "velocity": 0.3858267716535433,
            "duration": 0.19736849999998185
          },
          {
            "name": "C#5",
            "midi": 73,
            "time": 458.28965699999463,
            "velocity": 0.3858267716535433,
            "duration": 0.19736849999998185
          },
          {
            "name": "B4",
            "midi": 71,
            "time": 458.4870254999946,
            "velocity": 0.3858267716535433,
            "duration": 0.19736849999998185
          },
          {
            "name": "A4",
            "midi": 69,
            "time": 458.6843939999946,
            "velocity": 0.3858267716535433,
            "duration": 0.19736849999998185
          },
          {
            "name": "G#4",
            "midi": 68,
            "time": 458.8817624999946,
            "velocity": 0.3858267716535433,
            "duration": 0.19736849999998185
          },
          {
            "name": "F#4",
            "midi": 66,
            "time": 459.07913099999456,
            "velocity": 0.3858267716535433,
            "duration": 0.19736849999998185
          },
          {
            "name": "F4",
            "midi": 65,
            "time": 459.27649949999454,
            "velocity": 0.3858267716535433,
            "duration": 0.19736849999998185
          },
          {
            "name": "C5",
            "midi": 72,
            "time": 459.4738679999945,
            "velocity": 0.4881889763779528,
            "duration": 0.19736849999998185
          },
          {
            "name": "C#5",
            "midi": 73,
            "time": 459.6712364999945,
            "velocity": 0.4881889763779528,
            "duration": 0.19736849999998185
          },
          {
            "name": "D5",
            "midi": 74,
            "time": 459.8686049999945,
            "velocity": 0.4881889763779528,
            "duration": 0.19736849999998185
          },
          {
            "name": "C#5",
            "midi": 73,
            "time": 460.06597349999447,
            "velocity": 0.4881889763779528,
            "duration": 0.19736849999998185
          },
          {
            "name": "B4",
            "midi": 71,
            "time": 460.26334199999445,
            "velocity": 0.4881889763779528,
            "duration": 0.19736849999998185
          },
          {
            "name": "A4",
            "midi": 69,
            "time": 460.46071049999443,
            "velocity": 0.4881889763779528,
            "duration": 0.19736849999998185
          },
          {
            "name": "G#4",
            "midi": 68,
            "time": 460.6580789999944,
            "velocity": 0.4881889763779528,
            "duration": 0.19736849999998185
          },
          {
            "name": "F#4",
            "midi": 66,
            "time": 460.8554474999944,
            "velocity": 0.4881889763779528,
            "duration": 0.19736849999998185
          },
          {
            "name": "F4",
            "midi": 65,
            "time": 461.0528159999944,
            "velocity": 0.3858267716535433,
            "duration": 0.19736849999998185
          },
          {
            "name": "D4",
            "midi": 62,
            "time": 461.25018449999436,
            "velocity": 0.3858267716535433,
            "duration": 0.19736849999998185
          },
          {
            "name": "C#4",
            "midi": 61,
            "time": 461.44755299999434,
            "velocity": 0.3858267716535433,
            "duration": 0.19736849999998185
          },
          {
            "name": "B3",
            "midi": 59,
            "time": 461.6449214999943,
            "velocity": 0.3858267716535433,
            "duration": 0.19736849999998185
          },
          {
            "name": "A3",
            "midi": 57,
            "time": 461.8422899999943,
            "velocity": 0.3858267716535433,
            "duration": 0.19736849999998185
          },
          {
            "name": "G#3",
            "midi": 56,
            "time": 462.0396584999943,
            "velocity": 0.3858267716535433,
            "duration": 0.19736849999998185
          },
          {
            "name": "F#3",
            "midi": 54,
            "time": 462.23702699999427,
            "velocity": 0.3858267716535433,
            "duration": 0.19736849999998185
          },
          {
            "name": "F3",
            "midi": 53,
            "time": 462.43439549999425,
            "velocity": 0.3858267716535433,
            "duration": 0.19736849999998185
          },
          {
            "name": "A#5",
            "midi": 82,
            "time": 465.7896599999942,
            "velocity": 0.4881889763779528,
            "duration": 0.19736849999998185
          },
          {
            "name": "B5",
            "midi": 83,
            "time": 465.9870284999942,
            "velocity": 0.4881889763779528,
            "duration": 0.19736849999998185
          },
          {
            "name": "C#6",
            "midi": 85,
            "time": 466.1843969999942,
            "velocity": 0.4881889763779528,
            "duration": 0.19736849999998185
          },
          {
            "name": "B5",
            "midi": 83,
            "time": 466.3817654999942,
            "velocity": 0.4881889763779528,
            "duration": 0.19736849999998185
          },
          {
            "name": "A5",
            "midi": 81,
            "time": 466.57913399999416,
            "velocity": 0.4881889763779528,
            "duration": 0.19736849999998185
          },
          {
            "name": "G#5",
            "midi": 80,
            "time": 466.77650249999414,
            "velocity": 0.4881889763779528,
            "duration": 0.19736849999998185
          },
          {
            "name": "F#5",
            "midi": 78,
            "time": 466.9738709999941,
            "velocity": 0.4881889763779528,
            "duration": 0.19736849999998185
          },
          {
            "name": "E5",
            "midi": 76,
            "time": 467.1712394999941,
            "velocity": 0.4881889763779528,
            "duration": 0.19736849999998185
          },
          {
            "name": "D#5",
            "midi": 75,
            "time": 467.3686079999941,
            "velocity": 0.3858267716535433,
            "duration": 0.19736849999998185
          },
          {
            "name": "C#5",
            "midi": 73,
            "time": 467.56597649999406,
            "velocity": 0.3858267716535433,
            "duration": 0.19736849999998185
          },
          {
            "name": "B4",
            "midi": 71,
            "time": 467.76334499999405,
            "velocity": 0.3858267716535433,
            "duration": 0.19736849999998185
          },
          {
            "name": "A4",
            "midi": 69,
            "time": 467.96071349999403,
            "velocity": 0.3858267716535433,
            "duration": 0.19736849999998185
          },
          {
            "name": "G#4",
            "midi": 68,
            "time": 468.158081999994,
            "velocity": 0.3858267716535433,
            "duration": 0.19736849999998185
          },
          {
            "name": "F#4",
            "midi": 66,
            "time": 468.355450499994,
            "velocity": 0.3858267716535433,
            "duration": 0.19736849999998185
          },
          {
            "name": "E4",
            "midi": 64,
            "time": 468.552818999994,
            "velocity": 0.3858267716535433,
            "duration": 0.19736849999998185
          },
          {
            "name": "D#4",
            "midi": 63,
            "time": 468.75018749999396,
            "velocity": 0.3858267716535433,
            "duration": 0.19736849999998185
          },
          {
            "name": "E4",
            "midi": 64,
            "time": 468.94755599999394,
            "velocity": 0.4881889763779528,
            "duration": 0.7894740000000411
          },
          {
            "name": "G#5",
            "midi": 80,
            "time": 469.63834574999396,
            "velocity": 0.4881889763779528,
            "duration": 0.04934212500000967
          },
          {
            "name": "A5",
            "midi": 81,
            "time": 469.68768787499397,
            "velocity": 0.4881889763779528,
            "duration": 0.04934212500000967
          },
          {
            "name": "B5",
            "midi": 83,
            "time": 469.737029999994,
            "velocity": 0.4881889763779528,
            "duration": 0.07894740000000411
          },
          {
            "name": "E5",
            "midi": 76,
            "time": 470.131766999994,
            "velocity": 0.4881889763779528,
            "duration": 0.07894740000000411
          },
          {
            "name": "E5",
            "midi": 76,
            "time": 470.427819749994,
            "velocity": 0.4881889763779528,
            "duration": 0.04934212500000967
          },
          {
            "name": "F#5",
            "midi": 78,
            "time": 470.477161874994,
            "velocity": 0.4881889763779528,
            "duration": 0.04934212500000967
          },
          {
            "name": "G#5",
            "midi": 80,
            "time": 470.526503999994,
            "velocity": 0.4881889763779528,
            "duration": 0.07894740000000411
          },
          {
            "name": "B4",
            "midi": 71,
            "time": 470.92124099999404,
            "velocity": 0.4881889763779528,
            "duration": 0.07894740000000411
          },
          {
            "name": "C#5",
            "midi": 73,
            "time": 471.21729374999404,
            "velocity": 0.4881889763779528,
            "duration": 0.04934212500000967
          },
          {
            "name": "D#5",
            "midi": 75,
            "time": 471.26663587499405,
            "velocity": 0.4881889763779528,
            "duration": 0.04934212500000967
          },
          {
            "name": "E5",
            "midi": 76,
            "time": 471.31597799999406,
            "velocity": 0.4881889763779528,
            "duration": 0.07894740000000411
          },
          {
            "name": "G#4",
            "midi": 68,
            "time": 471.7107149999941,
            "velocity": 0.4881889763779528,
            "duration": 0.07894740000000411
          },
          {
            "name": "B4",
            "midi": 71,
            "time": 472.1054519999941,
            "velocity": 0.4881889763779528,
            "duration": 0.39473700000002054
          },
          {
            "name": "A4",
            "midi": 69,
            "time": 472.5001889999941,
            "velocity": 0.4881889763779528,
            "duration": 0.19736849999998185
          },
          {
            "name": "A5",
            "midi": 81,
            "time": 472.7962417499941,
            "velocity": 0.4881889763779528,
            "duration": 0.04934212500000967
          },
          {
            "name": "B5",
            "midi": 83,
            "time": 472.84558387499413,
            "velocity": 0.4881889763779528,
            "duration": 0.04934212500000967
          },
          {
            "name": "C#6",
            "midi": 85,
            "time": 472.89492599999414,
            "velocity": 0.4881889763779528,
            "duration": 0.07894740000000411
          },
          {
            "name": "F#5",
            "midi": 78,
            "time": 473.28966299999416,
            "velocity": 0.4881889763779528,
            "duration": 0.07894740000000411
          },
          {
            "name": "F#5",
            "midi": 78,
            "time": 473.58571574999416,
            "velocity": 0.4881889763779528,
            "duration": 0.04934212500000967
          },
          {
            "name": "G#5",
            "midi": 80,
            "time": 473.6350578749942,
            "velocity": 0.4881889763779528,
            "duration": 0.04934212500000967
          },
          {
            "name": "A5",
            "midi": 81,
            "time": 473.6843999999942,
            "velocity": 0.4881889763779528,
            "duration": 0.07894740000000411
          },
          {
            "name": "D#5",
            "midi": 75,
            "time": 474.0791369999942,
            "velocity": 0.4881889763779528,
            "duration": 0.07894740000000411
          },
          {
            "name": "D#5",
            "midi": 75,
            "time": 474.3751897499942,
            "velocity": 0.4881889763779528,
            "duration": 0.04934212500000967
          },
          {
            "name": "E5",
            "midi": 76,
            "time": 474.4245318749942,
            "velocity": 0.4881889763779528,
            "duration": 0.04934212500000967
          },
          {
            "name": "F#5",
            "midi": 78,
            "time": 474.4738739999942,
            "velocity": 0.4881889763779528,
            "duration": 0.07894740000000411
          },
          {
            "name": "B4",
            "midi": 71,
            "time": 474.86861099999425,
            "velocity": 0.4881889763779528,
            "duration": 0.07894740000000411
          },
          {
            "name": "F#5",
            "midi": 78,
            "time": 475.26334799999427,
            "velocity": 0.4881889763779528,
            "duration": 0.39473700000002054
          },
          {
            "name": "E5",
            "midi": 76,
            "time": 475.6580849999943,
            "velocity": 0.4881889763779528,
            "duration": 0.19736849999998185
          },
          {
            "name": "D#6",
            "midi": 87,
            "time": 475.9541377499943,
            "velocity": 0.4881889763779528,
            "duration": 0.04934212500000967
          },
          {
            "name": "E6",
            "midi": 88,
            "time": 476.0034798749943,
            "velocity": 0.4881889763779528,
            "duration": 0.04934212500000967
          },
          {
            "name": "F#6",
            "midi": 90,
            "time": 476.0528219999943,
            "velocity": 0.4881889763779528,
            "duration": 0.07894740000000411
          },
          {
            "name": "B5",
            "midi": 83,
            "time": 476.4475589999943,
            "velocity": 0.4881889763779528,
            "duration": 0.07894740000000411
          },
          {
            "name": "F#6",
            "midi": 90,
            "time": 476.84229599999435,
            "velocity": 0.4881889763779528,
            "duration": 0.39473700000002054
          },
          {
            "name": "E6",
            "midi": 88,
            "time": 477.23703299999437,
            "velocity": 0.4881889763779528,
            "duration": 0.19736849999998185
          },
          {
            "name": "D#5",
            "midi": 75,
            "time": 477.53308574999437,
            "velocity": 0.4881889763779528,
            "duration": 0.04934212500000967
          },
          {
            "name": "E5",
            "midi": 76,
            "time": 477.5824278749944,
            "velocity": 0.4881889763779528,
            "duration": 0.04934212500000967
          },
          {
            "name": "F#5",
            "midi": 78,
            "time": 477.6317699999944,
            "velocity": 0.4881889763779528,
            "duration": 0.07894740000000411
          },
          {
            "name": "B4",
            "midi": 71,
            "time": 478.0265069999944,
            "velocity": 0.4881889763779528,
            "duration": 0.07894740000000411
          },
          {
            "name": "F#5",
            "midi": 78,
            "time": 478.42124399999443,
            "velocity": 0.4881889763779528,
            "duration": 0.39473700000002054
          },
          {
            "name": "E5",
            "midi": 76,
            "time": 478.81598099999445,
            "velocity": 0.4881889763779528,
            "duration": 0.19736849999998185
          },
          {
            "name": "E6",
            "midi": 88,
            "time": 479.2107179999944,
            "velocity": 0.4881889763779528,
            "duration": 0.19736849999998185
          },
          {
            "name": "D#6",
            "midi": 87,
            "time": 479.4080864999944,
            "velocity": 0.4881889763779528,
            "duration": 0.19736849999998185
          },
          {
            "name": "E6",
            "midi": 88,
            "time": 479.6054549999944,
            "velocity": 0.4881889763779528,
            "duration": 0.19736849999998185
          },
          {
            "name": "C#6",
            "midi": 85,
            "time": 479.80282349999436,
            "velocity": 0.4881889763779528,
            "duration": 0.19736849999998185
          },
          {
            "name": "B5",
            "midi": 83,
            "time": 480.00019199999434,
            "velocity": 0.4881889763779528,
            "duration": 0.07894740000000411
          },
          {
            "name": "G#5",
            "midi": 80,
            "time": 480.39492899999436,
            "velocity": 0.4881889763779528,
            "duration": 0.07894740000000411
          },
          {
            "name": "F#5",
            "midi": 78,
            "time": 480.69098174999436,
            "velocity": 0.4881889763779528,
            "duration": 0.04934212500000967
          },
          {
            "name": "G#5",
            "midi": 80,
            "time": 480.7403238749944,
            "velocity": 0.4881889763779528,
            "duration": 0.04934212500000967
          },
          {
            "name": "A5",
            "midi": 81,
            "time": 480.7896659999944,
            "velocity": 0.4881889763779528,
            "duration": 0.07894740000000411
          },
          {
            "name": "D#5",
            "midi": 75,
            "time": 481.1844029999944,
            "velocity": 0.4881889763779528,
            "duration": 0.07894740000000411
          },
          {
            "name": "E5",
            "midi": 76,
            "time": 481.5791399999944,
            "velocity": 0.4881889763779528,
            "duration": 0.7894740000000411
          },
          {
            "name": "G#5",
            "midi": 80,
            "time": 482.26992974999445,
            "velocity": 0.5905511811023622,
            "duration": 0.04934212500000967
          },
          {
            "name": "A5",
            "midi": 81,
            "time": 482.31927187499446,
            "velocity": 0.5905511811023622,
            "duration": 0.04934212500000967
          },
          {
            "name": "B5",
            "midi": 83,
            "time": 482.36861399999447,
            "velocity": 0.5905511811023622,
            "duration": 0.07894740000000411
          },
          {
            "name": "E5",
            "midi": 76,
            "time": 482.7633509999945,
            "velocity": 0.5905511811023622,
            "duration": 0.07894740000000411
          },
          {
            "name": "E5",
            "midi": 76,
            "time": 483.0594037499945,
            "velocity": 0.5905511811023622,
            "duration": 0.04934212500000967
          },
          {
            "name": "F#5",
            "midi": 78,
            "time": 483.1087458749945,
            "velocity": 0.5905511811023622,
            "duration": 0.04934212500000967
          },
          {
            "name": "G#5",
            "midi": 80,
            "time": 483.1580879999945,
            "velocity": 0.5905511811023622,
            "duration": 0.07894740000000411
          },
          {
            "name": "B4",
            "midi": 71,
            "time": 483.5528249999945,
            "velocity": 0.5905511811023622,
            "duration": 0.07894740000000411
          },
          {
            "name": "C#5",
            "midi": 73,
            "time": 483.84887774999453,
            "velocity": 0.5905511811023622,
            "duration": 0.04934212500000967
          },
          {
            "name": "D#5",
            "midi": 75,
            "time": 483.89821987499454,
            "velocity": 0.5905511811023622,
            "duration": 0.04934212500000967
          },
          {
            "name": "E5",
            "midi": 76,
            "time": 483.94756199999455,
            "velocity": 0.5905511811023622,
            "duration": 0.07894740000000411
          },
          {
            "name": "G#4",
            "midi": 68,
            "time": 484.34229899999457,
            "velocity": 0.5905511811023622,
            "duration": 0.07894740000000411
          },
          {
            "name": "B4",
            "midi": 71,
            "time": 484.7370359999946,
            "velocity": 0.5905511811023622,
            "duration": 0.39473700000002054
          },
          {
            "name": "A4",
            "midi": 69,
            "time": 485.1317729999946,
            "velocity": 0.5905511811023622,
            "duration": 0.19736849999998185
          },
          {
            "name": "A5",
            "midi": 81,
            "time": 485.4278257499946,
            "velocity": 0.5905511811023622,
            "duration": 0.04934212500000967
          },
          {
            "name": "B5",
            "midi": 83,
            "time": 485.4771678749946,
            "velocity": 0.5905511811023622,
            "duration": 0.04934212500000967
          },
          {
            "name": "C#6",
            "midi": 85,
            "time": 485.52650999999463,
            "velocity": 0.5905511811023622,
            "duration": 0.07894740000000411
          },
          {
            "name": "F#5",
            "midi": 78,
            "time": 485.92124699999465,
            "velocity": 0.5905511811023622,
            "duration": 0.07894740000000411
          },
          {
            "name": "F#5",
            "midi": 78,
            "time": 486.21729974999465,
            "velocity": 0.5905511811023622,
            "duration": 0.04934212500000967
          },
          {
            "name": "G#5",
            "midi": 80,
            "time": 486.26664187499466,
            "velocity": 0.5905511811023622,
            "duration": 0.04934212500000967
          },
          {
            "name": "A5",
            "midi": 81,
            "time": 486.31598399999467,
            "velocity": 0.5905511811023622,
            "duration": 0.07894740000000411
          },
          {
            "name": "D#5",
            "midi": 75,
            "time": 486.7107209999947,
            "velocity": 0.5905511811023622,
            "duration": 0.07894740000000411
          },
          {
            "name": "D#5",
            "midi": 75,
            "time": 487.0067737499947,
            "velocity": 0.5905511811023622,
            "duration": 0.04934212500000967
          },
          {
            "name": "E5",
            "midi": 76,
            "time": 487.0561158749947,
            "velocity": 0.5905511811023622,
            "duration": 0.04934212500000967
          },
          {
            "name": "F#5",
            "midi": 78,
            "time": 487.1054579999947,
            "velocity": 0.5905511811023622,
            "duration": 0.07894740000000411
          },
          {
            "name": "B4",
            "midi": 71,
            "time": 487.50019499999473,
            "velocity": 0.5905511811023622,
            "duration": 0.07894740000000411
          },
          {
            "name": "F#5",
            "midi": 78,
            "time": 487.89493199999475,
            "velocity": 0.5905511811023622,
            "duration": 0.39473700000002054
          },
          {
            "name": "E5",
            "midi": 76,
            "time": 488.2896689999948,
            "velocity": 0.5905511811023622,
            "duration": 0.19736849999998185
          },
          {
            "name": "D#6",
            "midi": 87,
            "time": 488.5857217499948,
            "velocity": 0.5905511811023622,
            "duration": 0.04934212500000967
          },
          {
            "name": "E6",
            "midi": 88,
            "time": 488.6350638749948,
            "velocity": 0.5905511811023622,
            "duration": 0.04934212500000967
          },
          {
            "name": "F#6",
            "midi": 90,
            "time": 488.6844059999948,
            "velocity": 0.5905511811023622,
            "duration": 0.07894740000000411
          },
          {
            "name": "B5",
            "midi": 83,
            "time": 489.0791429999948,
            "velocity": 0.5905511811023622,
            "duration": 0.07894740000000411
          },
          {
            "name": "F#6",
            "midi": 90,
            "time": 489.47387999999484,
            "velocity": 0.5905511811023622,
            "duration": 0.39473700000002054
          },
          {
            "name": "E6",
            "midi": 88,
            "time": 489.86861699999486,
            "velocity": 0.5905511811023622,
            "duration": 0.19736849999998185
          },
          {
            "name": "D#5",
            "midi": 75,
            "time": 490.16466974999486,
            "velocity": 0.5905511811023622,
            "duration": 0.04934212500000967
          },
          {
            "name": "E5",
            "midi": 76,
            "time": 490.21401187499487,
            "velocity": 0.5905511811023622,
            "duration": 0.04934212500000967
          },
          {
            "name": "F#5",
            "midi": 78,
            "time": 490.2633539999949,
            "velocity": 0.5905511811023622,
            "duration": 0.07894740000000411
          },
          {
            "name": "B4",
            "midi": 71,
            "time": 490.6580909999949,
            "velocity": 0.5905511811023622,
            "duration": 0.07894740000000411
          },
          {
            "name": "F#5",
            "midi": 78,
            "time": 491.0528279999949,
            "velocity": 0.5905511811023622,
            "duration": 0.39473700000002054
          },
          {
            "name": "E5",
            "midi": 76,
            "time": 491.44756499999494,
            "velocity": 0.5905511811023622,
            "duration": 0.19736849999998185
          },
          {
            "name": "E6",
            "midi": 88,
            "time": 491.8423019999949,
            "velocity": 0.5905511811023622,
            "duration": 0.19736849999998185
          },
          {
            "name": "D#6",
            "midi": 87,
            "time": 492.0396704999949,
            "velocity": 0.5905511811023622,
            "duration": 0.19736849999998185
          },
          {
            "name": "E6",
            "midi": 88,
            "time": 492.23703899999487,
            "velocity": 0.5905511811023622,
            "duration": 0.19736849999998185
          },
          {
            "name": "C#6",
            "midi": 85,
            "time": 492.43440749999485,
            "velocity": 0.5905511811023622,
            "duration": 0.19736849999998185
          },
          {
            "name": "B5",
            "midi": 83,
            "time": 492.63177599999483,
            "velocity": 0.5905511811023622,
            "duration": 0.07894740000000411
          },
          {
            "name": "G#5",
            "midi": 80,
            "time": 493.02651299999485,
            "velocity": 0.5905511811023622,
            "duration": 0.07894740000000411
          },
          {
            "name": "F#5",
            "midi": 78,
            "time": 493.32256574999485,
            "velocity": 0.5905511811023622,
            "duration": 0.04934212500000967
          },
          {
            "name": "G#5",
            "midi": 80,
            "time": 493.37190787499486,
            "velocity": 0.5905511811023622,
            "duration": 0.04934212500000967
          },
          {
            "name": "A5",
            "midi": 81,
            "time": 493.42124999999487,
            "velocity": 0.5905511811023622,
            "duration": 0.07894740000000411
          },
          {
            "name": "D#5",
            "midi": 75,
            "time": 493.8159869999949,
            "velocity": 0.5905511811023622,
            "duration": 0.07894740000000411
          },
          {
            "name": "E5",
            "midi": 76,
            "time": 494.2107239999949,
            "velocity": 0.5905511811023622,
            "duration": 0.7894739999999842
          },
          {
            "name": "E6",
            "midi": 88,
            "time": 495.0001979999949,
            "velocity": 0.5905511811023622,
            "duration": 0.19736849999998185
          },
          {
            "name": "D#6",
            "midi": 87,
            "time": 495.1975664999949,
            "velocity": 0.5905511811023622,
            "duration": 0.19736849999998185
          },
          {
            "name": "E6",
            "midi": 88,
            "time": 495.39493499999486,
            "velocity": 0.5905511811023622,
            "duration": 0.19736849999998185
          },
          {
            "name": "C#6",
            "midi": 85,
            "time": 495.59230349999484,
            "velocity": 0.5905511811023622,
            "duration": 0.19736849999998185
          },
          {
            "name": "B5",
            "midi": 83,
            "time": 495.7896719999948,
            "velocity": 0.5905511811023622,
            "duration": 0.07894740000000411
          },
          {
            "name": "G#5",
            "midi": 80,
            "time": 496.18440899999484,
            "velocity": 0.5905511811023622,
            "duration": 0.07894740000000411
          },
          {
            "name": "F#5",
            "midi": 78,
            "time": 496.48046174999484,
            "velocity": 0.5905511811023622,
            "duration": 0.04934212500000967
          },
          {
            "name": "G#5",
            "midi": 80,
            "time": 496.52980387499485,
            "velocity": 0.5905511811023622,
            "duration": 0.04934212500000967
          },
          {
            "name": "A5",
            "midi": 81,
            "time": 496.57914599999486,
            "velocity": 0.5905511811023622,
            "duration": 0.07894740000000411
          },
          {
            "name": "D#5",
            "midi": 75,
            "time": 496.9738829999949,
            "velocity": 0.5905511811023622,
            "duration": 0.07894740000000411
          },
          {
            "name": "E5",
            "midi": 76,
            "time": 497.3686199999949,
            "velocity": 0.6929133858267716,
            "duration": 0.19736849999998185
          },
          {
            "name": "B5",
            "midi": 83,
            "time": 497.5659884999949,
            "velocity": 0.8976377952755905,
            "duration": 0.19736849999998185
          },
          {
            "name": "E6",
            "midi": 88,
            "time": 497.76335699999487,
            "velocity": 0.6929133858267716,
            "duration": 0.19736849999998185
          },
          {
            "name": "G#5",
            "midi": 80,
            "time": 497.96072549999485,
            "velocity": 0.8976377952755905,
            "duration": 0.19736849999998185
          },
          {
            "name": "B5",
            "midi": 83,
            "time": 498.15809399999483,
            "velocity": 0.6929133858267716,
            "duration": 0.19736849999998185
          },
          {
            "name": "E5",
            "midi": 76,
            "time": 498.3554624999948,
            "velocity": 0.8976377952755905,
            "duration": 0.19736849999998185
          },
          {
            "name": "G#5",
            "midi": 80,
            "time": 498.5528309999948,
            "velocity": 0.6929133858267716,
            "duration": 0.19736849999998185
          },
          {
            "name": "B4",
            "midi": 71,
            "time": 498.7501994999948,
            "velocity": 0.8976377952755905,
            "duration": 0.19736849999998185
          },
          {
            "name": "A5",
            "midi": 81,
            "time": 498.94756799999476,
            "velocity": 0.6929133858267716,
            "duration": 0.19736849999998185
          },
          {
            "name": "D#5",
            "midi": 75,
            "time": 499.14493649999474,
            "velocity": 0.8976377952755905,
            "duration": 0.19736849999998185
          },
          {
            "name": "F#5",
            "midi": 78,
            "time": 499.3423049999947,
            "velocity": 0.6929133858267716,
            "duration": 0.19736849999998185
          },
          {
            "name": "B4",
            "midi": 71,
            "time": 499.5396734999947,
            "velocity": 0.8976377952755905,
            "duration": 0.19736849999998185
          },
          {
            "name": "D#5",
            "midi": 75,
            "time": 499.7370419999947,
            "velocity": 0.6929133858267716,
            "duration": 0.19736849999998185
          },
          {
            "name": "A4",
            "midi": 69,
            "time": 499.93441049999467,
            "velocity": 0.8976377952755905,
            "duration": 0.19736849999998185
          },
          {
            "name": "B4",
            "midi": 71,
            "time": 500.13177899999465,
            "velocity": 0.6929133858267716,
            "duration": 0.19736849999998185
          },
          {
            "name": "F#4",
            "midi": 66,
            "time": 500.32914749999463,
            "velocity": 0.8976377952755905,
            "duration": 0.19736849999998185
          },
          {
            "name": "E4",
            "midi": 64,
            "time": 500.5265159999946,
            "velocity": 0.6929133858267716,
            "duration": 0.19736849999998185
          },
          {
            "name": "B5",
            "midi": 83,
            "time": 500.7238844999946,
            "velocity": 0.8976377952755905,
            "duration": 0.19736849999998185
          },
          {
            "name": "E6",
            "midi": 88,
            "time": 500.9212529999946,
            "velocity": 0.6929133858267716,
            "duration": 0.19736849999998185
          },
          {
            "name": "G#5",
            "midi": 80,
            "time": 501.11862149999456,
            "velocity": 0.8976377952755905,
            "duration": 0.19736849999998185
          },
          {
            "name": "B5",
            "midi": 83,
            "time": 501.31598999999454,
            "velocity": 0.6929133858267716,
            "duration": 0.19736849999998185
          },
          {
            "name": "E5",
            "midi": 76,
            "time": 501.5133584999945,
            "velocity": 0.8976377952755905,
            "duration": 0.19736849999998185
          },
          {
            "name": "G#5",
            "midi": 80,
            "time": 501.7107269999945,
            "velocity": 0.6929133858267716,
            "duration": 0.19736849999998185
          },
          {
            "name": "B4",
            "midi": 71,
            "time": 501.9080954999945,
            "velocity": 0.8976377952755905,
            "duration": 0.19736849999998185
          },
          {
            "name": "A5",
            "midi": 81,
            "time": 502.10546399999447,
            "velocity": 0.6929133858267716,
            "duration": 0.19736849999998185
          },
          {
            "name": "D#5",
            "midi": 75,
            "time": 502.30283249999445,
            "velocity": 0.8976377952755905,
            "duration": 0.19736849999998185
          },
          {
            "name": "F#5",
            "midi": 78,
            "time": 502.50020099999443,
            "velocity": 0.6929133858267716,
            "duration": 0.19736849999998185
          },
          {
            "name": "B4",
            "midi": 71,
            "time": 502.6975694999944,
            "velocity": 0.8976377952755905,
            "duration": 0.19736849999998185
          },
          {
            "name": "D#5",
            "midi": 75,
            "time": 502.8949379999944,
            "velocity": 0.6929133858267716,
            "duration": 0.19736849999998185
          },
          {
            "name": "A4",
            "midi": 69,
            "time": 503.0923064999944,
            "velocity": 0.8976377952755905,
            "duration": 0.19736849999998185
          },
          {
            "name": "B4",
            "midi": 71,
            "time": 503.28967499999436,
            "velocity": 0.6929133858267716,
            "duration": 0.19736849999998185
          },
          {
            "name": "F#4",
            "midi": 66,
            "time": 503.48704349999434,
            "velocity": 0.8976377952755905,
            "duration": 0.19736849999998185
          },
          {
            "name": "E4",
            "midi": 64,
            "time": 503.6844119999943,
            "velocity": 0.6929133858267716,
            "duration": 0.19736849999998185
          },
          {
            "name": "B3",
            "midi": 59,
            "time": 503.8817804999943,
            "velocity": 0.6929133858267716,
            "duration": 0.19736849999998185
          },
          {
            "name": "D#4",
            "midi": 63,
            "time": 504.0791489999943,
            "velocity": 0.6929133858267716,
            "duration": 0.19736849999998185
          },
          {
            "name": "B3",
            "midi": 59,
            "time": 504.27651749999427,
            "velocity": 0.6929133858267716,
            "duration": 0.19736849999998185
          },
          {
            "name": "E4",
            "midi": 64,
            "time": 504.47388599999425,
            "velocity": 0.6929133858267716,
            "duration": 0.19736849999998185
          },
          {
            "name": "B3",
            "midi": 59,
            "time": 504.67125449999423,
            "velocity": 0.6929133858267716,
            "duration": 0.19736849999998185
          },
          {
            "name": "D#4",
            "midi": 63,
            "time": 504.8686229999942,
            "velocity": 0.6929133858267716,
            "duration": 0.19736849999998185
          },
          {
            "name": "B3",
            "midi": 59,
            "time": 505.0659914999942,
            "velocity": 0.6929133858267716,
            "duration": 0.19736849999998185
          },
          {
            "name": "E4",
            "midi": 64,
            "time": 505.2633599999942,
            "velocity": 0.6929133858267716,
            "duration": 0.19736849999998185
          },
          {
            "name": "B3",
            "midi": 59,
            "time": 505.46072849999416,
            "velocity": 0.6929133858267716,
            "duration": 0.19736849999998185
          },
          {
            "name": "D#4",
            "midi": 63,
            "time": 505.65809699999414,
            "velocity": 0.6929133858267716,
            "duration": 0.19736849999998185
          },
          {
            "name": "B3",
            "midi": 59,
            "time": 505.8554654999941,
            "velocity": 0.6929133858267716,
            "duration": 0.19736849999998185
          },
          {
            "name": "E4",
            "midi": 64,
            "time": 506.0528339999941,
            "velocity": 0.6929133858267716,
            "duration": 0.19736849999998185
          },
          {
            "name": "B3",
            "midi": 59,
            "time": 506.2502024999941,
            "velocity": 0.6929133858267716,
            "duration": 0.19736849999998185
          },
          {
            "name": "D#4",
            "midi": 63,
            "time": 506.44757099999407,
            "velocity": 0.6929133858267716,
            "duration": 0.19736849999998185
          },
          {
            "name": "B3",
            "midi": 59,
            "time": 506.64493949999405,
            "velocity": 0.6929133858267716,
            "duration": 0.19736849999998185
          },
          {
            "name": "E4",
            "midi": 64,
            "time": 506.84230799999403,
            "velocity": 0.6929133858267716,
            "duration": 0.19736849999998185
          },
          {
            "name": "B5",
            "midi": 83,
            "time": 507.039676499994,
            "velocity": 0.6929133858267716,
            "duration": 0.19736849999998185
          },
          {
            "name": "D#6",
            "midi": 87,
            "time": 507.237044999994,
            "velocity": 0.6929133858267716,
            "duration": 0.19736849999998185
          },
          {
            "name": "B5",
            "midi": 83,
            "time": 507.434413499994,
            "velocity": 0.6929133858267716,
            "duration": 0.19736849999998185
          },
          {
            "name": "E6",
            "midi": 88,
            "time": 507.63178199999396,
            "velocity": 0.6929133858267716,
            "duration": 0.19736849999998185
          },
          {
            "name": "B5",
            "midi": 83,
            "time": 507.82915049999394,
            "velocity": 0.6929133858267716,
            "duration": 0.19736849999998185
          },
          {
            "name": "D#6",
            "midi": 87,
            "time": 508.0265189999939,
            "velocity": 0.6929133858267716,
            "duration": 0.19736849999998185
          },
          {
            "name": "B5",
            "midi": 83,
            "time": 508.2238874999939,
            "velocity": 0.6929133858267716,
            "duration": 0.19736849999998185
          },
          {
            "name": "E6",
            "midi": 88,
            "time": 508.4212559999939,
            "velocity": 0.6929133858267716,
            "duration": 0.19736849999998185
          },
          {
            "name": "B5",
            "midi": 83,
            "time": 508.61862449999387,
            "velocity": 0.6929133858267716,
            "duration": 0.19736849999998185
          },
          {
            "name": "D#6",
            "midi": 87,
            "time": 508.81599299999385,
            "velocity": 0.6929133858267716,
            "duration": 0.19736849999998185
          },
          {
            "name": "B5",
            "midi": 83,
            "time": 509.01336149999383,
            "velocity": 0.6929133858267716,
            "duration": 0.19736849999998185
          },
          {
            "name": "E6",
            "midi": 88,
            "time": 509.2107299999938,
            "velocity": 0.6929133858267716,
            "duration": 0.19736849999998185
          },
          {
            "name": "B5",
            "midi": 83,
            "time": 509.4080984999938,
            "velocity": 0.6929133858267716,
            "duration": 0.19736849999998185
          },
          {
            "name": "D#6",
            "midi": 87,
            "time": 509.6054669999938,
            "velocity": 0.6929133858267716,
            "duration": 0.19736849999998185
          },
          {
            "name": "B5",
            "midi": 83,
            "time": 509.80283549999376,
            "velocity": 0.6929133858267716,
            "duration": 0.19736849999998185
          },
          {
            "name": "E6",
            "midi": 88,
            "time": 510.00020399999374,
            "velocity": 0.6929133858267716,
            "duration": 0.19736849999998185
          },
          {
            "name": "B5",
            "midi": 83,
            "time": 510.1975724999937,
            "velocity": 0.8976377952755905,
            "duration": 0.19736849999998185
          },
          {
            "name": "E6",
            "midi": 88,
            "time": 510.3949409999937,
            "velocity": 0.6929133858267716,
            "duration": 0.19736849999998185
          },
          {
            "name": "G5",
            "midi": 79,
            "time": 510.5923094999937,
            "velocity": 0.8976377952755905,
            "duration": 0.19736849999998185
          },
          {
            "name": "B5",
            "midi": 83,
            "time": 510.78967799999367,
            "velocity": 0.6929133858267716,
            "duration": 0.19736849999998185
          },
          {
            "name": "E5",
            "midi": 76,
            "time": 510.98704649999365,
            "velocity": 0.8976377952755905,
            "duration": 0.19736849999998185
          },
          {
            "name": "G5",
            "midi": 79,
            "time": 511.18441499999363,
            "velocity": 0.6929133858267716,
            "duration": 0.19736849999998185
          },
          {
            "name": "B4",
            "midi": 71,
            "time": 511.3817834999936,
            "velocity": 0.8976377952755905,
            "duration": 0.19736849999998185
          },
          {
            "name": "A5",
            "midi": 81,
            "time": 511.5791519999936,
            "velocity": 0.6929133858267716,
            "duration": 0.19736849999998185
          },
          {
            "name": "D#5",
            "midi": 75,
            "time": 511.7765204999936,
            "velocity": 0.8976377952755905,
            "duration": 0.19736849999998185
          },
          {
            "name": "F#5",
            "midi": 78,
            "time": 511.97388899999356,
            "velocity": 0.6929133858267716,
            "duration": 0.19736849999998185
          },
          {
            "name": "B4",
            "midi": 71,
            "time": 512.1712574999935,
            "velocity": 0.8976377952755905,
            "duration": 0.1973685000000387
          },
          {
            "name": "D#5",
            "midi": 75,
            "time": 512.3686259999936,
            "velocity": 0.6929133858267716,
            "duration": 0.1973685000000387
          },
          {
            "name": "A4",
            "midi": 69,
            "time": 512.5659944999936,
            "velocity": 0.8976377952755905,
            "duration": 0.1973685000000387
          },
          {
            "name": "B4",
            "midi": 71,
            "time": 512.7633629999937,
            "velocity": 0.6929133858267716,
            "duration": 0.1973685000000387
          },
          {
            "name": "F#4",
            "midi": 66,
            "time": 512.9607314999937,
            "velocity": 0.8976377952755905,
            "duration": 0.1973685000000387
          },
          {
            "name": "E4",
            "midi": 64,
            "time": 513.1580999999937,
            "velocity": 0.6929133858267716,
            "duration": 0.1973685000000387
          },
          {
            "name": "B5",
            "midi": 83,
            "time": 513.3554684999938,
            "velocity": 0.8976377952755905,
            "duration": 0.1973685000000387
          },
          {
            "name": "E6",
            "midi": 88,
            "time": 513.5528369999938,
            "velocity": 0.6929133858267716,
            "duration": 0.1973685000000387
          },
          {
            "name": "G5",
            "midi": 79,
            "time": 513.7502054999939,
            "velocity": 0.8976377952755905,
            "duration": 0.1973685000000387
          },
          {
            "name": "B5",
            "midi": 83,
            "time": 513.9475739999939,
            "velocity": 0.6929133858267716,
            "duration": 0.1973685000000387
          },
          {
            "name": "E5",
            "midi": 76,
            "time": 514.1449424999939,
            "velocity": 0.8976377952755905,
            "duration": 0.1973685000000387
          },
          {
            "name": "G5",
            "midi": 79,
            "time": 514.342310999994,
            "velocity": 0.6929133858267716,
            "duration": 0.1973685000000387
          },
          {
            "name": "B4",
            "midi": 71,
            "time": 514.539679499994,
            "velocity": 0.8976377952755905,
            "duration": 0.1973685000000387
          },
          {
            "name": "A5",
            "midi": 81,
            "time": 514.737047999994,
            "velocity": 0.6929133858267716,
            "duration": 0.1973685000000387
          },
          {
            "name": "D#5",
            "midi": 75,
            "time": 514.9344164999941,
            "velocity": 0.8976377952755905,
            "duration": 0.1973685000000387
          },
          {
            "name": "F#5",
            "midi": 78,
            "time": 515.1317849999941,
            "velocity": 0.6929133858267716,
            "duration": 0.1973685000000387
          },
          {
            "name": "B4",
            "midi": 71,
            "time": 515.3291534999942,
            "velocity": 0.8976377952755905,
            "duration": 0.1973685000000387
          },
          {
            "name": "D#5",
            "midi": 75,
            "time": 515.5265219999942,
            "velocity": 0.6929133858267716,
            "duration": 0.1973685000000387
          },
          {
            "name": "A4",
            "midi": 69,
            "time": 515.7238904999942,
            "velocity": 0.8976377952755905,
            "duration": 0.1973685000000387
          },
          {
            "name": "B4",
            "midi": 71,
            "time": 515.9212589999943,
            "velocity": 0.6929133858267716,
            "duration": 0.1973685000000387
          },
          {
            "name": "F#4",
            "midi": 66,
            "time": 516.1186274999943,
            "velocity": 0.8976377952755905,
            "duration": 0.1973685000000387
          },
          {
            "name": "E4",
            "midi": 64,
            "time": 516.3159959999944,
            "velocity": 0.6929133858267716,
            "duration": 0.1973685000000387
          },
          {
            "name": "G5",
            "midi": 79,
            "time": 516.5133644999944,
            "velocity": 0.8976377952755905,
            "duration": 0.1973685000000387
          },
          {
            "name": "C6",
            "midi": 84,
            "time": 516.7107329999944,
            "velocity": 0.6929133858267716,
            "duration": 0.1973685000000387
          },
          {
            "name": "E5",
            "midi": 76,
            "time": 516.9081014999945,
            "velocity": 0.8976377952755905,
            "duration": 0.1973685000000387
          },
          {
            "name": "G5",
            "midi": 79,
            "time": 517.1054699999945,
            "velocity": 0.6929133858267716,
            "duration": 0.1973685000000387
          },
          {
            "name": "C5",
            "midi": 72,
            "time": 517.3028384999946,
            "velocity": 0.8976377952755905,
            "duration": 0.1973685000000387
          },
          {
            "name": "E5",
            "midi": 76,
            "time": 517.5002069999946,
            "velocity": 0.6929133858267716,
            "duration": 0.1973685000000387
          },
          {
            "name": "G4",
            "midi": 67,
            "time": 517.6975754999946,
            "velocity": 0.8976377952755905,
            "duration": 0.1973685000000387
          },
          {
            "name": "F5",
            "midi": 77,
            "time": 517.8949439999947,
            "velocity": 0.6929133858267716,
            "duration": 0.1973685000000387
          },
          {
            "name": "B4",
            "midi": 71,
            "time": 518.0923124999947,
            "velocity": 0.8976377952755905,
            "duration": 0.1973685000000387
          },
          {
            "name": "D5",
            "midi": 74,
            "time": 518.2896809999947,
            "velocity": 0.6929133858267716,
            "duration": 0.1973685000000387
          },
          {
            "name": "G4",
            "midi": 67,
            "time": 518.4870494999948,
            "velocity": 0.8976377952755905,
            "duration": 0.1973685000000387
          },
          {
            "name": "B4",
            "midi": 71,
            "time": 518.6844179999948,
            "velocity": 0.6929133858267716,
            "duration": 0.1973685000000387
          },
          {
            "name": "F4",
            "midi": 65,
            "time": 518.8817864999949,
            "velocity": 0.8976377952755905,
            "duration": 0.1973685000000387
          },
          {
            "name": "G4",
            "midi": 67,
            "time": 519.0791549999949,
            "velocity": 0.6929133858267716,
            "duration": 0.1973685000000387
          },
          {
            "name": "D4",
            "midi": 62,
            "time": 519.2765234999949,
            "velocity": 0.8976377952755905,
            "duration": 0.1973685000000387
          },
          {
            "name": "C4",
            "midi": 60,
            "time": 519.473891999995,
            "velocity": 0.6929133858267716,
            "duration": 0.1973685000000387
          },
          {
            "name": "G5",
            "midi": 79,
            "time": 519.671260499995,
            "velocity": 0.8976377952755905,
            "duration": 0.1973685000000387
          },
          {
            "name": "C6",
            "midi": 84,
            "time": 519.868628999995,
            "velocity": 0.6929133858267716,
            "duration": 0.1973685000000387
          },
          {
            "name": "E5",
            "midi": 76,
            "time": 520.0659974999951,
            "velocity": 0.8976377952755905,
            "duration": 0.1973685000000387
          },
          {
            "name": "G5",
            "midi": 79,
            "time": 520.2633659999951,
            "velocity": 0.6929133858267716,
            "duration": 0.1973685000000387
          },
          {
            "name": "C5",
            "midi": 72,
            "time": 520.4607344999952,
            "velocity": 0.8976377952755905,
            "duration": 0.1973685000000387
          },
          {
            "name": "E5",
            "midi": 76,
            "time": 520.6581029999952,
            "velocity": 0.6929133858267716,
            "duration": 0.1973685000000387
          },
          {
            "name": "G4",
            "midi": 67,
            "time": 520.8554714999952,
            "velocity": 0.8976377952755905,
            "duration": 0.1973685000000387
          },
          {
            "name": "F5",
            "midi": 77,
            "time": 521.0528399999953,
            "velocity": 0.6929133858267716,
            "duration": 0.1973685000000387
          },
          {
            "name": "B4",
            "midi": 71,
            "time": 521.2502084999953,
            "velocity": 0.8976377952755905,
            "duration": 0.1973685000000387
          },
          {
            "name": "D5",
            "midi": 74,
            "time": 521.4475769999954,
            "velocity": 0.6929133858267716,
            "duration": 0.1973685000000387
          },
          {
            "name": "G4",
            "midi": 67,
            "time": 521.6449454999954,
            "velocity": 0.8976377952755905,
            "duration": 0.1973685000000387
          },
          {
            "name": "B4",
            "midi": 71,
            "time": 521.8423139999954,
            "velocity": 0.6929133858267716,
            "duration": 0.1973685000000387
          },
          {
            "name": "F4",
            "midi": 65,
            "time": 522.0396824999955,
            "velocity": 0.8976377952755905,
            "duration": 0.1973685000000387
          },
          {
            "name": "G4",
            "midi": 67,
            "time": 522.2370509999955,
            "velocity": 0.6929133858267716,
            "duration": 0.1973685000000387
          },
          {
            "name": "D4",
            "midi": 62,
            "time": 522.4344194999956,
            "velocity": 0.8976377952755905,
            "duration": 0.1973685000000387
          },
          {
            "name": "C4",
            "midi": 60,
            "time": 522.6317879999956,
            "velocity": 0.6929133858267716,
            "duration": 0.1973685000000387
          },
          {
            "name": "G3",
            "midi": 55,
            "time": 522.8291564999956,
            "velocity": 0.6929133858267716,
            "duration": 0.1973685000000387
          },
          {
            "name": "B3",
            "midi": 59,
            "time": 523.0265249999957,
            "velocity": 0.6929133858267716,
            "duration": 0.1973685000000387
          },
          {
            "name": "G3",
            "midi": 55,
            "time": 523.2238934999957,
            "velocity": 0.6929133858267716,
            "duration": 0.1973685000000387
          },
          {
            "name": "C4",
            "midi": 60,
            "time": 523.4212619999957,
            "velocity": 0.6929133858267716,
            "duration": 0.1973685000000387
          },
          {
            "name": "G3",
            "midi": 55,
            "time": 523.6186304999958,
            "velocity": 0.6929133858267716,
            "duration": 0.1973685000000387
          },
          {
            "name": "B3",
            "midi": 59,
            "time": 523.8159989999958,
            "velocity": 0.6929133858267716,
            "duration": 0.1973685000000387
          },
          {
            "name": "G3",
            "midi": 55,
            "time": 524.0133674999959,
            "velocity": 0.6929133858267716,
            "duration": 0.1973685000000387
          },
          {
            "name": "C4",
            "midi": 60,
            "time": 524.2107359999959,
            "velocity": 0.6929133858267716,
            "duration": 0.1973685000000387
          },
          {
            "name": "G3",
            "midi": 55,
            "time": 524.4081044999959,
            "velocity": 0.6929133858267716,
            "duration": 0.1973685000000387
          },
          {
            "name": "C#4",
            "midi": 61,
            "time": 524.605472999996,
            "velocity": 0.6929133858267716,
            "duration": 0.1973685000000387
          },
          {
            "name": "A3",
            "midi": 57,
            "time": 524.802841499996,
            "velocity": 0.6929133858267716,
            "duration": 0.1973685000000387
          },
          {
            "name": "D4",
            "midi": 62,
            "time": 525.0002099999961,
            "velocity": 0.6929133858267716,
            "duration": 0.1973685000000387
          },
          {
            "name": "A3",
            "midi": 57,
            "time": 525.1975784999961,
            "velocity": 0.6929133858267716,
            "duration": 0.1973685000000387
          },
          {
            "name": "C#4",
            "midi": 61,
            "time": 525.3949469999961,
            "velocity": 0.6929133858267716,
            "duration": 0.1973685000000387
          },
          {
            "name": "A3",
            "midi": 57,
            "time": 525.5923154999962,
            "velocity": 0.6929133858267716,
            "duration": 0.1973685000000387
          },
          {
            "name": "D4",
            "midi": 62,
            "time": 525.7896839999962,
            "velocity": 0.6929133858267716,
            "duration": 0.1973685000000387
          },
          {
            "name": "A3",
            "midi": 57,
            "time": 525.9870524999963,
            "velocity": 0.6929133858267716,
            "duration": 0.1973685000000387
          },
          {
            "name": "D#4",
            "midi": 63,
            "time": 526.1844209999963,
            "velocity": 0.6929133858267716,
            "duration": 0.1973685000000387
          },
          {
            "name": "B3",
            "midi": 59,
            "time": 526.3817894999963,
            "velocity": 0.6929133858267716,
            "duration": 0.1973685000000387
          },
          {
            "name": "E4",
            "midi": 64,
            "time": 526.5791579999964,
            "velocity": 0.6929133858267716,
            "duration": 0.1973685000000387
          },
          {
            "name": "B3",
            "midi": 59,
            "time": 526.7765264999964,
            "velocity": 0.6929133858267716,
            "duration": 0.1973685000000387
          },
          {
            "name": "D#4",
            "midi": 63,
            "time": 526.9738949999964,
            "velocity": 0.6929133858267716,
            "duration": 0.1973685000000387
          },
          {
            "name": "B3",
            "midi": 59,
            "time": 527.1712634999965,
            "velocity": 0.6929133858267716,
            "duration": 0.1973685000000387
          },
          {
            "name": "E4",
            "midi": 64,
            "time": 527.3686319999965,
            "velocity": 0.6929133858267716,
            "duration": 0.1973685000000387
          },
          {
            "name": "B3",
            "midi": 59,
            "time": 527.5660004999966,
            "velocity": 0.6929133858267716,
            "duration": 0.1973685000000387
          },
          {
            "name": "E4",
            "midi": 64,
            "time": 527.7633689999966,
            "velocity": 0.6929133858267716,
            "duration": 0.1973685000000387
          },
          {
            "name": "C4",
            "midi": 60,
            "time": 527.9607374999966,
            "velocity": 0.6929133858267716,
            "duration": 0.1973685000000387
          },
          {
            "name": "F4",
            "midi": 65,
            "time": 528.1581059999967,
            "velocity": 0.6929133858267716,
            "duration": 0.1973685000000387
          },
          {
            "name": "C4",
            "midi": 60,
            "time": 528.3554744999967,
            "velocity": 0.6929133858267716,
            "duration": 0.1973685000000387
          },
          {
            "name": "E4",
            "midi": 64,
            "time": 528.5528429999968,
            "velocity": 0.6929133858267716,
            "duration": 0.1973685000000387
          },
          {
            "name": "C4",
            "midi": 60,
            "time": 528.7502114999968,
            "velocity": 0.6929133858267716,
            "duration": 0.1973685000000387
          },
          {
            "name": "F4",
            "midi": 65,
            "time": 528.9475799999968,
            "velocity": 0.6929133858267716,
            "duration": 0.1973685000000387
          },
          {
            "name": "C4",
            "midi": 60,
            "time": 529.1449484999969,
            "velocity": 0.6929133858267716,
            "duration": 0.1973685000000387
          },
          {
            "name": "E4",
            "midi": 64,
            "time": 529.3423169999969,
            "velocity": 0.6929133858267716,
            "duration": 0.1973685000000387
          },
          {
            "name": "C4",
            "midi": 60,
            "time": 529.539685499997,
            "velocity": 0.6929133858267716,
            "duration": 0.1973685000000387
          },
          {
            "name": "F4",
            "midi": 65,
            "time": 529.737053999997,
            "velocity": 0.7952755905511811,
            "duration": 0.1973685000000387
          },
          {
            "name": "C4",
            "midi": 60,
            "time": 529.934422499997,
            "velocity": 0.7952755905511811,
            "duration": 0.1973685000000387
          },
          {
            "name": "E4",
            "midi": 64,
            "time": 530.1317909999971,
            "velocity": 0.7952755905511811,
            "duration": 0.1973685000000387
          },
          {
            "name": "C4",
            "midi": 60,
            "time": 530.3291594999971,
            "velocity": 0.7952755905511811,
            "duration": 0.1973685000000387
          },
          {
            "name": "F4",
            "midi": 65,
            "time": 530.5265279999971,
            "velocity": 0.7952755905511811,
            "duration": 0.1973685000000387
          },
          {
            "name": "A3",
            "midi": 57,
            "time": 530.7238964999972,
            "velocity": 1,
            "duration": 0.1973685000000387
          },
          {
            "name": "F3",
            "midi": 53,
            "time": 530.9212649999972,
            "velocity": 0.7952755905511811,
            "duration": 0.1973685000000387
          },
          {
            "name": "C4",
            "midi": 60,
            "time": 531.1186334999973,
            "velocity": 1,
            "duration": 0.1973685000000387
          },
          {
            "name": "A3",
            "midi": 57,
            "time": 531.3160019999973,
            "velocity": 0.7952755905511811,
            "duration": 0.1973685000000387
          },
          {
            "name": "F4",
            "midi": 65,
            "time": 531.5133704999973,
            "velocity": 1,
            "duration": 0.1973685000000387
          },
          {
            "name": "C4",
            "midi": 60,
            "time": 531.7107389999974,
            "velocity": 0.7952755905511811,
            "duration": 0.1973685000000387
          },
          {
            "name": "A4",
            "midi": 69,
            "time": 531.9081074999974,
            "velocity": 1,
            "duration": 0.1973685000000387
          },
          {
            "name": "F4",
            "midi": 65,
            "time": 532.1054759999975,
            "velocity": 0.7952755905511811,
            "duration": 0.1973685000000387
          },
          {
            "name": "C5",
            "midi": 72,
            "time": 532.3028444999975,
            "velocity": 1,
            "duration": 0.1973685000000387
          },
          {
            "name": "A4",
            "midi": 69,
            "time": 532.5002129999975,
            "velocity": 0.7952755905511811,
            "duration": 0.1973685000000387
          },
          {
            "name": "F5",
            "midi": 77,
            "time": 532.6975814999976,
            "velocity": 1,
            "duration": 0.1973685000000387
          },
          {
            "name": "C5",
            "midi": 72,
            "time": 532.8949499999976,
            "velocity": 0.7952755905511811,
            "duration": 0.1973685000000387
          },
          {
            "name": "A5",
            "midi": 81,
            "time": 533.0923184999976,
            "velocity": 1,
            "duration": 0.1973685000000387
          },
          {
            "name": "F5",
            "midi": 77,
            "time": 533.2896869999977,
            "velocity": 0.7952755905511811,
            "duration": 0.1973685000000387
          },
          {
            "name": "C6",
            "midi": 84,
            "time": 533.4870554999977,
            "velocity": 1,
            "duration": 0.1973685000000387
          },
          {
            "name": "F6",
            "midi": 89,
            "time": 533.6844239999978,
            "velocity": 0.8976377952755905,
            "duration": 0.3947369999999637
          },
          {
            "name": "A5",
            "midi": 81,
            "time": 534.0791609999977,
            "velocity": 0.6929133858267716,
            "duration": 0.3947369999999637
          },
          {
            "name": "G#5",
            "midi": 80,
            "time": 534.4738979999977,
            "velocity": 0.5905511811023622,
            "duration": 0.3947369999999637
          },
          {
            "name": "F#5",
            "midi": 78,
            "time": 534.8686349999977,
            "velocity": 0.5905511811023622,
            "duration": 0.3947369999999637
          },
          {
            "name": "B4",
            "midi": 71,
            "time": 535.2633719999976,
            "velocity": 0.4881889763779528,
            "duration": 0.29605274999994435
          },
          {
            "name": "E5",
            "midi": 76,
            "time": 535.2633719999976,
            "velocity": 0.4881889763779528,
            "duration": 0.29605274999994435
          },
          {
            "name": "B5",
            "midi": 83,
            "time": 535.5594247499976,
            "velocity": 0.4881889763779528,
            "duration": 0.09868425000001935
          },
          {
            "name": "E6",
            "midi": 88,
            "time": 535.6581089999976,
            "velocity": 0.4881889763779528,
            "duration": 0.29605274999994435
          },
          {
            "name": "D#6",
            "midi": 87,
            "time": 535.9541617499975,
            "velocity": 0.4881889763779528,
            "duration": 0.09868425000001935
          },
          {
            "name": "C#6",
            "midi": 85,
            "time": 536.0528459999975,
            "velocity": 0.4881889763779528,
            "duration": 0.29605274999994435
          },
          {
            "name": "B5",
            "midi": 83,
            "time": 536.3488987499975,
            "velocity": 0.4881889763779528,
            "duration": 0.09868425000001935
          },
          {
            "name": "A5",
            "midi": 81,
            "time": 536.4475829999975,
            "velocity": 0.4881889763779528,
            "duration": 0.29605274999994435
          },
          {
            "name": "G#5",
            "midi": 80,
            "time": 536.7436357499975,
            "velocity": 0.4881889763779528,
            "duration": 0.09868425000001935
          },
          {
            "name": "F#5",
            "midi": 78,
            "time": 536.8423199999975,
            "velocity": 0.4881889763779528,
            "duration": 0.29605274999994435
          },
          {
            "name": "E5",
            "midi": 76,
            "time": 537.1383727499974,
            "velocity": 0.4881889763779528,
            "duration": 0.09868425000001935
          },
          {
            "name": "D#5",
            "midi": 75,
            "time": 537.2370569999974,
            "velocity": 0.4881889763779528,
            "duration": 0.29605274999994435
          },
          {
            "name": "C#5",
            "midi": 73,
            "time": 537.5331097499974,
            "velocity": 0.4881889763779528,
            "duration": 0.09868425000001935
          },
          {
            "name": "B4",
            "midi": 71,
            "time": 537.6317939999974,
            "velocity": 0.4881889763779528,
            "duration": 0.29605274999994435
          },
          {
            "name": "A4",
            "midi": 69,
            "time": 537.9278467499973,
            "velocity": 0.4881889763779528,
            "duration": 0.09868425000001935
          },
          {
            "name": "G#4",
            "midi": 68,
            "time": 538.0265309999974,
            "velocity": 0.4881889763779528,
            "duration": 0.29605274999994435
          },
          {
            "name": "F#4",
            "midi": 66,
            "time": 538.3225837499973,
            "velocity": 0.4881889763779528,
            "duration": 0.09868425000001935
          },
          {
            "name": "E4",
            "midi": 64,
            "time": 538.4212679999973,
            "velocity": 0.5905511811023622,
            "duration": 0.7894739999999274
          },
          {
            "name": "G#5",
            "midi": 80,
            "time": 539.1120577499973,
            "velocity": 0.5905511811023622,
            "duration": 0.04934212499995283
          },
          {
            "name": "A5",
            "midi": 81,
            "time": 539.1613998749973,
            "velocity": 0.5905511811023622,
            "duration": 0.04934212499995283
          },
          {
            "name": "B5",
            "midi": 83,
            "time": 539.2107419999973,
            "velocity": 0.5905511811023622,
            "duration": 0.07894739999994727
          },
          {
            "name": "E5",
            "midi": 76,
            "time": 539.6054789999972,
            "velocity": 0.5905511811023622,
            "duration": 0.07894739999994727
          },
          {
            "name": "G#5",
            "midi": 80,
            "time": 540.0002159999972,
            "velocity": 0.5905511811023622,
            "duration": 0.3947369999999637
          },
          {
            "name": "A5",
            "midi": 81,
            "time": 540.3949529999971,
            "velocity": 0.5905511811023622,
            "duration": 0.1973685000000387
          },
          {
            "name": "D#5",
            "midi": 75,
            "time": 540.6910057499972,
            "velocity": 0.5905511811023622,
            "duration": 0.04934212499995283
          },
          {
            "name": "E5",
            "midi": 76,
            "time": 540.7403478749972,
            "velocity": 0.5905511811023622,
            "duration": 0.04934212499995283
          },
          {
            "name": "F#5",
            "midi": 78,
            "time": 540.7896899999971,
            "velocity": 0.5905511811023622,
            "duration": 0.07894739999994727
          },
          {
            "name": "C#6",
            "midi": 85,
            "time": 541.1844269999971,
            "velocity": 0.5905511811023622,
            "duration": 0.07894739999994727
          },
          {
            "name": "B5",
            "midi": 83,
            "time": 541.579163999997,
            "velocity": 0.5905511811023622,
            "duration": 0.3947369999999637
          },
          {
            "name": "E6",
            "midi": 88,
            "time": 541.973900999997,
            "velocity": 0.5905511811023622,
            "duration": 0.1973685000000387
          },
          {
            "name": "G#5",
            "midi": 80,
            "time": 542.2699537499971,
            "velocity": 0.5905511811023622,
            "duration": 0.04934212499995283
          },
          {
            "name": "A5",
            "midi": 81,
            "time": 542.319295874997,
            "velocity": 0.5905511811023622,
            "duration": 0.04934212499995283
          },
          {
            "name": "B5",
            "midi": 83,
            "time": 542.368637999997,
            "velocity": 0.5905511811023622,
            "duration": 0.07894739999994727
          },
          {
            "name": "E5",
            "midi": 76,
            "time": 542.7633749999969,
            "velocity": 0.5905511811023622,
            "duration": 0.07894739999994727
          },
          {
            "name": "G#5",
            "midi": 80,
            "time": 543.1581119999969,
            "velocity": 0.5905511811023622,
            "duration": 0.3947369999999637
          },
          {
            "name": "A5",
            "midi": 81,
            "time": 543.5528489999969,
            "velocity": 0.5905511811023622,
            "duration": 0.1973685000000387
          },
          {
            "name": "D#5",
            "midi": 75,
            "time": 543.8489017499969,
            "velocity": 0.5905511811023622,
            "duration": 0.04934212499995283
          },
          {
            "name": "E5",
            "midi": 76,
            "time": 543.8982438749969,
            "velocity": 0.5905511811023622,
            "duration": 0.04934212499995283
          },
          {
            "name": "F#5",
            "midi": 78,
            "time": 543.9475859999968,
            "velocity": 0.5905511811023622,
            "duration": 0.07894739999994727
          },
          {
            "name": "C#6",
            "midi": 85,
            "time": 544.3423229999968,
            "velocity": 0.5905511811023622,
            "duration": 0.07894739999994727
          },
          {
            "name": "B5",
            "midi": 83,
            "time": 544.7370599999967,
            "velocity": 0.5905511811023622,
            "duration": 0.3947369999999637
          },
          {
            "name": "E6",
            "midi": 88,
            "time": 545.1317969999967,
            "velocity": 0.5905511811023622,
            "duration": 0.1973685000000387
          },
          {
            "name": "F#6",
            "midi": 90,
            "time": 545.4278497499968,
            "velocity": 0.3858267716535433,
            "duration": 0.04934212499995283
          },
          {
            "name": "G#6",
            "midi": 92,
            "time": 545.4771918749967,
            "velocity": 0.3858267716535433,
            "duration": 0.04934212499995283
          },
          {
            "name": "A6",
            "midi": 93,
            "time": 545.5265339999967,
            "velocity": 0.3858267716535433,
            "duration": 0.07894739999994727
          },
          {
            "name": "C6",
            "midi": 84,
            "time": 545.9212709999966,
            "velocity": 0.3858267716535433,
            "duration": 0.07894739999994727
          },
          {
            "name": "E6",
            "midi": 88,
            "time": 546.2173237499966,
            "velocity": 0.3858267716535433,
            "duration": 0.04934212499995283
          },
          {
            "name": "F#6",
            "midi": 90,
            "time": 546.2666658749965,
            "velocity": 0.3858267716535433,
            "duration": 0.04934212499995283
          },
          {
            "name": "G#6",
            "midi": 92,
            "time": 546.3160079999965,
            "velocity": 0.3858267716535433,
            "duration": 0.07894739999994727
          },
          {
            "name": "B5",
            "midi": 83,
            "time": 546.7107449999965,
            "velocity": 0.3858267716535433,
            "duration": 0.07894739999994727
          },
          {
            "name": "D#6",
            "midi": 87,
            "time": 547.0067977499964,
            "velocity": 0.3858267716535433,
            "duration": 0.04934212499995283
          },
          {
            "name": "E6",
            "midi": 88,
            "time": 547.0561398749963,
            "velocity": 0.3858267716535433,
            "duration": 0.04934212499995283
          },
          {
            "name": "F#6",
            "midi": 90,
            "time": 547.1054819999963,
            "velocity": 0.3858267716535433,
            "duration": 0.07894739999994727
          },
          {
            "name": "A5",
            "midi": 81,
            "time": 547.5002189999963,
            "velocity": 0.3858267716535433,
            "duration": 0.07894739999994727
          },
          {
            "name": "G#5",
            "midi": 80,
            "time": 547.7962717499962,
            "velocity": 0.3858267716535433,
            "duration": 0.04934212499995283
          },
          {
            "name": "B5",
            "midi": 83,
            "time": 547.8456138749962,
            "velocity": 0.3858267716535433,
            "duration": 0.04934212499995283
          },
          {
            "name": "E6",
            "midi": 88,
            "time": 547.8949559999961,
            "velocity": 0.3858267716535433,
            "duration": 0.7894739999999274
          },
          {
            "name": "F#5",
            "midi": 78,
            "time": 548.5857457499961,
            "velocity": 0.3858267716535433,
            "duration": 0.04934212499995283
          },
          {
            "name": "G#5",
            "midi": 80,
            "time": 548.6350878749961,
            "velocity": 0.3858267716535433,
            "duration": 0.04934212499995283
          },
          {
            "name": "A5",
            "midi": 81,
            "time": 548.684429999996,
            "velocity": 0.3858267716535433,
            "duration": 0.07894739999994727
          },
          {
            "name": "C5",
            "midi": 72,
            "time": 549.079166999996,
            "velocity": 0.3858267716535433,
            "duration": 0.07894739999994727
          },
          {
            "name": "E5",
            "midi": 76,
            "time": 549.375219749996,
            "velocity": 0.3858267716535433,
            "duration": 0.04934212499995283
          },
          {
            "name": "F#5",
            "midi": 78,
            "time": 549.4245618749959,
            "velocity": 0.3858267716535433,
            "duration": 0.04934212499995283
          },
          {
            "name": "G#5",
            "midi": 80,
            "time": 549.4739039999959,
            "velocity": 0.3858267716535433,
            "duration": 0.07894739999994727
          },
          {
            "name": "B4",
            "midi": 71,
            "time": 549.8686409999958,
            "velocity": 0.3858267716535433,
            "duration": 0.07894739999994727
          },
          {
            "name": "D#5",
            "midi": 75,
            "time": 550.1646937499958,
            "velocity": 0.3858267716535433,
            "duration": 0.04934212499995283
          },
          {
            "name": "E5",
            "midi": 76,
            "time": 550.2140358749957,
            "velocity": 0.3858267716535433,
            "duration": 0.04934212499995283
          },
          {
            "name": "F#5",
            "midi": 78,
            "time": 550.2633779999957,
            "velocity": 0.3858267716535433,
            "duration": 0.07894739999994727
          },
          {
            "name": "A4",
            "midi": 69,
            "time": 550.6581149999956,
            "velocity": 0.3858267716535433,
            "duration": 0.07894739999994727
          },
          {
            "name": "G#4",
            "midi": 68,
            "time": 550.9541677499956,
            "velocity": 0.3858267716535433,
            "duration": 0.04934212499995283
          },
          {
            "name": "B4",
            "midi": 71,
            "time": 551.0035098749955,
            "velocity": 0.3858267716535433,
            "duration": 0.04934212499995283
          },
          {
            "name": "E5",
            "midi": 76,
            "time": 551.0528519999955,
            "velocity": 0.3858267716535433,
            "duration": 0.7894739999999274
          },
          {
            "name": "D#5",
            "midi": 75,
            "time": 551.7436417499955,
            "velocity": 0.3858267716535433,
            "duration": 0.04934212499995283
          },
          {
            "name": "E5",
            "midi": 76,
            "time": 551.7929838749955,
            "velocity": 0.3858267716535433,
            "duration": 0.04934212499995283
          },
          {
            "name": "F#5",
            "midi": 78,
            "time": 551.8423259999954,
            "velocity": 0.3858267716535433,
            "duration": 0.07894739999994727
          },
          {
            "name": "B4",
            "midi": 71,
            "time": 552.2370629999954,
            "velocity": 0.3858267716535433,
            "duration": 0.07894739999994727
          },
          {
            "name": "G#5",
            "midi": 80,
            "time": 552.6317999999953,
            "velocity": 0.3858267716535433,
            "duration": 0.7894739999999274
          },
          {
            "name": "B5",
            "midi": 83,
            "time": 553.3225897499954,
            "velocity": 0.3858267716535433,
            "duration": 0.04934212499995283
          },
          {
            "name": "C#6",
            "midi": 85,
            "time": 553.3719318749953,
            "velocity": 0.3858267716535433,
            "duration": 0.04934212499995283
          },
          {
            "name": "D#6",
            "midi": 87,
            "time": 553.4212739999953,
            "velocity": 0.3858267716535433,
            "duration": 0.07894739999994727
          },
          {
            "name": "B5",
            "midi": 83,
            "time": 553.8160109999952,
            "velocity": 0.3858267716535433,
            "duration": 0.07894739999994727
          },
          {
            "name": "E6",
            "midi": 88,
            "time": 554.2107479999952,
            "velocity": 0.3858267716535433,
            "duration": 0.7894739999999274
          },
          {
            "name": "D#5",
            "midi": 75,
            "time": 554.9015377499952,
            "velocity": 0.3858267716535433,
            "duration": 0.04934212499995283
          },
          {
            "name": "E5",
            "midi": 76,
            "time": 554.9508798749952,
            "velocity": 0.3858267716535433,
            "duration": 0.04934212499995283
          },
          {
            "name": "F#5",
            "midi": 78,
            "time": 555.0002219999951,
            "velocity": 0.3858267716535433,
            "duration": 0.07894739999994727
          },
          {
            "name": "B4",
            "midi": 71,
            "time": 555.3949589999951,
            "velocity": 0.3858267716535433,
            "duration": 0.07894739999994727
          },
          {
            "name": "G#5",
            "midi": 80,
            "time": 555.789695999995,
            "velocity": 0.3858267716535433,
            "duration": 0.7894739999999274
          },
          {
            "name": "B5",
            "midi": 83,
            "time": 556.4804857499951,
            "velocity": 0.3858267716535433,
            "duration": 0.04934212499995283
          },
          {
            "name": "C#6",
            "midi": 85,
            "time": 556.529827874995,
            "velocity": 0.3858267716535433,
            "duration": 0.04934212499995283
          },
          {
            "name": "D#6",
            "midi": 87,
            "time": 556.579169999995,
            "velocity": 0.3858267716535433,
            "duration": 0.07894739999994727
          },
          {
            "name": "B5",
            "midi": 83,
            "time": 556.9739069999949,
            "velocity": 0.3858267716535433,
            "duration": 0.07894739999994727
          },
          {
            "name": "E6",
            "midi": 88,
            "time": 557.3686439999949,
            "velocity": 0.3858267716535433,
            "duration": 0.3947369999999637
          },
          {
            "name": "F#4",
            "midi": 66,
            "time": 558.1581179999948,
            "velocity": 0.7952755905511811,
            "duration": 0.3947369999999637
          },
          {
            "name": "A4",
            "midi": 69,
            "time": 558.1581179999948,
            "velocity": 0.7952755905511811,
            "duration": 0.3947369999999637
          },
          {
            "name": "B4",
            "midi": 71,
            "time": 558.1581179999948,
            "velocity": 0.7952755905511811,
            "duration": 0.3947369999999637
          },
          {
            "name": "D#5",
            "midi": 75,
            "time": 558.1581179999948,
            "velocity": 0.7952755905511811,
            "duration": 0.3947369999999637
          },
          {
            "name": "E4",
            "midi": 64,
            "time": 558.9475919999948,
            "velocity": 0.7952755905511811,
            "duration": 0.3947369999999637
          },
          {
            "name": "G#4",
            "midi": 68,
            "time": 558.9475919999948,
            "velocity": 0.7952755905511811,
            "duration": 0.3947369999999637
          },
          {
            "name": "B4",
            "midi": 71,
            "time": 558.9475919999948,
            "velocity": 0.7952755905511811,
            "duration": 0.3947369999999637
          },
          {
            "name": "E5",
            "midi": 76,
            "time": 558.9475919999948,
            "velocity": 0.7952755905511811,
            "duration": 0.3947369999999637
          }
        ],
        "controlChanges": {
          "7": [
            {
              "number": 7,
              "time": 0,
              "value": 1
            }
          ],
          "10": [
            {
              "number": 10,
              "time": 0,
              "value": 0.7637795275590551
            }
          ],
          "64": [
            {
              "number": 64,
              "time": 0,
              "value": 1
            },
            {
              "number": 64,
              "time": 3.157896,
              "value": 0
            },
            {
              "number": 64,
              "time": 6.3157919999999965,
              "value": 1
            },
            {
              "number": 64,
              "time": 9.473687999999994,
              "value": 0
            },
            {
              "number": 64,
              "time": 30.00001199999997,
              "value": 1
            },
            {
              "number": 64,
              "time": 31.381591499999967,
              "value": 0
            },
            {
              "number": 64,
              "time": 34.73685599999996,
              "value": 1
            },
            {
              "number": 64,
              "time": 37.89475199999999,
              "value": 0
            },
            {
              "number": 64,
              "time": 41.05264800000004,
              "value": 1
            },
            {
              "number": 64,
              "time": 44.21054400000007,
              "value": 0
            },
            {
              "number": 64,
              "time": 47.36844000000012,
              "value": 1
            },
            {
              "number": 64,
              "time": 50.52633600000015,
              "value": 0
            },
            {
              "number": 64,
              "time": 53.68423200000015,
              "value": 1
            },
            {
              "number": 64,
              "time": 55.06581150000017,
              "value": 0
            },
            {
              "number": 64,
              "time": 55.263180000000176,
              "value": 1
            },
            {
              "number": 64,
              "time": 56.6447595000002,
              "value": 0
            },
            {
              "number": 64,
              "time": 56.8421280000002,
              "value": 1
            },
            {
              "number": 64,
              "time": 58.22370750000022,
              "value": 0
            },
            {
              "number": 64,
              "time": 58.42107600000023,
              "value": 1
            },
            {
              "number": 64,
              "time": 59.80265550000025,
              "value": 0
            },
            {
              "number": 64,
              "time": 60.00002400000025,
              "value": 1
            },
            {
              "number": 64,
              "time": 61.381603500000274,
              "value": 0
            },
            {
              "number": 64,
              "time": 61.57897200000028,
              "value": 1
            },
            {
              "number": 64,
              "time": 62.9605515000003,
              "value": 0
            },
            {
              "number": 64,
              "time": 63.1579200000003,
              "value": 1
            },
            {
              "number": 64,
              "time": 64.5394995000003,
              "value": 0
            },
            {
              "number": 64,
              "time": 64.7368680000003,
              "value": 1
            },
            {
              "number": 64,
              "time": 66.11844750000027,
              "value": 0
            },
            {
              "number": 64,
              "time": 69.47371200000026,
              "value": 1
            },
            {
              "number": 64,
              "time": 70.85529150000023,
              "value": 0
            },
            {
              "number": 64,
              "time": 71.05266000000023,
              "value": 1
            },
            {
              "number": 64,
              "time": 72.4342395000002,
              "value": 0
            },
            {
              "number": 64,
              "time": 82.89477000000024,
              "value": 1
            },
            {
              "number": 64,
              "time": 83.48687550000022,
              "value": 0
            },
            {
              "number": 64,
              "time": 95.52635400000025,
              "value": 1
            },
            {
              "number": 64,
              "time": 96.11845950000024,
              "value": 0
            },
            {
              "number": 64,
              "time": 98.68425000000025,
              "value": 1
            },
            {
              "number": 64,
              "time": 99.27635550000024,
              "value": 0
            },
            {
              "number": 64,
              "time": 164.2105920000002,
              "value": 1
            },
            {
              "number": 64,
              "time": 167.3684880000002,
              "value": 0
            },
            {
              "number": 64,
              "time": 170.52638400000038,
              "value": 1
            },
            {
              "number": 64,
              "time": 173.6842800000004,
              "value": 0
            },
            {
              "number": 64,
              "time": 194.21060400000076,
              "value": 1
            },
            {
              "number": 64,
              "time": 195.59218350000083,
              "value": 0
            },
            {
              "number": 64,
              "time": 198.9474480000008,
              "value": 1
            },
            {
              "number": 64,
              "time": 202.10534400000083,
              "value": 0
            },
            {
              "number": 64,
              "time": 205.263240000001,
              "value": 1
            },
            {
              "number": 64,
              "time": 208.421136000001,
              "value": 0
            },
            {
              "number": 64,
              "time": 211.57903200000118,
              "value": 1
            },
            {
              "number": 64,
              "time": 214.7369280000012,
              "value": 0
            },
            {
              "number": 64,
              "time": 217.8948240000012,
              "value": 1
            },
            {
              "number": 64,
              "time": 219.27640350000127,
              "value": 0
            },
            {
              "number": 64,
              "time": 219.47377200000128,
              "value": 1
            },
            {
              "number": 64,
              "time": 220.85535150000135,
              "value": 0
            },
            {
              "number": 64,
              "time": 221.05272000000136,
              "value": 1
            },
            {
              "number": 64,
              "time": 222.43429950000143,
              "value": 0
            },
            {
              "number": 64,
              "time": 222.63166800000144,
              "value": 1
            },
            {
              "number": 64,
              "time": 224.0132475000015,
              "value": 0
            },
            {
              "number": 64,
              "time": 224.21061600000152,
              "value": 1
            },
            {
              "number": 64,
              "time": 225.5921955000016,
              "value": 0
            },
            {
              "number": 64,
              "time": 225.7895640000016,
              "value": 1
            },
            {
              "number": 64,
              "time": 227.17114350000168,
              "value": 0
            },
            {
              "number": 64,
              "time": 227.3685120000017,
              "value": 1
            },
            {
              "number": 64,
              "time": 228.75009150000176,
              "value": 0
            },
            {
              "number": 64,
              "time": 228.94746000000177,
              "value": 1
            },
            {
              "number": 64,
              "time": 230.32903950000184,
              "value": 0
            },
            {
              "number": 64,
              "time": 233.68430400000184,
              "value": 1
            },
            {
              "number": 64,
              "time": 235.06588350000192,
              "value": 0
            },
            {
              "number": 64,
              "time": 235.26325200000193,
              "value": 1
            },
            {
              "number": 64,
              "time": 236.644831500002,
              "value": 0
            },
            {
              "number": 64,
              "time": 247.10536200000206,
              "value": 1
            },
            {
              "number": 64,
              "time": 247.6974675000021,
              "value": 0
            },
            {
              "number": 64,
              "time": 259.73694600000226,
              "value": 1
            },
            {
              "number": 64,
              "time": 260.3290515000022,
              "value": 0
            },
            {
              "number": 64,
              "time": 262.89484200000226,
              "value": 1
            },
            {
              "number": 64,
              "time": 263.4869475000022,
              "value": 0
            },
            {
              "number": 64,
              "time": 385.2633119999982,
              "value": 1
            },
            {
              "number": 64,
              "time": 388.42120799999805,
              "value": 0
            },
            {
              "number": 64,
              "time": 396.31594799999743,
              "value": 1
            },
            {
              "number": 64,
              "time": 399.47384399999726,
              "value": 0
            },
            {
              "number": 64,
              "time": 402.63173999999697,
              "value": 1
            },
            {
              "number": 64,
              "time": 405.7896359999968,
              "value": 0
            },
            {
              "number": 64,
              "time": 418.61858849999686,
              "value": 1
            },
            {
              "number": 64,
              "time": 419.80279949999675,
              "value": 0
            },
            {
              "number": 64,
              "time": 420.00016799999673,
              "value": 1
            },
            {
              "number": 64,
              "time": 421.3817474999966,
              "value": 0
            },
            {
              "number": 64,
              "time": 421.5791159999966,
              "value": 1
            },
            {
              "number": 64,
              "time": 424.3422749999967,
              "value": 0
            },
            {
              "number": 64,
              "time": 424.9343804999967,
              "value": 1
            },
            {
              "number": 64,
              "time": 426.11859149999657,
              "value": 0
            },
            {
              "number": 64,
              "time": 426.31595999999655,
              "value": 1
            },
            {
              "number": 64,
              "time": 427.6975394999964,
              "value": 0
            },
            {
              "number": 64,
              "time": 429.47385599999643,
              "value": 1
            },
            {
              "number": 64,
              "time": 430.6580669999965,
              "value": 0
            },
            {
              "number": 64,
              "time": 432.2370149999965,
              "value": 1
            },
            {
              "number": 64,
              "time": 433.02648899999645,
              "value": 1
            },
            {
              "number": 64,
              "time": 433.8159629999964,
              "value": 1
            },
            {
              "number": 64,
              "time": 434.21069999999634,
              "value": 0
            },
            {
              "number": 64,
              "time": 437.36859599999605,
              "value": 1
            },
            {
              "number": 64,
              "time": 438.55280699999605,
              "value": 1
            },
            {
              "number": 64,
              "time": 439.342280999996,
              "value": 1
            },
            {
              "number": 64,
              "time": 440.1317549999959,
              "value": 1
            },
            {
              "number": 64,
              "time": 440.52649199999587,
              "value": 0
            },
            {
              "number": 64,
              "time": 443.6843879999956,
              "value": 1
            },
            {
              "number": 64,
              "time": 444.8685989999956,
              "value": 1
            },
            {
              "number": 64,
              "time": 445.6580729999955,
              "value": 1
            },
            {
              "number": 64,
              "time": 446.44754699999544,
              "value": 1
            },
            {
              "number": 64,
              "time": 446.8422839999954,
              "value": 0
            },
            {
              "number": 64,
              "time": 450.0001799999954,
              "value": 1
            },
            {
              "number": 64,
              "time": 452.9607074999951,
              "value": 0
            },
            {
              "number": 64,
              "time": 453.1580759999951,
              "value": 1
            },
            {
              "number": 64,
              "time": 456.11860349999483,
              "value": 0
            },
            {
              "number": 64,
              "time": 456.3159719999948,
              "value": 1
            },
            {
              "number": 64,
              "time": 459.27649949999454,
              "value": 0
            },
            {
              "number": 64,
              "time": 459.4738679999945,
              "value": 1
            },
            {
              "number": 64,
              "time": 462.43439549999425,
              "value": 0
            },
            {
              "number": 64,
              "time": 465.7896599999942,
              "value": 1
            },
            {
              "number": 64,
              "time": 468.75018749999396,
              "value": 0
            },
            {
              "number": 64,
              "time": 559.3423289999947,
              "value": 1
            },
            {
              "number": 64,
              "time": 561.7107509999947,
              "value": 0
            }
          ]
        },
        "id": 1,
        "name": "Grand Piano",
        "instrumentNumber": 0,
        "instrument": "acoustic grand piano",
        "instrumentFamily": "piano",
        "channelNumber": 0,
        "isPercussion": false
      },
      {
        "startTime": 26.842115999999997,
        "duration": 535.2633720000005,
        "length": 65,
        "notes": [
          {
            "name": "F#4",
            "midi": 66,
            "time": 26.842115999999997,
            "velocity": 0.5039370078740157,
            "duration": 0.7894739999999985
          },
          {
            "name": "D#4",
            "midi": 63,
            "time": 31.578959999999995,
            "velocity": 0.5039370078740157,
            "duration": 3.157896000000001
          },
          {
            "name": "E4",
            "midi": 64,
            "time": 53.684231999999994,
            "velocity": 0.3858267716535433,
            "duration": 1.578947999999997
          },
          {
            "name": "G#4",
            "midi": 68,
            "time": 53.684231999999994,
            "velocity": 0.3858267716535433,
            "duration": 1.578947999999997
          },
          {
            "name": "B4",
            "midi": 71,
            "time": 53.684231999999994,
            "velocity": 0.3858267716535433,
            "duration": 1.9736849999999961
          },
          {
            "name": "F#4",
            "midi": 66,
            "time": 55.26317999999999,
            "velocity": 0.3858267716535433,
            "duration": 0.3947369999999992
          },
          {
            "name": "A4",
            "midi": 69,
            "time": 55.26317999999999,
            "velocity": 0.3858267716535433,
            "duration": 0.3947369999999992
          },
          {
            "name": "F#4",
            "midi": 66,
            "time": 191.05270799999997,
            "velocity": 0.3858267716535433,
            "duration": 0.7894740000000127
          },
          {
            "name": "D#4",
            "midi": 63,
            "time": 195.789552,
            "velocity": 0.3858267716535433,
            "duration": 3.157895999999994
          },
          {
            "name": "E4",
            "midi": 64,
            "time": 217.89482399999997,
            "velocity": 0.3858267716535433,
            "duration": 1.578947999999997
          },
          {
            "name": "G#4",
            "midi": 68,
            "time": 217.89482399999997,
            "velocity": 0.3858267716535433,
            "duration": 1.578947999999997
          },
          {
            "name": "B4",
            "midi": 71,
            "time": 217.89482399999997,
            "velocity": 0.3858267716535433,
            "duration": 1.973684999999989
          },
          {
            "name": "F#4",
            "midi": 66,
            "time": 219.47377199999997,
            "velocity": 0.3858267716535433,
            "duration": 0.3947369999999921
          },
          {
            "name": "A4",
            "midi": 69,
            "time": 219.47377199999997,
            "velocity": 0.3858267716535433,
            "duration": 0.3947369999999921
          },
          {
            "name": "E5",
            "midi": 76,
            "time": 390.00015599999995,
            "velocity": 0.3858267716535433,
            "duration": 0.39473700000002054
          },
          {
            "name": "D#5",
            "midi": 75,
            "time": 390.39489299999997,
            "velocity": 0.3858267716535433,
            "duration": 0.39473700000002054
          },
          {
            "name": "C#5",
            "midi": 73,
            "time": 390.78963,
            "velocity": 0.3858267716535433,
            "duration": 0.39473700000002054
          },
          {
            "name": "B4",
            "midi": 71,
            "time": 391.184367,
            "velocity": 0.3858267716535433,
            "duration": 0.39473700000002054
          },
          {
            "name": "A4",
            "midi": 69,
            "time": 391.57910400000003,
            "velocity": 0.3858267716535433,
            "duration": 0.39473700000002054
          },
          {
            "name": "G#4",
            "midi": 68,
            "time": 391.97384100000005,
            "velocity": 0.3858267716535433,
            "duration": 0.39473700000002054
          },
          {
            "name": "F#4",
            "midi": 66,
            "time": 392.36857800000007,
            "velocity": 0.3858267716535433,
            "duration": 0.39473700000002054
          },
          {
            "name": "E4",
            "midi": 64,
            "time": 392.7633150000001,
            "velocity": 0.3858267716535433,
            "duration": 0.39473700000002054
          },
          {
            "name": "D#4",
            "midi": 63,
            "time": 393.1580520000001,
            "velocity": 0.3858267716535433,
            "duration": 0.39473700000002054
          },
          {
            "name": "C#4",
            "midi": 61,
            "time": 393.55278900000013,
            "velocity": 0.3858267716535433,
            "duration": 0.39473700000002054
          },
          {
            "name": "B3",
            "midi": 59,
            "time": 393.94752600000015,
            "velocity": 0.3858267716535433,
            "duration": 0.39473700000002054
          },
          {
            "name": "A3",
            "midi": 57,
            "time": 394.3422630000002,
            "velocity": 0.3858267716535433,
            "duration": 0.39473700000002054
          },
          {
            "name": "D#4",
            "midi": 63,
            "time": 421.57911600000017,
            "velocity": 0.3858267716535433,
            "duration": 3.157895999999994
          },
          {
            "name": "B4",
            "midi": 71,
            "time": 427.89490800000016,
            "velocity": 0.3858267716535433,
            "duration": 2.3684220000000096
          },
          {
            "name": "A#4",
            "midi": 70,
            "time": 430.26333000000017,
            "velocity": 0.3858267716535433,
            "duration": 0.7894739999999842
          },
          {
            "name": "E4",
            "midi": 64,
            "time": 450.00018000000017,
            "velocity": 0.3858267716535433,
            "duration": 1.9736850000000459
          },
          {
            "name": "A4",
            "midi": 69,
            "time": 450.00018000000017,
            "velocity": 0.3858267716535433,
            "duration": 1.5789480000000253
          },
          {
            "name": "C#5",
            "midi": 73,
            "time": 450.00018000000017,
            "velocity": 0.3858267716535433,
            "duration": 1.5789480000000253
          },
          {
            "name": "E5",
            "midi": 76,
            "time": 450.00018000000017,
            "velocity": 0.3858267716535433,
            "duration": 1.9736850000000459
          },
          {
            "name": "B4",
            "midi": 71,
            "time": 451.5791280000002,
            "velocity": 0.3858267716535433,
            "duration": 0.39473700000002054
          },
          {
            "name": "D5",
            "midi": 74,
            "time": 451.5791280000002,
            "velocity": 0.3858267716535433,
            "duration": 0.39473700000002054
          },
          {
            "name": "C#4",
            "midi": 61,
            "time": 456.3159720000002,
            "velocity": 0.3858267716535433,
            "duration": 1.9736850000000459
          },
          {
            "name": "F#4",
            "midi": 66,
            "time": 456.3159720000002,
            "velocity": 0.3858267716535433,
            "duration": 1.5789480000000253
          },
          {
            "name": "A4",
            "midi": 69,
            "time": 456.3159720000002,
            "velocity": 0.3858267716535433,
            "duration": 1.5789480000000253
          },
          {
            "name": "C#5",
            "midi": 73,
            "time": 456.3159720000002,
            "velocity": 0.3858267716535433,
            "duration": 1.9736850000000459
          },
          {
            "name": "G#4",
            "midi": 68,
            "time": 457.89492000000024,
            "velocity": 0.3858267716535433,
            "duration": 0.39473700000002054
          },
          {
            "name": "B4",
            "midi": 71,
            "time": 457.89492000000024,
            "velocity": 0.3858267716535433,
            "duration": 0.39473700000002054
          },
          {
            "name": "B3",
            "midi": 59,
            "time": 465.78966000000025,
            "velocity": 0.3858267716535433,
            "duration": 1.9736850000000459
          },
          {
            "name": "E4",
            "midi": 64,
            "time": 465.78966000000025,
            "velocity": 0.3858267716535433,
            "duration": 1.5789480000000253
          },
          {
            "name": "G#4",
            "midi": 68,
            "time": 465.78966000000025,
            "velocity": 0.3858267716535433,
            "duration": 1.5789480000000253
          },
          {
            "name": "B4",
            "midi": 71,
            "time": 465.78966000000025,
            "velocity": 0.3858267716535433,
            "duration": 1.9736850000000459
          },
          {
            "name": "F#4",
            "midi": 66,
            "time": 467.3686080000003,
            "velocity": 0.3858267716535433,
            "duration": 0.39473700000002054
          },
          {
            "name": "A4",
            "midi": 69,
            "time": 467.3686080000003,
            "velocity": 0.3858267716535433,
            "duration": 0.39473700000002054
          },
          {
            "name": "F#5",
            "midi": 78,
            "time": 507.2370450000003,
            "velocity": 0.5905511811023622,
            "duration": 0.39473700000002054
          },
          {
            "name": "A5",
            "midi": 81,
            "time": 507.2370450000003,
            "velocity": 0.5905511811023622,
            "duration": 0.39473700000002054
          },
          {
            "name": "E5",
            "midi": 76,
            "time": 507.6317820000003,
            "velocity": 0.5905511811023622,
            "duration": 0.39473700000002054
          },
          {
            "name": "G#5",
            "midi": 80,
            "time": 507.6317820000003,
            "velocity": 0.5905511811023622,
            "duration": 0.39473700000002054
          },
          {
            "name": "F#5",
            "midi": 78,
            "time": 508.02651900000035,
            "velocity": 0.5905511811023622,
            "duration": 0.39473700000002054
          },
          {
            "name": "A5",
            "midi": 81,
            "time": 508.02651900000035,
            "velocity": 0.5905511811023622,
            "duration": 0.39473700000002054
          },
          {
            "name": "E5",
            "midi": 76,
            "time": 508.42125600000037,
            "velocity": 0.5905511811023622,
            "duration": 0.39473700000002054
          },
          {
            "name": "G#5",
            "midi": 80,
            "time": 508.42125600000037,
            "velocity": 0.5905511811023622,
            "duration": 0.39473700000002054
          },
          {
            "name": "F#5",
            "midi": 78,
            "time": 508.8159930000004,
            "velocity": 0.5905511811023622,
            "duration": 0.39473700000002054
          },
          {
            "name": "A5",
            "midi": 81,
            "time": 508.8159930000004,
            "velocity": 0.5905511811023622,
            "duration": 0.39473700000002054
          },
          {
            "name": "E5",
            "midi": 76,
            "time": 509.2107300000004,
            "velocity": 0.5905511811023622,
            "duration": 0.39473700000002054
          },
          {
            "name": "G#5",
            "midi": 80,
            "time": 509.2107300000004,
            "velocity": 0.5905511811023622,
            "duration": 0.39473700000002054
          },
          {
            "name": "F#5",
            "midi": 78,
            "time": 509.60546700000043,
            "velocity": 0.5905511811023622,
            "duration": 0.39473700000002054
          },
          {
            "name": "A5",
            "midi": 81,
            "time": 509.60546700000043,
            "velocity": 0.5905511811023622,
            "duration": 0.39473700000002054
          },
          {
            "name": "E5",
            "midi": 76,
            "time": 510.00020400000045,
            "velocity": 0.5905511811023622,
            "duration": 0.7894739999999842
          },
          {
            "name": "G5",
            "midi": 79,
            "time": 510.00020400000045,
            "velocity": 0.5905511811023622,
            "duration": 0.7894739999999842
          },
          {
            "name": "C5",
            "midi": 72,
            "time": 534.0791610000005,
            "velocity": 0.5905511811023622,
            "duration": 0.3947369999999637
          },
          {
            "name": "C#5",
            "midi": 73,
            "time": 534.4738980000004,
            "velocity": 0.4881889763779528,
            "duration": 0.7894740000000411
          }
        ],
        "controlChanges": {
          "7": [
            {
              "number": 7,
              "time": 0,
              "value": 1
            }
          ],
          "10": [
            {
              "number": 10,
              "time": 0,
              "value": 0.7637795275590551
            }
          ]
        },
        "id": 2,
        "name": "Instrument17",
        "instrumentNumber": 0,
        "instrument": "acoustic grand piano",
        "instrumentFamily": "piano",
        "channelNumber": 1,
        "isPercussion": false
      },
      {
        "startTime": 0,
        "duration": 559.342328999998,
        "length": 2039,
        "notes": [
          {
            "name": "E2",
            "midi": 40,
            "time": 0,
            "velocity": 0.5905511811023622,
            "duration": 3.3552644999999997
          },
          {
            "name": "B2",
            "midi": 47,
            "time": 0,
            "velocity": 0.5905511811023622,
            "duration": 3.3552644999999997
          },
          {
            "name": "E3",
            "midi": 52,
            "time": 0,
            "velocity": 0.5905511811023622,
            "duration": 3.3552644999999997
          },
          {
            "name": "E5",
            "midi": 76,
            "time": 3.3552644999999997,
            "velocity": 0.5905511811023622,
            "duration": 0.03865133125000009
          },
          {
            "name": "D#5",
            "midi": 75,
            "time": 3.5526329999999997,
            "velocity": 0.5905511811023622,
            "duration": 0.03865133125000009
          },
          {
            "name": "C#5",
            "midi": 73,
            "time": 3.7500014999999998,
            "velocity": 0.5905511811023622,
            "duration": 0.03865133125000009
          },
          {
            "name": "B4",
            "midi": 71,
            "time": 3.94737,
            "velocity": 0.5905511811023622,
            "duration": 0.03865133125000009
          },
          {
            "name": "A4",
            "midi": 69,
            "time": 4.1447385,
            "velocity": 0.5905511811023622,
            "duration": 0.03865133124999964
          },
          {
            "name": "G#4",
            "midi": 68,
            "time": 4.3421069999999995,
            "velocity": 0.5905511811023622,
            "duration": 0.03865133124999964
          },
          {
            "name": "F#4",
            "midi": 66,
            "time": 4.539475499999999,
            "velocity": 0.5905511811023622,
            "duration": 0.03865133124999964
          },
          {
            "name": "E4",
            "midi": 64,
            "time": 4.736843999999999,
            "velocity": 0.5905511811023622,
            "duration": 0.03865133124999964
          },
          {
            "name": "D#4",
            "midi": 63,
            "time": 4.934212499999998,
            "velocity": 0.5905511811023622,
            "duration": 0.03865133124999964
          },
          {
            "name": "C#4",
            "midi": 61,
            "time": 5.131580999999998,
            "velocity": 0.5905511811023622,
            "duration": 0.03865133124999964
          },
          {
            "name": "B3",
            "midi": 59,
            "time": 5.328949499999998,
            "velocity": 0.5905511811023622,
            "duration": 0.03865133124999964
          },
          {
            "name": "A3",
            "midi": 57,
            "time": 5.526317999999997,
            "velocity": 0.5905511811023622,
            "duration": 0.03865133124999964
          },
          {
            "name": "G#3",
            "midi": 56,
            "time": 5.723686499999997,
            "velocity": 0.5905511811023622,
            "duration": 0.03865133124999964
          },
          {
            "name": "F#3",
            "midi": 54,
            "time": 5.921054999999996,
            "velocity": 0.5905511811023622,
            "duration": 0.03865133124999964
          },
          {
            "name": "E3",
            "midi": 52,
            "time": 6.118423499999996,
            "velocity": 0.5905511811023622,
            "duration": 0.03865133124999964
          },
          {
            "name": "B1",
            "midi": 35,
            "time": 6.315791999999996,
            "velocity": 0.7952755905511811,
            "duration": 3.3552644999999997
          },
          {
            "name": "F#2",
            "midi": 42,
            "time": 6.315791999999996,
            "velocity": 0.7952755905511811,
            "duration": 3.3552644999999997
          },
          {
            "name": "B2",
            "midi": 47,
            "time": 6.315791999999996,
            "velocity": 0.7952755905511811,
            "duration": 3.3552644999999997
          },
          {
            "name": "B4",
            "midi": 71,
            "time": 9.671056499999995,
            "velocity": 0.5905511811023622,
            "duration": 0.03865133124999964
          },
          {
            "name": "A4",
            "midi": 69,
            "time": 9.868424999999995,
            "velocity": 0.5905511811023622,
            "duration": 0.03865133124999964
          },
          {
            "name": "G#4",
            "midi": 68,
            "time": 10.065793499999995,
            "velocity": 0.5905511811023622,
            "duration": 0.03865133124999964
          },
          {
            "name": "F#4",
            "midi": 66,
            "time": 10.263161999999994,
            "velocity": 0.5905511811023622,
            "duration": 0.03865133124999964
          },
          {
            "name": "E4",
            "midi": 64,
            "time": 10.460530499999994,
            "velocity": 0.5905511811023622,
            "duration": 0.03865133124999964
          },
          {
            "name": "D#4",
            "midi": 63,
            "time": 10.657898999999993,
            "velocity": 0.5905511811023622,
            "duration": 0.03865133124999964
          },
          {
            "name": "C#4",
            "midi": 61,
            "time": 10.855267499999993,
            "velocity": 0.5905511811023622,
            "duration": 0.03865133124999964
          },
          {
            "name": "B3",
            "midi": 59,
            "time": 11.052635999999993,
            "velocity": 0.5905511811023622,
            "duration": 0.03865133124999964
          },
          {
            "name": "A3",
            "midi": 57,
            "time": 11.250004499999992,
            "velocity": 0.5905511811023622,
            "duration": 0.03865133124999964
          },
          {
            "name": "G#3",
            "midi": 56,
            "time": 11.447372999999992,
            "velocity": 0.5905511811023622,
            "duration": 0.03865133124999964
          },
          {
            "name": "F#3",
            "midi": 54,
            "time": 11.644741499999991,
            "velocity": 0.5905511811023622,
            "duration": 0.03865133124999964
          },
          {
            "name": "E3",
            "midi": 52,
            "time": 11.842109999999991,
            "velocity": 0.5905511811023622,
            "duration": 0.03865133124999964
          },
          {
            "name": "D#3",
            "midi": 51,
            "time": 12.03947849999999,
            "velocity": 0.5905511811023622,
            "duration": 0.03865133124999964
          },
          {
            "name": "C#3",
            "midi": 49,
            "time": 12.23684699999999,
            "velocity": 0.5905511811023622,
            "duration": 0.03865133124999964
          },
          {
            "name": "B2",
            "midi": 47,
            "time": 12.43421549999999,
            "velocity": 0.5905511811023622,
            "duration": 0.03865133124999964
          },
          {
            "name": "E2",
            "midi": 40,
            "time": 12.63158399999999,
            "velocity": 0.7952755905511811,
            "duration": 2.3684220000000007
          },
          {
            "name": "E3",
            "midi": 52,
            "time": 12.63158399999999,
            "velocity": 0.7952755905511811,
            "duration": 0.7894740000000002
          },
          {
            "name": "D3",
            "midi": 50,
            "time": 13.42105799999999,
            "velocity": 0.3858267716535433,
            "duration": 0.7894740000000002
          },
          {
            "name": "C#3",
            "midi": 49,
            "time": 14.21053199999999,
            "velocity": 0.3858267716535433,
            "duration": 0.7894740000000002
          },
          {
            "name": "E3",
            "midi": 52,
            "time": 14.21053199999999,
            "velocity": 0.3858267716535433,
            "duration": 0.7894740000000002
          },
          {
            "name": "E2",
            "midi": 40,
            "time": 15.00000599999999,
            "velocity": 0.5905511811023622,
            "duration": 0.3947369999999992
          },
          {
            "name": "A2",
            "midi": 45,
            "time": 15.00000599999999,
            "velocity": 0.5905511811023622,
            "duration": 0.3947369999999992
          },
          {
            "name": "E3",
            "midi": 52,
            "time": 15.00000599999999,
            "velocity": 0.5905511811023622,
            "duration": 0.3947369999999992
          },
          {
            "name": "E2",
            "midi": 40,
            "time": 15.39474299999999,
            "velocity": 0.5905511811023622,
            "duration": 0.3947369999999992
          },
          {
            "name": "A2",
            "midi": 45,
            "time": 15.39474299999999,
            "velocity": 0.5905511811023622,
            "duration": 0.3947369999999992
          },
          {
            "name": "E3",
            "midi": 52,
            "time": 15.39474299999999,
            "velocity": 0.5905511811023622,
            "duration": 0.3947369999999992
          },
          {
            "name": "E2",
            "midi": 40,
            "time": 15.789479999999989,
            "velocity": 0.5905511811023622,
            "duration": 2.368421999999997
          },
          {
            "name": "G#2",
            "midi": 44,
            "time": 15.789479999999989,
            "velocity": 0.5905511811023622,
            "duration": 0.7894740000000002
          },
          {
            "name": "E3",
            "midi": 52,
            "time": 15.789479999999989,
            "velocity": 0.5905511811023622,
            "duration": 0.7894740000000002
          },
          {
            "name": "D3",
            "midi": 50,
            "time": 16.57895399999999,
            "velocity": 0.5905511811023622,
            "duration": 0.7894739999999985
          },
          {
            "name": "C#3",
            "midi": 49,
            "time": 17.368427999999987,
            "velocity": 0.5905511811023622,
            "duration": 0.7894739999999985
          },
          {
            "name": "E3",
            "midi": 52,
            "time": 17.368427999999987,
            "velocity": 0.5905511811023622,
            "duration": 0.7894739999999985
          },
          {
            "name": "E2",
            "midi": 40,
            "time": 18.157901999999986,
            "velocity": 0.5905511811023622,
            "duration": 0.3947369999999992
          },
          {
            "name": "A2",
            "midi": 45,
            "time": 18.157901999999986,
            "velocity": 0.5905511811023622,
            "duration": 0.3947369999999992
          },
          {
            "name": "E3",
            "midi": 52,
            "time": 18.157901999999986,
            "velocity": 0.5905511811023622,
            "duration": 0.3947369999999992
          },
          {
            "name": "E2",
            "midi": 40,
            "time": 18.552638999999985,
            "velocity": 0.5905511811023622,
            "duration": 0.3947369999999992
          },
          {
            "name": "A2",
            "midi": 45,
            "time": 18.552638999999985,
            "velocity": 0.5905511811023622,
            "duration": 0.3947369999999992
          },
          {
            "name": "E3",
            "midi": 52,
            "time": 18.552638999999985,
            "velocity": 0.5905511811023622,
            "duration": 0.3947369999999992
          },
          {
            "name": "E2",
            "midi": 40,
            "time": 18.947375999999984,
            "velocity": 0.5905511811023622,
            "duration": 0.7894739999999985
          },
          {
            "name": "G#2",
            "midi": 44,
            "time": 18.947375999999984,
            "velocity": 0.5905511811023622,
            "duration": 0.7894739999999985
          },
          {
            "name": "E3",
            "midi": 52,
            "time": 18.947375999999984,
            "velocity": 0.5905511811023622,
            "duration": 0.7894739999999985
          },
          {
            "name": "E2",
            "midi": 40,
            "time": 19.736849999999983,
            "velocity": 0.5905511811023622,
            "duration": 0.3947369999999992
          },
          {
            "name": "A2",
            "midi": 45,
            "time": 19.736849999999983,
            "velocity": 0.5905511811023622,
            "duration": 0.3947369999999992
          },
          {
            "name": "E3",
            "midi": 52,
            "time": 19.736849999999983,
            "velocity": 0.5905511811023622,
            "duration": 0.3947369999999992
          },
          {
            "name": "E2",
            "midi": 40,
            "time": 20.131586999999982,
            "velocity": 0.5905511811023622,
            "duration": 0.3947369999999992
          },
          {
            "name": "A2",
            "midi": 45,
            "time": 20.131586999999982,
            "velocity": 0.5905511811023622,
            "duration": 0.3947369999999992
          },
          {
            "name": "E3",
            "midi": 52,
            "time": 20.131586999999982,
            "velocity": 0.5905511811023622,
            "duration": 0.3947369999999992
          },
          {
            "name": "E2",
            "midi": 40,
            "time": 20.52632399999998,
            "velocity": 0.5905511811023622,
            "duration": 0.7894739999999985
          },
          {
            "name": "G#2",
            "midi": 44,
            "time": 20.52632399999998,
            "velocity": 0.5905511811023622,
            "duration": 0.7894739999999985
          },
          {
            "name": "E3",
            "midi": 52,
            "time": 20.52632399999998,
            "velocity": 0.5905511811023622,
            "duration": 0.7894739999999985
          },
          {
            "name": "E2",
            "midi": 40,
            "time": 21.31579799999998,
            "velocity": 0.5905511811023622,
            "duration": 0.3947369999999992
          },
          {
            "name": "A2",
            "midi": 45,
            "time": 21.31579799999998,
            "velocity": 0.5905511811023622,
            "duration": 0.3947369999999992
          },
          {
            "name": "E3",
            "midi": 52,
            "time": 21.31579799999998,
            "velocity": 0.5905511811023622,
            "duration": 0.3947369999999992
          },
          {
            "name": "E2",
            "midi": 40,
            "time": 21.71053499999998,
            "velocity": 0.5905511811023622,
            "duration": 0.3947369999999992
          },
          {
            "name": "A2",
            "midi": 45,
            "time": 21.71053499999998,
            "velocity": 0.5905511811023622,
            "duration": 0.3947369999999992
          },
          {
            "name": "E3",
            "midi": 52,
            "time": 21.71053499999998,
            "velocity": 0.5905511811023622,
            "duration": 0.3947369999999992
          },
          {
            "name": "E2",
            "midi": 40,
            "time": 22.105271999999978,
            "velocity": 0.5905511811023622,
            "duration": 0.3947369999999992
          },
          {
            "name": "G#2",
            "midi": 44,
            "time": 22.105271999999978,
            "velocity": 0.5905511811023622,
            "duration": 0.3947369999999992
          },
          {
            "name": "E3",
            "midi": 52,
            "time": 22.105271999999978,
            "velocity": 0.5905511811023622,
            "duration": 0.3947369999999992
          },
          {
            "name": "B3",
            "midi": 59,
            "time": 25.263167999999975,
            "velocity": 0.5905511811023622,
            "duration": 3.157896000000001
          },
          {
            "name": "D#5",
            "midi": 75,
            "time": 25.263167999999975,
            "velocity": 0.5905511811023622,
            "duration": 3.157896000000001
          },
          {
            "name": "E4",
            "midi": 64,
            "time": 28.421063999999976,
            "velocity": 0.5905511811023622,
            "duration": 0.1973684999999996
          },
          {
            "name": "G#4",
            "midi": 68,
            "time": 28.421063999999976,
            "velocity": 0.5905511811023622,
            "duration": 0.1973684999999996
          },
          {
            "name": "E4",
            "midi": 64,
            "time": 28.618432499999976,
            "velocity": 0.5905511811023622,
            "duration": 0.1973684999999996
          },
          {
            "name": "G#4",
            "midi": 68,
            "time": 28.815800999999976,
            "velocity": 0.5905511811023622,
            "duration": 0.1973684999999996
          },
          {
            "name": "A4",
            "midi": 69,
            "time": 29.013169499999975,
            "velocity": 0.5905511811023622,
            "duration": 0.1973684999999996
          },
          {
            "name": "A#4",
            "midi": 70,
            "time": 29.210537999999975,
            "velocity": 0.5905511811023622,
            "duration": 0.1973684999999996
          },
          {
            "name": "B4",
            "midi": 71,
            "time": 29.407906499999974,
            "velocity": 0.5905511811023622,
            "duration": 0.1973684999999996
          },
          {
            "name": "C#5",
            "midi": 73,
            "time": 29.605274999999974,
            "velocity": 0.5905511811023622,
            "duration": 0.1973684999999996
          },
          {
            "name": "B4",
            "midi": 71,
            "time": 29.802643499999974,
            "velocity": 0.5905511811023622,
            "duration": 0.1973684999999996
          },
          {
            "name": "A4",
            "midi": 69,
            "time": 30.000011999999973,
            "velocity": 0.5905511811023622,
            "duration": 0.1973684999999996
          },
          {
            "name": "G#4",
            "midi": 68,
            "time": 30.197380499999973,
            "velocity": 0.5905511811023622,
            "duration": 0.1973684999999996
          },
          {
            "name": "F#4",
            "midi": 66,
            "time": 30.394748999999972,
            "velocity": 0.5905511811023622,
            "duration": 0.1973684999999996
          },
          {
            "name": "E4",
            "midi": 64,
            "time": 30.592117499999972,
            "velocity": 0.5905511811023622,
            "duration": 0.1973684999999996
          },
          {
            "name": "D#4",
            "midi": 63,
            "time": 30.78948599999997,
            "velocity": 0.5905511811023622,
            "duration": 0.1973684999999996
          },
          {
            "name": "C#4",
            "midi": 61,
            "time": 30.98685449999997,
            "velocity": 0.5905511811023622,
            "duration": 0.1973684999999996
          },
          {
            "name": "B3",
            "midi": 59,
            "time": 31.18422299999997,
            "velocity": 0.5905511811023622,
            "duration": 0.1973684999999996
          },
          {
            "name": "A#3",
            "midi": 58,
            "time": 31.38159149999997,
            "velocity": 0.5905511811023622,
            "duration": 0.1973684999999996
          },
          {
            "name": "F#3",
            "midi": 54,
            "time": 31.57895999999997,
            "velocity": 0.5905511811023622,
            "duration": 1.1842110000000012
          },
          {
            "name": "F3",
            "midi": 53,
            "time": 32.76317099999997,
            "velocity": 0.5905511811023622,
            "duration": 0.3947369999999992
          },
          {
            "name": "F#3",
            "midi": 54,
            "time": 33.15790799999997,
            "velocity": 0.5905511811023622,
            "duration": 0.7894739999999985
          },
          {
            "name": "G#3",
            "midi": 56,
            "time": 33.94738199999997,
            "velocity": 0.5905511811023622,
            "duration": 0.3947369999999992
          },
          {
            "name": "A3",
            "midi": 57,
            "time": 34.34211899999997,
            "velocity": 0.5905511811023622,
            "duration": 0.3947369999999992
          },
          {
            "name": "E2",
            "midi": 40,
            "time": 34.73685599999997,
            "velocity": 0.5905511811023622,
            "duration": 3.355264499999997
          },
          {
            "name": "B2",
            "midi": 47,
            "time": 34.73685599999997,
            "velocity": 0.5905511811023622,
            "duration": 3.355264499999997
          },
          {
            "name": "E3",
            "midi": 52,
            "time": 34.73685599999997,
            "velocity": 0.5905511811023622,
            "duration": 3.355264499999997
          },
          {
            "name": "E5",
            "midi": 76,
            "time": 38.092120499999965,
            "velocity": 0.5905511811023622,
            "duration": 0.03865133125000142
          },
          {
            "name": "D#5",
            "midi": 75,
            "time": 38.28948899999997,
            "velocity": 0.5905511811023622,
            "duration": 0.03865133125000142
          },
          {
            "name": "C#5",
            "midi": 73,
            "time": 38.48685749999997,
            "velocity": 0.5905511811023622,
            "duration": 0.03865133125000142
          },
          {
            "name": "B4",
            "midi": 71,
            "time": 38.684225999999974,
            "velocity": 0.5905511811023622,
            "duration": 0.03865133125000142
          },
          {
            "name": "A4",
            "midi": 69,
            "time": 38.88159449999998,
            "velocity": 0.5905511811023622,
            "duration": 0.03865133125000142
          },
          {
            "name": "G#4",
            "midi": 68,
            "time": 39.07896299999998,
            "velocity": 0.5905511811023622,
            "duration": 0.03865133125000142
          },
          {
            "name": "F#4",
            "midi": 66,
            "time": 39.27633149999998,
            "velocity": 0.5905511811023622,
            "duration": 0.03865133125000142
          },
          {
            "name": "E4",
            "midi": 64,
            "time": 39.47369999999999,
            "velocity": 0.5905511811023622,
            "duration": 0.03865133125000142
          },
          {
            "name": "D#4",
            "midi": 63,
            "time": 39.67106849999999,
            "velocity": 0.5905511811023622,
            "duration": 0.03865133125000142
          },
          {
            "name": "C#4",
            "midi": 61,
            "time": 39.86843699999999,
            "velocity": 0.5905511811023622,
            "duration": 0.03865133125000142
          },
          {
            "name": "B3",
            "midi": 59,
            "time": 40.065805499999996,
            "velocity": 0.5905511811023622,
            "duration": 0.03865133125000142
          },
          {
            "name": "A3",
            "midi": 57,
            "time": 40.263174,
            "velocity": 0.5905511811023622,
            "duration": 0.03865133125000142
          },
          {
            "name": "G#3",
            "midi": 56,
            "time": 40.4605425,
            "velocity": 0.5905511811023622,
            "duration": 0.03865133125000142
          },
          {
            "name": "F#3",
            "midi": 54,
            "time": 40.657911000000006,
            "velocity": 0.5905511811023622,
            "duration": 0.03865133125000142
          },
          {
            "name": "E3",
            "midi": 52,
            "time": 40.85527950000001,
            "velocity": 0.5905511811023622,
            "duration": 0.03865133125000142
          },
          {
            "name": "C#2",
            "midi": 37,
            "time": 41.05264800000001,
            "velocity": 0.7952755905511811,
            "duration": 3.355264499999997
          },
          {
            "name": "G#2",
            "midi": 44,
            "time": 41.05264800000001,
            "velocity": 0.7952755905511811,
            "duration": 3.355264499999997
          },
          {
            "name": "C#3",
            "midi": 49,
            "time": 41.05264800000001,
            "velocity": 0.7952755905511811,
            "duration": 3.355264499999997
          },
          {
            "name": "C#5",
            "midi": 73,
            "time": 44.40791250000001,
            "velocity": 0.5905511811023622,
            "duration": 0.03865133125000142
          },
          {
            "name": "B4",
            "midi": 71,
            "time": 44.60528100000001,
            "velocity": 0.5905511811023622,
            "duration": 0.03865133125000142
          },
          {
            "name": "A4",
            "midi": 69,
            "time": 44.802649500000015,
            "velocity": 0.5905511811023622,
            "duration": 0.03865133125000142
          },
          {
            "name": "G#4",
            "midi": 68,
            "time": 45.00001800000002,
            "velocity": 0.5905511811023622,
            "duration": 0.03865133125000142
          },
          {
            "name": "F#4",
            "midi": 66,
            "time": 45.19738650000002,
            "velocity": 0.5905511811023622,
            "duration": 0.03865133125000142
          },
          {
            "name": "E4",
            "midi": 64,
            "time": 45.394755000000025,
            "velocity": 0.5905511811023622,
            "duration": 0.03865133125000142
          },
          {
            "name": "D#4",
            "midi": 63,
            "time": 45.59212350000003,
            "velocity": 0.5905511811023622,
            "duration": 0.03865133125000142
          },
          {
            "name": "C#4",
            "midi": 61,
            "time": 45.78949200000003,
            "velocity": 0.5905511811023622,
            "duration": 0.03865133125000142
          },
          {
            "name": "B3",
            "midi": 59,
            "time": 45.986860500000034,
            "velocity": 0.5905511811023622,
            "duration": 0.03865133125000142
          },
          {
            "name": "A3",
            "midi": 57,
            "time": 46.18422900000004,
            "velocity": 0.5905511811023622,
            "duration": 0.03865133125000142
          },
          {
            "name": "G#3",
            "midi": 56,
            "time": 46.38159750000004,
            "velocity": 0.5905511811023622,
            "duration": 0.03865133125000142
          },
          {
            "name": "F#3",
            "midi": 54,
            "time": 46.578966000000044,
            "velocity": 0.5905511811023622,
            "duration": 0.03865133125000142
          },
          {
            "name": "E3",
            "midi": 52,
            "time": 46.77633450000005,
            "velocity": 0.5905511811023622,
            "duration": 0.03865133125000142
          },
          {
            "name": "D#3",
            "midi": 51,
            "time": 46.97370300000005,
            "velocity": 0.5905511811023622,
            "duration": 0.03865133125000142
          },
          {
            "name": "C#3",
            "midi": 49,
            "time": 47.17107150000005,
            "velocity": 0.5905511811023622,
            "duration": 0.03865133125000142
          },
          {
            "name": "A1",
            "midi": 33,
            "time": 47.36844000000006,
            "velocity": 0.7952755905511811,
            "duration": 3.355264499999997
          },
          {
            "name": "E2",
            "midi": 40,
            "time": 47.36844000000006,
            "velocity": 0.7952755905511811,
            "duration": 3.355264499999997
          },
          {
            "name": "A2",
            "midi": 45,
            "time": 47.36844000000006,
            "velocity": 0.7952755905511811,
            "duration": 3.355264499999997
          },
          {
            "name": "A2",
            "midi": 45,
            "time": 51.315810000000056,
            "velocity": 0.7952755905511811,
            "duration": 0.3947369999999992
          },
          {
            "name": "E3",
            "midi": 52,
            "time": 51.315810000000056,
            "velocity": 0.7952755905511811,
            "duration": 0.3947369999999992
          },
          {
            "name": "A3",
            "midi": 57,
            "time": 51.315810000000056,
            "velocity": 0.7952755905511811,
            "duration": 0.3947369999999992
          },
          {
            "name": "B3",
            "midi": 59,
            "time": 53.68423200000005,
            "velocity": 0.3858267716535433,
            "duration": 1.9736850000000032
          },
          {
            "name": "B2",
            "midi": 47,
            "time": 56.84212800000005,
            "velocity": 0.3858267716535433,
            "duration": 1.9736849999999961
          },
          {
            "name": "E3",
            "midi": 52,
            "time": 56.84212800000005,
            "velocity": 0.3858267716535433,
            "duration": 1.578947999999997
          },
          {
            "name": "G#3",
            "midi": 56,
            "time": 56.84212800000005,
            "velocity": 0.3858267716535433,
            "duration": 1.578947999999997
          },
          {
            "name": "B3",
            "midi": 59,
            "time": 56.84212800000005,
            "velocity": 0.3858267716535433,
            "duration": 1.9736849999999961
          },
          {
            "name": "F#3",
            "midi": 54,
            "time": 58.42107600000005,
            "velocity": 0.3858267716535433,
            "duration": 0.3947369999999992
          },
          {
            "name": "A3",
            "midi": 57,
            "time": 58.42107600000005,
            "velocity": 0.3858267716535433,
            "duration": 0.3947369999999992
          },
          {
            "name": "G#3",
            "midi": 56,
            "time": 60.000024000000046,
            "velocity": 0.3858267716535433,
            "duration": 1.9736849999999961
          },
          {
            "name": "C#4",
            "midi": 61,
            "time": 60.000024000000046,
            "velocity": 0.3858267716535433,
            "duration": 1.578947999999997
          },
          {
            "name": "E4",
            "midi": 64,
            "time": 60.000024000000046,
            "velocity": 0.3858267716535433,
            "duration": 1.578947999999997
          },
          {
            "name": "G#4",
            "midi": 68,
            "time": 60.000024000000046,
            "velocity": 0.3858267716535433,
            "duration": 1.9736849999999961
          },
          {
            "name": "D#4",
            "midi": 63,
            "time": 61.57897200000004,
            "velocity": 0.3858267716535433,
            "duration": 0.3947369999999992
          },
          {
            "name": "F#4",
            "midi": 66,
            "time": 61.57897200000004,
            "velocity": 0.3858267716535433,
            "duration": 0.3947369999999992
          },
          {
            "name": "G#2",
            "midi": 44,
            "time": 63.15792000000004,
            "velocity": 0.3858267716535433,
            "duration": 1.9736850000000103
          },
          {
            "name": "C#3",
            "midi": 49,
            "time": 63.15792000000004,
            "velocity": 0.3858267716535433,
            "duration": 1.578948000000004
          },
          {
            "name": "E3",
            "midi": 52,
            "time": 63.15792000000004,
            "velocity": 0.3858267716535433,
            "duration": 1.578948000000004
          },
          {
            "name": "G#3",
            "midi": 56,
            "time": 63.15792000000004,
            "velocity": 0.3858267716535433,
            "duration": 1.9736850000000103
          },
          {
            "name": "D#3",
            "midi": 51,
            "time": 64.73686800000004,
            "velocity": 0.3858267716535433,
            "duration": 0.39473700000000633
          },
          {
            "name": "F#3",
            "midi": 54,
            "time": 64.73686800000004,
            "velocity": 0.3858267716535433,
            "duration": 0.39473700000000633
          },
          {
            "name": "F#3",
            "midi": 54,
            "time": 69.47371200000005,
            "velocity": 0.3858267716535433,
            "duration": 1.9736850000000032
          },
          {
            "name": "B3",
            "midi": 59,
            "time": 69.47371200000005,
            "velocity": 0.3858267716535433,
            "duration": 1.578947999999997
          },
          {
            "name": "D#4",
            "midi": 63,
            "time": 69.47371200000005,
            "velocity": 0.3858267716535433,
            "duration": 1.578947999999997
          },
          {
            "name": "F#4",
            "midi": 66,
            "time": 69.47371200000005,
            "velocity": 0.3858267716535433,
            "duration": 1.9736850000000032
          },
          {
            "name": "C#4",
            "midi": 61,
            "time": 71.05266000000005,
            "velocity": 0.3858267716535433,
            "duration": 0.39473700000000633
          },
          {
            "name": "E4",
            "midi": 64,
            "time": 71.05266000000005,
            "velocity": 0.3858267716535433,
            "duration": 0.39473700000000633
          },
          {
            "name": "B2",
            "midi": 47,
            "time": 72.63160800000006,
            "velocity": 0.3858267716535433,
            "duration": 0.19736849999999606
          },
          {
            "name": "F#3",
            "midi": 54,
            "time": 72.82897650000005,
            "velocity": 0.3858267716535433,
            "duration": 0.19736849999999606
          },
          {
            "name": "D#3",
            "midi": 51,
            "time": 73.02634500000005,
            "velocity": 0.3858267716535433,
            "duration": 0.19736849999999606
          },
          {
            "name": "F#3",
            "midi": 54,
            "time": 73.22371350000004,
            "velocity": 0.3858267716535433,
            "duration": 0.19736849999999606
          },
          {
            "name": "B2",
            "midi": 47,
            "time": 73.42108200000004,
            "velocity": 0.3858267716535433,
            "duration": 0.19736849999999606
          },
          {
            "name": "F#3",
            "midi": 54,
            "time": 73.61845050000004,
            "velocity": 0.3858267716535433,
            "duration": 0.19736849999999606
          },
          {
            "name": "D#3",
            "midi": 51,
            "time": 73.81581900000003,
            "velocity": 0.3858267716535433,
            "duration": 0.19736849999999606
          },
          {
            "name": "F#3",
            "midi": 54,
            "time": 74.01318750000003,
            "velocity": 0.3858267716535433,
            "duration": 0.19736849999999606
          },
          {
            "name": "B2",
            "midi": 47,
            "time": 74.21055600000003,
            "velocity": 0.3858267716535433,
            "duration": 0.19736849999999606
          },
          {
            "name": "F#3",
            "midi": 54,
            "time": 74.40792450000002,
            "velocity": 0.3858267716535433,
            "duration": 0.19736849999999606
          },
          {
            "name": "D#3",
            "midi": 51,
            "time": 74.60529300000002,
            "velocity": 0.3858267716535433,
            "duration": 0.19736849999999606
          },
          {
            "name": "F#3",
            "midi": 54,
            "time": 74.80266150000001,
            "velocity": 0.3858267716535433,
            "duration": 0.19736849999999606
          },
          {
            "name": "B2",
            "midi": 47,
            "time": 75.00003000000001,
            "velocity": 0.3858267716535433,
            "duration": 0.19736849999999606
          },
          {
            "name": "F#3",
            "midi": 54,
            "time": 75.1973985,
            "velocity": 0.3858267716535433,
            "duration": 0.19736849999999606
          },
          {
            "name": "D#3",
            "midi": 51,
            "time": 75.394767,
            "velocity": 0.3858267716535433,
            "duration": 0.19736849999999606
          },
          {
            "name": "F#3",
            "midi": 54,
            "time": 75.5921355,
            "velocity": 0.3858267716535433,
            "duration": 0.19736849999999606
          },
          {
            "name": "C#3",
            "midi": 49,
            "time": 75.789504,
            "velocity": 0.3858267716535433,
            "duration": 0.19736849999999606
          },
          {
            "name": "A#3",
            "midi": 58,
            "time": 75.98687249999999,
            "velocity": 0.3858267716535433,
            "duration": 0.19736849999999606
          },
          {
            "name": "E3",
            "midi": 52,
            "time": 76.18424099999999,
            "velocity": 0.3858267716535433,
            "duration": 0.19736849999999606
          },
          {
            "name": "A#3",
            "midi": 58,
            "time": 76.38160949999998,
            "velocity": 0.3858267716535433,
            "duration": 0.19736849999999606
          },
          {
            "name": "C#3",
            "midi": 49,
            "time": 76.57897799999998,
            "velocity": 0.3858267716535433,
            "duration": 0.19736849999999606
          },
          {
            "name": "A#3",
            "midi": 58,
            "time": 76.77634649999997,
            "velocity": 0.3858267716535433,
            "duration": 0.19736849999999606
          },
          {
            "name": "E3",
            "midi": 52,
            "time": 76.97371499999997,
            "velocity": 0.3858267716535433,
            "duration": 0.19736849999999606
          },
          {
            "name": "A#3",
            "midi": 58,
            "time": 77.17108349999997,
            "velocity": 0.3858267716535433,
            "duration": 0.19736849999999606
          },
          {
            "name": "C#3",
            "midi": 49,
            "time": 77.36845199999996,
            "velocity": 0.3858267716535433,
            "duration": 0.19736849999999606
          },
          {
            "name": "A#3",
            "midi": 58,
            "time": 77.56582049999996,
            "velocity": 0.3858267716535433,
            "duration": 0.19736849999999606
          },
          {
            "name": "E3",
            "midi": 52,
            "time": 77.76318899999995,
            "velocity": 0.3858267716535433,
            "duration": 0.19736849999999606
          },
          {
            "name": "A#3",
            "midi": 58,
            "time": 77.96055749999995,
            "velocity": 0.3858267716535433,
            "duration": 0.19736849999999606
          },
          {
            "name": "C#3",
            "midi": 49,
            "time": 78.15792599999995,
            "velocity": 0.3858267716535433,
            "duration": 0.19736849999999606
          },
          {
            "name": "A#3",
            "midi": 58,
            "time": 78.35529449999994,
            "velocity": 0.3858267716535433,
            "duration": 0.19736849999999606
          },
          {
            "name": "E3",
            "midi": 52,
            "time": 78.55266299999994,
            "velocity": 0.3858267716535433,
            "duration": 0.19736849999999606
          },
          {
            "name": "A#3",
            "midi": 58,
            "time": 78.75003149999993,
            "velocity": 0.3858267716535433,
            "duration": 0.19736849999999606
          },
          {
            "name": "D#3",
            "midi": 51,
            "time": 78.94739999999993,
            "velocity": 0.3858267716535433,
            "duration": 0.19736849999999606
          },
          {
            "name": "B3",
            "midi": 59,
            "time": 79.14476849999993,
            "velocity": 0.3858267716535433,
            "duration": 0.19736849999999606
          },
          {
            "name": "F#3",
            "midi": 54,
            "time": 79.34213699999992,
            "velocity": 0.3858267716535433,
            "duration": 0.19736849999999606
          },
          {
            "name": "B3",
            "midi": 59,
            "time": 79.53950549999992,
            "velocity": 0.3858267716535433,
            "duration": 0.19736849999999606
          },
          {
            "name": "E3",
            "midi": 52,
            "time": 79.73687399999991,
            "velocity": 0.3858267716535433,
            "duration": 0.19736849999999606
          },
          {
            "name": "A#3",
            "midi": 58,
            "time": 79.93424249999991,
            "velocity": 0.3858267716535433,
            "duration": 0.19736849999999606
          },
          {
            "name": "F#3",
            "midi": 54,
            "time": 80.13161099999991,
            "velocity": 0.3858267716535433,
            "duration": 0.19736849999999606
          },
          {
            "name": "A#3",
            "midi": 58,
            "time": 80.3289794999999,
            "velocity": 0.3858267716535433,
            "duration": 0.19736849999999606
          },
          {
            "name": "D#3",
            "midi": 51,
            "time": 80.5263479999999,
            "velocity": 0.3858267716535433,
            "duration": 0.19736849999999606
          },
          {
            "name": "B3",
            "midi": 59,
            "time": 80.7237164999999,
            "velocity": 0.3858267716535433,
            "duration": 0.19736849999999606
          },
          {
            "name": "F#3",
            "midi": 54,
            "time": 80.92108499999989,
            "velocity": 0.3858267716535433,
            "duration": 0.19736849999999606
          },
          {
            "name": "B3",
            "midi": 59,
            "time": 81.11845349999989,
            "velocity": 0.3858267716535433,
            "duration": 0.19736849999999606
          },
          {
            "name": "E3",
            "midi": 52,
            "time": 81.31582199999988,
            "velocity": 0.3858267716535433,
            "duration": 0.19736849999999606
          },
          {
            "name": "A#3",
            "midi": 58,
            "time": 81.51319049999988,
            "velocity": 0.3858267716535433,
            "duration": 0.19736849999999606
          },
          {
            "name": "F#3",
            "midi": 54,
            "time": 81.71055899999988,
            "velocity": 0.3858267716535433,
            "duration": 0.19736849999999606
          },
          {
            "name": "A#3",
            "midi": 58,
            "time": 81.90792749999987,
            "velocity": 0.3858267716535433,
            "duration": 0.19736849999999606
          },
          {
            "name": "D#3",
            "midi": 51,
            "time": 82.10529599999987,
            "velocity": 0.3858267716535433,
            "duration": 0.19736849999999606
          },
          {
            "name": "B3",
            "midi": 59,
            "time": 82.30266449999986,
            "velocity": 0.3858267716535433,
            "duration": 0.19736849999999606
          },
          {
            "name": "F#3",
            "midi": 54,
            "time": 82.50003299999986,
            "velocity": 0.3858267716535433,
            "duration": 0.19736849999999606
          },
          {
            "name": "B3",
            "midi": 59,
            "time": 82.69740149999986,
            "velocity": 0.3858267716535433,
            "duration": 0.19736849999999606
          },
          {
            "name": "E3",
            "midi": 52,
            "time": 82.89476999999985,
            "velocity": 0.3858267716535433,
            "duration": 0.19736849999999606
          },
          {
            "name": "B3",
            "midi": 59,
            "time": 83.09213849999985,
            "velocity": 0.3858267716535433,
            "duration": 0.19736849999999606
          },
          {
            "name": "G#3",
            "midi": 56,
            "time": 83.28950699999984,
            "velocity": 0.3858267716535433,
            "duration": 0.19736849999999606
          },
          {
            "name": "B3",
            "midi": 59,
            "time": 83.48687549999984,
            "velocity": 0.3858267716535433,
            "duration": 0.19736849999999606
          },
          {
            "name": "F#3",
            "midi": 54,
            "time": 83.68424399999984,
            "velocity": 0.3858267716535433,
            "duration": 0.19736849999999606
          },
          {
            "name": "D#4",
            "midi": 63,
            "time": 83.88161249999983,
            "velocity": 0.3858267716535433,
            "duration": 0.19736849999999606
          },
          {
            "name": "B3",
            "midi": 59,
            "time": 84.07898099999983,
            "velocity": 0.3858267716535433,
            "duration": 0.19736849999999606
          },
          {
            "name": "D#4",
            "midi": 63,
            "time": 84.27634949999982,
            "velocity": 0.3858267716535433,
            "duration": 0.19736849999999606
          },
          {
            "name": "F#3",
            "midi": 54,
            "time": 84.47371799999982,
            "velocity": 0.3858267716535433,
            "duration": 0.19736849999999606
          },
          {
            "name": "E4",
            "midi": 64,
            "time": 84.67108649999982,
            "velocity": 0.3858267716535433,
            "duration": 0.19736849999999606
          },
          {
            "name": "C#4",
            "midi": 61,
            "time": 84.86845499999981,
            "velocity": 0.3858267716535433,
            "duration": 0.19736849999999606
          },
          {
            "name": "E4",
            "midi": 64,
            "time": 85.06582349999981,
            "velocity": 0.3858267716535433,
            "duration": 0.19736849999999606
          },
          {
            "name": "B2",
            "midi": 47,
            "time": 85.2631919999998,
            "velocity": 0.3858267716535433,
            "duration": 0.19736849999999606
          },
          {
            "name": "F#3",
            "midi": 54,
            "time": 85.4605604999998,
            "velocity": 0.3858267716535433,
            "duration": 0.19736849999999606
          },
          {
            "name": "D#3",
            "midi": 51,
            "time": 85.6579289999998,
            "velocity": 0.3858267716535433,
            "duration": 0.19736849999999606
          },
          {
            "name": "F#3",
            "midi": 54,
            "time": 85.85529749999979,
            "velocity": 0.3858267716535433,
            "duration": 0.19736849999999606
          },
          {
            "name": "B2",
            "midi": 47,
            "time": 86.05266599999979,
            "velocity": 0.4881889763779528,
            "duration": 0.19736849999999606
          },
          {
            "name": "F#3",
            "midi": 54,
            "time": 86.25003449999978,
            "velocity": 0.4881889763779528,
            "duration": 0.19736849999999606
          },
          {
            "name": "D#3",
            "midi": 51,
            "time": 86.44740299999978,
            "velocity": 0.4881889763779528,
            "duration": 0.19736849999999606
          },
          {
            "name": "F#3",
            "midi": 54,
            "time": 86.64477149999978,
            "velocity": 0.4881889763779528,
            "duration": 0.19736849999999606
          },
          {
            "name": "B2",
            "midi": 47,
            "time": 86.84213999999977,
            "velocity": 0.4881889763779528,
            "duration": 0.19736849999999606
          },
          {
            "name": "F#3",
            "midi": 54,
            "time": 87.03950849999977,
            "velocity": 0.4881889763779528,
            "duration": 0.19736849999999606
          },
          {
            "name": "D#3",
            "midi": 51,
            "time": 87.23687699999977,
            "velocity": 0.4881889763779528,
            "duration": 0.19736849999999606
          },
          {
            "name": "F#3",
            "midi": 54,
            "time": 87.43424549999976,
            "velocity": 0.4881889763779528,
            "duration": 0.19736849999999606
          },
          {
            "name": "B2",
            "midi": 47,
            "time": 87.63161399999976,
            "velocity": 0.4881889763779528,
            "duration": 0.19736849999999606
          },
          {
            "name": "F#3",
            "midi": 54,
            "time": 87.82898249999975,
            "velocity": 0.4881889763779528,
            "duration": 0.19736849999999606
          },
          {
            "name": "D#3",
            "midi": 51,
            "time": 88.02635099999975,
            "velocity": 0.4881889763779528,
            "duration": 0.19736849999999606
          },
          {
            "name": "F#3",
            "midi": 54,
            "time": 88.22371949999975,
            "velocity": 0.4881889763779528,
            "duration": 0.19736849999999606
          },
          {
            "name": "C#3",
            "midi": 49,
            "time": 88.42108799999974,
            "velocity": 0.4881889763779528,
            "duration": 0.19736849999999606
          },
          {
            "name": "A#3",
            "midi": 58,
            "time": 88.61845649999974,
            "velocity": 0.4881889763779528,
            "duration": 0.19736849999999606
          },
          {
            "name": "E3",
            "midi": 52,
            "time": 88.81582499999973,
            "velocity": 0.4881889763779528,
            "duration": 0.19736849999999606
          },
          {
            "name": "A#3",
            "midi": 58,
            "time": 89.01319349999973,
            "velocity": 0.4881889763779528,
            "duration": 0.19736849999999606
          },
          {
            "name": "C#3",
            "midi": 49,
            "time": 89.21056199999973,
            "velocity": 0.4881889763779528,
            "duration": 0.19736849999999606
          },
          {
            "name": "A#3",
            "midi": 58,
            "time": 89.40793049999972,
            "velocity": 0.4881889763779528,
            "duration": 0.19736849999999606
          },
          {
            "name": "E3",
            "midi": 52,
            "time": 89.60529899999972,
            "velocity": 0.4881889763779528,
            "duration": 0.19736849999999606
          },
          {
            "name": "A#3",
            "midi": 58,
            "time": 89.80266749999971,
            "velocity": 0.4881889763779528,
            "duration": 0.19736849999999606
          },
          {
            "name": "C#3",
            "midi": 49,
            "time": 90.00003599999971,
            "velocity": 0.4881889763779528,
            "duration": 0.19736849999999606
          },
          {
            "name": "A#3",
            "midi": 58,
            "time": 90.1974044999997,
            "velocity": 0.4881889763779528,
            "duration": 0.19736849999999606
          },
          {
            "name": "E3",
            "midi": 52,
            "time": 90.3947729999997,
            "velocity": 0.4881889763779528,
            "duration": 0.19736849999999606
          },
          {
            "name": "A#3",
            "midi": 58,
            "time": 90.5921414999997,
            "velocity": 0.4881889763779528,
            "duration": 0.19736849999999606
          },
          {
            "name": "C#3",
            "midi": 49,
            "time": 90.7895099999997,
            "velocity": 0.4881889763779528,
            "duration": 0.19736849999999606
          },
          {
            "name": "A#3",
            "midi": 58,
            "time": 90.98687849999969,
            "velocity": 0.4881889763779528,
            "duration": 0.19736849999999606
          },
          {
            "name": "E3",
            "midi": 52,
            "time": 91.18424699999969,
            "velocity": 0.4881889763779528,
            "duration": 0.19736849999999606
          },
          {
            "name": "A#3",
            "midi": 58,
            "time": 91.38161549999968,
            "velocity": 0.4881889763779528,
            "duration": 0.19736849999999606
          },
          {
            "name": "D#3",
            "midi": 51,
            "time": 91.57898399999968,
            "velocity": 0.4881889763779528,
            "duration": 0.19736849999999606
          },
          {
            "name": "B3",
            "midi": 59,
            "time": 91.77635249999967,
            "velocity": 0.4881889763779528,
            "duration": 0.19736849999999606
          },
          {
            "name": "F#3",
            "midi": 54,
            "time": 91.97372099999967,
            "velocity": 0.4881889763779528,
            "duration": 0.19736849999999606
          },
          {
            "name": "B3",
            "midi": 59,
            "time": 92.17108949999967,
            "velocity": 0.4881889763779528,
            "duration": 0.19736849999999606
          },
          {
            "name": "E3",
            "midi": 52,
            "time": 92.36845799999966,
            "velocity": 0.4881889763779528,
            "duration": 0.19736849999999606
          },
          {
            "name": "A#3",
            "midi": 58,
            "time": 92.56582649999966,
            "velocity": 0.4881889763779528,
            "duration": 0.19736849999999606
          },
          {
            "name": "F#3",
            "midi": 54,
            "time": 92.76319499999966,
            "velocity": 0.4881889763779528,
            "duration": 0.19736849999999606
          },
          {
            "name": "A#3",
            "midi": 58,
            "time": 92.96056349999965,
            "velocity": 0.4881889763779528,
            "duration": 0.19736849999999606
          },
          {
            "name": "D#3",
            "midi": 51,
            "time": 93.15793199999965,
            "velocity": 0.4881889763779528,
            "duration": 0.19736849999999606
          },
          {
            "name": "B3",
            "midi": 59,
            "time": 93.35530049999964,
            "velocity": 0.4881889763779528,
            "duration": 0.19736849999999606
          },
          {
            "name": "F#3",
            "midi": 54,
            "time": 93.55266899999964,
            "velocity": 0.4881889763779528,
            "duration": 0.19736849999999606
          },
          {
            "name": "B3",
            "midi": 59,
            "time": 93.75003749999964,
            "velocity": 0.4881889763779528,
            "duration": 0.19736849999999606
          },
          {
            "name": "E3",
            "midi": 52,
            "time": 93.94740599999963,
            "velocity": 0.4881889763779528,
            "duration": 0.19736849999999606
          },
          {
            "name": "A#3",
            "midi": 58,
            "time": 94.14477449999963,
            "velocity": 0.4881889763779528,
            "duration": 0.19736849999999606
          },
          {
            "name": "F#3",
            "midi": 54,
            "time": 94.34214299999962,
            "velocity": 0.4881889763779528,
            "duration": 0.19736849999999606
          },
          {
            "name": "A#3",
            "midi": 58,
            "time": 94.53951149999962,
            "velocity": 0.4881889763779528,
            "duration": 0.19736849999999606
          },
          {
            "name": "D#3",
            "midi": 51,
            "time": 94.73687999999962,
            "velocity": 0.4881889763779528,
            "duration": 0.19736849999999606
          },
          {
            "name": "B3",
            "midi": 59,
            "time": 94.93424849999961,
            "velocity": 0.4881889763779528,
            "duration": 0.19736849999999606
          },
          {
            "name": "F#3",
            "midi": 54,
            "time": 95.13161699999961,
            "velocity": 0.4881889763779528,
            "duration": 0.19736849999999606
          },
          {
            "name": "B3",
            "midi": 59,
            "time": 95.3289854999996,
            "velocity": 0.4881889763779528,
            "duration": 0.19736849999999606
          },
          {
            "name": "E3",
            "midi": 52,
            "time": 95.5263539999996,
            "velocity": 0.4881889763779528,
            "duration": 0.19736849999999606
          },
          {
            "name": "B3",
            "midi": 59,
            "time": 95.7237224999996,
            "velocity": 0.4881889763779528,
            "duration": 0.19736849999999606
          },
          {
            "name": "G#3",
            "midi": 56,
            "time": 95.92109099999959,
            "velocity": 0.4881889763779528,
            "duration": 0.19736849999999606
          },
          {
            "name": "B3",
            "midi": 59,
            "time": 96.11845949999959,
            "velocity": 0.4881889763779528,
            "duration": 0.19736849999999606
          },
          {
            "name": "F#3",
            "midi": 54,
            "time": 96.31582799999958,
            "velocity": 0.4881889763779528,
            "duration": 0.19736849999999606
          },
          {
            "name": "D#4",
            "midi": 63,
            "time": 96.51319649999958,
            "velocity": 0.4881889763779528,
            "duration": 0.19736849999999606
          },
          {
            "name": "B3",
            "midi": 59,
            "time": 96.71056499999958,
            "velocity": 0.4881889763779528,
            "duration": 0.19736849999999606
          },
          {
            "name": "D#4",
            "midi": 63,
            "time": 96.90793349999957,
            "velocity": 0.4881889763779528,
            "duration": 0.19736849999999606
          },
          {
            "name": "F#3",
            "midi": 54,
            "time": 97.10530199999957,
            "velocity": 0.4881889763779528,
            "duration": 0.19736849999999606
          },
          {
            "name": "E4",
            "midi": 64,
            "time": 97.30267049999956,
            "velocity": 0.4881889763779528,
            "duration": 0.19736849999999606
          },
          {
            "name": "C#4",
            "midi": 61,
            "time": 97.50003899999956,
            "velocity": 0.4881889763779528,
            "duration": 0.19736849999999606
          },
          {
            "name": "E4",
            "midi": 64,
            "time": 97.69740749999956,
            "velocity": 0.4881889763779528,
            "duration": 0.19736849999999606
          },
          {
            "name": "D#3",
            "midi": 51,
            "time": 97.89477599999955,
            "velocity": 0.4881889763779528,
            "duration": 0.19736849999999606
          },
          {
            "name": "B3",
            "midi": 59,
            "time": 98.09214449999955,
            "velocity": 0.4881889763779528,
            "duration": 0.19736849999999606
          },
          {
            "name": "F#3",
            "midi": 54,
            "time": 98.28951299999954,
            "velocity": 0.4881889763779528,
            "duration": 0.19736849999999606
          },
          {
            "name": "B3",
            "midi": 59,
            "time": 98.48688149999954,
            "velocity": 0.4881889763779528,
            "duration": 0.19736849999999606
          },
          {
            "name": "E3",
            "midi": 52,
            "time": 98.68424999999954,
            "velocity": 0.4881889763779528,
            "duration": 0.19736849999999606
          },
          {
            "name": "B3",
            "midi": 59,
            "time": 98.88161849999953,
            "velocity": 0.4881889763779528,
            "duration": 0.19736849999999606
          },
          {
            "name": "G#3",
            "midi": 56,
            "time": 99.07898699999953,
            "velocity": 0.4881889763779528,
            "duration": 0.19736849999999606
          },
          {
            "name": "B3",
            "midi": 59,
            "time": 99.27635549999953,
            "velocity": 0.4881889763779528,
            "duration": 0.19736849999999606
          },
          {
            "name": "F#3",
            "midi": 54,
            "time": 99.47372399999952,
            "velocity": 0.4881889763779528,
            "duration": 0.19736849999999606
          },
          {
            "name": "D#4",
            "midi": 63,
            "time": 99.67109249999952,
            "velocity": 0.4881889763779528,
            "duration": 0.19736849999999606
          },
          {
            "name": "B3",
            "midi": 59,
            "time": 99.86846099999951,
            "velocity": 0.4881889763779528,
            "duration": 0.19736849999999606
          },
          {
            "name": "D#4",
            "midi": 63,
            "time": 100.06582949999951,
            "velocity": 0.4881889763779528,
            "duration": 0.19736849999999606
          },
          {
            "name": "F#3",
            "midi": 54,
            "time": 100.2631979999995,
            "velocity": 0.4881889763779528,
            "duration": 0.19736849999999606
          },
          {
            "name": "E4",
            "midi": 64,
            "time": 100.4605664999995,
            "velocity": 0.4881889763779528,
            "duration": 0.19736849999999606
          },
          {
            "name": "C#4",
            "midi": 61,
            "time": 100.6579349999995,
            "velocity": 0.4881889763779528,
            "duration": 0.19736849999999606
          },
          {
            "name": "E4",
            "midi": 64,
            "time": 100.8553034999995,
            "velocity": 0.4881889763779528,
            "duration": 0.19736849999999606
          },
          {
            "name": "B3",
            "midi": 59,
            "time": 101.05267199999949,
            "velocity": 0.5905511811023622,
            "duration": 0.7894739999999985
          },
          {
            "name": "D#4",
            "midi": 63,
            "time": 101.05267199999949,
            "velocity": 0.5905511811023622,
            "duration": 0.7894739999999985
          },
          {
            "name": "B2",
            "midi": 47,
            "time": 101.84214599999949,
            "velocity": 0.5905511811023622,
            "duration": 0.39473700000000633
          },
          {
            "name": "D#3",
            "midi": 51,
            "time": 101.84214599999949,
            "velocity": 0.5905511811023622,
            "duration": 0.39473700000000633
          },
          {
            "name": "F#3",
            "midi": 54,
            "time": 101.84214599999949,
            "velocity": 0.5905511811023622,
            "duration": 0.39473700000000633
          },
          {
            "name": "B3",
            "midi": 59,
            "time": 101.84214599999949,
            "velocity": 0.5905511811023622,
            "duration": 0.39473700000000633
          },
          {
            "name": "B2",
            "midi": 47,
            "time": 102.2368829999995,
            "velocity": 0.5905511811023622,
            "duration": 0.39473700000000633
          },
          {
            "name": "D#3",
            "midi": 51,
            "time": 102.2368829999995,
            "velocity": 0.5905511811023622,
            "duration": 0.39473700000000633
          },
          {
            "name": "F#3",
            "midi": 54,
            "time": 102.2368829999995,
            "velocity": 0.5905511811023622,
            "duration": 0.39473700000000633
          },
          {
            "name": "B3",
            "midi": 59,
            "time": 102.2368829999995,
            "velocity": 0.5905511811023622,
            "duration": 0.39473700000000633
          },
          {
            "name": "B2",
            "midi": 47,
            "time": 102.6316199999995,
            "velocity": 0.7952755905511811,
            "duration": 1.578947999999997
          },
          {
            "name": "E3",
            "midi": 52,
            "time": 102.6316199999995,
            "velocity": 0.7952755905511811,
            "duration": 1.578947999999997
          },
          {
            "name": "F#3",
            "midi": 54,
            "time": 102.6316199999995,
            "velocity": 0.7952755905511811,
            "duration": 1.578947999999997
          },
          {
            "name": "A#3",
            "midi": 58,
            "time": 102.6316199999995,
            "velocity": 0.7952755905511811,
            "duration": 1.578947999999997
          },
          {
            "name": "B2",
            "midi": 47,
            "time": 104.2105679999995,
            "velocity": 0.5905511811023622,
            "duration": 0.7894739999999985
          },
          {
            "name": "D#3",
            "midi": 51,
            "time": 104.2105679999995,
            "velocity": 0.5905511811023622,
            "duration": 0.7894739999999985
          },
          {
            "name": "F#3",
            "midi": 54,
            "time": 104.2105679999995,
            "velocity": 0.5905511811023622,
            "duration": 0.7894739999999985
          },
          {
            "name": "B3",
            "midi": 59,
            "time": 104.2105679999995,
            "velocity": 0.5905511811023622,
            "duration": 0.7894739999999985
          },
          {
            "name": "B2",
            "midi": 47,
            "time": 105.0000419999995,
            "velocity": 0.5905511811023622,
            "duration": 0.39473700000000633
          },
          {
            "name": "D#3",
            "midi": 51,
            "time": 105.0000419999995,
            "velocity": 0.5905511811023622,
            "duration": 0.39473700000000633
          },
          {
            "name": "F#3",
            "midi": 54,
            "time": 105.0000419999995,
            "velocity": 0.5905511811023622,
            "duration": 0.39473700000000633
          },
          {
            "name": "B3",
            "midi": 59,
            "time": 105.0000419999995,
            "velocity": 0.5905511811023622,
            "duration": 0.39473700000000633
          },
          {
            "name": "B2",
            "midi": 47,
            "time": 105.3947789999995,
            "velocity": 0.5905511811023622,
            "duration": 0.39473700000000633
          },
          {
            "name": "D#3",
            "midi": 51,
            "time": 105.3947789999995,
            "velocity": 0.5905511811023622,
            "duration": 0.39473700000000633
          },
          {
            "name": "F#3",
            "midi": 54,
            "time": 105.3947789999995,
            "velocity": 0.5905511811023622,
            "duration": 0.39473700000000633
          },
          {
            "name": "B3",
            "midi": 59,
            "time": 105.3947789999995,
            "velocity": 0.5905511811023622,
            "duration": 0.39473700000000633
          },
          {
            "name": "B2",
            "midi": 47,
            "time": 105.78951599999951,
            "velocity": 0.7952755905511811,
            "duration": 1.578947999999997
          },
          {
            "name": "E3",
            "midi": 52,
            "time": 105.78951599999951,
            "velocity": 0.7952755905511811,
            "duration": 1.578947999999997
          },
          {
            "name": "F#3",
            "midi": 54,
            "time": 105.78951599999951,
            "velocity": 0.7952755905511811,
            "duration": 1.578947999999997
          },
          {
            "name": "A#3",
            "midi": 58,
            "time": 105.78951599999951,
            "velocity": 0.7952755905511811,
            "duration": 1.578947999999997
          },
          {
            "name": "B2",
            "midi": 47,
            "time": 107.3684639999995,
            "velocity": 0.5905511811023622,
            "duration": 0.39473700000000633
          },
          {
            "name": "D#3",
            "midi": 51,
            "time": 107.3684639999995,
            "velocity": 0.5905511811023622,
            "duration": 0.39473700000000633
          },
          {
            "name": "C#3",
            "midi": 49,
            "time": 107.76320099999951,
            "velocity": 0.5905511811023622,
            "duration": 0.39473700000000633
          },
          {
            "name": "E3",
            "midi": 52,
            "time": 107.76320099999951,
            "velocity": 0.5905511811023622,
            "duration": 0.39473700000000633
          },
          {
            "name": "B2",
            "midi": 47,
            "time": 108.15793799999952,
            "velocity": 0.5905511811023622,
            "duration": 0.39473700000000633
          },
          {
            "name": "D#3",
            "midi": 51,
            "time": 108.15793799999952,
            "velocity": 0.5905511811023622,
            "duration": 0.39473700000000633
          },
          {
            "name": "C#3",
            "midi": 49,
            "time": 108.55267499999952,
            "velocity": 0.5905511811023622,
            "duration": 0.39473700000000633
          },
          {
            "name": "E3",
            "midi": 52,
            "time": 108.55267499999952,
            "velocity": 0.5905511811023622,
            "duration": 0.39473700000000633
          },
          {
            "name": "B2",
            "midi": 47,
            "time": 108.94741199999953,
            "velocity": 0.5905511811023622,
            "duration": 0.39473700000000633
          },
          {
            "name": "D#3",
            "midi": 51,
            "time": 108.94741199999953,
            "velocity": 0.5905511811023622,
            "duration": 0.39473700000000633
          },
          {
            "name": "C#3",
            "midi": 49,
            "time": 109.34214899999954,
            "velocity": 0.5905511811023622,
            "duration": 0.39473700000000633
          },
          {
            "name": "E3",
            "midi": 52,
            "time": 109.34214899999954,
            "velocity": 0.5905511811023622,
            "duration": 0.39473700000000633
          },
          {
            "name": "B2",
            "midi": 47,
            "time": 109.73688599999954,
            "velocity": 0.5905511811023622,
            "duration": 0.39473700000000633
          },
          {
            "name": "D#3",
            "midi": 51,
            "time": 109.73688599999954,
            "velocity": 0.5905511811023622,
            "duration": 0.39473700000000633
          },
          {
            "name": "C#3",
            "midi": 49,
            "time": 110.13162299999955,
            "velocity": 0.5905511811023622,
            "duration": 0.39473700000000633
          },
          {
            "name": "E3",
            "midi": 52,
            "time": 110.13162299999955,
            "velocity": 0.5905511811023622,
            "duration": 0.39473700000000633
          },
          {
            "name": "B2",
            "midi": 47,
            "time": 110.52635999999956,
            "velocity": 0.5905511811023622,
            "duration": 0.39473700000000633
          },
          {
            "name": "D#3",
            "midi": 51,
            "time": 110.52635999999956,
            "velocity": 0.5905511811023622,
            "duration": 0.39473700000000633
          },
          {
            "name": "C#5",
            "midi": 73,
            "time": 110.92109699999956,
            "velocity": 0.5905511811023622,
            "duration": 0.39473700000000633
          },
          {
            "name": "E5",
            "midi": 76,
            "time": 110.92109699999956,
            "velocity": 0.5905511811023622,
            "duration": 0.39473700000000633
          },
          {
            "name": "B4",
            "midi": 71,
            "time": 111.31583399999957,
            "velocity": 0.5905511811023622,
            "duration": 0.39473700000000633
          },
          {
            "name": "D#5",
            "midi": 75,
            "time": 111.31583399999957,
            "velocity": 0.5905511811023622,
            "duration": 0.39473700000000633
          },
          {
            "name": "C#5",
            "midi": 73,
            "time": 111.71057099999958,
            "velocity": 0.5905511811023622,
            "duration": 0.39473700000000633
          },
          {
            "name": "E5",
            "midi": 76,
            "time": 111.71057099999958,
            "velocity": 0.5905511811023622,
            "duration": 0.39473700000000633
          },
          {
            "name": "B4",
            "midi": 71,
            "time": 112.10530799999958,
            "velocity": 0.5905511811023622,
            "duration": 0.39473700000000633
          },
          {
            "name": "D#5",
            "midi": 75,
            "time": 112.10530799999958,
            "velocity": 0.5905511811023622,
            "duration": 0.39473700000000633
          },
          {
            "name": "C#5",
            "midi": 73,
            "time": 112.50004499999959,
            "velocity": 0.5905511811023622,
            "duration": 0.39473700000000633
          },
          {
            "name": "E5",
            "midi": 76,
            "time": 112.50004499999959,
            "velocity": 0.5905511811023622,
            "duration": 0.39473700000000633
          },
          {
            "name": "B4",
            "midi": 71,
            "time": 112.8947819999996,
            "velocity": 0.5905511811023622,
            "duration": 0.39473700000000633
          },
          {
            "name": "D#5",
            "midi": 75,
            "time": 112.8947819999996,
            "velocity": 0.5905511811023622,
            "duration": 0.39473700000000633
          },
          {
            "name": "C#5",
            "midi": 73,
            "time": 113.2895189999996,
            "velocity": 0.5905511811023622,
            "duration": 0.39473700000000633
          },
          {
            "name": "E5",
            "midi": 76,
            "time": 113.2895189999996,
            "velocity": 0.5905511811023622,
            "duration": 0.39473700000000633
          },
          {
            "name": "B4",
            "midi": 71,
            "time": 113.6842559999996,
            "velocity": 0.5905511811023622,
            "duration": 0.7894739999999985
          },
          {
            "name": "D5",
            "midi": 74,
            "time": 113.6842559999996,
            "velocity": 0.5905511811023622,
            "duration": 0.7894739999999985
          },
          {
            "name": "B2",
            "midi": 47,
            "time": 114.4737299999996,
            "velocity": 0.5905511811023622,
            "duration": 0.39473700000000633
          },
          {
            "name": "D3",
            "midi": 50,
            "time": 114.4737299999996,
            "velocity": 0.5905511811023622,
            "duration": 0.39473700000000633
          },
          {
            "name": "F#3",
            "midi": 54,
            "time": 114.4737299999996,
            "velocity": 0.5905511811023622,
            "duration": 0.39473700000000633
          },
          {
            "name": "B3",
            "midi": 59,
            "time": 114.4737299999996,
            "velocity": 0.5905511811023622,
            "duration": 0.39473700000000633
          },
          {
            "name": "B2",
            "midi": 47,
            "time": 114.86846699999961,
            "velocity": 0.5905511811023622,
            "duration": 0.39473700000000633
          },
          {
            "name": "D3",
            "midi": 50,
            "time": 114.86846699999961,
            "velocity": 0.5905511811023622,
            "duration": 0.39473700000000633
          },
          {
            "name": "F#3",
            "midi": 54,
            "time": 114.86846699999961,
            "velocity": 0.5905511811023622,
            "duration": 0.39473700000000633
          },
          {
            "name": "B3",
            "midi": 59,
            "time": 114.86846699999961,
            "velocity": 0.5905511811023622,
            "duration": 0.39473700000000633
          },
          {
            "name": "B2",
            "midi": 47,
            "time": 115.26320399999962,
            "velocity": 0.5905511811023622,
            "duration": 1.578947999999997
          },
          {
            "name": "E3",
            "midi": 52,
            "time": 115.26320399999962,
            "velocity": 0.5905511811023622,
            "duration": 1.578947999999997
          },
          {
            "name": "F#3",
            "midi": 54,
            "time": 115.26320399999962,
            "velocity": 0.5905511811023622,
            "duration": 1.578947999999997
          },
          {
            "name": "A#3",
            "midi": 58,
            "time": 115.26320399999962,
            "velocity": 0.5905511811023622,
            "duration": 1.578947999999997
          },
          {
            "name": "B2",
            "midi": 47,
            "time": 116.84215199999961,
            "velocity": 0.5905511811023622,
            "duration": 0.7894739999999985
          },
          {
            "name": "D3",
            "midi": 50,
            "time": 116.84215199999961,
            "velocity": 0.5905511811023622,
            "duration": 0.7894739999999985
          },
          {
            "name": "F#3",
            "midi": 54,
            "time": 116.84215199999961,
            "velocity": 0.5905511811023622,
            "duration": 0.7894739999999985
          },
          {
            "name": "B3",
            "midi": 59,
            "time": 116.84215199999961,
            "velocity": 0.5905511811023622,
            "duration": 0.7894739999999985
          },
          {
            "name": "B2",
            "midi": 47,
            "time": 117.63162599999961,
            "velocity": 0.5905511811023622,
            "duration": 0.39473700000000633
          },
          {
            "name": "D3",
            "midi": 50,
            "time": 117.63162599999961,
            "velocity": 0.5905511811023622,
            "duration": 0.39473700000000633
          },
          {
            "name": "F#3",
            "midi": 54,
            "time": 117.63162599999961,
            "velocity": 0.5905511811023622,
            "duration": 0.39473700000000633
          },
          {
            "name": "B3",
            "midi": 59,
            "time": 117.63162599999961,
            "velocity": 0.5905511811023622,
            "duration": 0.39473700000000633
          },
          {
            "name": "B2",
            "midi": 47,
            "time": 118.02636299999962,
            "velocity": 0.5905511811023622,
            "duration": 0.39473700000000633
          },
          {
            "name": "D3",
            "midi": 50,
            "time": 118.02636299999962,
            "velocity": 0.5905511811023622,
            "duration": 0.39473700000000633
          },
          {
            "name": "F#3",
            "midi": 54,
            "time": 118.02636299999962,
            "velocity": 0.5905511811023622,
            "duration": 0.39473700000000633
          },
          {
            "name": "B3",
            "midi": 59,
            "time": 118.02636299999962,
            "velocity": 0.5905511811023622,
            "duration": 0.39473700000000633
          },
          {
            "name": "F#2",
            "midi": 42,
            "time": 118.42109999999963,
            "velocity": 0.5905511811023622,
            "duration": 1.578947999999997
          },
          {
            "name": "A#2",
            "midi": 46,
            "time": 118.42109999999963,
            "velocity": 0.5905511811023622,
            "duration": 1.578947999999997
          },
          {
            "name": "C#3",
            "midi": 49,
            "time": 118.42109999999963,
            "velocity": 0.5905511811023622,
            "duration": 1.578947999999997
          },
          {
            "name": "E3",
            "midi": 52,
            "time": 118.42109999999963,
            "velocity": 0.5905511811023622,
            "duration": 1.578947999999997
          },
          {
            "name": "G2",
            "midi": 43,
            "time": 120.00004799999962,
            "velocity": 0.5905511811023622,
            "duration": 0.7894739999999985
          },
          {
            "name": "B2",
            "midi": 47,
            "time": 120.00004799999962,
            "velocity": 0.5905511811023622,
            "duration": 0.7894739999999985
          },
          {
            "name": "D3",
            "midi": 50,
            "time": 120.00004799999962,
            "velocity": 0.5905511811023622,
            "duration": 0.7894739999999985
          },
          {
            "name": "G2",
            "midi": 43,
            "time": 120.78952199999962,
            "velocity": 0.5905511811023622,
            "duration": 0.39473700000000633
          },
          {
            "name": "B2",
            "midi": 47,
            "time": 120.78952199999962,
            "velocity": 0.5905511811023622,
            "duration": 0.39473700000000633
          },
          {
            "name": "D3",
            "midi": 50,
            "time": 120.78952199999962,
            "velocity": 0.5905511811023622,
            "duration": 0.39473700000000633
          },
          {
            "name": "G3",
            "midi": 55,
            "time": 120.78952199999962,
            "velocity": 0.5905511811023622,
            "duration": 0.39473700000000633
          },
          {
            "name": "G2",
            "midi": 43,
            "time": 121.18425899999963,
            "velocity": 0.5905511811023622,
            "duration": 0.39473700000000633
          },
          {
            "name": "B2",
            "midi": 47,
            "time": 121.18425899999963,
            "velocity": 0.5905511811023622,
            "duration": 0.39473700000000633
          },
          {
            "name": "D3",
            "midi": 50,
            "time": 121.18425899999963,
            "velocity": 0.5905511811023622,
            "duration": 0.39473700000000633
          },
          {
            "name": "G3",
            "midi": 55,
            "time": 121.18425899999963,
            "velocity": 0.5905511811023622,
            "duration": 0.39473700000000633
          },
          {
            "name": "G2",
            "midi": 43,
            "time": 121.57899599999963,
            "velocity": 0.5905511811023622,
            "duration": 1.578947999999997
          },
          {
            "name": "C3",
            "midi": 48,
            "time": 121.57899599999963,
            "velocity": 0.5905511811023622,
            "duration": 1.578947999999997
          },
          {
            "name": "D3",
            "midi": 50,
            "time": 121.57899599999963,
            "velocity": 0.5905511811023622,
            "duration": 1.578947999999997
          },
          {
            "name": "F#3",
            "midi": 54,
            "time": 121.57899599999963,
            "velocity": 0.5905511811023622,
            "duration": 1.578947999999997
          },
          {
            "name": "G2",
            "midi": 43,
            "time": 123.15794399999963,
            "velocity": 0.5905511811023622,
            "duration": 0.7894739999999985
          },
          {
            "name": "B2",
            "midi": 47,
            "time": 123.15794399999963,
            "velocity": 0.5905511811023622,
            "duration": 0.7894739999999985
          },
          {
            "name": "D3",
            "midi": 50,
            "time": 123.15794399999963,
            "velocity": 0.5905511811023622,
            "duration": 0.7894739999999985
          },
          {
            "name": "G3",
            "midi": 55,
            "time": 123.15794399999963,
            "velocity": 0.5905511811023622,
            "duration": 0.7894739999999985
          },
          {
            "name": "G2",
            "midi": 43,
            "time": 123.94741799999963,
            "velocity": 0.5905511811023622,
            "duration": 0.39473700000000633
          },
          {
            "name": "B2",
            "midi": 47,
            "time": 123.94741799999963,
            "velocity": 0.5905511811023622,
            "duration": 0.39473700000000633
          },
          {
            "name": "D3",
            "midi": 50,
            "time": 123.94741799999963,
            "velocity": 0.5905511811023622,
            "duration": 0.39473700000000633
          },
          {
            "name": "G3",
            "midi": 55,
            "time": 123.94741799999963,
            "velocity": 0.5905511811023622,
            "duration": 0.39473700000000633
          },
          {
            "name": "G2",
            "midi": 43,
            "time": 124.34215499999964,
            "velocity": 0.5905511811023622,
            "duration": 0.39473700000000633
          },
          {
            "name": "B2",
            "midi": 47,
            "time": 124.34215499999964,
            "velocity": 0.5905511811023622,
            "duration": 0.39473700000000633
          },
          {
            "name": "D3",
            "midi": 50,
            "time": 124.34215499999964,
            "velocity": 0.5905511811023622,
            "duration": 0.39473700000000633
          },
          {
            "name": "G3",
            "midi": 55,
            "time": 124.34215499999964,
            "velocity": 0.5905511811023622,
            "duration": 0.39473700000000633
          },
          {
            "name": "G2",
            "midi": 43,
            "time": 124.73689199999964,
            "velocity": 0.5905511811023622,
            "duration": 1.578947999999997
          },
          {
            "name": "C3",
            "midi": 48,
            "time": 124.73689199999964,
            "velocity": 0.5905511811023622,
            "duration": 1.578947999999997
          },
          {
            "name": "D3",
            "midi": 50,
            "time": 124.73689199999964,
            "velocity": 0.5905511811023622,
            "duration": 1.578947999999997
          },
          {
            "name": "F#3",
            "midi": 54,
            "time": 124.73689199999964,
            "velocity": 0.5905511811023622,
            "duration": 1.578947999999997
          },
          {
            "name": "G2",
            "midi": 43,
            "time": 126.31583999999964,
            "velocity": 0.5905511811023622,
            "duration": 0.39473700000000633
          },
          {
            "name": "B2",
            "midi": 47,
            "time": 126.31583999999964,
            "velocity": 0.5905511811023622,
            "duration": 0.39473700000000633
          },
          {
            "name": "A2",
            "midi": 45,
            "time": 126.71057699999965,
            "velocity": 0.5905511811023622,
            "duration": 0.39473700000000633
          },
          {
            "name": "C3",
            "midi": 48,
            "time": 126.71057699999965,
            "velocity": 0.5905511811023622,
            "duration": 0.39473700000000633
          },
          {
            "name": "G2",
            "midi": 43,
            "time": 127.10531399999965,
            "velocity": 0.5905511811023622,
            "duration": 0.39473700000000633
          },
          {
            "name": "B2",
            "midi": 47,
            "time": 127.10531399999965,
            "velocity": 0.5905511811023622,
            "duration": 0.39473700000000633
          },
          {
            "name": "A2",
            "midi": 45,
            "time": 127.50005099999966,
            "velocity": 0.5905511811023622,
            "duration": 0.39473700000000633
          },
          {
            "name": "C3",
            "midi": 48,
            "time": 127.50005099999966,
            "velocity": 0.5905511811023622,
            "duration": 0.39473700000000633
          },
          {
            "name": "G2",
            "midi": 43,
            "time": 127.89478799999966,
            "velocity": 0.5905511811023622,
            "duration": 0.3947369999999921
          },
          {
            "name": "B2",
            "midi": 47,
            "time": 127.89478799999966,
            "velocity": 0.5905511811023622,
            "duration": 0.3947369999999921
          },
          {
            "name": "B2",
            "midi": 47,
            "time": 128.28952499999966,
            "velocity": 0.5905511811023622,
            "duration": 0.3947369999999921
          },
          {
            "name": "D3",
            "midi": 50,
            "time": 128.28952499999966,
            "velocity": 0.5905511811023622,
            "duration": 0.3947369999999921
          },
          {
            "name": "A2",
            "midi": 45,
            "time": 128.68426199999965,
            "velocity": 0.5905511811023622,
            "duration": 0.3947369999999921
          },
          {
            "name": "C#3",
            "midi": 49,
            "time": 128.68426199999965,
            "velocity": 0.5905511811023622,
            "duration": 0.3947369999999921
          },
          {
            "name": "B2",
            "midi": 47,
            "time": 129.07899899999964,
            "velocity": 0.5905511811023622,
            "duration": 0.3947369999999921
          },
          {
            "name": "D3",
            "midi": 50,
            "time": 129.07899899999964,
            "velocity": 0.5905511811023622,
            "duration": 0.3947369999999921
          },
          {
            "name": "A2",
            "midi": 45,
            "time": 129.47373599999963,
            "velocity": 0.5905511811023622,
            "duration": 0.3947369999999921
          },
          {
            "name": "C#3",
            "midi": 49,
            "time": 129.47373599999963,
            "velocity": 0.5905511811023622,
            "duration": 0.3947369999999921
          },
          {
            "name": "C#3",
            "midi": 49,
            "time": 129.86847299999963,
            "velocity": 0.5905511811023622,
            "duration": 0.3947369999999921
          },
          {
            "name": "E3",
            "midi": 52,
            "time": 129.86847299999963,
            "velocity": 0.5905511811023622,
            "duration": 0.3947369999999921
          },
          {
            "name": "B2",
            "midi": 47,
            "time": 130.26320999999962,
            "velocity": 0.5905511811023622,
            "duration": 0.3947369999999921
          },
          {
            "name": "D3",
            "midi": 50,
            "time": 130.26320999999962,
            "velocity": 0.5905511811023622,
            "duration": 0.3947369999999921
          },
          {
            "name": "C#3",
            "midi": 49,
            "time": 130.6579469999996,
            "velocity": 0.5905511811023622,
            "duration": 0.3947369999999921
          },
          {
            "name": "E3",
            "midi": 52,
            "time": 130.6579469999996,
            "velocity": 0.5905511811023622,
            "duration": 0.3947369999999921
          },
          {
            "name": "B2",
            "midi": 47,
            "time": 131.0526839999996,
            "velocity": 0.5905511811023622,
            "duration": 0.3947369999999921
          },
          {
            "name": "D3",
            "midi": 50,
            "time": 131.0526839999996,
            "velocity": 0.5905511811023622,
            "duration": 0.3947369999999921
          },
          {
            "name": "D3",
            "midi": 50,
            "time": 131.4474209999996,
            "velocity": 0.5905511811023622,
            "duration": 0.3947369999999921
          },
          {
            "name": "F3",
            "midi": 53,
            "time": 131.4474209999996,
            "velocity": 0.5905511811023622,
            "duration": 0.3947369999999921
          },
          {
            "name": "C3",
            "midi": 48,
            "time": 131.84215799999959,
            "velocity": 0.5905511811023622,
            "duration": 0.3947369999999921
          },
          {
            "name": "E3",
            "midi": 52,
            "time": 131.84215799999959,
            "velocity": 0.5905511811023622,
            "duration": 0.3947369999999921
          },
          {
            "name": "D3",
            "midi": 50,
            "time": 132.23689499999958,
            "velocity": 0.5905511811023622,
            "duration": 0.3947369999999921
          },
          {
            "name": "F3",
            "midi": 53,
            "time": 132.23689499999958,
            "velocity": 0.5905511811023622,
            "duration": 0.3947369999999921
          },
          {
            "name": "C3",
            "midi": 48,
            "time": 132.63163199999957,
            "velocity": 0.5905511811023622,
            "duration": 0.3947369999999921
          },
          {
            "name": "E3",
            "midi": 52,
            "time": 132.63163199999957,
            "velocity": 0.5905511811023622,
            "duration": 0.3947369999999921
          },
          {
            "name": "D3",
            "midi": 50,
            "time": 133.02636899999956,
            "velocity": 0.5905511811023622,
            "duration": 0.3947369999999921
          },
          {
            "name": "F3",
            "midi": 53,
            "time": 133.02636899999956,
            "velocity": 0.5905511811023622,
            "duration": 0.3947369999999921
          },
          {
            "name": "C3",
            "midi": 48,
            "time": 133.42110599999955,
            "velocity": 0.5905511811023622,
            "duration": 0.3947369999999921
          },
          {
            "name": "E3",
            "midi": 52,
            "time": 133.42110599999955,
            "velocity": 0.5905511811023622,
            "duration": 0.3947369999999921
          },
          {
            "name": "D3",
            "midi": 50,
            "time": 133.81584299999955,
            "velocity": 0.5905511811023622,
            "duration": 0.3947369999999921
          },
          {
            "name": "F3",
            "midi": 53,
            "time": 133.81584299999955,
            "velocity": 0.5905511811023622,
            "duration": 0.3947369999999921
          },
          {
            "name": "C3",
            "midi": 48,
            "time": 134.21057999999954,
            "velocity": 0.5905511811023622,
            "duration": 0.3947369999999921
          },
          {
            "name": "E3",
            "midi": 52,
            "time": 134.21057999999954,
            "velocity": 0.5905511811023622,
            "duration": 0.3947369999999921
          },
          {
            "name": "C3",
            "midi": 48,
            "time": 135.78952799999954,
            "velocity": 0.5905511811023622,
            "duration": 0.19736850000001027
          },
          {
            "name": "G3",
            "midi": 55,
            "time": 135.98689649999955,
            "velocity": 0.7952755905511811,
            "duration": 0.19736850000001027
          },
          {
            "name": "E3",
            "midi": 52,
            "time": 136.18426499999956,
            "velocity": 0.5905511811023622,
            "duration": 0.19736850000001027
          },
          {
            "name": "C4",
            "midi": 60,
            "time": 136.38163349999957,
            "velocity": 0.7952755905511811,
            "duration": 0.19736850000001027
          },
          {
            "name": "G3",
            "midi": 55,
            "time": 136.57900199999958,
            "velocity": 0.5905511811023622,
            "duration": 0.19736850000001027
          },
          {
            "name": "E4",
            "midi": 64,
            "time": 136.7763704999996,
            "velocity": 0.7952755905511811,
            "duration": 0.19736850000001027
          },
          {
            "name": "C4",
            "midi": 60,
            "time": 136.9737389999996,
            "velocity": 0.5905511811023622,
            "duration": 0.19736850000001027
          },
          {
            "name": "G4",
            "midi": 67,
            "time": 137.1711074999996,
            "velocity": 0.7952755905511811,
            "duration": 0.19736850000001027
          },
          {
            "name": "E4",
            "midi": 64,
            "time": 137.7632129999996,
            "velocity": 0.5905511811023622,
            "duration": 0.7894740000000127
          },
          {
            "name": "C5",
            "midi": 72,
            "time": 137.7632129999996,
            "velocity": 0.5905511811023622,
            "duration": 0.7894740000000127
          },
          {
            "name": "C#5",
            "midi": 73,
            "time": 138.55268699999962,
            "velocity": 0.3858267716535433,
            "duration": 0.3947369999999921
          },
          {
            "name": "F#4",
            "midi": 66,
            "time": 138.94742399999961,
            "velocity": 0.3858267716535433,
            "duration": 0.3947369999999921
          },
          {
            "name": "B4",
            "midi": 71,
            "time": 138.94742399999961,
            "velocity": 0.3858267716535433,
            "duration": 0.3947369999999921
          },
          {
            "name": "D#5",
            "midi": 75,
            "time": 138.94742399999961,
            "velocity": 0.3858267716535433,
            "duration": 0.3947369999999921
          },
          {
            "name": "F#3",
            "midi": 54,
            "time": 139.7368979999996,
            "velocity": 0.3858267716535433,
            "duration": 0.19736850000001027
          },
          {
            "name": "B3",
            "midi": 59,
            "time": 139.7368979999996,
            "velocity": 0.3858267716535433,
            "duration": 0.19736850000001027
          },
          {
            "name": "D#4",
            "midi": 63,
            "time": 139.7368979999996,
            "velocity": 0.3858267716535433,
            "duration": 0.19736850000001027
          },
          {
            "name": "F#3",
            "midi": 54,
            "time": 140.13163499999962,
            "velocity": 0.3858267716535433,
            "duration": 0.19736850000001027
          },
          {
            "name": "B3",
            "midi": 59,
            "time": 140.13163499999962,
            "velocity": 0.3858267716535433,
            "duration": 0.19736850000001027
          },
          {
            "name": "D#4",
            "midi": 63,
            "time": 140.13163499999962,
            "velocity": 0.3858267716535433,
            "duration": 0.19736850000001027
          },
          {
            "name": "F#3",
            "midi": 54,
            "time": 140.52637199999964,
            "velocity": 0.3858267716535433,
            "duration": 0.3947369999999921
          },
          {
            "name": "C#4",
            "midi": 61,
            "time": 140.52637199999964,
            "velocity": 0.3858267716535433,
            "duration": 0.3947369999999921
          },
          {
            "name": "E4",
            "midi": 64,
            "time": 140.52637199999964,
            "velocity": 0.3858267716535433,
            "duration": 0.3947369999999921
          },
          {
            "name": "F#2",
            "midi": 42,
            "time": 141.31584599999962,
            "velocity": 0.3858267716535433,
            "duration": 0.19736850000001027
          },
          {
            "name": "C#3",
            "midi": 49,
            "time": 141.31584599999962,
            "velocity": 0.3858267716535433,
            "duration": 0.19736850000001027
          },
          {
            "name": "E3",
            "midi": 52,
            "time": 141.31584599999962,
            "velocity": 0.3858267716535433,
            "duration": 0.19736850000001027
          },
          {
            "name": "F#2",
            "midi": 42,
            "time": 141.71058299999964,
            "velocity": 0.3858267716535433,
            "duration": 0.19736850000001027
          },
          {
            "name": "C#3",
            "midi": 49,
            "time": 141.71058299999964,
            "velocity": 0.3858267716535433,
            "duration": 0.19736850000001027
          },
          {
            "name": "E3",
            "midi": 52,
            "time": 141.71058299999964,
            "velocity": 0.3858267716535433,
            "duration": 0.19736850000001027
          },
          {
            "name": "D#3",
            "midi": 51,
            "time": 142.10531999999967,
            "velocity": 0.3858267716535433,
            "duration": 0.19736850000001027
          },
          {
            "name": "B3",
            "midi": 59,
            "time": 142.30268849999968,
            "velocity": 0.3858267716535433,
            "duration": 0.19736850000001027
          },
          {
            "name": "F#3",
            "midi": 54,
            "time": 142.50005699999969,
            "velocity": 0.3858267716535433,
            "duration": 0.19736850000001027
          },
          {
            "name": "B3",
            "midi": 59,
            "time": 142.6974254999997,
            "velocity": 0.3858267716535433,
            "duration": 0.19736850000001027
          },
          {
            "name": "A3",
            "midi": 57,
            "time": 142.8947939999997,
            "velocity": 0.4881889763779528,
            "duration": 0.19736850000001027
          },
          {
            "name": "B3",
            "midi": 59,
            "time": 143.09216249999972,
            "velocity": 0.4881889763779528,
            "duration": 0.19736850000001027
          },
          {
            "name": "G3",
            "midi": 55,
            "time": 143.28953099999973,
            "velocity": 0.4881889763779528,
            "duration": 0.19736850000001027
          },
          {
            "name": "B3",
            "midi": 59,
            "time": 143.48689949999974,
            "velocity": 0.4881889763779528,
            "duration": 0.19736850000001027
          },
          {
            "name": "G#3",
            "midi": 56,
            "time": 143.68426799999975,
            "velocity": 0.4881889763779528,
            "duration": 0.19736850000001027
          },
          {
            "name": "B3",
            "midi": 59,
            "time": 143.88163649999976,
            "velocity": 0.4881889763779528,
            "duration": 0.19736850000001027
          },
          {
            "name": "F#3",
            "midi": 54,
            "time": 144.07900499999977,
            "velocity": 0.4881889763779528,
            "duration": 0.19736850000001027
          },
          {
            "name": "B3",
            "midi": 59,
            "time": 144.27637349999978,
            "velocity": 0.4881889763779528,
            "duration": 0.19736850000001027
          },
          {
            "name": "E3",
            "midi": 52,
            "time": 144.4737419999998,
            "velocity": 0.4881889763779528,
            "duration": 0.19736850000001027
          },
          {
            "name": "B3",
            "midi": 59,
            "time": 144.6711104999998,
            "velocity": 0.4881889763779528,
            "duration": 0.19736850000001027
          },
          {
            "name": "C#3",
            "midi": 49,
            "time": 144.8684789999998,
            "velocity": 0.4881889763779528,
            "duration": 0.19736850000001027
          },
          {
            "name": "B3",
            "midi": 59,
            "time": 145.06584749999982,
            "velocity": 0.4881889763779528,
            "duration": 0.19736850000001027
          },
          {
            "name": "D#3",
            "midi": 51,
            "time": 145.26321599999983,
            "velocity": 0.4881889763779528,
            "duration": 0.19736850000001027
          },
          {
            "name": "B3",
            "midi": 59,
            "time": 145.46058449999984,
            "velocity": 0.4881889763779528,
            "duration": 0.19736850000001027
          },
          {
            "name": "F#3",
            "midi": 54,
            "time": 145.65795299999985,
            "velocity": 0.4881889763779528,
            "duration": 0.19736850000001027
          },
          {
            "name": "B3",
            "midi": 59,
            "time": 145.85532149999986,
            "velocity": 0.4881889763779528,
            "duration": 0.19736850000001027
          },
          {
            "name": "A3",
            "midi": 57,
            "time": 146.05268999999987,
            "velocity": 0.4881889763779528,
            "duration": 0.19736850000001027
          },
          {
            "name": "B3",
            "midi": 59,
            "time": 146.25005849999988,
            "velocity": 0.4881889763779528,
            "duration": 0.19736850000001027
          },
          {
            "name": "G3",
            "midi": 55,
            "time": 146.4474269999999,
            "velocity": 0.4881889763779528,
            "duration": 0.19736850000001027
          },
          {
            "name": "B3",
            "midi": 59,
            "time": 146.6447954999999,
            "velocity": 0.4881889763779528,
            "duration": 0.19736850000001027
          },
          {
            "name": "G#3",
            "midi": 56,
            "time": 146.8421639999999,
            "velocity": 0.4881889763779528,
            "duration": 0.19736850000001027
          },
          {
            "name": "B3",
            "midi": 59,
            "time": 147.03953249999992,
            "velocity": 0.4881889763779528,
            "duration": 0.19736850000001027
          },
          {
            "name": "F#3",
            "midi": 54,
            "time": 147.23690099999993,
            "velocity": 0.4881889763779528,
            "duration": 0.19736850000001027
          },
          {
            "name": "B3",
            "midi": 59,
            "time": 147.43426949999994,
            "velocity": 0.4881889763779528,
            "duration": 0.19736850000001027
          },
          {
            "name": "E3",
            "midi": 52,
            "time": 147.63163799999995,
            "velocity": 0.4881889763779528,
            "duration": 0.19736850000001027
          },
          {
            "name": "B3",
            "midi": 59,
            "time": 147.82900649999996,
            "velocity": 0.4881889763779528,
            "duration": 0.19736850000001027
          },
          {
            "name": "C#3",
            "midi": 49,
            "time": 148.02637499999997,
            "velocity": 0.4881889763779528,
            "duration": 0.19736850000001027
          },
          {
            "name": "B3",
            "midi": 59,
            "time": 148.22374349999998,
            "velocity": 0.4881889763779528,
            "duration": 0.19736850000001027
          },
          {
            "name": "D#3",
            "midi": 51,
            "time": 148.421112,
            "velocity": 0.4881889763779528,
            "duration": 0.19736850000001027
          },
          {
            "name": "B3",
            "midi": 59,
            "time": 148.6184805,
            "velocity": 0.4881889763779528,
            "duration": 0.19736850000001027
          },
          {
            "name": "F#3",
            "midi": 54,
            "time": 148.81584900000001,
            "velocity": 0.4881889763779528,
            "duration": 0.19736850000001027
          },
          {
            "name": "B3",
            "midi": 59,
            "time": 149.01321750000002,
            "velocity": 0.4881889763779528,
            "duration": 0.19736850000001027
          },
          {
            "name": "G3",
            "midi": 55,
            "time": 149.21058600000003,
            "velocity": 0.3858267716535433,
            "duration": 0.19736850000001027
          },
          {
            "name": "B3",
            "midi": 59,
            "time": 149.40795450000005,
            "velocity": 0.3858267716535433,
            "duration": 0.19736850000001027
          },
          {
            "name": "E3",
            "midi": 52,
            "time": 149.60532300000006,
            "velocity": 0.3858267716535433,
            "duration": 0.19736850000001027
          },
          {
            "name": "B3",
            "midi": 59,
            "time": 149.80269150000007,
            "velocity": 0.3858267716535433,
            "duration": 0.19736850000001027
          },
          {
            "name": "F#3",
            "midi": 54,
            "time": 150.00006000000008,
            "velocity": 0.3858267716535433,
            "duration": 0.19736850000001027
          },
          {
            "name": "B3",
            "midi": 59,
            "time": 150.1974285000001,
            "velocity": 0.3858267716535433,
            "duration": 0.19736850000001027
          },
          {
            "name": "D#3",
            "midi": 51,
            "time": 150.3947970000001,
            "velocity": 0.3858267716535433,
            "duration": 0.19736850000001027
          },
          {
            "name": "B3",
            "midi": 59,
            "time": 150.5921655000001,
            "velocity": 0.3858267716535433,
            "duration": 0.19736850000001027
          },
          {
            "name": "E3",
            "midi": 52,
            "time": 150.78953400000012,
            "velocity": 0.3858267716535433,
            "duration": 0.19736850000001027
          },
          {
            "name": "A#3",
            "midi": 58,
            "time": 150.98690250000013,
            "velocity": 0.3858267716535433,
            "duration": 0.19736850000001027
          },
          {
            "name": "C#3",
            "midi": 49,
            "time": 151.18427100000014,
            "velocity": 0.3858267716535433,
            "duration": 0.19736850000001027
          },
          {
            "name": "A#3",
            "midi": 58,
            "time": 151.38163950000015,
            "velocity": 0.3858267716535433,
            "duration": 0.19736850000001027
          },
          {
            "name": "D#3",
            "midi": 51,
            "time": 151.57900800000016,
            "velocity": 0.3858267716535433,
            "duration": 0.19736850000001027
          },
          {
            "name": "B3",
            "midi": 59,
            "time": 151.77637650000017,
            "velocity": 0.3858267716535433,
            "duration": 0.19736850000001027
          },
          {
            "name": "F#3",
            "midi": 54,
            "time": 151.97374500000018,
            "velocity": 0.3858267716535433,
            "duration": 0.19736850000001027
          },
          {
            "name": "B3",
            "midi": 59,
            "time": 152.1711135000002,
            "velocity": 0.3858267716535433,
            "duration": 0.19736850000001027
          },
          {
            "name": "G3",
            "midi": 55,
            "time": 152.3684820000002,
            "velocity": 0.3858267716535433,
            "duration": 0.19736850000001027
          },
          {
            "name": "B3",
            "midi": 59,
            "time": 152.5658505000002,
            "velocity": 0.3858267716535433,
            "duration": 0.19736850000001027
          },
          {
            "name": "E3",
            "midi": 52,
            "time": 152.76321900000022,
            "velocity": 0.3858267716535433,
            "duration": 0.19736850000001027
          },
          {
            "name": "B3",
            "midi": 59,
            "time": 152.96058750000023,
            "velocity": 0.3858267716535433,
            "duration": 0.19736850000001027
          },
          {
            "name": "F#3",
            "midi": 54,
            "time": 153.15795600000024,
            "velocity": 0.3858267716535433,
            "duration": 0.19736850000001027
          },
          {
            "name": "B3",
            "midi": 59,
            "time": 153.35532450000025,
            "velocity": 0.3858267716535433,
            "duration": 0.19736850000001027
          },
          {
            "name": "D#3",
            "midi": 51,
            "time": 153.55269300000026,
            "velocity": 0.3858267716535433,
            "duration": 0.19736850000001027
          },
          {
            "name": "B3",
            "midi": 59,
            "time": 153.75006150000027,
            "velocity": 0.3858267716535433,
            "duration": 0.19736850000001027
          },
          {
            "name": "E3",
            "midi": 52,
            "time": 153.94743000000028,
            "velocity": 0.3858267716535433,
            "duration": 0.19736850000001027
          },
          {
            "name": "A#3",
            "midi": 58,
            "time": 154.1447985000003,
            "velocity": 0.3858267716535433,
            "duration": 0.19736850000001027
          },
          {
            "name": "C#3",
            "midi": 49,
            "time": 154.3421670000003,
            "velocity": 0.3858267716535433,
            "duration": 0.19736850000001027
          },
          {
            "name": "A#3",
            "midi": 58,
            "time": 154.5395355000003,
            "velocity": 0.3858267716535433,
            "duration": 0.19736850000001027
          },
          {
            "name": "D#3",
            "midi": 51,
            "time": 154.73690400000032,
            "velocity": 0.3858267716535433,
            "duration": 0.19736850000001027
          },
          {
            "name": "B3",
            "midi": 59,
            "time": 154.93427250000033,
            "velocity": 0.3858267716535433,
            "duration": 0.19736850000001027
          },
          {
            "name": "F#3",
            "midi": 54,
            "time": 155.13164100000034,
            "velocity": 0.3858267716535433,
            "duration": 0.19736850000001027
          },
          {
            "name": "B3",
            "midi": 59,
            "time": 155.32900950000035,
            "velocity": 0.3858267716535433,
            "duration": 0.19736850000001027
          },
          {
            "name": "E3",
            "midi": 52,
            "time": 155.52637800000036,
            "velocity": 0.3858267716535433,
            "duration": 0.19736850000001027
          },
          {
            "name": "A#3",
            "midi": 58,
            "time": 155.72374650000037,
            "velocity": 0.3858267716535433,
            "duration": 0.19736850000001027
          },
          {
            "name": "F#3",
            "midi": 54,
            "time": 155.92111500000038,
            "velocity": 0.3858267716535433,
            "duration": 0.19736850000001027
          },
          {
            "name": "A#3",
            "midi": 58,
            "time": 156.1184835000004,
            "velocity": 0.3858267716535433,
            "duration": 0.19736850000001027
          },
          {
            "name": "D#3",
            "midi": 51,
            "time": 156.3158520000004,
            "velocity": 0.3858267716535433,
            "duration": 0.19736850000001027
          },
          {
            "name": "B3",
            "midi": 59,
            "time": 156.51322050000041,
            "velocity": 0.3858267716535433,
            "duration": 0.19736850000001027
          },
          {
            "name": "F#3",
            "midi": 54,
            "time": 156.71058900000043,
            "velocity": 0.3858267716535433,
            "duration": 0.19736850000001027
          },
          {
            "name": "B3",
            "midi": 59,
            "time": 156.90795750000044,
            "velocity": 0.3858267716535433,
            "duration": 0.19736850000001027
          },
          {
            "name": "E3",
            "midi": 52,
            "time": 157.10532600000045,
            "velocity": 0.3858267716535433,
            "duration": 0.19736850000001027
          },
          {
            "name": "A#3",
            "midi": 58,
            "time": 157.30269450000046,
            "velocity": 0.3858267716535433,
            "duration": 0.19736850000001027
          },
          {
            "name": "F#3",
            "midi": 54,
            "time": 157.50006300000047,
            "velocity": 0.3858267716535433,
            "duration": 0.19736850000001027
          },
          {
            "name": "A#3",
            "midi": 58,
            "time": 157.69743150000048,
            "velocity": 0.3858267716535433,
            "duration": 0.19736850000001027
          },
          {
            "name": "D#3",
            "midi": 51,
            "time": 157.8948000000005,
            "velocity": 0.3858267716535433,
            "duration": 0.19736850000001027
          },
          {
            "name": "B3",
            "midi": 59,
            "time": 158.0921685000005,
            "velocity": 0.3858267716535433,
            "duration": 0.19736850000001027
          },
          {
            "name": "F#3",
            "midi": 54,
            "time": 158.2895370000005,
            "velocity": 0.3858267716535433,
            "duration": 0.19736850000001027
          },
          {
            "name": "B3",
            "midi": 59,
            "time": 158.48690550000052,
            "velocity": 0.3858267716535433,
            "duration": 0.19736850000001027
          },
          {
            "name": "E3",
            "midi": 52,
            "time": 158.68427400000053,
            "velocity": 0.3858267716535433,
            "duration": 0.19736850000001027
          },
          {
            "name": "A#3",
            "midi": 58,
            "time": 158.88164250000054,
            "velocity": 0.3858267716535433,
            "duration": 0.19736850000001027
          },
          {
            "name": "F#3",
            "midi": 54,
            "time": 159.07901100000055,
            "velocity": 0.3858267716535433,
            "duration": 0.19736850000001027
          },
          {
            "name": "A#3",
            "midi": 58,
            "time": 159.27637950000056,
            "velocity": 0.3858267716535433,
            "duration": 0.19736850000001027
          },
          {
            "name": "D#3",
            "midi": 51,
            "time": 159.47374800000057,
            "velocity": 0.3858267716535433,
            "duration": 0.19736850000001027
          },
          {
            "name": "B3",
            "midi": 59,
            "time": 159.67111650000058,
            "velocity": 0.3858267716535433,
            "duration": 0.19736850000001027
          },
          {
            "name": "F#3",
            "midi": 54,
            "time": 159.8684850000006,
            "velocity": 0.3858267716535433,
            "duration": 0.19736850000001027
          },
          {
            "name": "B3",
            "midi": 59,
            "time": 160.0658535000006,
            "velocity": 0.3858267716535433,
            "duration": 0.19736850000001027
          },
          {
            "name": "E3",
            "midi": 52,
            "time": 160.2632220000006,
            "velocity": 0.3858267716535433,
            "duration": 0.19736850000001027
          },
          {
            "name": "A#3",
            "midi": 58,
            "time": 160.46059050000062,
            "velocity": 0.3858267716535433,
            "duration": 0.19736850000001027
          },
          {
            "name": "F#3",
            "midi": 54,
            "time": 160.65795900000063,
            "velocity": 0.3858267716535433,
            "duration": 0.19736850000001027
          },
          {
            "name": "A#3",
            "midi": 58,
            "time": 160.85532750000064,
            "velocity": 0.3858267716535433,
            "duration": 0.19736850000001027
          },
          {
            "name": "B2",
            "midi": 47,
            "time": 161.05269600000065,
            "velocity": 0.3858267716535433,
            "duration": 0.3947369999999921
          },
          {
            "name": "D#3",
            "midi": 51,
            "time": 161.05269600000065,
            "velocity": 0.3858267716535433,
            "duration": 0.3947369999999921
          },
          {
            "name": "B3",
            "midi": 59,
            "time": 161.05269600000065,
            "velocity": 0.3858267716535433,
            "duration": 0.3947369999999921
          },
          {
            "name": "F#2",
            "midi": 42,
            "time": 161.84217000000064,
            "velocity": 0.7952755905511811,
            "duration": 0.3947369999999921
          },
          {
            "name": "F#3",
            "midi": 54,
            "time": 161.84217000000064,
            "velocity": 0.7952755905511811,
            "duration": 0.3947369999999921
          },
          {
            "name": "B1",
            "midi": 35,
            "time": 162.63164400000062,
            "velocity": 0.7952755905511811,
            "duration": 0.3947369999999921
          },
          {
            "name": "B2",
            "midi": 47,
            "time": 162.63164400000062,
            "velocity": 0.7952755905511811,
            "duration": 0.3947369999999921
          },
          {
            "name": "E2",
            "midi": 40,
            "time": 164.21059200000062,
            "velocity": 0.5905511811023622,
            "duration": 3.355264500000004
          },
          {
            "name": "B2",
            "midi": 47,
            "time": 164.21059200000062,
            "velocity": 0.5905511811023622,
            "duration": 3.355264500000004
          },
          {
            "name": "E3",
            "midi": 52,
            "time": 164.21059200000062,
            "velocity": 0.5905511811023622,
            "duration": 3.355264500000004
          },
          {
            "name": "E5",
            "midi": 76,
            "time": 167.56585650000062,
            "velocity": 0.5905511811023622,
            "duration": 0.038651331250008525
          },
          {
            "name": "D#5",
            "midi": 75,
            "time": 167.76322500000063,
            "velocity": 0.5905511811023622,
            "duration": 0.038651331250008525
          },
          {
            "name": "C#5",
            "midi": 73,
            "time": 167.96059350000064,
            "velocity": 0.5905511811023622,
            "duration": 0.038651331250008525
          },
          {
            "name": "B4",
            "midi": 71,
            "time": 168.15796200000065,
            "velocity": 0.5905511811023622,
            "duration": 0.038651331250008525
          },
          {
            "name": "A4",
            "midi": 69,
            "time": 168.35533050000066,
            "velocity": 0.5905511811023622,
            "duration": 0.038651331250008525
          },
          {
            "name": "G#4",
            "midi": 68,
            "time": 168.55269900000067,
            "velocity": 0.5905511811023622,
            "duration": 0.038651331250008525
          },
          {
            "name": "F#4",
            "midi": 66,
            "time": 168.75006750000068,
            "velocity": 0.5905511811023622,
            "duration": 0.038651331250008525
          },
          {
            "name": "E4",
            "midi": 64,
            "time": 168.9474360000007,
            "velocity": 0.5905511811023622,
            "duration": 0.038651331250008525
          },
          {
            "name": "D#4",
            "midi": 63,
            "time": 169.1448045000007,
            "velocity": 0.5905511811023622,
            "duration": 0.038651331250008525
          },
          {
            "name": "C#4",
            "midi": 61,
            "time": 169.3421730000007,
            "velocity": 0.5905511811023622,
            "duration": 0.038651331250008525
          },
          {
            "name": "B3",
            "midi": 59,
            "time": 169.53954150000072,
            "velocity": 0.5905511811023622,
            "duration": 0.038651331250008525
          },
          {
            "name": "A3",
            "midi": 57,
            "time": 169.73691000000073,
            "velocity": 0.5905511811023622,
            "duration": 0.038651331250008525
          },
          {
            "name": "G#3",
            "midi": 56,
            "time": 169.93427850000074,
            "velocity": 0.5905511811023622,
            "duration": 0.038651331250008525
          },
          {
            "name": "F#3",
            "midi": 54,
            "time": 170.13164700000075,
            "velocity": 0.5905511811023622,
            "duration": 0.038651331250008525
          },
          {
            "name": "E3",
            "midi": 52,
            "time": 170.32901550000076,
            "velocity": 0.5905511811023622,
            "duration": 0.038651331250008525
          },
          {
            "name": "B1",
            "midi": 35,
            "time": 170.52638400000077,
            "velocity": 0.7952755905511811,
            "duration": 3.355264500000004
          },
          {
            "name": "F#2",
            "midi": 42,
            "time": 170.52638400000077,
            "velocity": 0.7952755905511811,
            "duration": 3.355264500000004
          },
          {
            "name": "B2",
            "midi": 47,
            "time": 170.52638400000077,
            "velocity": 0.7952755905511811,
            "duration": 3.355264500000004
          },
          {
            "name": "B4",
            "midi": 71,
            "time": 173.88164850000078,
            "velocity": 0.5905511811023622,
            "duration": 0.038651331250008525
          },
          {
            "name": "A4",
            "midi": 69,
            "time": 174.0790170000008,
            "velocity": 0.5905511811023622,
            "duration": 0.038651331250008525
          },
          {
            "name": "G#4",
            "midi": 68,
            "time": 174.2763855000008,
            "velocity": 0.5905511811023622,
            "duration": 0.038651331250008525
          },
          {
            "name": "F#4",
            "midi": 66,
            "time": 174.4737540000008,
            "velocity": 0.5905511811023622,
            "duration": 0.038651331250008525
          },
          {
            "name": "E4",
            "midi": 64,
            "time": 174.67112250000082,
            "velocity": 0.5905511811023622,
            "duration": 0.038651331250008525
          },
          {
            "name": "D#4",
            "midi": 63,
            "time": 174.86849100000083,
            "velocity": 0.5905511811023622,
            "duration": 0.038651331250008525
          },
          {
            "name": "C#4",
            "midi": 61,
            "time": 175.06585950000084,
            "velocity": 0.5905511811023622,
            "duration": 0.038651331250008525
          },
          {
            "name": "B3",
            "midi": 59,
            "time": 175.26322800000085,
            "velocity": 0.5905511811023622,
            "duration": 0.038651331250008525
          },
          {
            "name": "A3",
            "midi": 57,
            "time": 175.46059650000086,
            "velocity": 0.5905511811023622,
            "duration": 0.038651331250008525
          },
          {
            "name": "G#3",
            "midi": 56,
            "time": 175.65796500000087,
            "velocity": 0.5905511811023622,
            "duration": 0.038651331250008525
          },
          {
            "name": "F#3",
            "midi": 54,
            "time": 175.85533350000088,
            "velocity": 0.5905511811023622,
            "duration": 0.038651331250008525
          },
          {
            "name": "E3",
            "midi": 52,
            "time": 176.0527020000009,
            "velocity": 0.5905511811023622,
            "duration": 0.038651331250008525
          },
          {
            "name": "D#3",
            "midi": 51,
            "time": 176.2500705000009,
            "velocity": 0.5905511811023622,
            "duration": 0.038651331250008525
          },
          {
            "name": "C#3",
            "midi": 49,
            "time": 176.4474390000009,
            "velocity": 0.5905511811023622,
            "duration": 0.038651331250008525
          },
          {
            "name": "B2",
            "midi": 47,
            "time": 176.64480750000092,
            "velocity": 0.5905511811023622,
            "duration": 0.038651331250008525
          },
          {
            "name": "E2",
            "midi": 40,
            "time": 176.84217600000093,
            "velocity": 0.7952755905511811,
            "duration": 2.368422000000038
          },
          {
            "name": "E3",
            "midi": 52,
            "time": 176.84217600000093,
            "velocity": 0.7952755905511811,
            "duration": 0.7894740000000127
          },
          {
            "name": "D3",
            "midi": 50,
            "time": 177.63165000000095,
            "velocity": 0.3858267716535433,
            "duration": 0.7894740000000127
          },
          {
            "name": "C#3",
            "midi": 49,
            "time": 178.42112400000096,
            "velocity": 0.3858267716535433,
            "duration": 0.7894740000000127
          },
          {
            "name": "E3",
            "midi": 52,
            "time": 178.42112400000096,
            "velocity": 0.3858267716535433,
            "duration": 0.7894740000000127
          },
          {
            "name": "E2",
            "midi": 40,
            "time": 179.21059800000097,
            "velocity": 0.5905511811023622,
            "duration": 0.3947369999999921
          },
          {
            "name": "A2",
            "midi": 45,
            "time": 179.21059800000097,
            "velocity": 0.5905511811023622,
            "duration": 0.3947369999999921
          },
          {
            "name": "E3",
            "midi": 52,
            "time": 179.21059800000097,
            "velocity": 0.5905511811023622,
            "duration": 0.3947369999999921
          },
          {
            "name": "E2",
            "midi": 40,
            "time": 179.60533500000096,
            "velocity": 0.5905511811023622,
            "duration": 0.3947369999999921
          },
          {
            "name": "A2",
            "midi": 45,
            "time": 179.60533500000096,
            "velocity": 0.5905511811023622,
            "duration": 0.3947369999999921
          },
          {
            "name": "E3",
            "midi": 52,
            "time": 179.60533500000096,
            "velocity": 0.5905511811023622,
            "duration": 0.3947369999999921
          },
          {
            "name": "E2",
            "midi": 40,
            "time": 180.00007200000096,
            "velocity": 0.5905511811023622,
            "duration": 2.368422000000038
          },
          {
            "name": "G#2",
            "midi": 44,
            "time": 180.00007200000096,
            "velocity": 0.5905511811023622,
            "duration": 0.7894740000000127
          },
          {
            "name": "E3",
            "midi": 52,
            "time": 180.00007200000096,
            "velocity": 0.5905511811023622,
            "duration": 0.7894740000000127
          },
          {
            "name": "D3",
            "midi": 50,
            "time": 180.78954600000097,
            "velocity": 0.5905511811023622,
            "duration": 0.7894740000000127
          },
          {
            "name": "C#3",
            "midi": 49,
            "time": 181.57902000000098,
            "velocity": 0.5905511811023622,
            "duration": 0.7894740000000127
          },
          {
            "name": "E3",
            "midi": 52,
            "time": 181.57902000000098,
            "velocity": 0.5905511811023622,
            "duration": 0.7894740000000127
          },
          {
            "name": "E2",
            "midi": 40,
            "time": 182.368494000001,
            "velocity": 0.5905511811023622,
            "duration": 0.3947369999999921
          },
          {
            "name": "A2",
            "midi": 45,
            "time": 182.368494000001,
            "velocity": 0.5905511811023622,
            "duration": 0.3947369999999921
          },
          {
            "name": "E3",
            "midi": 52,
            "time": 182.368494000001,
            "velocity": 0.5905511811023622,
            "duration": 0.3947369999999921
          },
          {
            "name": "E2",
            "midi": 40,
            "time": 182.76323100000099,
            "velocity": 0.5905511811023622,
            "duration": 0.3947369999999921
          },
          {
            "name": "A2",
            "midi": 45,
            "time": 182.76323100000099,
            "velocity": 0.5905511811023622,
            "duration": 0.3947369999999921
          },
          {
            "name": "E3",
            "midi": 52,
            "time": 182.76323100000099,
            "velocity": 0.5905511811023622,
            "duration": 0.3947369999999921
          },
          {
            "name": "E2",
            "midi": 40,
            "time": 183.15796800000098,
            "velocity": 0.5905511811023622,
            "duration": 0.7894740000000127
          },
          {
            "name": "G#2",
            "midi": 44,
            "time": 183.15796800000098,
            "velocity": 0.5905511811023622,
            "duration": 0.7894740000000127
          },
          {
            "name": "E3",
            "midi": 52,
            "time": 183.15796800000098,
            "velocity": 0.5905511811023622,
            "duration": 0.7894740000000127
          },
          {
            "name": "E2",
            "midi": 40,
            "time": 183.947442000001,
            "velocity": 0.5905511811023622,
            "duration": 0.3947369999999921
          },
          {
            "name": "A2",
            "midi": 45,
            "time": 183.947442000001,
            "velocity": 0.5905511811023622,
            "duration": 0.3947369999999921
          },
          {
            "name": "E3",
            "midi": 52,
            "time": 183.947442000001,
            "velocity": 0.5905511811023622,
            "duration": 0.3947369999999921
          },
          {
            "name": "E2",
            "midi": 40,
            "time": 184.34217900000098,
            "velocity": 0.5905511811023622,
            "duration": 0.3947369999999921
          },
          {
            "name": "A2",
            "midi": 45,
            "time": 184.34217900000098,
            "velocity": 0.5905511811023622,
            "duration": 0.3947369999999921
          },
          {
            "name": "E3",
            "midi": 52,
            "time": 184.34217900000098,
            "velocity": 0.5905511811023622,
            "duration": 0.3947369999999921
          },
          {
            "name": "E2",
            "midi": 40,
            "time": 184.73691600000097,
            "velocity": 0.5905511811023622,
            "duration": 0.7894740000000127
          },
          {
            "name": "G#2",
            "midi": 44,
            "time": 184.73691600000097,
            "velocity": 0.5905511811023622,
            "duration": 0.7894740000000127
          },
          {
            "name": "E3",
            "midi": 52,
            "time": 184.73691600000097,
            "velocity": 0.5905511811023622,
            "duration": 0.7894740000000127
          },
          {
            "name": "E2",
            "midi": 40,
            "time": 185.526390000001,
            "velocity": 0.5905511811023622,
            "duration": 0.3947369999999921
          },
          {
            "name": "A2",
            "midi": 45,
            "time": 185.526390000001,
            "velocity": 0.5905511811023622,
            "duration": 0.3947369999999921
          },
          {
            "name": "E3",
            "midi": 52,
            "time": 185.526390000001,
            "velocity": 0.5905511811023622,
            "duration": 0.3947369999999921
          },
          {
            "name": "E2",
            "midi": 40,
            "time": 185.92112700000098,
            "velocity": 0.5905511811023622,
            "duration": 0.3947369999999921
          },
          {
            "name": "A2",
            "midi": 45,
            "time": 185.92112700000098,
            "velocity": 0.5905511811023622,
            "duration": 0.3947369999999921
          },
          {
            "name": "E3",
            "midi": 52,
            "time": 185.92112700000098,
            "velocity": 0.5905511811023622,
            "duration": 0.3947369999999921
          },
          {
            "name": "E2",
            "midi": 40,
            "time": 186.31586400000097,
            "velocity": 0.5905511811023622,
            "duration": 0.3947369999999921
          },
          {
            "name": "G#2",
            "midi": 44,
            "time": 186.31586400000097,
            "velocity": 0.5905511811023622,
            "duration": 0.3947369999999921
          },
          {
            "name": "E3",
            "midi": 52,
            "time": 186.31586400000097,
            "velocity": 0.5905511811023622,
            "duration": 0.3947369999999921
          },
          {
            "name": "B3",
            "midi": 59,
            "time": 189.47376000000096,
            "velocity": 0.5905511811023622,
            "duration": 3.157895999999994
          },
          {
            "name": "D#5",
            "midi": 75,
            "time": 189.47376000000096,
            "velocity": 0.5905511811023622,
            "duration": 3.157895999999994
          },
          {
            "name": "E4",
            "midi": 64,
            "time": 192.63165600000096,
            "velocity": 0.5905511811023622,
            "duration": 0.19736850000001027
          },
          {
            "name": "G#4",
            "midi": 68,
            "time": 192.63165600000096,
            "velocity": 0.5905511811023622,
            "duration": 0.19736850000001027
          },
          {
            "name": "E4",
            "midi": 64,
            "time": 192.82902450000097,
            "velocity": 0.5905511811023622,
            "duration": 0.19736850000001027
          },
          {
            "name": "G#4",
            "midi": 68,
            "time": 193.02639300000098,
            "velocity": 0.5905511811023622,
            "duration": 0.19736850000001027
          },
          {
            "name": "A4",
            "midi": 69,
            "time": 193.223761500001,
            "velocity": 0.5905511811023622,
            "duration": 0.19736850000001027
          },
          {
            "name": "A#4",
            "midi": 70,
            "time": 193.421130000001,
            "velocity": 0.5905511811023622,
            "duration": 0.19736850000001027
          },
          {
            "name": "B4",
            "midi": 71,
            "time": 193.618498500001,
            "velocity": 0.5905511811023622,
            "duration": 0.19736850000001027
          },
          {
            "name": "C#5",
            "midi": 73,
            "time": 193.81586700000102,
            "velocity": 0.5905511811023622,
            "duration": 0.19736850000001027
          },
          {
            "name": "B4",
            "midi": 71,
            "time": 194.01323550000103,
            "velocity": 0.5905511811023622,
            "duration": 0.19736850000001027
          },
          {
            "name": "A4",
            "midi": 69,
            "time": 194.21060400000104,
            "velocity": 0.5905511811023622,
            "duration": 0.19736850000001027
          },
          {
            "name": "G#4",
            "midi": 68,
            "time": 194.40797250000105,
            "velocity": 0.5905511811023622,
            "duration": 0.19736850000001027
          },
          {
            "name": "F#4",
            "midi": 66,
            "time": 194.60534100000106,
            "velocity": 0.5905511811023622,
            "duration": 0.19736850000001027
          },
          {
            "name": "E4",
            "midi": 64,
            "time": 194.80270950000107,
            "velocity": 0.5905511811023622,
            "duration": 0.19736850000001027
          },
          {
            "name": "D#4",
            "midi": 63,
            "time": 195.00007800000108,
            "velocity": 0.5905511811023622,
            "duration": 0.19736850000001027
          },
          {
            "name": "C#4",
            "midi": 61,
            "time": 195.1974465000011,
            "velocity": 0.5905511811023622,
            "duration": 0.19736850000001027
          },
          {
            "name": "B3",
            "midi": 59,
            "time": 195.3948150000011,
            "velocity": 0.5905511811023622,
            "duration": 0.19736850000001027
          },
          {
            "name": "A#3",
            "midi": 58,
            "time": 195.5921835000011,
            "velocity": 0.5905511811023622,
            "duration": 0.19736850000001027
          },
          {
            "name": "F#3",
            "midi": 54,
            "time": 195.78955200000112,
            "velocity": 0.5905511811023622,
            "duration": 1.1842110000000048
          },
          {
            "name": "F3",
            "midi": 53,
            "time": 196.97376300000113,
            "velocity": 0.5905511811023622,
            "duration": 0.3947369999999921
          },
          {
            "name": "F#3",
            "midi": 54,
            "time": 197.36850000000112,
            "velocity": 0.5905511811023622,
            "duration": 0.7894740000000127
          },
          {
            "name": "G#3",
            "midi": 56,
            "time": 198.15797400000113,
            "velocity": 0.5905511811023622,
            "duration": 0.3947369999999921
          },
          {
            "name": "A3",
            "midi": 57,
            "time": 198.55271100000112,
            "velocity": 0.5905511811023622,
            "duration": 0.3947369999999921
          },
          {
            "name": "E2",
            "midi": 40,
            "time": 198.94744800000112,
            "velocity": 0.5905511811023622,
            "duration": 3.355264500000004
          },
          {
            "name": "B2",
            "midi": 47,
            "time": 198.94744800000112,
            "velocity": 0.5905511811023622,
            "duration": 3.355264500000004
          },
          {
            "name": "E3",
            "midi": 52,
            "time": 198.94744800000112,
            "velocity": 0.5905511811023622,
            "duration": 3.355264500000004
          },
          {
            "name": "E5",
            "midi": 76,
            "time": 202.30271250000112,
            "velocity": 0.5905511811023622,
            "duration": 0.038651331250008525
          },
          {
            "name": "D#5",
            "midi": 75,
            "time": 202.50008100000113,
            "velocity": 0.5905511811023622,
            "duration": 0.038651331250008525
          },
          {
            "name": "C#5",
            "midi": 73,
            "time": 202.69744950000114,
            "velocity": 0.5905511811023622,
            "duration": 0.038651331250008525
          },
          {
            "name": "B4",
            "midi": 71,
            "time": 202.89481800000115,
            "velocity": 0.5905511811023622,
            "duration": 0.038651331250008525
          },
          {
            "name": "A4",
            "midi": 69,
            "time": 203.09218650000116,
            "velocity": 0.5905511811023622,
            "duration": 0.038651331250008525
          },
          {
            "name": "G#4",
            "midi": 68,
            "time": 203.28955500000117,
            "velocity": 0.5905511811023622,
            "duration": 0.038651331250008525
          },
          {
            "name": "F#4",
            "midi": 66,
            "time": 203.48692350000118,
            "velocity": 0.5905511811023622,
            "duration": 0.038651331250008525
          },
          {
            "name": "E4",
            "midi": 64,
            "time": 203.6842920000012,
            "velocity": 0.5905511811023622,
            "duration": 0.038651331250008525
          },
          {
            "name": "D#4",
            "midi": 63,
            "time": 203.8816605000012,
            "velocity": 0.5905511811023622,
            "duration": 0.038651331250008525
          },
          {
            "name": "C#4",
            "midi": 61,
            "time": 204.0790290000012,
            "velocity": 0.5905511811023622,
            "duration": 0.038651331250008525
          },
          {
            "name": "B3",
            "midi": 59,
            "time": 204.27639750000122,
            "velocity": 0.5905511811023622,
            "duration": 0.038651331250008525
          },
          {
            "name": "A3",
            "midi": 57,
            "time": 204.47376600000123,
            "velocity": 0.5905511811023622,
            "duration": 0.038651331250008525
          },
          {
            "name": "G#3",
            "midi": 56,
            "time": 204.67113450000124,
            "velocity": 0.5905511811023622,
            "duration": 0.038651331250008525
          },
          {
            "name": "F#3",
            "midi": 54,
            "time": 204.86850300000125,
            "velocity": 0.5905511811023622,
            "duration": 0.038651331250008525
          },
          {
            "name": "E3",
            "midi": 52,
            "time": 205.06587150000126,
            "velocity": 0.5905511811023622,
            "duration": 0.038651331250008525
          },
          {
            "name": "C#2",
            "midi": 37,
            "time": 205.26324000000128,
            "velocity": 0.7952755905511811,
            "duration": 3.355264500000004
          },
          {
            "name": "G#2",
            "midi": 44,
            "time": 205.26324000000128,
            "velocity": 0.7952755905511811,
            "duration": 3.355264500000004
          },
          {
            "name": "C#3",
            "midi": 49,
            "time": 205.26324000000128,
            "velocity": 0.7952755905511811,
            "duration": 3.355264500000004
          },
          {
            "name": "C#5",
            "midi": 73,
            "time": 208.61850450000128,
            "velocity": 0.5905511811023622,
            "duration": 0.038651331250008525
          },
          {
            "name": "B4",
            "midi": 71,
            "time": 208.8158730000013,
            "velocity": 0.5905511811023622,
            "duration": 0.038651331250008525
          },
          {
            "name": "A4",
            "midi": 69,
            "time": 209.0132415000013,
            "velocity": 0.5905511811023622,
            "duration": 0.038651331250008525
          },
          {
            "name": "G#4",
            "midi": 68,
            "time": 209.2106100000013,
            "velocity": 0.5905511811023622,
            "duration": 0.038651331250008525
          },
          {
            "name": "F#4",
            "midi": 66,
            "time": 209.40797850000132,
            "velocity": 0.5905511811023622,
            "duration": 0.038651331250008525
          },
          {
            "name": "E4",
            "midi": 64,
            "time": 209.60534700000133,
            "velocity": 0.5905511811023622,
            "duration": 0.038651331250008525
          },
          {
            "name": "D#4",
            "midi": 63,
            "time": 209.80271550000134,
            "velocity": 0.5905511811023622,
            "duration": 0.038651331250008525
          },
          {
            "name": "C#4",
            "midi": 61,
            "time": 210.00008400000135,
            "velocity": 0.5905511811023622,
            "duration": 0.038651331250008525
          },
          {
            "name": "B3",
            "midi": 59,
            "time": 210.19745250000136,
            "velocity": 0.5905511811023622,
            "duration": 0.038651331250008525
          },
          {
            "name": "A3",
            "midi": 57,
            "time": 210.39482100000137,
            "velocity": 0.5905511811023622,
            "duration": 0.038651331250008525
          },
          {
            "name": "G#3",
            "midi": 56,
            "time": 210.59218950000138,
            "velocity": 0.5905511811023622,
            "duration": 0.038651331250008525
          },
          {
            "name": "F#3",
            "midi": 54,
            "time": 210.7895580000014,
            "velocity": 0.5905511811023622,
            "duration": 0.038651331250008525
          },
          {
            "name": "E3",
            "midi": 52,
            "time": 210.9869265000014,
            "velocity": 0.5905511811023622,
            "duration": 0.038651331250008525
          },
          {
            "name": "D#3",
            "midi": 51,
            "time": 211.1842950000014,
            "velocity": 0.5905511811023622,
            "duration": 0.038651331250008525
          },
          {
            "name": "C#3",
            "midi": 49,
            "time": 211.38166350000142,
            "velocity": 0.5905511811023622,
            "duration": 0.038651331250008525
          },
          {
            "name": "A1",
            "midi": 33,
            "time": 211.57903200000143,
            "velocity": 0.7952755905511811,
            "duration": 3.355264500000004
          },
          {
            "name": "E2",
            "midi": 40,
            "time": 211.57903200000143,
            "velocity": 0.7952755905511811,
            "duration": 3.355264500000004
          },
          {
            "name": "A2",
            "midi": 45,
            "time": 211.57903200000143,
            "velocity": 0.7952755905511811,
            "duration": 3.355264500000004
          },
          {
            "name": "A2",
            "midi": 45,
            "time": 215.52640200000144,
            "velocity": 0.7952755905511811,
            "duration": 0.3947369999999921
          },
          {
            "name": "E3",
            "midi": 52,
            "time": 215.52640200000144,
            "velocity": 0.7952755905511811,
            "duration": 0.3947369999999921
          },
          {
            "name": "A3",
            "midi": 57,
            "time": 215.52640200000144,
            "velocity": 0.7952755905511811,
            "duration": 0.3947369999999921
          },
          {
            "name": "B3",
            "midi": 59,
            "time": 217.89482400000142,
            "velocity": 0.3858267716535433,
            "duration": 1.973684999999989
          },
          {
            "name": "B2",
            "midi": 47,
            "time": 221.05272000000141,
            "velocity": 0.3858267716535433,
            "duration": 1.973684999999989
          },
          {
            "name": "E3",
            "midi": 52,
            "time": 221.05272000000141,
            "velocity": 0.3858267716535433,
            "duration": 1.578947999999997
          },
          {
            "name": "G#3",
            "midi": 56,
            "time": 221.05272000000141,
            "velocity": 0.3858267716535433,
            "duration": 1.578947999999997
          },
          {
            "name": "B3",
            "midi": 59,
            "time": 221.05272000000141,
            "velocity": 0.3858267716535433,
            "duration": 1.973684999999989
          },
          {
            "name": "F#3",
            "midi": 54,
            "time": 222.6316680000014,
            "velocity": 0.3858267716535433,
            "duration": 0.3947369999999921
          },
          {
            "name": "A3",
            "midi": 57,
            "time": 222.6316680000014,
            "velocity": 0.3858267716535433,
            "duration": 0.3947369999999921
          },
          {
            "name": "G#3",
            "midi": 56,
            "time": 224.2106160000014,
            "velocity": 0.3858267716535433,
            "duration": 1.973684999999989
          },
          {
            "name": "C#4",
            "midi": 61,
            "time": 224.2106160000014,
            "velocity": 0.3858267716535433,
            "duration": 1.578947999999997
          },
          {
            "name": "E4",
            "midi": 64,
            "time": 224.2106160000014,
            "velocity": 0.3858267716535433,
            "duration": 1.578947999999997
          },
          {
            "name": "G#4",
            "midi": 68,
            "time": 224.2106160000014,
            "velocity": 0.3858267716535433,
            "duration": 1.973684999999989
          },
          {
            "name": "D#4",
            "midi": 63,
            "time": 225.7895640000014,
            "velocity": 0.3858267716535433,
            "duration": 0.3947369999999921
          },
          {
            "name": "F#4",
            "midi": 66,
            "time": 225.7895640000014,
            "velocity": 0.3858267716535433,
            "duration": 0.3947369999999921
          },
          {
            "name": "G#2",
            "midi": 44,
            "time": 227.3685120000014,
            "velocity": 0.3858267716535433,
            "duration": 1.973684999999989
          },
          {
            "name": "C#3",
            "midi": 49,
            "time": 227.3685120000014,
            "velocity": 0.3858267716535433,
            "duration": 1.578947999999997
          },
          {
            "name": "E3",
            "midi": 52,
            "time": 227.3685120000014,
            "velocity": 0.3858267716535433,
            "duration": 1.578947999999997
          },
          {
            "name": "G#3",
            "midi": 56,
            "time": 227.3685120000014,
            "velocity": 0.3858267716535433,
            "duration": 1.973684999999989
          },
          {
            "name": "D#3",
            "midi": 51,
            "time": 228.9474600000014,
            "velocity": 0.3858267716535433,
            "duration": 0.3947369999999921
          },
          {
            "name": "F#3",
            "midi": 54,
            "time": 228.9474600000014,
            "velocity": 0.3858267716535433,
            "duration": 0.3947369999999921
          },
          {
            "name": "F#3",
            "midi": 54,
            "time": 233.6843040000014,
            "velocity": 0.3858267716535433,
            "duration": 1.973684999999989
          },
          {
            "name": "B3",
            "midi": 59,
            "time": 233.6843040000014,
            "velocity": 0.3858267716535433,
            "duration": 1.578947999999997
          },
          {
            "name": "D#4",
            "midi": 63,
            "time": 233.6843040000014,
            "velocity": 0.3858267716535433,
            "duration": 1.578947999999997
          },
          {
            "name": "F#4",
            "midi": 66,
            "time": 233.6843040000014,
            "velocity": 0.3858267716535433,
            "duration": 1.973684999999989
          },
          {
            "name": "C#4",
            "midi": 61,
            "time": 235.2632520000014,
            "velocity": 0.3858267716535433,
            "duration": 0.3947369999999921
          },
          {
            "name": "E4",
            "midi": 64,
            "time": 235.2632520000014,
            "velocity": 0.3858267716535433,
            "duration": 0.3947369999999921
          },
          {
            "name": "B2",
            "midi": 47,
            "time": 236.84220000000138,
            "velocity": 0.3858267716535433,
            "duration": 0.19736850000001027
          },
          {
            "name": "F#3",
            "midi": 54,
            "time": 237.0395685000014,
            "velocity": 0.3858267716535433,
            "duration": 0.19736850000001027
          },
          {
            "name": "D#3",
            "midi": 51,
            "time": 237.2369370000014,
            "velocity": 0.3858267716535433,
            "duration": 0.19736850000001027
          },
          {
            "name": "F#3",
            "midi": 54,
            "time": 237.43430550000141,
            "velocity": 0.3858267716535433,
            "duration": 0.19736850000001027
          },
          {
            "name": "B2",
            "midi": 47,
            "time": 237.63167400000142,
            "velocity": 0.3858267716535433,
            "duration": 0.19736850000001027
          },
          {
            "name": "F#3",
            "midi": 54,
            "time": 237.82904250000144,
            "velocity": 0.3858267716535433,
            "duration": 0.19736850000001027
          },
          {
            "name": "D#3",
            "midi": 51,
            "time": 238.02641100000145,
            "velocity": 0.3858267716535433,
            "duration": 0.19736850000001027
          },
          {
            "name": "F#3",
            "midi": 54,
            "time": 238.22377950000146,
            "velocity": 0.3858267716535433,
            "duration": 0.19736850000001027
          },
          {
            "name": "B2",
            "midi": 47,
            "time": 238.42114800000147,
            "velocity": 0.3858267716535433,
            "duration": 0.19736850000001027
          },
          {
            "name": "F#3",
            "midi": 54,
            "time": 238.61851650000148,
            "velocity": 0.3858267716535433,
            "duration": 0.19736850000001027
          },
          {
            "name": "D#3",
            "midi": 51,
            "time": 238.8158850000015,
            "velocity": 0.3858267716535433,
            "duration": 0.19736850000001027
          },
          {
            "name": "F#3",
            "midi": 54,
            "time": 239.0132535000015,
            "velocity": 0.3858267716535433,
            "duration": 0.19736850000001027
          },
          {
            "name": "B2",
            "midi": 47,
            "time": 239.2106220000015,
            "velocity": 0.3858267716535433,
            "duration": 0.19736850000001027
          },
          {
            "name": "F#3",
            "midi": 54,
            "time": 239.40799050000152,
            "velocity": 0.3858267716535433,
            "duration": 0.19736850000001027
          },
          {
            "name": "D#3",
            "midi": 51,
            "time": 239.60535900000153,
            "velocity": 0.3858267716535433,
            "duration": 0.19736850000001027
          },
          {
            "name": "F#3",
            "midi": 54,
            "time": 239.80272750000154,
            "velocity": 0.3858267716535433,
            "duration": 0.19736850000001027
          },
          {
            "name": "C#3",
            "midi": 49,
            "time": 240.00009600000155,
            "velocity": 0.3858267716535433,
            "duration": 0.19736850000001027
          },
          {
            "name": "A#3",
            "midi": 58,
            "time": 240.19746450000156,
            "velocity": 0.3858267716535433,
            "duration": 0.19736850000001027
          },
          {
            "name": "E3",
            "midi": 52,
            "time": 240.39483300000157,
            "velocity": 0.3858267716535433,
            "duration": 0.19736850000001027
          },
          {
            "name": "A#3",
            "midi": 58,
            "time": 240.59220150000158,
            "velocity": 0.3858267716535433,
            "duration": 0.19736850000001027
          },
          {
            "name": "C#3",
            "midi": 49,
            "time": 240.7895700000016,
            "velocity": 0.3858267716535433,
            "duration": 0.19736850000001027
          },
          {
            "name": "A#3",
            "midi": 58,
            "time": 240.9869385000016,
            "velocity": 0.3858267716535433,
            "duration": 0.19736850000001027
          },
          {
            "name": "E3",
            "midi": 52,
            "time": 241.1843070000016,
            "velocity": 0.3858267716535433,
            "duration": 0.19736850000001027
          },
          {
            "name": "A#3",
            "midi": 58,
            "time": 241.38167550000162,
            "velocity": 0.3858267716535433,
            "duration": 0.19736850000001027
          },
          {
            "name": "C#3",
            "midi": 49,
            "time": 241.57904400000163,
            "velocity": 0.3858267716535433,
            "duration": 0.19736850000001027
          },
          {
            "name": "A#3",
            "midi": 58,
            "time": 241.77641250000164,
            "velocity": 0.3858267716535433,
            "duration": 0.19736850000001027
          },
          {
            "name": "E3",
            "midi": 52,
            "time": 241.97378100000165,
            "velocity": 0.3858267716535433,
            "duration": 0.19736850000001027
          },
          {
            "name": "A#3",
            "midi": 58,
            "time": 242.17114950000166,
            "velocity": 0.3858267716535433,
            "duration": 0.19736850000001027
          },
          {
            "name": "C#3",
            "midi": 49,
            "time": 242.36851800000167,
            "velocity": 0.3858267716535433,
            "duration": 0.19736850000001027
          },
          {
            "name": "A#3",
            "midi": 58,
            "time": 242.56588650000168,
            "velocity": 0.3858267716535433,
            "duration": 0.19736850000001027
          },
          {
            "name": "E3",
            "midi": 52,
            "time": 242.7632550000017,
            "velocity": 0.3858267716535433,
            "duration": 0.19736850000001027
          },
          {
            "name": "A#3",
            "midi": 58,
            "time": 242.9606235000017,
            "velocity": 0.3858267716535433,
            "duration": 0.19736850000001027
          },
          {
            "name": "D#3",
            "midi": 51,
            "time": 243.1579920000017,
            "velocity": 0.3858267716535433,
            "duration": 0.19736850000001027
          },
          {
            "name": "B3",
            "midi": 59,
            "time": 243.35536050000172,
            "velocity": 0.3858267716535433,
            "duration": 0.19736850000001027
          },
          {
            "name": "F#3",
            "midi": 54,
            "time": 243.55272900000173,
            "velocity": 0.3858267716535433,
            "duration": 0.19736850000001027
          },
          {
            "name": "B3",
            "midi": 59,
            "time": 243.75009750000174,
            "velocity": 0.3858267716535433,
            "duration": 0.19736850000001027
          },
          {
            "name": "E3",
            "midi": 52,
            "time": 243.94746600000175,
            "velocity": 0.3858267716535433,
            "duration": 0.19736850000001027
          },
          {
            "name": "A#3",
            "midi": 58,
            "time": 244.14483450000176,
            "velocity": 0.3858267716535433,
            "duration": 0.19736850000001027
          },
          {
            "name": "F#3",
            "midi": 54,
            "time": 244.34220300000177,
            "velocity": 0.3858267716535433,
            "duration": 0.19736850000001027
          },
          {
            "name": "A#3",
            "midi": 58,
            "time": 244.53957150000178,
            "velocity": 0.3858267716535433,
            "duration": 0.19736850000001027
          },
          {
            "name": "D#3",
            "midi": 51,
            "time": 244.7369400000018,
            "velocity": 0.3858267716535433,
            "duration": 0.19736850000001027
          },
          {
            "name": "B3",
            "midi": 59,
            "time": 244.9343085000018,
            "velocity": 0.3858267716535433,
            "duration": 0.19736850000001027
          },
          {
            "name": "F#3",
            "midi": 54,
            "time": 245.13167700000182,
            "velocity": 0.3858267716535433,
            "duration": 0.19736850000001027
          },
          {
            "name": "B3",
            "midi": 59,
            "time": 245.32904550000183,
            "velocity": 0.3858267716535433,
            "duration": 0.19736850000001027
          },
          {
            "name": "E3",
            "midi": 52,
            "time": 245.52641400000184,
            "velocity": 0.3858267716535433,
            "duration": 0.19736850000001027
          },
          {
            "name": "A#3",
            "midi": 58,
            "time": 245.72378250000185,
            "velocity": 0.3858267716535433,
            "duration": 0.19736850000001027
          },
          {
            "name": "F#3",
            "midi": 54,
            "time": 245.92115100000186,
            "velocity": 0.3858267716535433,
            "duration": 0.19736850000001027
          },
          {
            "name": "A#3",
            "midi": 58,
            "time": 246.11851950000187,
            "velocity": 0.3858267716535433,
            "duration": 0.19736850000001027
          },
          {
            "name": "D#3",
            "midi": 51,
            "time": 246.31588800000188,
            "velocity": 0.3858267716535433,
            "duration": 0.19736850000001027
          },
          {
            "name": "B3",
            "midi": 59,
            "time": 246.5132565000019,
            "velocity": 0.3858267716535433,
            "duration": 0.19736850000001027
          },
          {
            "name": "F#3",
            "midi": 54,
            "time": 246.7106250000019,
            "velocity": 0.3858267716535433,
            "duration": 0.19736850000001027
          },
          {
            "name": "B3",
            "midi": 59,
            "time": 246.9079935000019,
            "velocity": 0.3858267716535433,
            "duration": 0.19736850000001027
          },
          {
            "name": "E3",
            "midi": 52,
            "time": 247.10536200000192,
            "velocity": 0.3858267716535433,
            "duration": 0.19736850000001027
          },
          {
            "name": "B3",
            "midi": 59,
            "time": 247.30273050000193,
            "velocity": 0.3858267716535433,
            "duration": 0.19736850000001027
          },
          {
            "name": "G#3",
            "midi": 56,
            "time": 247.50009900000194,
            "velocity": 0.3858267716535433,
            "duration": 0.19736850000001027
          },
          {
            "name": "B3",
            "midi": 59,
            "time": 247.69746750000195,
            "velocity": 0.3858267716535433,
            "duration": 0.19736850000001027
          },
          {
            "name": "F#3",
            "midi": 54,
            "time": 247.89483600000196,
            "velocity": 0.3858267716535433,
            "duration": 0.19736850000001027
          },
          {
            "name": "D#4",
            "midi": 63,
            "time": 248.09220450000197,
            "velocity": 0.3858267716535433,
            "duration": 0.19736850000001027
          },
          {
            "name": "B3",
            "midi": 59,
            "time": 248.28957300000198,
            "velocity": 0.3858267716535433,
            "duration": 0.19736850000001027
          },
          {
            "name": "D#4",
            "midi": 63,
            "time": 248.486941500002,
            "velocity": 0.3858267716535433,
            "duration": 0.19736850000001027
          },
          {
            "name": "F#3",
            "midi": 54,
            "time": 248.684310000002,
            "velocity": 0.3858267716535433,
            "duration": 0.19736850000001027
          },
          {
            "name": "E4",
            "midi": 64,
            "time": 248.881678500002,
            "velocity": 0.3858267716535433,
            "duration": 0.19736850000001027
          },
          {
            "name": "C#4",
            "midi": 61,
            "time": 249.07904700000202,
            "velocity": 0.3858267716535433,
            "duration": 0.19736850000001027
          },
          {
            "name": "E4",
            "midi": 64,
            "time": 249.27641550000203,
            "velocity": 0.3858267716535433,
            "duration": 0.19736850000001027
          },
          {
            "name": "B2",
            "midi": 47,
            "time": 249.47378400000204,
            "velocity": 0.3858267716535433,
            "duration": 0.19736850000001027
          },
          {
            "name": "F#3",
            "midi": 54,
            "time": 249.67115250000205,
            "velocity": 0.3858267716535433,
            "duration": 0.19736850000001027
          },
          {
            "name": "D#3",
            "midi": 51,
            "time": 249.86852100000206,
            "velocity": 0.3858267716535433,
            "duration": 0.19736850000001027
          },
          {
            "name": "F#3",
            "midi": 54,
            "time": 250.06588950000207,
            "velocity": 0.3858267716535433,
            "duration": 0.19736850000001027
          },
          {
            "name": "B2",
            "midi": 47,
            "time": 250.26325800000208,
            "velocity": 0.4881889763779528,
            "duration": 0.19736850000001027
          },
          {
            "name": "F#3",
            "midi": 54,
            "time": 250.4606265000021,
            "velocity": 0.4881889763779528,
            "duration": 0.19736850000001027
          },
          {
            "name": "D#3",
            "midi": 51,
            "time": 250.6579950000021,
            "velocity": 0.4881889763779528,
            "duration": 0.19736850000001027
          },
          {
            "name": "F#3",
            "midi": 54,
            "time": 250.8553635000021,
            "velocity": 0.4881889763779528,
            "duration": 0.19736850000001027
          },
          {
            "name": "B2",
            "midi": 47,
            "time": 251.05273200000212,
            "velocity": 0.4881889763779528,
            "duration": 0.19736850000001027
          },
          {
            "name": "F#3",
            "midi": 54,
            "time": 251.25010050000213,
            "velocity": 0.4881889763779528,
            "duration": 0.19736850000001027
          },
          {
            "name": "D#3",
            "midi": 51,
            "time": 251.44746900000214,
            "velocity": 0.4881889763779528,
            "duration": 0.19736850000001027
          },
          {
            "name": "F#3",
            "midi": 54,
            "time": 251.64483750000215,
            "velocity": 0.4881889763779528,
            "duration": 0.19736850000001027
          },
          {
            "name": "B2",
            "midi": 47,
            "time": 251.84220600000216,
            "velocity": 0.4881889763779528,
            "duration": 0.19736850000001027
          },
          {
            "name": "F#3",
            "midi": 54,
            "time": 252.03957450000217,
            "velocity": 0.4881889763779528,
            "duration": 0.19736850000001027
          },
          {
            "name": "D#3",
            "midi": 51,
            "time": 252.23694300000219,
            "velocity": 0.4881889763779528,
            "duration": 0.19736850000001027
          },
          {
            "name": "F#3",
            "midi": 54,
            "time": 252.4343115000022,
            "velocity": 0.4881889763779528,
            "duration": 0.19736850000001027
          },
          {
            "name": "C#3",
            "midi": 49,
            "time": 252.6316800000022,
            "velocity": 0.4881889763779528,
            "duration": 0.19736850000001027
          },
          {
            "name": "A#3",
            "midi": 58,
            "time": 252.82904850000222,
            "velocity": 0.4881889763779528,
            "duration": 0.19736850000001027
          },
          {
            "name": "E3",
            "midi": 52,
            "time": 253.02641700000223,
            "velocity": 0.4881889763779528,
            "duration": 0.19736850000001027
          },
          {
            "name": "A#3",
            "midi": 58,
            "time": 253.22378550000224,
            "velocity": 0.4881889763779528,
            "duration": 0.19736850000001027
          },
          {
            "name": "C#3",
            "midi": 49,
            "time": 253.42115400000225,
            "velocity": 0.4881889763779528,
            "duration": 0.19736850000001027
          },
          {
            "name": "A#3",
            "midi": 58,
            "time": 253.61852250000226,
            "velocity": 0.4881889763779528,
            "duration": 0.19736850000001027
          },
          {
            "name": "E3",
            "midi": 52,
            "time": 253.81589100000227,
            "velocity": 0.4881889763779528,
            "duration": 0.19736850000001027
          },
          {
            "name": "A#3",
            "midi": 58,
            "time": 254.01325950000228,
            "velocity": 0.4881889763779528,
            "duration": 0.19736850000001027
          },
          {
            "name": "C#3",
            "midi": 49,
            "time": 254.2106280000023,
            "velocity": 0.4881889763779528,
            "duration": 0.19736850000001027
          },
          {
            "name": "A#3",
            "midi": 58,
            "time": 254.4079965000023,
            "velocity": 0.4881889763779528,
            "duration": 0.19736850000001027
          },
          {
            "name": "E3",
            "midi": 52,
            "time": 254.6053650000023,
            "velocity": 0.4881889763779528,
            "duration": 0.19736850000001027
          },
          {
            "name": "A#3",
            "midi": 58,
            "time": 254.80273350000232,
            "velocity": 0.4881889763779528,
            "duration": 0.19736850000001027
          },
          {
            "name": "C#3",
            "midi": 49,
            "time": 255.00010200000233,
            "velocity": 0.4881889763779528,
            "duration": 0.19736850000001027
          },
          {
            "name": "A#3",
            "midi": 58,
            "time": 255.19747050000234,
            "velocity": 0.4881889763779528,
            "duration": 0.19736850000001027
          },
          {
            "name": "E3",
            "midi": 52,
            "time": 255.39483900000235,
            "velocity": 0.4881889763779528,
            "duration": 0.19736850000001027
          },
          {
            "name": "A#3",
            "midi": 58,
            "time": 255.59220750000236,
            "velocity": 0.4881889763779528,
            "duration": 0.19736850000001027
          },
          {
            "name": "D#3",
            "midi": 51,
            "time": 255.78957600000237,
            "velocity": 0.4881889763779528,
            "duration": 0.19736850000001027
          },
          {
            "name": "B3",
            "midi": 59,
            "time": 255.98694450000238,
            "velocity": 0.4881889763779528,
            "duration": 0.19736849999998185
          },
          {
            "name": "F#3",
            "midi": 54,
            "time": 256.18431300000236,
            "velocity": 0.4881889763779528,
            "duration": 0.19736849999998185
          },
          {
            "name": "B3",
            "midi": 59,
            "time": 256.38168150000234,
            "velocity": 0.4881889763779528,
            "duration": 0.19736849999998185
          },
          {
            "name": "E3",
            "midi": 52,
            "time": 256.5790500000023,
            "velocity": 0.4881889763779528,
            "duration": 0.19736849999998185
          },
          {
            "name": "A#3",
            "midi": 58,
            "time": 256.7764185000023,
            "velocity": 0.4881889763779528,
            "duration": 0.19736849999998185
          },
          {
            "name": "F#3",
            "midi": 54,
            "time": 256.9737870000023,
            "velocity": 0.4881889763779528,
            "duration": 0.19736849999998185
          },
          {
            "name": "A#3",
            "midi": 58,
            "time": 257.17115550000227,
            "velocity": 0.4881889763779528,
            "duration": 0.19736849999998185
          },
          {
            "name": "D#3",
            "midi": 51,
            "time": 257.36852400000225,
            "velocity": 0.4881889763779528,
            "duration": 0.19736849999998185
          },
          {
            "name": "B3",
            "midi": 59,
            "time": 257.56589250000224,
            "velocity": 0.4881889763779528,
            "duration": 0.19736849999998185
          },
          {
            "name": "F#3",
            "midi": 54,
            "time": 257.7632610000022,
            "velocity": 0.4881889763779528,
            "duration": 0.19736849999998185
          },
          {
            "name": "B3",
            "midi": 59,
            "time": 257.9606295000022,
            "velocity": 0.4881889763779528,
            "duration": 0.19736849999998185
          },
          {
            "name": "E3",
            "midi": 52,
            "time": 258.1579980000022,
            "velocity": 0.4881889763779528,
            "duration": 0.19736849999998185
          },
          {
            "name": "A#3",
            "midi": 58,
            "time": 258.35536650000216,
            "velocity": 0.4881889763779528,
            "duration": 0.19736849999998185
          },
          {
            "name": "F#3",
            "midi": 54,
            "time": 258.55273500000214,
            "velocity": 0.4881889763779528,
            "duration": 0.19736849999998185
          },
          {
            "name": "A#3",
            "midi": 58,
            "time": 258.7501035000021,
            "velocity": 0.4881889763779528,
            "duration": 0.19736849999998185
          },
          {
            "name": "D#3",
            "midi": 51,
            "time": 258.9474720000021,
            "velocity": 0.4881889763779528,
            "duration": 0.19736849999998185
          },
          {
            "name": "B3",
            "midi": 59,
            "time": 259.1448405000021,
            "velocity": 0.4881889763779528,
            "duration": 0.19736849999998185
          },
          {
            "name": "F#3",
            "midi": 54,
            "time": 259.3422090000021,
            "velocity": 0.4881889763779528,
            "duration": 0.19736849999998185
          },
          {
            "name": "B3",
            "midi": 59,
            "time": 259.53957750000205,
            "velocity": 0.4881889763779528,
            "duration": 0.19736849999998185
          },
          {
            "name": "E3",
            "midi": 52,
            "time": 259.73694600000204,
            "velocity": 0.4881889763779528,
            "duration": 0.19736849999998185
          },
          {
            "name": "B3",
            "midi": 59,
            "time": 259.934314500002,
            "velocity": 0.4881889763779528,
            "duration": 0.19736849999998185
          },
          {
            "name": "G#3",
            "midi": 56,
            "time": 260.131683000002,
            "velocity": 0.4881889763779528,
            "duration": 0.19736849999998185
          },
          {
            "name": "B3",
            "midi": 59,
            "time": 260.329051500002,
            "velocity": 0.4881889763779528,
            "duration": 0.19736849999998185
          },
          {
            "name": "F#3",
            "midi": 54,
            "time": 260.52642000000196,
            "velocity": 0.4881889763779528,
            "duration": 0.19736849999998185
          },
          {
            "name": "D#4",
            "midi": 63,
            "time": 260.72378850000194,
            "velocity": 0.4881889763779528,
            "duration": 0.19736849999998185
          },
          {
            "name": "B3",
            "midi": 59,
            "time": 260.9211570000019,
            "velocity": 0.4881889763779528,
            "duration": 0.19736849999998185
          },
          {
            "name": "D#4",
            "midi": 63,
            "time": 261.1185255000019,
            "velocity": 0.4881889763779528,
            "duration": 0.19736849999998185
          },
          {
            "name": "F#3",
            "midi": 54,
            "time": 261.3158940000019,
            "velocity": 0.4881889763779528,
            "duration": 0.19736849999998185
          },
          {
            "name": "E4",
            "midi": 64,
            "time": 261.5132625000019,
            "velocity": 0.4881889763779528,
            "duration": 0.19736849999998185
          },
          {
            "name": "C#4",
            "midi": 61,
            "time": 261.71063100000185,
            "velocity": 0.4881889763779528,
            "duration": 0.19736849999998185
          },
          {
            "name": "E4",
            "midi": 64,
            "time": 261.90799950000184,
            "velocity": 0.4881889763779528,
            "duration": 0.19736849999998185
          },
          {
            "name": "D#3",
            "midi": 51,
            "time": 262.1053680000018,
            "velocity": 0.4881889763779528,
            "duration": 0.19736849999998185
          },
          {
            "name": "B3",
            "midi": 59,
            "time": 262.3027365000018,
            "velocity": 0.4881889763779528,
            "duration": 0.19736849999998185
          },
          {
            "name": "F#3",
            "midi": 54,
            "time": 262.5001050000018,
            "velocity": 0.4881889763779528,
            "duration": 0.19736849999998185
          },
          {
            "name": "B3",
            "midi": 59,
            "time": 262.69747350000176,
            "velocity": 0.4881889763779528,
            "duration": 0.19736849999998185
          },
          {
            "name": "E3",
            "midi": 52,
            "time": 262.89484200000174,
            "velocity": 0.4881889763779528,
            "duration": 0.19736849999998185
          },
          {
            "name": "B3",
            "midi": 59,
            "time": 263.0922105000017,
            "velocity": 0.4881889763779528,
            "duration": 0.19736849999998185
          },
          {
            "name": "G#3",
            "midi": 56,
            "time": 263.2895790000017,
            "velocity": 0.4881889763779528,
            "duration": 0.19736849999998185
          },
          {
            "name": "B3",
            "midi": 59,
            "time": 263.4869475000017,
            "velocity": 0.4881889763779528,
            "duration": 0.19736849999998185
          },
          {
            "name": "F#3",
            "midi": 54,
            "time": 263.6843160000017,
            "velocity": 0.4881889763779528,
            "duration": 0.19736849999998185
          },
          {
            "name": "D#4",
            "midi": 63,
            "time": 263.88168450000165,
            "velocity": 0.4881889763779528,
            "duration": 0.19736849999998185
          },
          {
            "name": "B3",
            "midi": 59,
            "time": 264.07905300000164,
            "velocity": 0.4881889763779528,
            "duration": 0.19736849999998185
          },
          {
            "name": "D#4",
            "midi": 63,
            "time": 264.2764215000016,
            "velocity": 0.4881889763779528,
            "duration": 0.19736849999998185
          },
          {
            "name": "F#3",
            "midi": 54,
            "time": 264.4737900000016,
            "velocity": 0.4881889763779528,
            "duration": 0.19736849999998185
          },
          {
            "name": "E4",
            "midi": 64,
            "time": 264.6711585000016,
            "velocity": 0.4881889763779528,
            "duration": 0.19736849999998185
          },
          {
            "name": "C#4",
            "midi": 61,
            "time": 264.86852700000156,
            "velocity": 0.4881889763779528,
            "duration": 0.19736849999998185
          },
          {
            "name": "E4",
            "midi": 64,
            "time": 265.06589550000155,
            "velocity": 0.4881889763779528,
            "duration": 0.19736849999998185
          },
          {
            "name": "B3",
            "midi": 59,
            "time": 265.2632640000015,
            "velocity": 0.5905511811023622,
            "duration": 0.7894739999999842
          },
          {
            "name": "D#4",
            "midi": 63,
            "time": 265.2632640000015,
            "velocity": 0.5905511811023622,
            "duration": 0.7894739999999842
          },
          {
            "name": "B2",
            "midi": 47,
            "time": 266.0527380000015,
            "velocity": 0.5905511811023622,
            "duration": 0.39473700000002054
          },
          {
            "name": "D#3",
            "midi": 51,
            "time": 266.0527380000015,
            "velocity": 0.5905511811023622,
            "duration": 0.39473700000002054
          },
          {
            "name": "F#3",
            "midi": 54,
            "time": 266.0527380000015,
            "velocity": 0.5905511811023622,
            "duration": 0.39473700000002054
          },
          {
            "name": "B3",
            "midi": 59,
            "time": 266.0527380000015,
            "velocity": 0.5905511811023622,
            "duration": 0.39473700000002054
          },
          {
            "name": "B2",
            "midi": 47,
            "time": 266.44747500000153,
            "velocity": 0.5905511811023622,
            "duration": 0.39473700000002054
          },
          {
            "name": "D#3",
            "midi": 51,
            "time": 266.44747500000153,
            "velocity": 0.5905511811023622,
            "duration": 0.39473700000002054
          },
          {
            "name": "F#3",
            "midi": 54,
            "time": 266.44747500000153,
            "velocity": 0.5905511811023622,
            "duration": 0.39473700000002054
          },
          {
            "name": "B3",
            "midi": 59,
            "time": 266.44747500000153,
            "velocity": 0.5905511811023622,
            "duration": 0.39473700000002054
          },
          {
            "name": "B2",
            "midi": 47,
            "time": 266.84221200000155,
            "velocity": 0.7952755905511811,
            "duration": 1.5789480000000253
          },
          {
            "name": "E3",
            "midi": 52,
            "time": 266.84221200000155,
            "velocity": 0.7952755905511811,
            "duration": 1.5789480000000253
          },
          {
            "name": "F#3",
            "midi": 54,
            "time": 266.84221200000155,
            "velocity": 0.7952755905511811,
            "duration": 1.5789480000000253
          },
          {
            "name": "A#3",
            "midi": 58,
            "time": 266.84221200000155,
            "velocity": 0.7952755905511811,
            "duration": 1.5789480000000253
          },
          {
            "name": "B2",
            "midi": 47,
            "time": 268.4211600000016,
            "velocity": 0.5905511811023622,
            "duration": 0.7894739999999842
          },
          {
            "name": "D#3",
            "midi": 51,
            "time": 268.4211600000016,
            "velocity": 0.5905511811023622,
            "duration": 0.7894739999999842
          },
          {
            "name": "F#3",
            "midi": 54,
            "time": 268.4211600000016,
            "velocity": 0.5905511811023622,
            "duration": 0.7894739999999842
          },
          {
            "name": "B3",
            "midi": 59,
            "time": 268.4211600000016,
            "velocity": 0.5905511811023622,
            "duration": 0.7894739999999842
          },
          {
            "name": "B2",
            "midi": 47,
            "time": 269.21063400000156,
            "velocity": 0.5905511811023622,
            "duration": 0.39473700000002054
          },
          {
            "name": "D#3",
            "midi": 51,
            "time": 269.21063400000156,
            "velocity": 0.5905511811023622,
            "duration": 0.39473700000002054
          },
          {
            "name": "F#3",
            "midi": 54,
            "time": 269.21063400000156,
            "velocity": 0.5905511811023622,
            "duration": 0.39473700000002054
          },
          {
            "name": "B3",
            "midi": 59,
            "time": 269.21063400000156,
            "velocity": 0.5905511811023622,
            "duration": 0.39473700000002054
          },
          {
            "name": "B2",
            "midi": 47,
            "time": 269.6053710000016,
            "velocity": 0.5905511811023622,
            "duration": 0.39473700000002054
          },
          {
            "name": "D#3",
            "midi": 51,
            "time": 269.6053710000016,
            "velocity": 0.5905511811023622,
            "duration": 0.39473700000002054
          },
          {
            "name": "F#3",
            "midi": 54,
            "time": 269.6053710000016,
            "velocity": 0.5905511811023622,
            "duration": 0.39473700000002054
          },
          {
            "name": "B3",
            "midi": 59,
            "time": 269.6053710000016,
            "velocity": 0.5905511811023622,
            "duration": 0.39473700000002054
          },
          {
            "name": "B2",
            "midi": 47,
            "time": 270.0001080000016,
            "velocity": 0.7952755905511811,
            "duration": 1.5789480000000253
          },
          {
            "name": "E3",
            "midi": 52,
            "time": 270.0001080000016,
            "velocity": 0.7952755905511811,
            "duration": 1.5789480000000253
          },
          {
            "name": "F#3",
            "midi": 54,
            "time": 270.0001080000016,
            "velocity": 0.7952755905511811,
            "duration": 1.5789480000000253
          },
          {
            "name": "A#3",
            "midi": 58,
            "time": 270.0001080000016,
            "velocity": 0.7952755905511811,
            "duration": 1.5789480000000253
          },
          {
            "name": "B2",
            "midi": 47,
            "time": 271.57905600000163,
            "velocity": 0.5905511811023622,
            "duration": 0.39473700000002054
          },
          {
            "name": "D#3",
            "midi": 51,
            "time": 271.57905600000163,
            "velocity": 0.5905511811023622,
            "duration": 0.39473700000002054
          },
          {
            "name": "C#3",
            "midi": 49,
            "time": 271.97379300000165,
            "velocity": 0.5905511811023622,
            "duration": 0.39473700000002054
          },
          {
            "name": "E3",
            "midi": 52,
            "time": 271.97379300000165,
            "velocity": 0.5905511811023622,
            "duration": 0.39473700000002054
          },
          {
            "name": "B2",
            "midi": 47,
            "time": 272.36853000000167,
            "velocity": 0.5905511811023622,
            "duration": 0.39473700000002054
          },
          {
            "name": "D#3",
            "midi": 51,
            "time": 272.36853000000167,
            "velocity": 0.5905511811023622,
            "duration": 0.39473700000002054
          },
          {
            "name": "C#3",
            "midi": 49,
            "time": 272.7632670000017,
            "velocity": 0.5905511811023622,
            "duration": 0.39473700000002054
          },
          {
            "name": "E3",
            "midi": 52,
            "time": 272.7632670000017,
            "velocity": 0.5905511811023622,
            "duration": 0.39473700000002054
          },
          {
            "name": "B2",
            "midi": 47,
            "time": 273.1580040000017,
            "velocity": 0.5905511811023622,
            "duration": 0.39473700000002054
          },
          {
            "name": "D#3",
            "midi": 51,
            "time": 273.1580040000017,
            "velocity": 0.5905511811023622,
            "duration": 0.39473700000002054
          },
          {
            "name": "C#3",
            "midi": 49,
            "time": 273.55274100000173,
            "velocity": 0.5905511811023622,
            "duration": 0.39473700000002054
          },
          {
            "name": "E3",
            "midi": 52,
            "time": 273.55274100000173,
            "velocity": 0.5905511811023622,
            "duration": 0.39473700000002054
          },
          {
            "name": "B2",
            "midi": 47,
            "time": 273.94747800000175,
            "velocity": 0.5905511811023622,
            "duration": 0.39473700000002054
          },
          {
            "name": "D#3",
            "midi": 51,
            "time": 273.94747800000175,
            "velocity": 0.5905511811023622,
            "duration": 0.39473700000002054
          },
          {
            "name": "C#3",
            "midi": 49,
            "time": 274.3422150000018,
            "velocity": 0.5905511811023622,
            "duration": 0.39473700000002054
          },
          {
            "name": "E3",
            "midi": 52,
            "time": 274.3422150000018,
            "velocity": 0.5905511811023622,
            "duration": 0.39473700000002054
          },
          {
            "name": "B2",
            "midi": 47,
            "time": 274.7369520000018,
            "velocity": 0.5905511811023622,
            "duration": 0.39473700000002054
          },
          {
            "name": "D#3",
            "midi": 51,
            "time": 274.7369520000018,
            "velocity": 0.5905511811023622,
            "duration": 0.39473700000002054
          },
          {
            "name": "C#5",
            "midi": 73,
            "time": 275.1316890000018,
            "velocity": 0.5905511811023622,
            "duration": 0.39473700000002054
          },
          {
            "name": "E5",
            "midi": 76,
            "time": 275.1316890000018,
            "velocity": 0.5905511811023622,
            "duration": 0.39473700000002054
          },
          {
            "name": "B4",
            "midi": 71,
            "time": 275.52642600000183,
            "velocity": 0.5905511811023622,
            "duration": 0.39473700000002054
          },
          {
            "name": "D#5",
            "midi": 75,
            "time": 275.52642600000183,
            "velocity": 0.5905511811023622,
            "duration": 0.39473700000002054
          },
          {
            "name": "C#5",
            "midi": 73,
            "time": 275.92116300000185,
            "velocity": 0.5905511811023622,
            "duration": 0.39473700000002054
          },
          {
            "name": "E5",
            "midi": 76,
            "time": 275.92116300000185,
            "velocity": 0.5905511811023622,
            "duration": 0.39473700000002054
          },
          {
            "name": "B4",
            "midi": 71,
            "time": 276.3159000000019,
            "velocity": 0.5905511811023622,
            "duration": 0.39473700000002054
          },
          {
            "name": "D#5",
            "midi": 75,
            "time": 276.3159000000019,
            "velocity": 0.5905511811023622,
            "duration": 0.39473700000002054
          },
          {
            "name": "C#5",
            "midi": 73,
            "time": 276.7106370000019,
            "velocity": 0.5905511811023622,
            "duration": 0.39473700000002054
          },
          {
            "name": "E5",
            "midi": 76,
            "time": 276.7106370000019,
            "velocity": 0.5905511811023622,
            "duration": 0.39473700000002054
          },
          {
            "name": "B4",
            "midi": 71,
            "time": 277.1053740000019,
            "velocity": 0.5905511811023622,
            "duration": 0.39473700000002054
          },
          {
            "name": "D#5",
            "midi": 75,
            "time": 277.1053740000019,
            "velocity": 0.5905511811023622,
            "duration": 0.39473700000002054
          },
          {
            "name": "C#5",
            "midi": 73,
            "time": 277.50011100000194,
            "velocity": 0.5905511811023622,
            "duration": 0.39473700000002054
          },
          {
            "name": "E5",
            "midi": 76,
            "time": 277.50011100000194,
            "velocity": 0.5905511811023622,
            "duration": 0.39473700000002054
          },
          {
            "name": "B4",
            "midi": 71,
            "time": 277.89484800000196,
            "velocity": 0.5905511811023622,
            "duration": 0.7894739999999842
          },
          {
            "name": "D5",
            "midi": 74,
            "time": 277.89484800000196,
            "velocity": 0.5905511811023622,
            "duration": 0.7894739999999842
          },
          {
            "name": "B2",
            "midi": 47,
            "time": 278.68432200000194,
            "velocity": 0.5905511811023622,
            "duration": 0.39473700000002054
          },
          {
            "name": "D3",
            "midi": 50,
            "time": 278.68432200000194,
            "velocity": 0.5905511811023622,
            "duration": 0.39473700000002054
          },
          {
            "name": "F#3",
            "midi": 54,
            "time": 278.68432200000194,
            "velocity": 0.5905511811023622,
            "duration": 0.39473700000002054
          },
          {
            "name": "B3",
            "midi": 59,
            "time": 278.68432200000194,
            "velocity": 0.5905511811023622,
            "duration": 0.39473700000002054
          },
          {
            "name": "B2",
            "midi": 47,
            "time": 279.07905900000196,
            "velocity": 0.5905511811023622,
            "duration": 0.39473700000002054
          },
          {
            "name": "D3",
            "midi": 50,
            "time": 279.07905900000196,
            "velocity": 0.5905511811023622,
            "duration": 0.39473700000002054
          },
          {
            "name": "F#3",
            "midi": 54,
            "time": 279.07905900000196,
            "velocity": 0.5905511811023622,
            "duration": 0.39473700000002054
          },
          {
            "name": "B3",
            "midi": 59,
            "time": 279.07905900000196,
            "velocity": 0.5905511811023622,
            "duration": 0.39473700000002054
          },
          {
            "name": "B2",
            "midi": 47,
            "time": 279.473796000002,
            "velocity": 0.5905511811023622,
            "duration": 1.5789480000000253
          },
          {
            "name": "E3",
            "midi": 52,
            "time": 279.473796000002,
            "velocity": 0.5905511811023622,
            "duration": 1.5789480000000253
          },
          {
            "name": "F#3",
            "midi": 54,
            "time": 279.473796000002,
            "velocity": 0.5905511811023622,
            "duration": 1.5789480000000253
          },
          {
            "name": "A#3",
            "midi": 58,
            "time": 279.473796000002,
            "velocity": 0.5905511811023622,
            "duration": 1.5789480000000253
          },
          {
            "name": "B2",
            "midi": 47,
            "time": 281.052744000002,
            "velocity": 0.5905511811023622,
            "duration": 0.7894739999999842
          },
          {
            "name": "D3",
            "midi": 50,
            "time": 281.052744000002,
            "velocity": 0.5905511811023622,
            "duration": 0.7894739999999842
          },
          {
            "name": "F#3",
            "midi": 54,
            "time": 281.052744000002,
            "velocity": 0.5905511811023622,
            "duration": 0.7894739999999842
          },
          {
            "name": "B3",
            "midi": 59,
            "time": 281.052744000002,
            "velocity": 0.5905511811023622,
            "duration": 0.7894739999999842
          },
          {
            "name": "B2",
            "midi": 47,
            "time": 281.842218000002,
            "velocity": 0.5905511811023622,
            "duration": 0.39473700000002054
          },
          {
            "name": "D3",
            "midi": 50,
            "time": 281.842218000002,
            "velocity": 0.5905511811023622,
            "duration": 0.39473700000002054
          },
          {
            "name": "F#3",
            "midi": 54,
            "time": 281.842218000002,
            "velocity": 0.5905511811023622,
            "duration": 0.39473700000002054
          },
          {
            "name": "B3",
            "midi": 59,
            "time": 281.842218000002,
            "velocity": 0.5905511811023622,
            "duration": 0.39473700000002054
          },
          {
            "name": "B2",
            "midi": 47,
            "time": 282.236955000002,
            "velocity": 0.5905511811023622,
            "duration": 0.39473700000002054
          },
          {
            "name": "D3",
            "midi": 50,
            "time": 282.236955000002,
            "velocity": 0.5905511811023622,
            "duration": 0.39473700000002054
          },
          {
            "name": "F#3",
            "midi": 54,
            "time": 282.236955000002,
            "velocity": 0.5905511811023622,
            "duration": 0.39473700000002054
          },
          {
            "name": "B3",
            "midi": 59,
            "time": 282.236955000002,
            "velocity": 0.5905511811023622,
            "duration": 0.39473700000002054
          },
          {
            "name": "F#2",
            "midi": 42,
            "time": 282.63169200000203,
            "velocity": 0.5905511811023622,
            "duration": 1.5789480000000253
          },
          {
            "name": "A#2",
            "midi": 46,
            "time": 282.63169200000203,
            "velocity": 0.5905511811023622,
            "duration": 1.5789480000000253
          },
          {
            "name": "C#3",
            "midi": 49,
            "time": 282.63169200000203,
            "velocity": 0.5905511811023622,
            "duration": 1.5789480000000253
          },
          {
            "name": "E3",
            "midi": 52,
            "time": 282.63169200000203,
            "velocity": 0.5905511811023622,
            "duration": 1.5789480000000253
          },
          {
            "name": "G2",
            "midi": 43,
            "time": 284.21064000000206,
            "velocity": 0.5905511811023622,
            "duration": 0.7894739999999842
          },
          {
            "name": "B2",
            "midi": 47,
            "time": 284.21064000000206,
            "velocity": 0.5905511811023622,
            "duration": 0.7894739999999842
          },
          {
            "name": "D3",
            "midi": 50,
            "time": 284.21064000000206,
            "velocity": 0.5905511811023622,
            "duration": 0.7894739999999842
          },
          {
            "name": "G2",
            "midi": 43,
            "time": 285.00011400000204,
            "velocity": 0.5905511811023622,
            "duration": 0.39473700000002054
          },
          {
            "name": "B2",
            "midi": 47,
            "time": 285.00011400000204,
            "velocity": 0.5905511811023622,
            "duration": 0.39473700000002054
          },
          {
            "name": "D3",
            "midi": 50,
            "time": 285.00011400000204,
            "velocity": 0.5905511811023622,
            "duration": 0.39473700000002054
          },
          {
            "name": "G3",
            "midi": 55,
            "time": 285.00011400000204,
            "velocity": 0.5905511811023622,
            "duration": 0.39473700000002054
          },
          {
            "name": "G2",
            "midi": 43,
            "time": 285.39485100000206,
            "velocity": 0.5905511811023622,
            "duration": 0.39473700000002054
          },
          {
            "name": "B2",
            "midi": 47,
            "time": 285.39485100000206,
            "velocity": 0.5905511811023622,
            "duration": 0.39473700000002054
          },
          {
            "name": "D3",
            "midi": 50,
            "time": 285.39485100000206,
            "velocity": 0.5905511811023622,
            "duration": 0.39473700000002054
          },
          {
            "name": "G3",
            "midi": 55,
            "time": 285.39485100000206,
            "velocity": 0.5905511811023622,
            "duration": 0.39473700000002054
          },
          {
            "name": "G2",
            "midi": 43,
            "time": 285.7895880000021,
            "velocity": 0.5905511811023622,
            "duration": 1.5789480000000253
          },
          {
            "name": "C3",
            "midi": 48,
            "time": 285.7895880000021,
            "velocity": 0.5905511811023622,
            "duration": 1.5789480000000253
          },
          {
            "name": "D3",
            "midi": 50,
            "time": 285.7895880000021,
            "velocity": 0.5905511811023622,
            "duration": 1.5789480000000253
          },
          {
            "name": "F#3",
            "midi": 54,
            "time": 285.7895880000021,
            "velocity": 0.5905511811023622,
            "duration": 1.5789480000000253
          },
          {
            "name": "G2",
            "midi": 43,
            "time": 287.3685360000021,
            "velocity": 0.5905511811023622,
            "duration": 0.7894739999999842
          },
          {
            "name": "B2",
            "midi": 47,
            "time": 287.3685360000021,
            "velocity": 0.5905511811023622,
            "duration": 0.7894739999999842
          },
          {
            "name": "D3",
            "midi": 50,
            "time": 287.3685360000021,
            "velocity": 0.5905511811023622,
            "duration": 0.7894739999999842
          },
          {
            "name": "G3",
            "midi": 55,
            "time": 287.3685360000021,
            "velocity": 0.5905511811023622,
            "duration": 0.7894739999999842
          },
          {
            "name": "G2",
            "midi": 43,
            "time": 288.1580100000021,
            "velocity": 0.5905511811023622,
            "duration": 0.39473700000002054
          },
          {
            "name": "B2",
            "midi": 47,
            "time": 288.1580100000021,
            "velocity": 0.5905511811023622,
            "duration": 0.39473700000002054
          },
          {
            "name": "D3",
            "midi": 50,
            "time": 288.1580100000021,
            "velocity": 0.5905511811023622,
            "duration": 0.39473700000002054
          },
          {
            "name": "G3",
            "midi": 55,
            "time": 288.1580100000021,
            "velocity": 0.5905511811023622,
            "duration": 0.39473700000002054
          },
          {
            "name": "G2",
            "midi": 43,
            "time": 288.5527470000021,
            "velocity": 0.5905511811023622,
            "duration": 0.39473700000002054
          },
          {
            "name": "B2",
            "midi": 47,
            "time": 288.5527470000021,
            "velocity": 0.5905511811023622,
            "duration": 0.39473700000002054
          },
          {
            "name": "D3",
            "midi": 50,
            "time": 288.5527470000021,
            "velocity": 0.5905511811023622,
            "duration": 0.39473700000002054
          },
          {
            "name": "G3",
            "midi": 55,
            "time": 288.5527470000021,
            "velocity": 0.5905511811023622,
            "duration": 0.39473700000002054
          },
          {
            "name": "G2",
            "midi": 43,
            "time": 288.94748400000213,
            "velocity": 0.5905511811023622,
            "duration": 1.5789480000000253
          },
          {
            "name": "C3",
            "midi": 48,
            "time": 288.94748400000213,
            "velocity": 0.5905511811023622,
            "duration": 1.5789480000000253
          },
          {
            "name": "D3",
            "midi": 50,
            "time": 288.94748400000213,
            "velocity": 0.5905511811023622,
            "duration": 1.5789480000000253
          },
          {
            "name": "F#3",
            "midi": 54,
            "time": 288.94748400000213,
            "velocity": 0.5905511811023622,
            "duration": 1.5789480000000253
          },
          {
            "name": "G2",
            "midi": 43,
            "time": 290.52643200000216,
            "velocity": 0.5905511811023622,
            "duration": 0.39473700000002054
          },
          {
            "name": "B2",
            "midi": 47,
            "time": 290.52643200000216,
            "velocity": 0.5905511811023622,
            "duration": 0.39473700000002054
          },
          {
            "name": "A2",
            "midi": 45,
            "time": 290.9211690000022,
            "velocity": 0.5905511811023622,
            "duration": 0.39473700000002054
          },
          {
            "name": "C3",
            "midi": 48,
            "time": 290.9211690000022,
            "velocity": 0.5905511811023622,
            "duration": 0.39473700000002054
          },
          {
            "name": "G2",
            "midi": 43,
            "time": 291.3159060000022,
            "velocity": 0.5905511811023622,
            "duration": 0.39473700000002054
          },
          {
            "name": "B2",
            "midi": 47,
            "time": 291.3159060000022,
            "velocity": 0.5905511811023622,
            "duration": 0.39473700000002054
          },
          {
            "name": "A2",
            "midi": 45,
            "time": 291.7106430000022,
            "velocity": 0.5905511811023622,
            "duration": 0.39473700000002054
          },
          {
            "name": "C3",
            "midi": 48,
            "time": 291.7106430000022,
            "velocity": 0.5905511811023622,
            "duration": 0.39473700000002054
          },
          {
            "name": "G2",
            "midi": 43,
            "time": 292.10538000000224,
            "velocity": 0.5905511811023622,
            "duration": 0.39473700000002054
          },
          {
            "name": "B2",
            "midi": 47,
            "time": 292.10538000000224,
            "velocity": 0.5905511811023622,
            "duration": 0.39473700000002054
          },
          {
            "name": "B2",
            "midi": 47,
            "time": 292.50011700000226,
            "velocity": 0.5905511811023622,
            "duration": 0.39473700000002054
          },
          {
            "name": "D3",
            "midi": 50,
            "time": 292.50011700000226,
            "velocity": 0.5905511811023622,
            "duration": 0.39473700000002054
          },
          {
            "name": "A2",
            "midi": 45,
            "time": 292.8948540000023,
            "velocity": 0.5905511811023622,
            "duration": 0.39473700000002054
          },
          {
            "name": "C#3",
            "midi": 49,
            "time": 292.8948540000023,
            "velocity": 0.5905511811023622,
            "duration": 0.39473700000002054
          },
          {
            "name": "B2",
            "midi": 47,
            "time": 293.2895910000023,
            "velocity": 0.5905511811023622,
            "duration": 0.39473700000002054
          },
          {
            "name": "D3",
            "midi": 50,
            "time": 293.2895910000023,
            "velocity": 0.5905511811023622,
            "duration": 0.39473700000002054
          },
          {
            "name": "A2",
            "midi": 45,
            "time": 293.6843280000023,
            "velocity": 0.5905511811023622,
            "duration": 0.39473700000002054
          },
          {
            "name": "C#3",
            "midi": 49,
            "time": 293.6843280000023,
            "velocity": 0.5905511811023622,
            "duration": 0.39473700000002054
          },
          {
            "name": "C#3",
            "midi": 49,
            "time": 294.07906500000234,
            "velocity": 0.5905511811023622,
            "duration": 0.39473700000002054
          },
          {
            "name": "E3",
            "midi": 52,
            "time": 294.07906500000234,
            "velocity": 0.5905511811023622,
            "duration": 0.39473700000002054
          },
          {
            "name": "B2",
            "midi": 47,
            "time": 294.47380200000237,
            "velocity": 0.5905511811023622,
            "duration": 0.39473700000002054
          },
          {
            "name": "D3",
            "midi": 50,
            "time": 294.47380200000237,
            "velocity": 0.5905511811023622,
            "duration": 0.39473700000002054
          },
          {
            "name": "C#3",
            "midi": 49,
            "time": 294.8685390000024,
            "velocity": 0.5905511811023622,
            "duration": 0.39473700000002054
          },
          {
            "name": "E3",
            "midi": 52,
            "time": 294.8685390000024,
            "velocity": 0.5905511811023622,
            "duration": 0.39473700000002054
          },
          {
            "name": "B2",
            "midi": 47,
            "time": 295.2632760000024,
            "velocity": 0.5905511811023622,
            "duration": 0.39473700000002054
          },
          {
            "name": "D3",
            "midi": 50,
            "time": 295.2632760000024,
            "velocity": 0.5905511811023622,
            "duration": 0.39473700000002054
          },
          {
            "name": "D3",
            "midi": 50,
            "time": 295.6580130000024,
            "velocity": 0.5905511811023622,
            "duration": 0.39473700000002054
          },
          {
            "name": "F3",
            "midi": 53,
            "time": 295.6580130000024,
            "velocity": 0.5905511811023622,
            "duration": 0.39473700000002054
          },
          {
            "name": "C3",
            "midi": 48,
            "time": 296.05275000000245,
            "velocity": 0.5905511811023622,
            "duration": 0.39473700000002054
          },
          {
            "name": "E3",
            "midi": 52,
            "time": 296.05275000000245,
            "velocity": 0.5905511811023622,
            "duration": 0.39473700000002054
          },
          {
            "name": "D3",
            "midi": 50,
            "time": 296.44748700000247,
            "velocity": 0.5905511811023622,
            "duration": 0.39473700000002054
          },
          {
            "name": "F3",
            "midi": 53,
            "time": 296.44748700000247,
            "velocity": 0.5905511811023622,
            "duration": 0.39473700000002054
          },
          {
            "name": "C3",
            "midi": 48,
            "time": 296.8422240000025,
            "velocity": 0.5905511811023622,
            "duration": 0.39473700000002054
          },
          {
            "name": "E3",
            "midi": 52,
            "time": 296.8422240000025,
            "velocity": 0.5905511811023622,
            "duration": 0.39473700000002054
          },
          {
            "name": "D3",
            "midi": 50,
            "time": 297.2369610000025,
            "velocity": 0.5905511811023622,
            "duration": 0.39473700000002054
          },
          {
            "name": "F3",
            "midi": 53,
            "time": 297.2369610000025,
            "velocity": 0.5905511811023622,
            "duration": 0.39473700000002054
          },
          {
            "name": "C3",
            "midi": 48,
            "time": 297.63169800000253,
            "velocity": 0.5905511811023622,
            "duration": 0.39473700000002054
          },
          {
            "name": "E3",
            "midi": 52,
            "time": 297.63169800000253,
            "velocity": 0.5905511811023622,
            "duration": 0.39473700000002054
          },
          {
            "name": "D3",
            "midi": 50,
            "time": 298.02643500000255,
            "velocity": 0.5905511811023622,
            "duration": 0.39473700000002054
          },
          {
            "name": "F3",
            "midi": 53,
            "time": 298.02643500000255,
            "velocity": 0.5905511811023622,
            "duration": 0.39473700000002054
          },
          {
            "name": "C3",
            "midi": 48,
            "time": 298.42117200000257,
            "velocity": 0.5905511811023622,
            "duration": 0.39473700000002054
          },
          {
            "name": "E3",
            "midi": 52,
            "time": 298.42117200000257,
            "velocity": 0.5905511811023622,
            "duration": 0.39473700000002054
          },
          {
            "name": "C3",
            "midi": 48,
            "time": 300.0001200000026,
            "velocity": 0.5905511811023622,
            "duration": 0.19736849999998185
          },
          {
            "name": "G3",
            "midi": 55,
            "time": 300.1974885000026,
            "velocity": 0.7952755905511811,
            "duration": 0.19736849999998185
          },
          {
            "name": "E3",
            "midi": 52,
            "time": 300.39485700000256,
            "velocity": 0.5905511811023622,
            "duration": 0.19736849999998185
          },
          {
            "name": "C4",
            "midi": 60,
            "time": 300.59222550000254,
            "velocity": 0.7952755905511811,
            "duration": 0.19736849999998185
          },
          {
            "name": "G3",
            "midi": 55,
            "time": 300.7895940000025,
            "velocity": 0.5905511811023622,
            "duration": 0.19736849999998185
          },
          {
            "name": "E4",
            "midi": 64,
            "time": 300.9869625000025,
            "velocity": 0.7952755905511811,
            "duration": 0.19736849999998185
          },
          {
            "name": "C4",
            "midi": 60,
            "time": 301.1843310000025,
            "velocity": 0.5905511811023622,
            "duration": 0.19736849999998185
          },
          {
            "name": "G4",
            "midi": 67,
            "time": 301.38169950000247,
            "velocity": 0.7952755905511811,
            "duration": 0.19736849999998185
          },
          {
            "name": "E4",
            "midi": 64,
            "time": 301.97380500000247,
            "velocity": 0.5905511811023622,
            "duration": 0.7894739999999842
          },
          {
            "name": "C5",
            "midi": 72,
            "time": 301.97380500000247,
            "velocity": 0.5905511811023622,
            "duration": 0.7894739999999842
          },
          {
            "name": "C#5",
            "midi": 73,
            "time": 302.76327900000246,
            "velocity": 0.3858267716535433,
            "duration": 0.39473700000002054
          },
          {
            "name": "F#4",
            "midi": 66,
            "time": 303.1580160000025,
            "velocity": 0.3858267716535433,
            "duration": 0.39473700000002054
          },
          {
            "name": "B4",
            "midi": 71,
            "time": 303.1580160000025,
            "velocity": 0.3858267716535433,
            "duration": 0.39473700000002054
          },
          {
            "name": "D#5",
            "midi": 75,
            "time": 303.1580160000025,
            "velocity": 0.3858267716535433,
            "duration": 0.39473700000002054
          },
          {
            "name": "F#3",
            "midi": 54,
            "time": 303.9474900000025,
            "velocity": 0.3858267716535433,
            "duration": 0.19736849999998185
          },
          {
            "name": "B3",
            "midi": 59,
            "time": 303.9474900000025,
            "velocity": 0.3858267716535433,
            "duration": 0.19736849999998185
          },
          {
            "name": "D#4",
            "midi": 63,
            "time": 303.9474900000025,
            "velocity": 0.3858267716535433,
            "duration": 0.19736849999998185
          },
          {
            "name": "F#3",
            "midi": 54,
            "time": 304.3422270000025,
            "velocity": 0.3858267716535433,
            "duration": 0.19736849999998185
          },
          {
            "name": "B3",
            "midi": 59,
            "time": 304.3422270000025,
            "velocity": 0.3858267716535433,
            "duration": 0.19736849999998185
          },
          {
            "name": "D#4",
            "midi": 63,
            "time": 304.3422270000025,
            "velocity": 0.3858267716535433,
            "duration": 0.19736849999998185
          },
          {
            "name": "F#3",
            "midi": 54,
            "time": 304.73696400000244,
            "velocity": 0.3858267716535433,
            "duration": 0.39473700000002054
          },
          {
            "name": "C#4",
            "midi": 61,
            "time": 304.73696400000244,
            "velocity": 0.3858267716535433,
            "duration": 0.39473700000002054
          },
          {
            "name": "E4",
            "midi": 64,
            "time": 304.73696400000244,
            "velocity": 0.3858267716535433,
            "duration": 0.39473700000002054
          },
          {
            "name": "F#2",
            "midi": 42,
            "time": 305.5264380000025,
            "velocity": 0.3858267716535433,
            "duration": 0.19736849999998185
          },
          {
            "name": "C#3",
            "midi": 49,
            "time": 305.5264380000025,
            "velocity": 0.3858267716535433,
            "duration": 0.19736849999998185
          },
          {
            "name": "E3",
            "midi": 52,
            "time": 305.5264380000025,
            "velocity": 0.3858267716535433,
            "duration": 0.19736849999998185
          },
          {
            "name": "F#2",
            "midi": 42,
            "time": 305.92117500000245,
            "velocity": 0.3858267716535433,
            "duration": 0.19736849999998185
          },
          {
            "name": "C#3",
            "midi": 49,
            "time": 305.92117500000245,
            "velocity": 0.3858267716535433,
            "duration": 0.19736849999998185
          },
          {
            "name": "E3",
            "midi": 52,
            "time": 305.92117500000245,
            "velocity": 0.3858267716535433,
            "duration": 0.19736849999998185
          },
          {
            "name": "D#3",
            "midi": 51,
            "time": 306.3159120000024,
            "velocity": 0.3858267716535433,
            "duration": 0.19736849999998185
          },
          {
            "name": "B3",
            "midi": 59,
            "time": 306.5132805000024,
            "velocity": 0.3858267716535433,
            "duration": 0.19736849999998185
          },
          {
            "name": "F#3",
            "midi": 54,
            "time": 306.7106490000024,
            "velocity": 0.3858267716535433,
            "duration": 0.19736849999998185
          },
          {
            "name": "B3",
            "midi": 59,
            "time": 306.90801750000236,
            "velocity": 0.3858267716535433,
            "duration": 0.19736849999998185
          },
          {
            "name": "A3",
            "midi": 57,
            "time": 307.10538600000234,
            "velocity": 0.4881889763779528,
            "duration": 0.19736849999998185
          },
          {
            "name": "B3",
            "midi": 59,
            "time": 307.3027545000023,
            "velocity": 0.4881889763779528,
            "duration": 0.19736849999998185
          },
          {
            "name": "G3",
            "midi": 55,
            "time": 307.5001230000023,
            "velocity": 0.4881889763779528,
            "duration": 0.19736849999998185
          },
          {
            "name": "B3",
            "midi": 59,
            "time": 307.6974915000023,
            "velocity": 0.4881889763779528,
            "duration": 0.19736849999998185
          },
          {
            "name": "G#3",
            "midi": 56,
            "time": 307.89486000000227,
            "velocity": 0.4881889763779528,
            "duration": 0.19736849999998185
          },
          {
            "name": "B3",
            "midi": 59,
            "time": 308.09222850000225,
            "velocity": 0.4881889763779528,
            "duration": 0.19736849999998185
          },
          {
            "name": "F#3",
            "midi": 54,
            "time": 308.28959700000223,
            "velocity": 0.4881889763779528,
            "duration": 0.19736849999998185
          },
          {
            "name": "B3",
            "midi": 59,
            "time": 308.4869655000022,
            "velocity": 0.4881889763779528,
            "duration": 0.19736849999998185
          },
          {
            "name": "E3",
            "midi": 52,
            "time": 308.6843340000022,
            "velocity": 0.4881889763779528,
            "duration": 0.19736849999998185
          },
          {
            "name": "B3",
            "midi": 59,
            "time": 308.8817025000022,
            "velocity": 0.4881889763779528,
            "duration": 0.19736849999998185
          },
          {
            "name": "C#3",
            "midi": 49,
            "time": 309.07907100000216,
            "velocity": 0.4881889763779528,
            "duration": 0.19736849999998185
          },
          {
            "name": "B3",
            "midi": 59,
            "time": 309.27643950000214,
            "velocity": 0.4881889763779528,
            "duration": 0.19736849999998185
          },
          {
            "name": "D#3",
            "midi": 51,
            "time": 309.4738080000021,
            "velocity": 0.4881889763779528,
            "duration": 0.19736849999998185
          },
          {
            "name": "B3",
            "midi": 59,
            "time": 309.6711765000021,
            "velocity": 0.4881889763779528,
            "duration": 0.19736849999998185
          },
          {
            "name": "F#3",
            "midi": 54,
            "time": 309.8685450000021,
            "velocity": 0.4881889763779528,
            "duration": 0.19736849999998185
          },
          {
            "name": "B3",
            "midi": 59,
            "time": 310.06591350000207,
            "velocity": 0.4881889763779528,
            "duration": 0.19736849999998185
          },
          {
            "name": "A3",
            "midi": 57,
            "time": 310.26328200000205,
            "velocity": 0.4881889763779528,
            "duration": 0.19736849999998185
          },
          {
            "name": "B3",
            "midi": 59,
            "time": 310.46065050000203,
            "velocity": 0.4881889763779528,
            "duration": 0.19736849999998185
          },
          {
            "name": "G3",
            "midi": 55,
            "time": 310.658019000002,
            "velocity": 0.4881889763779528,
            "duration": 0.19736849999998185
          },
          {
            "name": "B3",
            "midi": 59,
            "time": 310.855387500002,
            "velocity": 0.4881889763779528,
            "duration": 0.19736849999998185
          },
          {
            "name": "G#3",
            "midi": 56,
            "time": 311.052756000002,
            "velocity": 0.4881889763779528,
            "duration": 0.19736849999998185
          },
          {
            "name": "B3",
            "midi": 59,
            "time": 311.25012450000196,
            "velocity": 0.4881889763779528,
            "duration": 0.19736849999998185
          },
          {
            "name": "F#3",
            "midi": 54,
            "time": 311.44749300000194,
            "velocity": 0.4881889763779528,
            "duration": 0.19736849999998185
          },
          {
            "name": "B3",
            "midi": 59,
            "time": 311.6448615000019,
            "velocity": 0.4881889763779528,
            "duration": 0.19736849999998185
          },
          {
            "name": "E3",
            "midi": 52,
            "time": 311.8422300000019,
            "velocity": 0.4881889763779528,
            "duration": 0.19736849999998185
          },
          {
            "name": "B3",
            "midi": 59,
            "time": 312.0395985000019,
            "velocity": 0.4881889763779528,
            "duration": 0.19736849999998185
          },
          {
            "name": "C#3",
            "midi": 49,
            "time": 312.23696700000187,
            "velocity": 0.4881889763779528,
            "duration": 0.19736849999998185
          },
          {
            "name": "B3",
            "midi": 59,
            "time": 312.43433550000185,
            "velocity": 0.4881889763779528,
            "duration": 0.19736849999998185
          },
          {
            "name": "D#3",
            "midi": 51,
            "time": 312.63170400000183,
            "velocity": 0.4881889763779528,
            "duration": 0.19736849999998185
          },
          {
            "name": "B3",
            "midi": 59,
            "time": 312.8290725000018,
            "velocity": 0.4881889763779528,
            "duration": 0.19736849999998185
          },
          {
            "name": "F#3",
            "midi": 54,
            "time": 313.0264410000018,
            "velocity": 0.4881889763779528,
            "duration": 0.19736849999998185
          },
          {
            "name": "B3",
            "midi": 59,
            "time": 313.2238095000018,
            "velocity": 0.4881889763779528,
            "duration": 0.19736849999998185
          },
          {
            "name": "G3",
            "midi": 55,
            "time": 313.42117800000176,
            "velocity": 0.3858267716535433,
            "duration": 0.19736849999998185
          },
          {
            "name": "B3",
            "midi": 59,
            "time": 313.61854650000174,
            "velocity": 0.3858267716535433,
            "duration": 0.19736849999998185
          },
          {
            "name": "E3",
            "midi": 52,
            "time": 313.8159150000017,
            "velocity": 0.3858267716535433,
            "duration": 0.19736849999998185
          },
          {
            "name": "B3",
            "midi": 59,
            "time": 314.0132835000017,
            "velocity": 0.3858267716535433,
            "duration": 0.19736849999998185
          },
          {
            "name": "F#3",
            "midi": 54,
            "time": 314.2106520000017,
            "velocity": 0.3858267716535433,
            "duration": 0.19736849999998185
          },
          {
            "name": "B3",
            "midi": 59,
            "time": 314.40802050000167,
            "velocity": 0.3858267716535433,
            "duration": 0.19736849999998185
          },
          {
            "name": "D#3",
            "midi": 51,
            "time": 314.60538900000165,
            "velocity": 0.3858267716535433,
            "duration": 0.19736849999998185
          },
          {
            "name": "B3",
            "midi": 59,
            "time": 314.80275750000163,
            "velocity": 0.3858267716535433,
            "duration": 0.19736849999998185
          },
          {
            "name": "E3",
            "midi": 52,
            "time": 315.0001260000016,
            "velocity": 0.3858267716535433,
            "duration": 0.19736849999998185
          },
          {
            "name": "A#3",
            "midi": 58,
            "time": 315.1974945000016,
            "velocity": 0.3858267716535433,
            "duration": 0.19736849999998185
          },
          {
            "name": "C#3",
            "midi": 49,
            "time": 315.3948630000016,
            "velocity": 0.3858267716535433,
            "duration": 0.19736849999998185
          },
          {
            "name": "A#3",
            "midi": 58,
            "time": 315.59223150000156,
            "velocity": 0.3858267716535433,
            "duration": 0.19736849999998185
          },
          {
            "name": "D#3",
            "midi": 51,
            "time": 315.78960000000154,
            "velocity": 0.3858267716535433,
            "duration": 0.19736849999998185
          },
          {
            "name": "B3",
            "midi": 59,
            "time": 315.9869685000015,
            "velocity": 0.3858267716535433,
            "duration": 0.19736849999998185
          },
          {
            "name": "F#3",
            "midi": 54,
            "time": 316.1843370000015,
            "velocity": 0.3858267716535433,
            "duration": 0.19736849999998185
          },
          {
            "name": "B3",
            "midi": 59,
            "time": 316.3817055000015,
            "velocity": 0.3858267716535433,
            "duration": 0.19736849999998185
          },
          {
            "name": "G3",
            "midi": 55,
            "time": 316.57907400000147,
            "velocity": 0.3858267716535433,
            "duration": 0.19736849999998185
          },
          {
            "name": "B3",
            "midi": 59,
            "time": 316.77644250000145,
            "velocity": 0.3858267716535433,
            "duration": 0.19736849999998185
          },
          {
            "name": "E3",
            "midi": 52,
            "time": 316.97381100000143,
            "velocity": 0.3858267716535433,
            "duration": 0.19736849999998185
          },
          {
            "name": "B3",
            "midi": 59,
            "time": 317.1711795000014,
            "velocity": 0.3858267716535433,
            "duration": 0.19736849999998185
          },
          {
            "name": "F#3",
            "midi": 54,
            "time": 317.3685480000014,
            "velocity": 0.3858267716535433,
            "duration": 0.19736849999998185
          },
          {
            "name": "B3",
            "midi": 59,
            "time": 317.5659165000014,
            "velocity": 0.3858267716535433,
            "duration": 0.19736849999998185
          },
          {
            "name": "D#3",
            "midi": 51,
            "time": 317.76328500000136,
            "velocity": 0.3858267716535433,
            "duration": 0.19736849999998185
          },
          {
            "name": "B3",
            "midi": 59,
            "time": 317.96065350000134,
            "velocity": 0.3858267716535433,
            "duration": 0.19736849999998185
          },
          {
            "name": "E3",
            "midi": 52,
            "time": 318.1580220000013,
            "velocity": 0.3858267716535433,
            "duration": 0.19736849999998185
          },
          {
            "name": "A#3",
            "midi": 58,
            "time": 318.3553905000013,
            "velocity": 0.3858267716535433,
            "duration": 0.19736849999998185
          },
          {
            "name": "C#3",
            "midi": 49,
            "time": 318.5527590000013,
            "velocity": 0.3858267716535433,
            "duration": 0.19736849999998185
          },
          {
            "name": "A#3",
            "midi": 58,
            "time": 318.75012750000127,
            "velocity": 0.3858267716535433,
            "duration": 0.19736849999998185
          },
          {
            "name": "D#3",
            "midi": 51,
            "time": 318.94749600000125,
            "velocity": 0.3858267716535433,
            "duration": 0.19736849999998185
          },
          {
            "name": "B3",
            "midi": 59,
            "time": 319.14486450000123,
            "velocity": 0.3858267716535433,
            "duration": 0.19736849999998185
          },
          {
            "name": "F#3",
            "midi": 54,
            "time": 319.3422330000012,
            "velocity": 0.3858267716535433,
            "duration": 0.19736849999998185
          },
          {
            "name": "B3",
            "midi": 59,
            "time": 319.5396015000012,
            "velocity": 0.3858267716535433,
            "duration": 0.19736849999998185
          },
          {
            "name": "E3",
            "midi": 52,
            "time": 319.7369700000012,
            "velocity": 0.3858267716535433,
            "duration": 0.19736849999998185
          },
          {
            "name": "A#3",
            "midi": 58,
            "time": 319.93433850000116,
            "velocity": 0.3858267716535433,
            "duration": 0.19736849999998185
          },
          {
            "name": "F#3",
            "midi": 54,
            "time": 320.13170700000114,
            "velocity": 0.3858267716535433,
            "duration": 0.19736849999998185
          },
          {
            "name": "A#3",
            "midi": 58,
            "time": 320.3290755000011,
            "velocity": 0.3858267716535433,
            "duration": 0.19736849999998185
          },
          {
            "name": "D#3",
            "midi": 51,
            "time": 320.5264440000011,
            "velocity": 0.3858267716535433,
            "duration": 0.19736849999998185
          },
          {
            "name": "B3",
            "midi": 59,
            "time": 320.7238125000011,
            "velocity": 0.3858267716535433,
            "duration": 0.19736849999998185
          },
          {
            "name": "F#3",
            "midi": 54,
            "time": 320.92118100000107,
            "velocity": 0.3858267716535433,
            "duration": 0.19736849999998185
          },
          {
            "name": "B3",
            "midi": 59,
            "time": 321.11854950000105,
            "velocity": 0.3858267716535433,
            "duration": 0.19736849999998185
          },
          {
            "name": "E3",
            "midi": 52,
            "time": 321.31591800000103,
            "velocity": 0.3858267716535433,
            "duration": 0.19736849999998185
          },
          {
            "name": "A#3",
            "midi": 58,
            "time": 321.513286500001,
            "velocity": 0.3858267716535433,
            "duration": 0.19736849999998185
          },
          {
            "name": "F#3",
            "midi": 54,
            "time": 321.710655000001,
            "velocity": 0.3858267716535433,
            "duration": 0.19736849999998185
          },
          {
            "name": "A#3",
            "midi": 58,
            "time": 321.908023500001,
            "velocity": 0.3858267716535433,
            "duration": 0.19736849999998185
          },
          {
            "name": "D#3",
            "midi": 51,
            "time": 322.10539200000096,
            "velocity": 0.3858267716535433,
            "duration": 0.19736849999998185
          },
          {
            "name": "B3",
            "midi": 59,
            "time": 322.30276050000094,
            "velocity": 0.3858267716535433,
            "duration": 0.19736849999998185
          },
          {
            "name": "F#3",
            "midi": 54,
            "time": 322.5001290000009,
            "velocity": 0.3858267716535433,
            "duration": 0.19736849999998185
          },
          {
            "name": "B3",
            "midi": 59,
            "time": 322.6974975000009,
            "velocity": 0.3858267716535433,
            "duration": 0.19736849999998185
          },
          {
            "name": "E3",
            "midi": 52,
            "time": 322.8948660000009,
            "velocity": 0.3858267716535433,
            "duration": 0.19736849999998185
          },
          {
            "name": "A#3",
            "midi": 58,
            "time": 323.09223450000087,
            "velocity": 0.3858267716535433,
            "duration": 0.19736849999998185
          },
          {
            "name": "F#3",
            "midi": 54,
            "time": 323.28960300000085,
            "velocity": 0.3858267716535433,
            "duration": 0.19736849999998185
          },
          {
            "name": "A#3",
            "midi": 58,
            "time": 323.48697150000083,
            "velocity": 0.3858267716535433,
            "duration": 0.19736849999998185
          },
          {
            "name": "D#3",
            "midi": 51,
            "time": 323.6843400000008,
            "velocity": 0.3858267716535433,
            "duration": 0.19736849999998185
          },
          {
            "name": "B3",
            "midi": 59,
            "time": 323.8817085000008,
            "velocity": 0.3858267716535433,
            "duration": 0.19736849999998185
          },
          {
            "name": "F#3",
            "midi": 54,
            "time": 324.0790770000008,
            "velocity": 0.3858267716535433,
            "duration": 0.19736849999998185
          },
          {
            "name": "B3",
            "midi": 59,
            "time": 324.27644550000076,
            "velocity": 0.3858267716535433,
            "duration": 0.19736849999998185
          },
          {
            "name": "E3",
            "midi": 52,
            "time": 324.47381400000074,
            "velocity": 0.3858267716535433,
            "duration": 0.19736849999998185
          },
          {
            "name": "A#3",
            "midi": 58,
            "time": 324.6711825000007,
            "velocity": 0.3858267716535433,
            "duration": 0.19736849999998185
          },
          {
            "name": "F#3",
            "midi": 54,
            "time": 324.8685510000007,
            "velocity": 0.3858267716535433,
            "duration": 0.19736849999998185
          },
          {
            "name": "A#3",
            "midi": 58,
            "time": 325.0659195000007,
            "velocity": 0.3858267716535433,
            "duration": 0.19736849999998185
          },
          {
            "name": "B2",
            "midi": 47,
            "time": 325.26328800000067,
            "velocity": 0.3858267716535433,
            "duration": 0.39473700000002054
          },
          {
            "name": "D#3",
            "midi": 51,
            "time": 325.26328800000067,
            "velocity": 0.3858267716535433,
            "duration": 0.39473700000002054
          },
          {
            "name": "B3",
            "midi": 59,
            "time": 325.26328800000067,
            "velocity": 0.3858267716535433,
            "duration": 0.39473700000002054
          },
          {
            "name": "F#2",
            "midi": 42,
            "time": 326.0527620000007,
            "velocity": 0.7952755905511811,
            "duration": 0.39473700000002054
          },
          {
            "name": "F#3",
            "midi": 54,
            "time": 326.0527620000007,
            "velocity": 0.7952755905511811,
            "duration": 0.39473700000002054
          },
          {
            "name": "B1",
            "midi": 35,
            "time": 326.84223600000075,
            "velocity": 0.7952755905511811,
            "duration": 0.39473700000002054
          },
          {
            "name": "B2",
            "midi": 47,
            "time": 326.84223600000075,
            "velocity": 0.7952755905511811,
            "duration": 0.39473700000002054
          },
          {
            "name": "E2",
            "midi": 40,
            "time": 329.21065800000076,
            "velocity": 0.7952755905511811,
            "duration": 0.39473700000002054
          },
          {
            "name": "E3",
            "midi": 52,
            "time": 329.21065800000076,
            "velocity": 0.7952755905511811,
            "duration": 0.39473700000002054
          },
          {
            "name": "A1",
            "midi": 33,
            "time": 330.0001320000008,
            "velocity": 0.7952755905511811,
            "duration": 0.39473700000002054
          },
          {
            "name": "A2",
            "midi": 45,
            "time": 330.0001320000008,
            "velocity": 0.7952755905511811,
            "duration": 0.39473700000002054
          },
          {
            "name": "D2",
            "midi": 38,
            "time": 330.78960600000084,
            "velocity": 0.7952755905511811,
            "duration": 0.39473700000002054
          },
          {
            "name": "D3",
            "midi": 50,
            "time": 330.78960600000084,
            "velocity": 0.7952755905511811,
            "duration": 0.39473700000002054
          },
          {
            "name": "G1",
            "midi": 31,
            "time": 331.5790800000009,
            "velocity": 0.7952755905511811,
            "duration": 0.39473700000002054
          },
          {
            "name": "G2",
            "midi": 43,
            "time": 331.5790800000009,
            "velocity": 0.7952755905511811,
            "duration": 0.39473700000002054
          },
          {
            "name": "C2",
            "midi": 36,
            "time": 332.3685540000009,
            "velocity": 0.7952755905511811,
            "duration": 0.39473700000002054
          },
          {
            "name": "C3",
            "midi": 48,
            "time": 332.3685540000009,
            "velocity": 0.7952755905511811,
            "duration": 0.39473700000002054
          },
          {
            "name": "F2",
            "midi": 41,
            "time": 333.15802800000097,
            "velocity": 0.4881889763779528,
            "duration": 0.19736849999998185
          },
          {
            "name": "F3",
            "midi": 53,
            "time": 333.35539650000095,
            "velocity": 0.4881889763779528,
            "duration": 0.19736849999998185
          },
          {
            "name": "E3",
            "midi": 52,
            "time": 333.55276500000093,
            "velocity": 0.4881889763779528,
            "duration": 0.19736849999998185
          },
          {
            "name": "F3",
            "midi": 53,
            "time": 333.7501335000009,
            "velocity": 0.4881889763779528,
            "duration": 0.19736849999998185
          },
          {
            "name": "D#3",
            "midi": 51,
            "time": 333.9475020000009,
            "velocity": 0.4881889763779528,
            "duration": 0.19736849999998185
          },
          {
            "name": "F3",
            "midi": 53,
            "time": 334.1448705000009,
            "velocity": 0.4881889763779528,
            "duration": 0.19736849999998185
          },
          {
            "name": "E3",
            "midi": 52,
            "time": 334.34223900000086,
            "velocity": 0.4881889763779528,
            "duration": 0.19736849999998185
          },
          {
            "name": "F3",
            "midi": 53,
            "time": 334.53960750000084,
            "velocity": 0.4881889763779528,
            "duration": 0.19736849999998185
          },
          {
            "name": "D3",
            "midi": 50,
            "time": 334.7369760000008,
            "velocity": 0.4881889763779528,
            "duration": 0.19736849999998185
          },
          {
            "name": "F3",
            "midi": 53,
            "time": 334.9343445000008,
            "velocity": 0.4881889763779528,
            "duration": 0.19736849999998185
          },
          {
            "name": "E3",
            "midi": 52,
            "time": 335.1317130000008,
            "velocity": 0.4881889763779528,
            "duration": 0.19736849999998185
          },
          {
            "name": "F3",
            "midi": 53,
            "time": 335.32908150000077,
            "velocity": 0.4881889763779528,
            "duration": 0.19736849999998185
          },
          {
            "name": "C#3",
            "midi": 49,
            "time": 335.52645000000075,
            "velocity": 0.4881889763779528,
            "duration": 0.19736849999998185
          },
          {
            "name": "F3",
            "midi": 53,
            "time": 335.72381850000073,
            "velocity": 0.4881889763779528,
            "duration": 0.19736849999998185
          },
          {
            "name": "E3",
            "midi": 52,
            "time": 335.9211870000007,
            "velocity": 0.4881889763779528,
            "duration": 0.19736849999998185
          },
          {
            "name": "F3",
            "midi": 53,
            "time": 336.1185555000007,
            "velocity": 0.4881889763779528,
            "duration": 0.19736849999998185
          },
          {
            "name": "C3",
            "midi": 48,
            "time": 336.3159240000007,
            "velocity": 0.4881889763779528,
            "duration": 0.19736849999998185
          },
          {
            "name": "F3",
            "midi": 53,
            "time": 336.51329250000066,
            "velocity": 0.4881889763779528,
            "duration": 0.19736849999998185
          },
          {
            "name": "E3",
            "midi": 52,
            "time": 336.71066100000064,
            "velocity": 0.4881889763779528,
            "duration": 0.19736849999998185
          },
          {
            "name": "F3",
            "midi": 53,
            "time": 336.9080295000006,
            "velocity": 0.4881889763779528,
            "duration": 0.19736849999998185
          },
          {
            "name": "A#2",
            "midi": 46,
            "time": 337.1053980000006,
            "velocity": 0.4881889763779528,
            "duration": 0.19736849999998185
          },
          {
            "name": "F3",
            "midi": 53,
            "time": 337.3027665000006,
            "velocity": 0.4881889763779528,
            "duration": 0.19736849999998185
          },
          {
            "name": "A2",
            "midi": 45,
            "time": 337.50013500000057,
            "velocity": 0.4881889763779528,
            "duration": 0.19736849999998185
          },
          {
            "name": "F3",
            "midi": 53,
            "time": 337.69750350000055,
            "velocity": 0.4881889763779528,
            "duration": 0.19736849999998185
          },
          {
            "name": "F2",
            "midi": 41,
            "time": 337.89487200000053,
            "velocity": 0.6929133858267716,
            "duration": 1.5789480000000253
          },
          {
            "name": "A#2",
            "midi": 46,
            "time": 337.89487200000053,
            "velocity": 0.6929133858267716,
            "duration": 1.5789480000000253
          },
          {
            "name": "C#3",
            "midi": 49,
            "time": 337.89487200000053,
            "velocity": 0.6929133858267716,
            "duration": 1.5789480000000253
          },
          {
            "name": "E3",
            "midi": 52,
            "time": 337.89487200000053,
            "velocity": 0.6929133858267716,
            "duration": 1.5789480000000253
          },
          {
            "name": "F2",
            "midi": 41,
            "time": 339.47382000000056,
            "velocity": 0.4881889763779528,
            "duration": 0.19736849999998185
          },
          {
            "name": "F3",
            "midi": 53,
            "time": 339.67118850000054,
            "velocity": 0.4881889763779528,
            "duration": 0.19736849999998185
          },
          {
            "name": "E3",
            "midi": 52,
            "time": 339.8685570000005,
            "velocity": 0.4881889763779528,
            "duration": 0.19736849999998185
          },
          {
            "name": "F3",
            "midi": 53,
            "time": 340.0659255000005,
            "velocity": 0.4881889763779528,
            "duration": 0.19736849999998185
          },
          {
            "name": "D#3",
            "midi": 51,
            "time": 340.2632940000005,
            "velocity": 0.4881889763779528,
            "duration": 0.19736849999998185
          },
          {
            "name": "F3",
            "midi": 53,
            "time": 340.46066250000047,
            "velocity": 0.4881889763779528,
            "duration": 0.19736849999998185
          },
          {
            "name": "E3",
            "midi": 52,
            "time": 340.65803100000045,
            "velocity": 0.4881889763779528,
            "duration": 0.19736849999998185
          },
          {
            "name": "F3",
            "midi": 53,
            "time": 340.85539950000043,
            "velocity": 0.4881889763779528,
            "duration": 0.19736849999998185
          },
          {
            "name": "D3",
            "midi": 50,
            "time": 341.0527680000004,
            "velocity": 0.4881889763779528,
            "duration": 0.19736849999998185
          },
          {
            "name": "F3",
            "midi": 53,
            "time": 341.2501365000004,
            "velocity": 0.4881889763779528,
            "duration": 0.19736849999998185
          },
          {
            "name": "E3",
            "midi": 52,
            "time": 341.4475050000004,
            "velocity": 0.4881889763779528,
            "duration": 0.19736849999998185
          },
          {
            "name": "F3",
            "midi": 53,
            "time": 341.64487350000036,
            "velocity": 0.4881889763779528,
            "duration": 0.19736849999998185
          },
          {
            "name": "C#3",
            "midi": 49,
            "time": 341.84224200000034,
            "velocity": 0.4881889763779528,
            "duration": 0.19736849999998185
          },
          {
            "name": "F3",
            "midi": 53,
            "time": 342.0396105000003,
            "velocity": 0.4881889763779528,
            "duration": 0.19736849999998185
          },
          {
            "name": "E3",
            "midi": 52,
            "time": 342.2369790000003,
            "velocity": 0.4881889763779528,
            "duration": 0.19736849999998185
          },
          {
            "name": "F3",
            "midi": 53,
            "time": 342.4343475000003,
            "velocity": 0.4881889763779528,
            "duration": 0.19736849999998185
          },
          {
            "name": "C3",
            "midi": 48,
            "time": 342.63171600000027,
            "velocity": 0.4881889763779528,
            "duration": 0.19736849999998185
          },
          {
            "name": "F3",
            "midi": 53,
            "time": 342.82908450000025,
            "velocity": 0.4881889763779528,
            "duration": 0.19736849999998185
          },
          {
            "name": "E3",
            "midi": 52,
            "time": 343.02645300000023,
            "velocity": 0.4881889763779528,
            "duration": 0.19736849999998185
          },
          {
            "name": "F3",
            "midi": 53,
            "time": 343.2238215000002,
            "velocity": 0.4881889763779528,
            "duration": 0.19736849999998185
          },
          {
            "name": "A#2",
            "midi": 46,
            "time": 343.4211900000002,
            "velocity": 0.4881889763779528,
            "duration": 0.19736849999998185
          },
          {
            "name": "F3",
            "midi": 53,
            "time": 343.6185585000002,
            "velocity": 0.4881889763779528,
            "duration": 0.19736849999998185
          },
          {
            "name": "A2",
            "midi": 45,
            "time": 343.81592700000016,
            "velocity": 0.4881889763779528,
            "duration": 0.19736849999998185
          },
          {
            "name": "F3",
            "midi": 53,
            "time": 344.01329550000014,
            "velocity": 0.4881889763779528,
            "duration": 0.19736849999998185
          },
          {
            "name": "F2",
            "midi": 41,
            "time": 344.2106640000001,
            "velocity": 0.6929133858267716,
            "duration": 1.5789480000000253
          },
          {
            "name": "A#2",
            "midi": 46,
            "time": 344.2106640000001,
            "velocity": 0.6929133858267716,
            "duration": 1.5789480000000253
          },
          {
            "name": "C#3",
            "midi": 49,
            "time": 344.2106640000001,
            "velocity": 0.6929133858267716,
            "duration": 1.5789480000000253
          },
          {
            "name": "E3",
            "midi": 52,
            "time": 344.2106640000001,
            "velocity": 0.6929133858267716,
            "duration": 1.5789480000000253
          },
          {
            "name": "F2",
            "midi": 41,
            "time": 345.78961200000015,
            "velocity": 0.6929133858267716,
            "duration": 1.5789480000000253
          },
          {
            "name": "A#2",
            "midi": 46,
            "time": 345.78961200000015,
            "velocity": 0.6929133858267716,
            "duration": 1.5789480000000253
          },
          {
            "name": "C#3",
            "midi": 49,
            "time": 345.78961200000015,
            "velocity": 0.6929133858267716,
            "duration": 1.5789480000000253
          },
          {
            "name": "E3",
            "midi": 52,
            "time": 345.78961200000015,
            "velocity": 0.6929133858267716,
            "duration": 1.5789480000000253
          },
          {
            "name": "F3",
            "midi": 53,
            "time": 347.3685600000002,
            "velocity": 0.6929133858267716,
            "duration": 0.7894739999999842
          },
          {
            "name": "A#3",
            "midi": 58,
            "time": 347.3685600000002,
            "velocity": 0.6929133858267716,
            "duration": 0.7894739999999842
          },
          {
            "name": "C#4",
            "midi": 61,
            "time": 347.3685600000002,
            "velocity": 0.6929133858267716,
            "duration": 0.7894739999999842
          },
          {
            "name": "E4",
            "midi": 64,
            "time": 347.3685600000002,
            "velocity": 0.6929133858267716,
            "duration": 0.7894739999999842
          },
          {
            "name": "F3",
            "midi": 53,
            "time": 348.15803400000016,
            "velocity": 0.6929133858267716,
            "duration": 0.7894739999999842
          },
          {
            "name": "A#3",
            "midi": 58,
            "time": 348.15803400000016,
            "velocity": 0.6929133858267716,
            "duration": 0.7894739999999842
          },
          {
            "name": "C#4",
            "midi": 61,
            "time": 348.15803400000016,
            "velocity": 0.6929133858267716,
            "duration": 0.7894739999999842
          },
          {
            "name": "E4",
            "midi": 64,
            "time": 348.15803400000016,
            "velocity": 0.6929133858267716,
            "duration": 0.7894739999999842
          },
          {
            "name": "F3",
            "midi": 53,
            "time": 348.94750800000014,
            "velocity": 0.6929133858267716,
            "duration": 1.5789480000000253
          },
          {
            "name": "A#3",
            "midi": 58,
            "time": 348.94750800000014,
            "velocity": 0.6929133858267716,
            "duration": 1.5789480000000253
          },
          {
            "name": "C#4",
            "midi": 61,
            "time": 348.94750800000014,
            "velocity": 0.6929133858267716,
            "duration": 1.5789480000000253
          },
          {
            "name": "E4",
            "midi": 64,
            "time": 348.94750800000014,
            "velocity": 0.6929133858267716,
            "duration": 1.5789480000000253
          },
          {
            "name": "F3",
            "midi": 53,
            "time": 350.52645600000017,
            "velocity": 0.5905511811023622,
            "duration": 0.7894739999999842
          },
          {
            "name": "A3",
            "midi": 57,
            "time": 350.52645600000017,
            "velocity": 0.5905511811023622,
            "duration": 0.7894739999999842
          },
          {
            "name": "C4",
            "midi": 60,
            "time": 350.52645600000017,
            "velocity": 0.5905511811023622,
            "duration": 0.7894739999999842
          },
          {
            "name": "F4",
            "midi": 65,
            "time": 350.52645600000017,
            "velocity": 0.5905511811023622,
            "duration": 0.7894739999999842
          },
          {
            "name": "C3",
            "midi": 48,
            "time": 351.31593000000015,
            "velocity": 0.5905511811023622,
            "duration": 0.39473700000002054
          },
          {
            "name": "C4",
            "midi": 60,
            "time": 351.31593000000015,
            "velocity": 0.5905511811023622,
            "duration": 0.39473700000002054
          },
          {
            "name": "F2",
            "midi": 41,
            "time": 351.71066700000017,
            "velocity": 0.5905511811023622,
            "duration": 0.39473700000002054
          },
          {
            "name": "F3",
            "midi": 53,
            "time": 351.71066700000017,
            "velocity": 0.5905511811023622,
            "duration": 0.39473700000002054
          },
          {
            "name": "A#2",
            "midi": 46,
            "time": 352.1054040000002,
            "velocity": 0.5905511811023622,
            "duration": 0.7894739999999842
          },
          {
            "name": "A#3",
            "midi": 58,
            "time": 352.1054040000002,
            "velocity": 0.5905511811023622,
            "duration": 0.7894739999999842
          },
          {
            "name": "A#2",
            "midi": 46,
            "time": 352.8948780000002,
            "velocity": 0.5905511811023622,
            "duration": 0.39473700000002054
          },
          {
            "name": "A#3",
            "midi": 58,
            "time": 352.8948780000002,
            "velocity": 0.5905511811023622,
            "duration": 0.39473700000002054
          },
          {
            "name": "F2",
            "midi": 41,
            "time": 353.2896150000002,
            "velocity": 0.5905511811023622,
            "duration": 0.39473700000002054
          },
          {
            "name": "F3",
            "midi": 53,
            "time": 353.2896150000002,
            "velocity": 0.5905511811023622,
            "duration": 0.39473700000002054
          },
          {
            "name": "A2",
            "midi": 45,
            "time": 353.6843520000002,
            "velocity": 0.5905511811023622,
            "duration": 0.7894739999999842
          },
          {
            "name": "A3",
            "midi": 57,
            "time": 353.6843520000002,
            "velocity": 0.5905511811023622,
            "duration": 0.7894739999999842
          },
          {
            "name": "G#2",
            "midi": 44,
            "time": 354.4738260000002,
            "velocity": 0.5905511811023622,
            "duration": 0.39473700000002054
          },
          {
            "name": "G#3",
            "midi": 56,
            "time": 354.4738260000002,
            "velocity": 0.5905511811023622,
            "duration": 0.39473700000002054
          },
          {
            "name": "F2",
            "midi": 41,
            "time": 354.8685630000002,
            "velocity": 0.5905511811023622,
            "duration": 0.39473700000002054
          },
          {
            "name": "F3",
            "midi": 53,
            "time": 354.8685630000002,
            "velocity": 0.5905511811023622,
            "duration": 0.39473700000002054
          },
          {
            "name": "G2",
            "midi": 43,
            "time": 355.26330000000024,
            "velocity": 0.5905511811023622,
            "duration": 0.39473700000002054
          },
          {
            "name": "G3",
            "midi": 55,
            "time": 355.26330000000024,
            "velocity": 0.5905511811023622,
            "duration": 0.39473700000002054
          },
          {
            "name": "F2",
            "midi": 41,
            "time": 355.65803700000026,
            "velocity": 0.5905511811023622,
            "duration": 0.39473700000002054
          },
          {
            "name": "F3",
            "midi": 53,
            "time": 355.65803700000026,
            "velocity": 0.5905511811023622,
            "duration": 0.39473700000002054
          },
          {
            "name": "D#2",
            "midi": 39,
            "time": 356.0527740000003,
            "velocity": 0.5905511811023622,
            "duration": 0.7894739999999842
          },
          {
            "name": "D#3",
            "midi": 51,
            "time": 356.0527740000003,
            "velocity": 0.5905511811023622,
            "duration": 0.7894739999999842
          },
          {
            "name": "D3",
            "midi": 50,
            "time": 356.84224800000027,
            "velocity": 0.5905511811023622,
            "duration": 0.7894739999999842
          },
          {
            "name": "A3",
            "midi": 57,
            "time": 357.63172200000025,
            "velocity": 0.5905511811023622,
            "duration": 0.39473700000002054
          },
          {
            "name": "D3",
            "midi": 50,
            "time": 358.0264590000003,
            "velocity": 0.5905511811023622,
            "duration": 0.39473700000002054
          },
          {
            "name": "G3",
            "midi": 55,
            "time": 358.4211960000003,
            "velocity": 0.5905511811023622,
            "duration": 0.7894739999999842
          },
          {
            "name": "G3",
            "midi": 55,
            "time": 359.2106700000003,
            "velocity": 0.5905511811023622,
            "duration": 0.39473700000002054
          },
          {
            "name": "D3",
            "midi": 50,
            "time": 359.6054070000003,
            "velocity": 0.5905511811023622,
            "duration": 0.39473700000002054
          },
          {
            "name": "F3",
            "midi": 53,
            "time": 360.0001440000003,
            "velocity": 0.5905511811023622,
            "duration": 0.7894739999999842
          },
          {
            "name": "E3",
            "midi": 52,
            "time": 360.7896180000003,
            "velocity": 0.5905511811023622,
            "duration": 0.39473700000002054
          },
          {
            "name": "D3",
            "midi": 50,
            "time": 361.1843550000003,
            "velocity": 0.5905511811023622,
            "duration": 0.39473700000002054
          },
          {
            "name": "C3",
            "midi": 48,
            "time": 361.57909200000034,
            "velocity": 0.7952755905511811,
            "duration": 0.7894739999999842
          },
          {
            "name": "C3",
            "midi": 48,
            "time": 362.3685660000003,
            "velocity": 0.7952755905511811,
            "duration": 0.7894739999999842
          },
          {
            "name": "C3",
            "midi": 48,
            "time": 363.1580400000003,
            "velocity": 0.7952755905511811,
            "duration": 1.5789480000000253
          },
          {
            "name": "B1",
            "midi": 35,
            "time": 364.73698800000034,
            "velocity": 0.5905511811023622,
            "duration": 0.19736849999998185
          },
          {
            "name": "B2",
            "midi": 47,
            "time": 364.73698800000034,
            "velocity": 0.5905511811023622,
            "duration": 0.19736849999998185
          },
          {
            "name": "B3",
            "midi": 59,
            "time": 364.9343565000003,
            "velocity": 0.5905511811023622,
            "duration": 0.19736849999998185
          },
          {
            "name": "C4",
            "midi": 60,
            "time": 365.1317250000003,
            "velocity": 0.5905511811023622,
            "duration": 0.19736849999998185
          },
          {
            "name": "B3",
            "midi": 59,
            "time": 365.3290935000003,
            "velocity": 0.5905511811023622,
            "duration": 0.19736849999998185
          },
          {
            "name": "A#3",
            "midi": 58,
            "time": 365.52646200000027,
            "velocity": 0.5905511811023622,
            "duration": 0.19736849999998185
          },
          {
            "name": "B3",
            "midi": 59,
            "time": 365.72383050000025,
            "velocity": 0.5905511811023622,
            "duration": 0.19736849999998185
          },
          {
            "name": "A3",
            "midi": 57,
            "time": 365.92119900000023,
            "velocity": 0.5905511811023622,
            "duration": 0.19736849999998185
          },
          {
            "name": "B3",
            "midi": 59,
            "time": 366.1185675000002,
            "velocity": 0.5905511811023622,
            "duration": 0.19736849999998185
          },
          {
            "name": "G#3",
            "midi": 56,
            "time": 366.3159360000002,
            "velocity": 0.5905511811023622,
            "duration": 0.19736849999998185
          },
          {
            "name": "B3",
            "midi": 59,
            "time": 366.5133045000002,
            "velocity": 0.5905511811023622,
            "duration": 0.19736849999998185
          },
          {
            "name": "G3",
            "midi": 55,
            "time": 366.71067300000016,
            "velocity": 0.5905511811023622,
            "duration": 0.19736849999998185
          },
          {
            "name": "B3",
            "midi": 59,
            "time": 366.90804150000014,
            "velocity": 0.5905511811023622,
            "duration": 0.19736849999998185
          },
          {
            "name": "F#3",
            "midi": 54,
            "time": 367.1054100000001,
            "velocity": 0.5905511811023622,
            "duration": 0.19736849999998185
          },
          {
            "name": "B3",
            "midi": 59,
            "time": 367.3027785000001,
            "velocity": 0.5905511811023622,
            "duration": 0.19736849999998185
          },
          {
            "name": "E3",
            "midi": 52,
            "time": 367.5001470000001,
            "velocity": 0.5905511811023622,
            "duration": 0.19736849999998185
          },
          {
            "name": "B3",
            "midi": 59,
            "time": 367.69751550000007,
            "velocity": 0.5905511811023622,
            "duration": 0.19736849999998185
          },
          {
            "name": "B2",
            "midi": 47,
            "time": 367.89488400000005,
            "velocity": 0.5905511811023622,
            "duration": 0.19736849999998185
          },
          {
            "name": "B2",
            "midi": 47,
            "time": 368.09225250000003,
            "velocity": 0.5905511811023622,
            "duration": 0.19736849999998185
          },
          {
            "name": "C3",
            "midi": 48,
            "time": 368.289621,
            "velocity": 0.5905511811023622,
            "duration": 0.19736849999998185
          },
          {
            "name": "B2",
            "midi": 47,
            "time": 368.4869895,
            "velocity": 0.5905511811023622,
            "duration": 0.19736849999998185
          },
          {
            "name": "A#2",
            "midi": 46,
            "time": 368.684358,
            "velocity": 0.5905511811023622,
            "duration": 0.19736849999998185
          },
          {
            "name": "B2",
            "midi": 47,
            "time": 368.88172649999996,
            "velocity": 0.5905511811023622,
            "duration": 0.19736849999998185
          },
          {
            "name": "A2",
            "midi": 45,
            "time": 369.07909499999994,
            "velocity": 0.5905511811023622,
            "duration": 0.19736849999998185
          },
          {
            "name": "B2",
            "midi": 47,
            "time": 369.2764634999999,
            "velocity": 0.5905511811023622,
            "duration": 0.19736849999998185
          },
          {
            "name": "G#2",
            "midi": 44,
            "time": 369.4738319999999,
            "velocity": 0.5905511811023622,
            "duration": 0.19736849999998185
          },
          {
            "name": "B2",
            "midi": 47,
            "time": 369.6712004999999,
            "velocity": 0.5905511811023622,
            "duration": 0.19736849999998185
          },
          {
            "name": "G2",
            "midi": 43,
            "time": 369.86856899999987,
            "velocity": 0.5905511811023622,
            "duration": 0.19736849999998185
          },
          {
            "name": "B2",
            "midi": 47,
            "time": 370.06593749999985,
            "velocity": 0.5905511811023622,
            "duration": 0.19736849999998185
          },
          {
            "name": "F#2",
            "midi": 42,
            "time": 370.26330599999983,
            "velocity": 0.5905511811023622,
            "duration": 0.19736849999998185
          },
          {
            "name": "B2",
            "midi": 47,
            "time": 370.4606744999998,
            "velocity": 0.5905511811023622,
            "duration": 0.19736849999998185
          },
          {
            "name": "E2",
            "midi": 40,
            "time": 370.6580429999998,
            "velocity": 0.5905511811023622,
            "duration": 0.19736849999998185
          },
          {
            "name": "B2",
            "midi": 47,
            "time": 370.8554114999998,
            "velocity": 0.5905511811023622,
            "duration": 0.19736849999998185
          },
          {
            "name": "B1",
            "midi": 35,
            "time": 371.05277999999976,
            "velocity": 0.5905511811023622,
            "duration": 0.19736849999998185
          },
          {
            "name": "B2",
            "midi": 47,
            "time": 371.25014849999974,
            "velocity": 0.5905511811023622,
            "duration": 0.19736849999998185
          },
          {
            "name": "A#2",
            "midi": 46,
            "time": 371.4475169999997,
            "velocity": 0.5905511811023622,
            "duration": 0.19736849999998185
          },
          {
            "name": "B2",
            "midi": 47,
            "time": 371.6448854999997,
            "velocity": 0.5905511811023622,
            "duration": 0.19736849999998185
          },
          {
            "name": "A2",
            "midi": 45,
            "time": 371.8422539999997,
            "velocity": 0.3858267716535433,
            "duration": 0.19736849999998185
          },
          {
            "name": "B2",
            "midi": 47,
            "time": 372.03962249999967,
            "velocity": 0.3858267716535433,
            "duration": 0.19736849999998185
          },
          {
            "name": "A#2",
            "midi": 46,
            "time": 372.23699099999965,
            "velocity": 0.3858267716535433,
            "duration": 0.19736849999998185
          },
          {
            "name": "B2",
            "midi": 47,
            "time": 372.43435949999963,
            "velocity": 0.3858267716535433,
            "duration": 0.19736849999998185
          },
          {
            "name": "G#2",
            "midi": 44,
            "time": 372.6317279999996,
            "velocity": 0.3858267716535433,
            "duration": 0.19736849999998185
          },
          {
            "name": "B2",
            "midi": 47,
            "time": 372.8290964999996,
            "velocity": 0.3858267716535433,
            "duration": 0.19736849999998185
          },
          {
            "name": "A#2",
            "midi": 46,
            "time": 373.0264649999996,
            "velocity": 0.3858267716535433,
            "duration": 0.19736849999998185
          },
          {
            "name": "B2",
            "midi": 47,
            "time": 373.22383349999956,
            "velocity": 0.3858267716535433,
            "duration": 0.19736849999998185
          },
          {
            "name": "G2",
            "midi": 43,
            "time": 373.42120199999954,
            "velocity": 0.3858267716535433,
            "duration": 0.19736849999998185
          },
          {
            "name": "B2",
            "midi": 47,
            "time": 373.6185704999995,
            "velocity": 0.3858267716535433,
            "duration": 0.19736849999998185
          },
          {
            "name": "A#2",
            "midi": 46,
            "time": 373.8159389999995,
            "velocity": 0.3858267716535433,
            "duration": 0.19736849999998185
          },
          {
            "name": "B2",
            "midi": 47,
            "time": 374.0133074999995,
            "velocity": 0.3858267716535433,
            "duration": 0.19736849999998185
          },
          {
            "name": "F#2",
            "midi": 42,
            "time": 374.21067599999947,
            "velocity": 0.3858267716535433,
            "duration": 0.19736849999998185
          },
          {
            "name": "B2",
            "midi": 47,
            "time": 374.40804449999945,
            "velocity": 0.3858267716535433,
            "duration": 0.19736849999998185
          },
          {
            "name": "A#2",
            "midi": 46,
            "time": 374.60541299999943,
            "velocity": 0.3858267716535433,
            "duration": 0.19736849999998185
          },
          {
            "name": "B2",
            "midi": 47,
            "time": 374.8027814999994,
            "velocity": 0.3858267716535433,
            "duration": 0.19736849999998185
          },
          {
            "name": "E2",
            "midi": 40,
            "time": 375.0001499999994,
            "velocity": 0.3858267716535433,
            "duration": 0.19736849999998185
          },
          {
            "name": "B2",
            "midi": 47,
            "time": 375.1975184999994,
            "velocity": 0.3858267716535433,
            "duration": 0.19736849999998185
          },
          {
            "name": "D#2",
            "midi": 39,
            "time": 375.39488699999936,
            "velocity": 0.3858267716535433,
            "duration": 0.19736849999998185
          },
          {
            "name": "B2",
            "midi": 47,
            "time": 375.59225549999934,
            "velocity": 0.3858267716535433,
            "duration": 0.19736849999998185
          },
          {
            "name": "C#2",
            "midi": 37,
            "time": 375.7896239999993,
            "velocity": 0.3858267716535433,
            "duration": 0.19736849999998185
          },
          {
            "name": "B2",
            "midi": 47,
            "time": 375.9869924999993,
            "velocity": 0.3858267716535433,
            "duration": 0.19736849999998185
          },
          {
            "name": "A#2",
            "midi": 46,
            "time": 376.1843609999993,
            "velocity": 0.3858267716535433,
            "duration": 0.19736849999998185
          },
          {
            "name": "B2",
            "midi": 47,
            "time": 376.38172949999927,
            "velocity": 0.3858267716535433,
            "duration": 0.19736849999998185
          },
          {
            "name": "C#2",
            "midi": 37,
            "time": 376.57909799999925,
            "velocity": 0.3858267716535433,
            "duration": 0.19736849999998185
          },
          {
            "name": "B2",
            "midi": 47,
            "time": 376.77646649999923,
            "velocity": 0.3858267716535433,
            "duration": 0.19736849999998185
          },
          {
            "name": "A#2",
            "midi": 46,
            "time": 376.9738349999992,
            "velocity": 0.3858267716535433,
            "duration": 0.19736849999998185
          },
          {
            "name": "B2",
            "midi": 47,
            "time": 377.1712034999992,
            "velocity": 0.3858267716535433,
            "duration": 0.19736849999998185
          },
          {
            "name": "B1",
            "midi": 35,
            "time": 377.3685719999992,
            "velocity": 0.3858267716535433,
            "duration": 0.19736849999998185
          },
          {
            "name": "B2",
            "midi": 47,
            "time": 377.56594049999916,
            "velocity": 0.3858267716535433,
            "duration": 0.19736849999998185
          },
          {
            "name": "A#2",
            "midi": 46,
            "time": 377.76330899999914,
            "velocity": 0.3858267716535433,
            "duration": 0.19736849999998185
          },
          {
            "name": "B2",
            "midi": 47,
            "time": 377.9606774999991,
            "velocity": 0.3858267716535433,
            "duration": 0.19736849999998185
          },
          {
            "name": "A2",
            "midi": 45,
            "time": 378.1580459999991,
            "velocity": 0.3858267716535433,
            "duration": 0.19736849999998185
          },
          {
            "name": "B2",
            "midi": 47,
            "time": 378.3554144999991,
            "velocity": 0.3858267716535433,
            "duration": 0.19736849999998185
          },
          {
            "name": "A#2",
            "midi": 46,
            "time": 378.55278299999907,
            "velocity": 0.3858267716535433,
            "duration": 0.19736849999998185
          },
          {
            "name": "B2",
            "midi": 47,
            "time": 378.75015149999905,
            "velocity": 0.3858267716535433,
            "duration": 0.19736849999998185
          },
          {
            "name": "G#2",
            "midi": 44,
            "time": 378.94751999999903,
            "velocity": 0.3858267716535433,
            "duration": 0.19736849999998185
          },
          {
            "name": "B2",
            "midi": 47,
            "time": 379.144888499999,
            "velocity": 0.3858267716535433,
            "duration": 0.19736849999998185
          },
          {
            "name": "A#2",
            "midi": 46,
            "time": 379.342256999999,
            "velocity": 0.3858267716535433,
            "duration": 0.19736849999998185
          },
          {
            "name": "B2",
            "midi": 47,
            "time": 379.539625499999,
            "velocity": 0.3858267716535433,
            "duration": 0.19736849999998185
          },
          {
            "name": "G2",
            "midi": 43,
            "time": 379.73699399999896,
            "velocity": 0.3858267716535433,
            "duration": 0.19736849999998185
          },
          {
            "name": "B2",
            "midi": 47,
            "time": 379.93436249999894,
            "velocity": 0.3858267716535433,
            "duration": 0.19736849999998185
          },
          {
            "name": "A#2",
            "midi": 46,
            "time": 380.1317309999989,
            "velocity": 0.3858267716535433,
            "duration": 0.19736849999998185
          },
          {
            "name": "B2",
            "midi": 47,
            "time": 380.3290994999989,
            "velocity": 0.3858267716535433,
            "duration": 0.19736849999998185
          },
          {
            "name": "F#2",
            "midi": 42,
            "time": 380.5264679999989,
            "velocity": 0.3858267716535433,
            "duration": 0.19736849999998185
          },
          {
            "name": "B2",
            "midi": 47,
            "time": 380.72383649999887,
            "velocity": 0.3858267716535433,
            "duration": 0.19736849999998185
          },
          {
            "name": "A#2",
            "midi": 46,
            "time": 380.92120499999885,
            "velocity": 0.3858267716535433,
            "duration": 0.19736849999998185
          },
          {
            "name": "B2",
            "midi": 47,
            "time": 381.11857349999883,
            "velocity": 0.3858267716535433,
            "duration": 0.19736849999998185
          },
          {
            "name": "E2",
            "midi": 40,
            "time": 381.3159419999988,
            "velocity": 0.3858267716535433,
            "duration": 0.19736849999998185
          },
          {
            "name": "B2",
            "midi": 47,
            "time": 381.5133104999988,
            "velocity": 0.3858267716535433,
            "duration": 0.19736849999998185
          },
          {
            "name": "D#2",
            "midi": 39,
            "time": 381.7106789999988,
            "velocity": 0.3858267716535433,
            "duration": 0.19736849999998185
          },
          {
            "name": "B2",
            "midi": 47,
            "time": 381.90804749999876,
            "velocity": 0.3858267716535433,
            "duration": 0.19736849999998185
          },
          {
            "name": "C#2",
            "midi": 37,
            "time": 382.10541599999874,
            "velocity": 0.3858267716535433,
            "duration": 0.19736849999998185
          },
          {
            "name": "B2",
            "midi": 47,
            "time": 382.3027844999987,
            "velocity": 0.3858267716535433,
            "duration": 0.19736849999998185
          },
          {
            "name": "A#2",
            "midi": 46,
            "time": 382.5001529999987,
            "velocity": 0.3858267716535433,
            "duration": 0.19736849999998185
          },
          {
            "name": "B2",
            "midi": 47,
            "time": 382.6975214999987,
            "velocity": 0.3858267716535433,
            "duration": 0.19736849999998185
          },
          {
            "name": "C#2",
            "midi": 37,
            "time": 382.89488999999867,
            "velocity": 0.3858267716535433,
            "duration": 0.19736849999998185
          },
          {
            "name": "B2",
            "midi": 47,
            "time": 383.09225849999865,
            "velocity": 0.3858267716535433,
            "duration": 0.19736849999998185
          },
          {
            "name": "A#2",
            "midi": 46,
            "time": 383.28962699999863,
            "velocity": 0.3858267716535433,
            "duration": 0.19736849999998185
          },
          {
            "name": "B2",
            "midi": 47,
            "time": 383.4869954999986,
            "velocity": 0.3858267716535433,
            "duration": 0.19736849999998185
          },
          {
            "name": "C#2",
            "midi": 37,
            "time": 383.6843639999986,
            "velocity": 0.3858267716535433,
            "duration": 0.19736849999998185
          },
          {
            "name": "B2",
            "midi": 47,
            "time": 383.8817324999986,
            "velocity": 0.3858267716535433,
            "duration": 0.19736849999998185
          },
          {
            "name": "A#2",
            "midi": 46,
            "time": 384.07910099999856,
            "velocity": 0.3858267716535433,
            "duration": 0.19736849999998185
          },
          {
            "name": "B2",
            "midi": 47,
            "time": 384.27646949999854,
            "velocity": 0.3858267716535433,
            "duration": 0.19736849999998185
          },
          {
            "name": "C#2",
            "midi": 37,
            "time": 384.4738379999985,
            "velocity": 0.3858267716535433,
            "duration": 0.19736849999998185
          },
          {
            "name": "B2",
            "midi": 47,
            "time": 384.6712064999985,
            "velocity": 0.3858267716535433,
            "duration": 0.19736849999998185
          },
          {
            "name": "A#2",
            "midi": 46,
            "time": 384.8685749999985,
            "velocity": 0.3858267716535433,
            "duration": 0.19736849999998185
          },
          {
            "name": "B2",
            "midi": 47,
            "time": 385.06594349999847,
            "velocity": 0.3858267716535433,
            "duration": 0.19736849999998185
          },
          {
            "name": "B1",
            "midi": 35,
            "time": 385.26331199999845,
            "velocity": 0.6929133858267716,
            "duration": 3.5526330000000144
          },
          {
            "name": "F#2",
            "midi": 42,
            "time": 385.26331199999845,
            "velocity": 0.6929133858267716,
            "duration": 3.5526330000000144
          },
          {
            "name": "B2",
            "midi": 47,
            "time": 385.26331199999845,
            "velocity": 0.6929133858267716,
            "duration": 3.5526330000000144
          },
          {
            "name": "B2",
            "midi": 47,
            "time": 394.7369999999985,
            "velocity": 0.3858267716535433,
            "duration": 1.5789480000000253
          },
          {
            "name": "F#3",
            "midi": 54,
            "time": 394.7369999999985,
            "velocity": 0.3858267716535433,
            "duration": 1.5789480000000253
          },
          {
            "name": "A3",
            "midi": 57,
            "time": 394.7369999999985,
            "velocity": 0.3858267716535433,
            "duration": 1.5789480000000253
          },
          {
            "name": "E2",
            "midi": 40,
            "time": 396.3159479999985,
            "velocity": 0.5905511811023622,
            "duration": 3.3552644999999757
          },
          {
            "name": "B2",
            "midi": 47,
            "time": 396.3159479999985,
            "velocity": 0.5905511811023622,
            "duration": 3.3552644999999757
          },
          {
            "name": "E3",
            "midi": 52,
            "time": 396.3159479999985,
            "velocity": 0.5905511811023622,
            "duration": 3.3552644999999757
          },
          {
            "name": "E5",
            "midi": 76,
            "time": 399.6712124999985,
            "velocity": 0.5905511811023622,
            "duration": 0.0386513312499801
          },
          {
            "name": "D#5",
            "midi": 75,
            "time": 399.86858099999847,
            "velocity": 0.5905511811023622,
            "duration": 0.0386513312499801
          },
          {
            "name": "C#5",
            "midi": 73,
            "time": 400.06594949999845,
            "velocity": 0.5905511811023622,
            "duration": 0.0386513312499801
          },
          {
            "name": "B4",
            "midi": 71,
            "time": 400.26331799999843,
            "velocity": 0.5905511811023622,
            "duration": 0.0386513312499801
          },
          {
            "name": "A4",
            "midi": 69,
            "time": 400.4606864999984,
            "velocity": 0.5905511811023622,
            "duration": 0.0386513312499801
          },
          {
            "name": "G#4",
            "midi": 68,
            "time": 400.6580549999984,
            "velocity": 0.5905511811023622,
            "duration": 0.0386513312499801
          },
          {
            "name": "F#4",
            "midi": 66,
            "time": 400.8554234999984,
            "velocity": 0.5905511811023622,
            "duration": 0.0386513312499801
          },
          {
            "name": "E4",
            "midi": 64,
            "time": 401.05279199999836,
            "velocity": 0.5905511811023622,
            "duration": 0.0386513312499801
          },
          {
            "name": "D#4",
            "midi": 63,
            "time": 401.25016049999834,
            "velocity": 0.5905511811023622,
            "duration": 0.0386513312499801
          },
          {
            "name": "C#4",
            "midi": 61,
            "time": 401.4475289999983,
            "velocity": 0.5905511811023622,
            "duration": 0.0386513312499801
          },
          {
            "name": "B3",
            "midi": 59,
            "time": 401.6448974999983,
            "velocity": 0.5905511811023622,
            "duration": 0.0386513312499801
          },
          {
            "name": "A3",
            "midi": 57,
            "time": 401.8422659999983,
            "velocity": 0.5905511811023622,
            "duration": 0.0386513312499801
          },
          {
            "name": "G#3",
            "midi": 56,
            "time": 402.0396344999983,
            "velocity": 0.5905511811023622,
            "duration": 0.0386513312499801
          },
          {
            "name": "F#3",
            "midi": 54,
            "time": 402.23700299999825,
            "velocity": 0.5905511811023622,
            "duration": 0.0386513312499801
          },
          {
            "name": "E3",
            "midi": 52,
            "time": 402.43437149999824,
            "velocity": 0.5905511811023622,
            "duration": 0.0386513312499801
          },
          {
            "name": "B1",
            "midi": 35,
            "time": 402.6317399999982,
            "velocity": 0.7952755905511811,
            "duration": 3.3552644999999757
          },
          {
            "name": "F#2",
            "midi": 42,
            "time": 402.6317399999982,
            "velocity": 0.7952755905511811,
            "duration": 3.3552644999999757
          },
          {
            "name": "B2",
            "midi": 47,
            "time": 402.6317399999982,
            "velocity": 0.7952755905511811,
            "duration": 3.3552644999999757
          },
          {
            "name": "B4",
            "midi": 71,
            "time": 405.9870044999982,
            "velocity": 0.5905511811023622,
            "duration": 0.0386513312499801
          },
          {
            "name": "A4",
            "midi": 69,
            "time": 406.1843729999982,
            "velocity": 0.5905511811023622,
            "duration": 0.0386513312499801
          },
          {
            "name": "G#4",
            "midi": 68,
            "time": 406.38174149999816,
            "velocity": 0.5905511811023622,
            "duration": 0.0386513312499801
          },
          {
            "name": "F#4",
            "midi": 66,
            "time": 406.57910999999814,
            "velocity": 0.5905511811023622,
            "duration": 0.0386513312499801
          },
          {
            "name": "E4",
            "midi": 64,
            "time": 406.7764784999981,
            "velocity": 0.5905511811023622,
            "duration": 0.0386513312499801
          },
          {
            "name": "D#4",
            "midi": 63,
            "time": 406.9738469999981,
            "velocity": 0.5905511811023622,
            "duration": 0.0386513312499801
          },
          {
            "name": "C#4",
            "midi": 61,
            "time": 407.1712154999981,
            "velocity": 0.5905511811023622,
            "duration": 0.0386513312499801
          },
          {
            "name": "B3",
            "midi": 59,
            "time": 407.36858399999807,
            "velocity": 0.5905511811023622,
            "duration": 0.0386513312499801
          },
          {
            "name": "A3",
            "midi": 57,
            "time": 407.56595249999805,
            "velocity": 0.5905511811023622,
            "duration": 0.0386513312499801
          },
          {
            "name": "G#3",
            "midi": 56,
            "time": 407.76332099999803,
            "velocity": 0.5905511811023622,
            "duration": 0.0386513312499801
          },
          {
            "name": "F#3",
            "midi": 54,
            "time": 407.960689499998,
            "velocity": 0.5905511811023622,
            "duration": 0.0386513312499801
          },
          {
            "name": "E3",
            "midi": 52,
            "time": 408.158057999998,
            "velocity": 0.5905511811023622,
            "duration": 0.0386513312499801
          },
          {
            "name": "D#3",
            "midi": 51,
            "time": 408.355426499998,
            "velocity": 0.5905511811023622,
            "duration": 0.0386513312499801
          },
          {
            "name": "C#3",
            "midi": 49,
            "time": 408.55279499999796,
            "velocity": 0.5905511811023622,
            "duration": 0.0386513312499801
          },
          {
            "name": "B2",
            "midi": 47,
            "time": 408.75016349999794,
            "velocity": 0.5905511811023622,
            "duration": 0.0386513312499801
          },
          {
            "name": "E2",
            "midi": 40,
            "time": 408.9475319999979,
            "velocity": 0.7952755905511811,
            "duration": 2.3684219999999527
          },
          {
            "name": "E3",
            "midi": 52,
            "time": 408.9475319999979,
            "velocity": 0.7952755905511811,
            "duration": 0.7894739999999842
          },
          {
            "name": "D3",
            "midi": 50,
            "time": 409.7370059999979,
            "velocity": 0.3858267716535433,
            "duration": 0.7894739999999842
          },
          {
            "name": "C#3",
            "midi": 49,
            "time": 410.5264799999979,
            "velocity": 0.5905511811023622,
            "duration": 0.7894739999999842
          },
          {
            "name": "E3",
            "midi": 52,
            "time": 410.5264799999979,
            "velocity": 0.5905511811023622,
            "duration": 0.7894739999999842
          },
          {
            "name": "E2",
            "midi": 40,
            "time": 411.3159539999979,
            "velocity": 0.5905511811023622,
            "duration": 0.39473700000002054
          },
          {
            "name": "A2",
            "midi": 45,
            "time": 411.3159539999979,
            "velocity": 0.5905511811023622,
            "duration": 0.39473700000002054
          },
          {
            "name": "E3",
            "midi": 52,
            "time": 411.3159539999979,
            "velocity": 0.5905511811023622,
            "duration": 0.39473700000002054
          },
          {
            "name": "E2",
            "midi": 40,
            "time": 411.7106909999979,
            "velocity": 0.5905511811023622,
            "duration": 0.39473700000002054
          },
          {
            "name": "A2",
            "midi": 45,
            "time": 411.7106909999979,
            "velocity": 0.5905511811023622,
            "duration": 0.39473700000002054
          },
          {
            "name": "E3",
            "midi": 52,
            "time": 411.7106909999979,
            "velocity": 0.5905511811023622,
            "duration": 0.39473700000002054
          },
          {
            "name": "E2",
            "midi": 40,
            "time": 412.1054279999979,
            "velocity": 0.5905511811023622,
            "duration": 2.3684219999999527
          },
          {
            "name": "E3",
            "midi": 52,
            "time": 412.1054279999979,
            "velocity": 0.5905511811023622,
            "duration": 0.7894739999999842
          },
          {
            "name": "D3",
            "midi": 50,
            "time": 412.8949019999979,
            "velocity": 0.3858267716535433,
            "duration": 0.7894739999999842
          },
          {
            "name": "C#3",
            "midi": 49,
            "time": 413.6843759999979,
            "velocity": 0.3858267716535433,
            "duration": 0.7894739999999842
          },
          {
            "name": "E3",
            "midi": 52,
            "time": 413.6843759999979,
            "velocity": 0.3858267716535433,
            "duration": 0.7894739999999842
          },
          {
            "name": "E2",
            "midi": 40,
            "time": 414.47384999999787,
            "velocity": 0.5905511811023622,
            "duration": 0.39473700000002054
          },
          {
            "name": "A2",
            "midi": 45,
            "time": 414.47384999999787,
            "velocity": 0.5905511811023622,
            "duration": 0.39473700000002054
          },
          {
            "name": "E3",
            "midi": 52,
            "time": 414.47384999999787,
            "velocity": 0.5905511811023622,
            "duration": 0.39473700000002054
          },
          {
            "name": "E2",
            "midi": 40,
            "time": 414.8685869999979,
            "velocity": 0.5905511811023622,
            "duration": 0.39473700000002054
          },
          {
            "name": "A2",
            "midi": 45,
            "time": 414.8685869999979,
            "velocity": 0.5905511811023622,
            "duration": 0.39473700000002054
          },
          {
            "name": "E3",
            "midi": 52,
            "time": 414.8685869999979,
            "velocity": 0.5905511811023622,
            "duration": 0.39473700000002054
          },
          {
            "name": "E2",
            "midi": 40,
            "time": 415.2633239999979,
            "velocity": 0.5905511811023622,
            "duration": 0.7894739999999842
          },
          {
            "name": "G#2",
            "midi": 44,
            "time": 415.2633239999979,
            "velocity": 0.5905511811023622,
            "duration": 0.7894739999999842
          },
          {
            "name": "E3",
            "midi": 52,
            "time": 415.2633239999979,
            "velocity": 0.5905511811023622,
            "duration": 0.7894739999999842
          },
          {
            "name": "E2",
            "midi": 40,
            "time": 416.0527979999979,
            "velocity": 0.5905511811023622,
            "duration": 0.39473700000002054
          },
          {
            "name": "A2",
            "midi": 45,
            "time": 416.0527979999979,
            "velocity": 0.5905511811023622,
            "duration": 0.39473700000002054
          },
          {
            "name": "E3",
            "midi": 52,
            "time": 416.0527979999979,
            "velocity": 0.5905511811023622,
            "duration": 0.39473700000002054
          },
          {
            "name": "E2",
            "midi": 40,
            "time": 416.4475349999979,
            "velocity": 0.5905511811023622,
            "duration": 0.39473700000002054
          },
          {
            "name": "A2",
            "midi": 45,
            "time": 416.4475349999979,
            "velocity": 0.5905511811023622,
            "duration": 0.39473700000002054
          },
          {
            "name": "E3",
            "midi": 52,
            "time": 416.4475349999979,
            "velocity": 0.5905511811023622,
            "duration": 0.39473700000002054
          },
          {
            "name": "E2",
            "midi": 40,
            "time": 416.84227199999793,
            "velocity": 0.5905511811023622,
            "duration": 0.7894739999999842
          },
          {
            "name": "G#2",
            "midi": 44,
            "time": 416.84227199999793,
            "velocity": 0.5905511811023622,
            "duration": 0.7894739999999842
          },
          {
            "name": "E3",
            "midi": 52,
            "time": 416.84227199999793,
            "velocity": 0.5905511811023622,
            "duration": 0.7894739999999842
          },
          {
            "name": "E2",
            "midi": 40,
            "time": 417.6317459999979,
            "velocity": 0.5905511811023622,
            "duration": 0.39473700000002054
          },
          {
            "name": "A2",
            "midi": 45,
            "time": 417.6317459999979,
            "velocity": 0.5905511811023622,
            "duration": 0.39473700000002054
          },
          {
            "name": "E3",
            "midi": 52,
            "time": 417.6317459999979,
            "velocity": 0.5905511811023622,
            "duration": 0.39473700000002054
          },
          {
            "name": "E2",
            "midi": 40,
            "time": 418.02648299999794,
            "velocity": 0.5905511811023622,
            "duration": 0.39473700000002054
          },
          {
            "name": "A2",
            "midi": 45,
            "time": 418.02648299999794,
            "velocity": 0.5905511811023622,
            "duration": 0.39473700000002054
          },
          {
            "name": "E3",
            "midi": 52,
            "time": 418.02648299999794,
            "velocity": 0.5905511811023622,
            "duration": 0.39473700000002054
          },
          {
            "name": "E2",
            "midi": 40,
            "time": 418.42121999999796,
            "velocity": 0.5905511811023622,
            "duration": 0.39473700000002054
          },
          {
            "name": "G#2",
            "midi": 44,
            "time": 418.42121999999796,
            "velocity": 0.5905511811023622,
            "duration": 0.39473700000002054
          },
          {
            "name": "E3",
            "midi": 52,
            "time": 418.42121999999796,
            "velocity": 0.5905511811023622,
            "duration": 0.39473700000002054
          },
          {
            "name": "A3",
            "midi": 57,
            "time": 421.57911599999795,
            "velocity": 0.3858267716535433,
            "duration": 1.1842110000000048
          },
          {
            "name": "G#3",
            "midi": 56,
            "time": 422.76332699999796,
            "velocity": 0.3858267716535433,
            "duration": 0.39473700000002054
          },
          {
            "name": "F#3",
            "midi": 54,
            "time": 423.158063999998,
            "velocity": 0.3858267716535433,
            "duration": 0.7894739999999842
          },
          {
            "name": "G#3",
            "midi": 56,
            "time": 423.94753799999796,
            "velocity": 0.3858267716535433,
            "duration": 0.39473700000002054
          },
          {
            "name": "A3",
            "midi": 57,
            "time": 424.342274999998,
            "velocity": 0.3858267716535433,
            "duration": 0.39473700000002054
          },
          {
            "name": "E3",
            "midi": 52,
            "time": 424.737011999998,
            "velocity": 0.3858267716535433,
            "duration": 0.19736849999998185
          },
          {
            "name": "G#3",
            "midi": 56,
            "time": 424.737011999998,
            "velocity": 0.3858267716535433,
            "duration": 0.19736849999998185
          },
          {
            "name": "B4",
            "midi": 71,
            "time": 424.934380499998,
            "velocity": 0.3858267716535433,
            "duration": 0.19736849999998185
          },
          {
            "name": "C#5",
            "midi": 73,
            "time": 425.13174899999797,
            "velocity": 0.3858267716535433,
            "duration": 0.19736849999998185
          },
          {
            "name": "D#5",
            "midi": 75,
            "time": 425.32911749999795,
            "velocity": 0.3858267716535433,
            "duration": 0.19736849999998185
          },
          {
            "name": "E5",
            "midi": 76,
            "time": 425.52648599999793,
            "velocity": 0.3858267716535433,
            "duration": 0.19736849999998185
          },
          {
            "name": "D#5",
            "midi": 75,
            "time": 425.7238544999979,
            "velocity": 0.3858267716535433,
            "duration": 0.19736849999998185
          },
          {
            "name": "C#5",
            "midi": 73,
            "time": 425.9212229999979,
            "velocity": 0.3858267716535433,
            "duration": 0.19736849999998185
          },
          {
            "name": "B4",
            "midi": 71,
            "time": 426.1185914999979,
            "velocity": 0.3858267716535433,
            "duration": 0.19736849999998185
          },
          {
            "name": "A#4",
            "midi": 70,
            "time": 426.31595999999786,
            "velocity": 0.3858267716535433,
            "duration": 0.19736849999998185
          },
          {
            "name": "B4",
            "midi": 71,
            "time": 426.51332849999784,
            "velocity": 0.3858267716535433,
            "duration": 0.19736849999998185
          },
          {
            "name": "C#5",
            "midi": 73,
            "time": 426.7106969999978,
            "velocity": 0.3858267716535433,
            "duration": 0.19736849999998185
          },
          {
            "name": "B4",
            "midi": 71,
            "time": 426.9080654999978,
            "velocity": 0.3858267716535433,
            "duration": 0.19736849999998185
          },
          {
            "name": "A4",
            "midi": 69,
            "time": 427.1054339999978,
            "velocity": 0.3858267716535433,
            "duration": 0.19736849999998185
          },
          {
            "name": "G#4",
            "midi": 68,
            "time": 427.30280249999777,
            "velocity": 0.3858267716535433,
            "duration": 0.19736849999998185
          },
          {
            "name": "F#4",
            "midi": 66,
            "time": 427.50017099999775,
            "velocity": 0.3858267716535433,
            "duration": 0.19736849999998185
          },
          {
            "name": "E4",
            "midi": 64,
            "time": 427.69753949999773,
            "velocity": 0.3858267716535433,
            "duration": 0.19736849999998185
          },
          {
            "name": "D#4",
            "midi": 63,
            "time": 427.8949079999977,
            "velocity": 0.3858267716535433,
            "duration": 1.1842110000000048
          },
          {
            "name": "D4",
            "midi": 62,
            "time": 429.0791189999977,
            "velocity": 0.3858267716535433,
            "duration": 0.39473700000002054
          },
          {
            "name": "C#4",
            "midi": 61,
            "time": 429.47385599999774,
            "velocity": 0.3858267716535433,
            "duration": 1.5789480000000253
          },
          {
            "name": "B1",
            "midi": 35,
            "time": 431.05280399999776,
            "velocity": 0.5905511811023622,
            "duration": 3.3552644999999757
          },
          {
            "name": "F#2",
            "midi": 42,
            "time": 431.05280399999776,
            "velocity": 0.5905511811023622,
            "duration": 3.3552644999999757
          },
          {
            "name": "B2",
            "midi": 47,
            "time": 431.05280399999776,
            "velocity": 0.5905511811023622,
            "duration": 3.3552644999999757
          },
          {
            "name": "B4",
            "midi": 71,
            "time": 434.40806849999774,
            "velocity": 0.5905511811023622,
            "duration": 0.0386513312499801
          },
          {
            "name": "A#4",
            "midi": 70,
            "time": 434.6054369999977,
            "velocity": 0.5905511811023622,
            "duration": 0.0386513312499801
          },
          {
            "name": "G#4",
            "midi": 68,
            "time": 434.8028054999977,
            "velocity": 0.5905511811023622,
            "duration": 0.0386513312499801
          },
          {
            "name": "F#4",
            "midi": 66,
            "time": 435.0001739999977,
            "velocity": 0.5905511811023622,
            "duration": 0.0386513312499801
          },
          {
            "name": "E4",
            "midi": 64,
            "time": 435.19754249999767,
            "velocity": 0.5905511811023622,
            "duration": 0.0386513312499801
          },
          {
            "name": "D#4",
            "midi": 63,
            "time": 435.39491099999765,
            "velocity": 0.5905511811023622,
            "duration": 0.0386513312499801
          },
          {
            "name": "C#4",
            "midi": 61,
            "time": 435.59227949999763,
            "velocity": 0.5905511811023622,
            "duration": 0.0386513312499801
          },
          {
            "name": "B3",
            "midi": 59,
            "time": 435.7896479999976,
            "velocity": 0.5905511811023622,
            "duration": 0.0386513312499801
          },
          {
            "name": "A#3",
            "midi": 58,
            "time": 435.9870164999976,
            "velocity": 0.5905511811023622,
            "duration": 0.0386513312499801
          },
          {
            "name": "G#3",
            "midi": 56,
            "time": 436.1843849999976,
            "velocity": 0.5905511811023622,
            "duration": 0.0386513312499801
          },
          {
            "name": "F#3",
            "midi": 54,
            "time": 436.38175349999756,
            "velocity": 0.5905511811023622,
            "duration": 0.0386513312499801
          },
          {
            "name": "E3",
            "midi": 52,
            "time": 436.57912199999754,
            "velocity": 0.5905511811023622,
            "duration": 0.0386513312499801
          },
          {
            "name": "D#3",
            "midi": 51,
            "time": 436.7764904999975,
            "velocity": 0.5905511811023622,
            "duration": 0.0386513312499801
          },
          {
            "name": "C#3",
            "midi": 49,
            "time": 436.9738589999975,
            "velocity": 0.5905511811023622,
            "duration": 0.0386513312499801
          },
          {
            "name": "B2",
            "midi": 47,
            "time": 437.1712274999975,
            "velocity": 0.5905511811023622,
            "duration": 0.0386513312499801
          },
          {
            "name": "G1",
            "midi": 31,
            "time": 437.36859599999747,
            "velocity": 0.7952755905511811,
            "duration": 3.3552644999999757
          },
          {
            "name": "E2",
            "midi": 40,
            "time": 437.36859599999747,
            "velocity": 0.7952755905511811,
            "duration": 3.3552644999999757
          },
          {
            "name": "G2",
            "midi": 43,
            "time": 437.36859599999747,
            "velocity": 0.7952755905511811,
            "duration": 3.3552644999999757
          },
          {
            "name": "C#5",
            "midi": 73,
            "time": 440.72386049999744,
            "velocity": 0.5905511811023622,
            "duration": 0.0386513312499801
          },
          {
            "name": "D5",
            "midi": 74,
            "time": 440.9212289999974,
            "velocity": 0.5905511811023622,
            "duration": 0.0386513312499801
          },
          {
            "name": "E5",
            "midi": 76,
            "time": 441.1185974999974,
            "velocity": 0.5905511811023622,
            "duration": 0.0386513312499801
          },
          {
            "name": "D5",
            "midi": 74,
            "time": 441.3159659999974,
            "velocity": 0.5905511811023622,
            "duration": 0.0386513312499801
          },
          {
            "name": "C#5",
            "midi": 73,
            "time": 441.51333449999737,
            "velocity": 0.5905511811023622,
            "duration": 0.0386513312499801
          },
          {
            "name": "B4",
            "midi": 71,
            "time": 441.71070299999735,
            "velocity": 0.5905511811023622,
            "duration": 0.0386513312499801
          },
          {
            "name": "A4",
            "midi": 69,
            "time": 441.90807149999733,
            "velocity": 0.5905511811023622,
            "duration": 0.0386513312499801
          },
          {
            "name": "G4",
            "midi": 67,
            "time": 442.1054399999973,
            "velocity": 0.5905511811023622,
            "duration": 0.0386513312499801
          },
          {
            "name": "F#4",
            "midi": 66,
            "time": 442.3028084999973,
            "velocity": 0.5905511811023622,
            "duration": 0.0386513312499801
          },
          {
            "name": "E4",
            "midi": 64,
            "time": 442.5001769999973,
            "velocity": 0.5905511811023622,
            "duration": 0.0386513312499801
          },
          {
            "name": "D4",
            "midi": 62,
            "time": 442.69754549999726,
            "velocity": 0.5905511811023622,
            "duration": 0.0386513312499801
          },
          {
            "name": "C#4",
            "midi": 61,
            "time": 442.89491399999724,
            "velocity": 0.5905511811023622,
            "duration": 0.0386513312499801
          },
          {
            "name": "B3",
            "midi": 59,
            "time": 443.0922824999972,
            "velocity": 0.5905511811023622,
            "duration": 0.0386513312499801
          },
          {
            "name": "A3",
            "midi": 57,
            "time": 443.2896509999972,
            "velocity": 0.5905511811023622,
            "duration": 0.0386513312499801
          },
          {
            "name": "G3",
            "midi": 55,
            "time": 443.4870194999972,
            "velocity": 0.5905511811023622,
            "duration": 0.0386513312499801
          },
          {
            "name": "F#2",
            "midi": 42,
            "time": 443.68438799999717,
            "velocity": 0.7952755905511811,
            "duration": 3.3552644999999757
          },
          {
            "name": "A2",
            "midi": 45,
            "time": 443.68438799999717,
            "velocity": 0.7952755905511811,
            "duration": 3.3552644999999757
          },
          {
            "name": "D3",
            "midi": 50,
            "time": 443.68438799999717,
            "velocity": 0.7952755905511811,
            "duration": 3.3552644999999757
          },
          {
            "name": "D2",
            "midi": 38,
            "time": 447.63175799999715,
            "velocity": 0.7952755905511811,
            "duration": 0.39473700000002054
          },
          {
            "name": "A2",
            "midi": 45,
            "time": 447.63175799999715,
            "velocity": 0.7952755905511811,
            "duration": 0.39473700000002054
          },
          {
            "name": "D3",
            "midi": 50,
            "time": 447.63175799999715,
            "velocity": 0.7952755905511811,
            "duration": 0.39473700000002054
          },
          {
            "name": "E3",
            "midi": 52,
            "time": 453.15807599999715,
            "velocity": 0.3858267716535433,
            "duration": 1.9736850000000459
          },
          {
            "name": "A3",
            "midi": 57,
            "time": 453.15807599999715,
            "velocity": 0.3858267716535433,
            "duration": 1.5789480000000253
          },
          {
            "name": "C#4",
            "midi": 61,
            "time": 453.15807599999715,
            "velocity": 0.3858267716535433,
            "duration": 1.5789480000000253
          },
          {
            "name": "E4",
            "midi": 64,
            "time": 453.15807599999715,
            "velocity": 0.3858267716535433,
            "duration": 1.9736850000000459
          },
          {
            "name": "B3",
            "midi": 59,
            "time": 454.7370239999972,
            "velocity": 0.3858267716535433,
            "duration": 0.39473700000002054
          },
          {
            "name": "D4",
            "midi": 62,
            "time": 454.7370239999972,
            "velocity": 0.3858267716535433,
            "duration": 0.39473700000002054
          },
          {
            "name": "C#3",
            "midi": 49,
            "time": 459.4738679999972,
            "velocity": 0.3858267716535433,
            "duration": 1.9736850000000459
          },
          {
            "name": "F#3",
            "midi": 54,
            "time": 459.4738679999972,
            "velocity": 0.3858267716535433,
            "duration": 1.5789480000000253
          },
          {
            "name": "A3",
            "midi": 57,
            "time": 459.4738679999972,
            "velocity": 0.3858267716535433,
            "duration": 1.5789480000000253
          },
          {
            "name": "C#4",
            "midi": 61,
            "time": 459.4738679999972,
            "velocity": 0.3858267716535433,
            "duration": 1.9736850000000459
          },
          {
            "name": "G#3",
            "midi": 56,
            "time": 461.0528159999972,
            "velocity": 0.3858267716535433,
            "duration": 0.39473700000002054
          },
          {
            "name": "B3",
            "midi": 59,
            "time": 461.0528159999972,
            "velocity": 0.3858267716535433,
            "duration": 0.39473700000002054
          },
          {
            "name": "E3",
            "midi": 52,
            "time": 468.94755599999723,
            "velocity": 0.3858267716535433,
            "duration": 0.19736849999998185
          },
          {
            "name": "B3",
            "midi": 59,
            "time": 469.1449244999972,
            "velocity": 0.3858267716535433,
            "duration": 0.19736849999998185
          },
          {
            "name": "G#3",
            "midi": 56,
            "time": 469.3422929999972,
            "velocity": 0.3858267716535433,
            "duration": 0.19736849999998185
          },
          {
            "name": "B3",
            "midi": 59,
            "time": 469.5396614999972,
            "velocity": 0.3858267716535433,
            "duration": 0.19736849999998185
          },
          {
            "name": "E3",
            "midi": 52,
            "time": 469.73702999999716,
            "velocity": 0.3858267716535433,
            "duration": 0.19736849999998185
          },
          {
            "name": "B3",
            "midi": 59,
            "time": 469.93439849999714,
            "velocity": 0.3858267716535433,
            "duration": 0.19736849999998185
          },
          {
            "name": "G#3",
            "midi": 56,
            "time": 470.1317669999971,
            "velocity": 0.3858267716535433,
            "duration": 0.19736849999998185
          },
          {
            "name": "B3",
            "midi": 59,
            "time": 470.3291354999971,
            "velocity": 0.3858267716535433,
            "duration": 0.19736849999998185
          },
          {
            "name": "E3",
            "midi": 52,
            "time": 470.5265039999971,
            "velocity": 0.3858267716535433,
            "duration": 0.19736849999998185
          },
          {
            "name": "B3",
            "midi": 59,
            "time": 470.72387249999707,
            "velocity": 0.3858267716535433,
            "duration": 0.19736849999998185
          },
          {
            "name": "G#3",
            "midi": 56,
            "time": 470.92124099999705,
            "velocity": 0.3858267716535433,
            "duration": 0.19736849999998185
          },
          {
            "name": "B3",
            "midi": 59,
            "time": 471.11860949999704,
            "velocity": 0.3858267716535433,
            "duration": 0.19736849999998185
          },
          {
            "name": "E3",
            "midi": 52,
            "time": 471.315977999997,
            "velocity": 0.3858267716535433,
            "duration": 0.19736849999998185
          },
          {
            "name": "B3",
            "midi": 59,
            "time": 471.513346499997,
            "velocity": 0.3858267716535433,
            "duration": 0.19736849999998185
          },
          {
            "name": "G#3",
            "midi": 56,
            "time": 471.710714999997,
            "velocity": 0.3858267716535433,
            "duration": 0.19736849999998185
          },
          {
            "name": "B3",
            "midi": 59,
            "time": 471.90808349999696,
            "velocity": 0.3858267716535433,
            "duration": 0.19736849999998185
          },
          {
            "name": "F#3",
            "midi": 54,
            "time": 472.10545199999694,
            "velocity": 0.3858267716535433,
            "duration": 0.19736849999998185
          },
          {
            "name": "D#4",
            "midi": 63,
            "time": 472.3028204999969,
            "velocity": 0.3858267716535433,
            "duration": 0.19736849999998185
          },
          {
            "name": "A3",
            "midi": 57,
            "time": 472.5001889999969,
            "velocity": 0.3858267716535433,
            "duration": 0.19736849999998185
          },
          {
            "name": "D#4",
            "midi": 63,
            "time": 472.6975574999969,
            "velocity": 0.3858267716535433,
            "duration": 0.19736849999998185
          },
          {
            "name": "F#3",
            "midi": 54,
            "time": 472.8949259999969,
            "velocity": 0.3858267716535433,
            "duration": 0.19736849999998185
          },
          {
            "name": "D#4",
            "midi": 63,
            "time": 473.09229449999685,
            "velocity": 0.3858267716535433,
            "duration": 0.19736849999998185
          },
          {
            "name": "A3",
            "midi": 57,
            "time": 473.28966299999684,
            "velocity": 0.3858267716535433,
            "duration": 0.19736849999998185
          },
          {
            "name": "D#4",
            "midi": 63,
            "time": 473.4870314999968,
            "velocity": 0.3858267716535433,
            "duration": 0.19736849999998185
          },
          {
            "name": "F#3",
            "midi": 54,
            "time": 473.6843999999968,
            "velocity": 0.3858267716535433,
            "duration": 0.19736849999998185
          },
          {
            "name": "D#4",
            "midi": 63,
            "time": 473.8817684999968,
            "velocity": 0.3858267716535433,
            "duration": 0.19736849999998185
          },
          {
            "name": "A3",
            "midi": 57,
            "time": 474.07913699999676,
            "velocity": 0.3858267716535433,
            "duration": 0.19736849999998185
          },
          {
            "name": "D#4",
            "midi": 63,
            "time": 474.27650549999674,
            "velocity": 0.3858267716535433,
            "duration": 0.19736849999998185
          },
          {
            "name": "F#3",
            "midi": 54,
            "time": 474.4738739999967,
            "velocity": 0.3858267716535433,
            "duration": 0.19736849999998185
          },
          {
            "name": "D#4",
            "midi": 63,
            "time": 474.6712424999967,
            "velocity": 0.3858267716535433,
            "duration": 0.19736849999998185
          },
          {
            "name": "A3",
            "midi": 57,
            "time": 474.8686109999967,
            "velocity": 0.3858267716535433,
            "duration": 0.19736849999998185
          },
          {
            "name": "D#4",
            "midi": 63,
            "time": 475.0659794999967,
            "velocity": 0.3858267716535433,
            "duration": 0.19736849999998185
          },
          {
            "name": "G#3",
            "midi": 56,
            "time": 475.26334799999665,
            "velocity": 0.3858267716535433,
            "duration": 0.19736849999998185
          },
          {
            "name": "E4",
            "midi": 64,
            "time": 475.46071649999664,
            "velocity": 0.3858267716535433,
            "duration": 0.19736849999998185
          },
          {
            "name": "B3",
            "midi": 59,
            "time": 475.6580849999966,
            "velocity": 0.3858267716535433,
            "duration": 0.19736849999998185
          },
          {
            "name": "E4",
            "midi": 64,
            "time": 475.8554534999966,
            "velocity": 0.3858267716535433,
            "duration": 0.19736849999998185
          },
          {
            "name": "A3",
            "midi": 57,
            "time": 476.0528219999966,
            "velocity": 0.3858267716535433,
            "duration": 0.19736849999998185
          },
          {
            "name": "D#4",
            "midi": 63,
            "time": 476.25019049999656,
            "velocity": 0.3858267716535433,
            "duration": 0.19736849999998185
          },
          {
            "name": "B3",
            "midi": 59,
            "time": 476.44755899999655,
            "velocity": 0.3858267716535433,
            "duration": 0.19736849999998185
          },
          {
            "name": "D#4",
            "midi": 63,
            "time": 476.6449274999965,
            "velocity": 0.3858267716535433,
            "duration": 0.19736849999998185
          },
          {
            "name": "G#3",
            "midi": 56,
            "time": 476.8422959999965,
            "velocity": 0.3858267716535433,
            "duration": 0.19736849999998185
          },
          {
            "name": "E4",
            "midi": 64,
            "time": 477.0396644999965,
            "velocity": 0.3858267716535433,
            "duration": 0.19736849999998185
          },
          {
            "name": "B3",
            "midi": 59,
            "time": 477.2370329999965,
            "velocity": 0.3858267716535433,
            "duration": 0.19736849999998185
          },
          {
            "name": "E4",
            "midi": 64,
            "time": 477.43440149999645,
            "velocity": 0.3858267716535433,
            "duration": 0.19736849999998185
          },
          {
            "name": "A3",
            "midi": 57,
            "time": 477.63176999999644,
            "velocity": 0.3858267716535433,
            "duration": 0.19736849999998185
          },
          {
            "name": "D#4",
            "midi": 63,
            "time": 477.8291384999964,
            "velocity": 0.3858267716535433,
            "duration": 0.19736849999998185
          },
          {
            "name": "B3",
            "midi": 59,
            "time": 478.0265069999964,
            "velocity": 0.3858267716535433,
            "duration": 0.19736849999998185
          },
          {
            "name": "D#4",
            "midi": 63,
            "time": 478.2238754999964,
            "velocity": 0.3858267716535433,
            "duration": 0.19736849999998185
          },
          {
            "name": "G#3",
            "midi": 56,
            "time": 478.42124399999636,
            "velocity": 0.3858267716535433,
            "duration": 0.19736849999998185
          },
          {
            "name": "E4",
            "midi": 64,
            "time": 478.61861249999635,
            "velocity": 0.3858267716535433,
            "duration": 0.19736849999998185
          },
          {
            "name": "B3",
            "midi": 59,
            "time": 478.8159809999963,
            "velocity": 0.3858267716535433,
            "duration": 0.19736849999998185
          },
          {
            "name": "E4",
            "midi": 64,
            "time": 479.0133494999963,
            "velocity": 0.3858267716535433,
            "duration": 0.19736849999998185
          },
          {
            "name": "A3",
            "midi": 57,
            "time": 479.2107179999963,
            "velocity": 0.3858267716535433,
            "duration": 0.19736849999998185
          },
          {
            "name": "E4",
            "midi": 64,
            "time": 479.4080864999963,
            "velocity": 0.3858267716535433,
            "duration": 0.19736849999998185
          },
          {
            "name": "C#4",
            "midi": 61,
            "time": 479.60545499999625,
            "velocity": 0.3858267716535433,
            "duration": 0.19736849999998185
          },
          {
            "name": "E4",
            "midi": 64,
            "time": 479.80282349999624,
            "velocity": 0.3858267716535433,
            "duration": 0.19736849999998185
          },
          {
            "name": "B3",
            "midi": 59,
            "time": 480.0001919999962,
            "velocity": 0.3858267716535433,
            "duration": 0.19736849999998185
          },
          {
            "name": "G#4",
            "midi": 68,
            "time": 480.1975604999962,
            "velocity": 0.3858267716535433,
            "duration": 0.19736849999998185
          },
          {
            "name": "E4",
            "midi": 64,
            "time": 480.3949289999962,
            "velocity": 0.3858267716535433,
            "duration": 0.19736849999998185
          },
          {
            "name": "G#4",
            "midi": 68,
            "time": 480.59229749999616,
            "velocity": 0.3858267716535433,
            "duration": 0.19736849999998185
          },
          {
            "name": "B3",
            "midi": 59,
            "time": 480.78966599999615,
            "velocity": 0.3858267716535433,
            "duration": 0.19736849999998185
          },
          {
            "name": "A4",
            "midi": 69,
            "time": 480.9870344999961,
            "velocity": 0.3858267716535433,
            "duration": 0.19736849999998185
          },
          {
            "name": "F#4",
            "midi": 66,
            "time": 481.1844029999961,
            "velocity": 0.3858267716535433,
            "duration": 0.19736849999998185
          },
          {
            "name": "A4",
            "midi": 69,
            "time": 481.3817714999961,
            "velocity": 0.3858267716535433,
            "duration": 0.19736849999998185
          },
          {
            "name": "E3",
            "midi": 52,
            "time": 481.5791399999961,
            "velocity": 0.3858267716535433,
            "duration": 0.19736849999998185
          },
          {
            "name": "B3",
            "midi": 59,
            "time": 481.77650849999605,
            "velocity": 0.3858267716535433,
            "duration": 0.19736849999998185
          },
          {
            "name": "G#3",
            "midi": 56,
            "time": 481.97387699999604,
            "velocity": 0.3858267716535433,
            "duration": 0.19736849999998185
          },
          {
            "name": "B3",
            "midi": 59,
            "time": 482.171245499996,
            "velocity": 0.3858267716535433,
            "duration": 0.19736849999998185
          },
          {
            "name": "E3",
            "midi": 52,
            "time": 482.368613999996,
            "velocity": 0.4881889763779528,
            "duration": 0.19736849999998185
          },
          {
            "name": "B3",
            "midi": 59,
            "time": 482.565982499996,
            "velocity": 0.4881889763779528,
            "duration": 0.19736849999998185
          },
          {
            "name": "G#3",
            "midi": 56,
            "time": 482.76335099999596,
            "velocity": 0.4881889763779528,
            "duration": 0.19736849999998185
          },
          {
            "name": "B3",
            "midi": 59,
            "time": 482.96071949999595,
            "velocity": 0.4881889763779528,
            "duration": 0.19736849999998185
          },
          {
            "name": "E3",
            "midi": 52,
            "time": 483.1580879999959,
            "velocity": 0.4881889763779528,
            "duration": 0.19736849999998185
          },
          {
            "name": "B3",
            "midi": 59,
            "time": 483.3554564999959,
            "velocity": 0.4881889763779528,
            "duration": 0.19736849999998185
          },
          {
            "name": "G#3",
            "midi": 56,
            "time": 483.5528249999959,
            "velocity": 0.4881889763779528,
            "duration": 0.19736849999998185
          },
          {
            "name": "B3",
            "midi": 59,
            "time": 483.7501934999959,
            "velocity": 0.4881889763779528,
            "duration": 0.19736849999998185
          },
          {
            "name": "E3",
            "midi": 52,
            "time": 483.94756199999586,
            "velocity": 0.4881889763779528,
            "duration": 0.19736849999998185
          },
          {
            "name": "B3",
            "midi": 59,
            "time": 484.14493049999584,
            "velocity": 0.4881889763779528,
            "duration": 0.19736849999998185
          },
          {
            "name": "G#3",
            "midi": 56,
            "time": 484.3422989999958,
            "velocity": 0.4881889763779528,
            "duration": 0.19736849999998185
          },
          {
            "name": "B3",
            "midi": 59,
            "time": 484.5396674999958,
            "velocity": 0.4881889763779528,
            "duration": 0.19736849999998185
          },
          {
            "name": "F#3",
            "midi": 54,
            "time": 484.7370359999958,
            "velocity": 0.4881889763779528,
            "duration": 0.19736849999998185
          },
          {
            "name": "D#4",
            "midi": 63,
            "time": 484.93440449999576,
            "velocity": 0.4881889763779528,
            "duration": 0.19736849999998185
          },
          {
            "name": "A3",
            "midi": 57,
            "time": 485.13177299999575,
            "velocity": 0.4881889763779528,
            "duration": 0.19736849999998185
          },
          {
            "name": "D#4",
            "midi": 63,
            "time": 485.3291414999957,
            "velocity": 0.4881889763779528,
            "duration": 0.19736849999998185
          },
          {
            "name": "F#3",
            "midi": 54,
            "time": 485.5265099999957,
            "velocity": 0.4881889763779528,
            "duration": 0.19736849999998185
          },
          {
            "name": "D#4",
            "midi": 63,
            "time": 485.7238784999957,
            "velocity": 0.4881889763779528,
            "duration": 0.19736849999998185
          },
          {
            "name": "A3",
            "midi": 57,
            "time": 485.9212469999957,
            "velocity": 0.4881889763779528,
            "duration": 0.19736849999998185
          },
          {
            "name": "D#4",
            "midi": 63,
            "time": 486.11861549999566,
            "velocity": 0.4881889763779528,
            "duration": 0.19736849999998185
          },
          {
            "name": "F#3",
            "midi": 54,
            "time": 486.31598399999564,
            "velocity": 0.4881889763779528,
            "duration": 0.19736849999998185
          },
          {
            "name": "D#4",
            "midi": 63,
            "time": 486.5133524999956,
            "velocity": 0.4881889763779528,
            "duration": 0.19736849999998185
          },
          {
            "name": "A3",
            "midi": 57,
            "time": 486.7107209999956,
            "velocity": 0.4881889763779528,
            "duration": 0.19736849999998185
          },
          {
            "name": "D#4",
            "midi": 63,
            "time": 486.9080894999956,
            "velocity": 0.4881889763779528,
            "duration": 0.19736849999998185
          },
          {
            "name": "F#3",
            "midi": 54,
            "time": 487.10545799999556,
            "velocity": 0.4881889763779528,
            "duration": 0.19736849999998185
          },
          {
            "name": "D#4",
            "midi": 63,
            "time": 487.30282649999555,
            "velocity": 0.4881889763779528,
            "duration": 0.19736849999998185
          },
          {
            "name": "A3",
            "midi": 57,
            "time": 487.50019499999553,
            "velocity": 0.4881889763779528,
            "duration": 0.19736849999998185
          },
          {
            "name": "D#4",
            "midi": 63,
            "time": 487.6975634999955,
            "velocity": 0.4881889763779528,
            "duration": 0.19736849999998185
          },
          {
            "name": "G#3",
            "midi": 56,
            "time": 487.8949319999955,
            "velocity": 0.4881889763779528,
            "duration": 0.19736849999998185
          },
          {
            "name": "E4",
            "midi": 64,
            "time": 488.0923004999955,
            "velocity": 0.4881889763779528,
            "duration": 0.19736849999998185
          },
          {
            "name": "B3",
            "midi": 59,
            "time": 488.28966899999546,
            "velocity": 0.4881889763779528,
            "duration": 0.19736849999998185
          },
          {
            "name": "E4",
            "midi": 64,
            "time": 488.48703749999544,
            "velocity": 0.4881889763779528,
            "duration": 0.19736849999998185
          },
          {
            "name": "A3",
            "midi": 57,
            "time": 488.6844059999954,
            "velocity": 0.4881889763779528,
            "duration": 0.19736849999998185
          },
          {
            "name": "D#4",
            "midi": 63,
            "time": 488.8817744999954,
            "velocity": 0.4881889763779528,
            "duration": 0.19736849999998185
          },
          {
            "name": "B3",
            "midi": 59,
            "time": 489.0791429999954,
            "velocity": 0.4881889763779528,
            "duration": 0.19736849999998185
          },
          {
            "name": "D#4",
            "midi": 63,
            "time": 489.27651149999537,
            "velocity": 0.4881889763779528,
            "duration": 0.19736849999998185
          },
          {
            "name": "G#3",
            "midi": 56,
            "time": 489.47387999999535,
            "velocity": 0.4881889763779528,
            "duration": 0.19736849999998185
          },
          {
            "name": "E4",
            "midi": 64,
            "time": 489.67124849999533,
            "velocity": 0.4881889763779528,
            "duration": 0.19736849999998185
          },
          {
            "name": "B3",
            "midi": 59,
            "time": 489.8686169999953,
            "velocity": 0.4881889763779528,
            "duration": 0.19736849999998185
          },
          {
            "name": "E4",
            "midi": 64,
            "time": 490.0659854999953,
            "velocity": 0.4881889763779528,
            "duration": 0.19736849999998185
          },
          {
            "name": "A3",
            "midi": 57,
            "time": 490.2633539999953,
            "velocity": 0.4881889763779528,
            "duration": 0.19736849999998185
          },
          {
            "name": "D#4",
            "midi": 63,
            "time": 490.46072249999526,
            "velocity": 0.4881889763779528,
            "duration": 0.19736849999998185
          },
          {
            "name": "B3",
            "midi": 59,
            "time": 490.65809099999524,
            "velocity": 0.4881889763779528,
            "duration": 0.19736849999998185
          },
          {
            "name": "D#4",
            "midi": 63,
            "time": 490.8554594999952,
            "velocity": 0.4881889763779528,
            "duration": 0.19736849999998185
          },
          {
            "name": "G#3",
            "midi": 56,
            "time": 491.0528279999952,
            "velocity": 0.4881889763779528,
            "duration": 0.19736849999998185
          },
          {
            "name": "E4",
            "midi": 64,
            "time": 491.2501964999952,
            "velocity": 0.4881889763779528,
            "duration": 0.19736849999998185
          },
          {
            "name": "B3",
            "midi": 59,
            "time": 491.44756499999517,
            "velocity": 0.4881889763779528,
            "duration": 0.19736849999998185
          },
          {
            "name": "E4",
            "midi": 64,
            "time": 491.64493349999515,
            "velocity": 0.4881889763779528,
            "duration": 0.19736849999998185
          },
          {
            "name": "A3",
            "midi": 57,
            "time": 491.84230199999513,
            "velocity": 0.4881889763779528,
            "duration": 0.19736849999998185
          },
          {
            "name": "E4",
            "midi": 64,
            "time": 492.0396704999951,
            "velocity": 0.4881889763779528,
            "duration": 0.19736849999998185
          },
          {
            "name": "C#4",
            "midi": 61,
            "time": 492.2370389999951,
            "velocity": 0.4881889763779528,
            "duration": 0.19736849999998185
          },
          {
            "name": "E4",
            "midi": 64,
            "time": 492.4344074999951,
            "velocity": 0.4881889763779528,
            "duration": 0.19736849999998185
          },
          {
            "name": "B3",
            "midi": 59,
            "time": 492.63177599999506,
            "velocity": 0.4881889763779528,
            "duration": 0.19736849999998185
          },
          {
            "name": "G#4",
            "midi": 68,
            "time": 492.82914449999504,
            "velocity": 0.4881889763779528,
            "duration": 0.19736849999998185
          },
          {
            "name": "E4",
            "midi": 64,
            "time": 493.026512999995,
            "velocity": 0.4881889763779528,
            "duration": 0.19736849999998185
          },
          {
            "name": "G#4",
            "midi": 68,
            "time": 493.223881499995,
            "velocity": 0.4881889763779528,
            "duration": 0.19736849999998185
          },
          {
            "name": "B3",
            "midi": 59,
            "time": 493.421249999995,
            "velocity": 0.4881889763779528,
            "duration": 0.19736849999998185
          },
          {
            "name": "A4",
            "midi": 69,
            "time": 493.61861849999497,
            "velocity": 0.4881889763779528,
            "duration": 0.19736849999998185
          },
          {
            "name": "F#4",
            "midi": 66,
            "time": 493.81598699999495,
            "velocity": 0.4881889763779528,
            "duration": 0.19736849999998185
          },
          {
            "name": "A4",
            "midi": 69,
            "time": 494.01335549999493,
            "velocity": 0.4881889763779528,
            "duration": 0.19736849999998185
          },
          {
            "name": "G#3",
            "midi": 56,
            "time": 494.2107239999949,
            "velocity": 0.4881889763779528,
            "duration": 0.19736849999998185
          },
          {
            "name": "E4",
            "midi": 64,
            "time": 494.4080924999949,
            "velocity": 0.4881889763779528,
            "duration": 0.19736849999998185
          },
          {
            "name": "B3",
            "midi": 59,
            "time": 494.6054609999949,
            "velocity": 0.4881889763779528,
            "duration": 0.19736849999998185
          },
          {
            "name": "E4",
            "midi": 64,
            "time": 494.80282949999486,
            "velocity": 0.4881889763779528,
            "duration": 0.19736849999998185
          },
          {
            "name": "A3",
            "midi": 57,
            "time": 495.00019799999484,
            "velocity": 0.4881889763779528,
            "duration": 0.19736849999998185
          },
          {
            "name": "E4",
            "midi": 64,
            "time": 495.1975664999948,
            "velocity": 0.4881889763779528,
            "duration": 0.19736849999998185
          },
          {
            "name": "C#4",
            "midi": 61,
            "time": 495.3949349999948,
            "velocity": 0.4881889763779528,
            "duration": 0.19736849999998185
          },
          {
            "name": "E4",
            "midi": 64,
            "time": 495.5923034999948,
            "velocity": 0.4881889763779528,
            "duration": 0.19736849999998185
          },
          {
            "name": "B3",
            "midi": 59,
            "time": 495.78967199999477,
            "velocity": 0.4881889763779528,
            "duration": 0.19736849999998185
          },
          {
            "name": "G#4",
            "midi": 68,
            "time": 495.98704049999475,
            "velocity": 0.4881889763779528,
            "duration": 0.19736849999998185
          },
          {
            "name": "E4",
            "midi": 64,
            "time": 496.18440899999473,
            "velocity": 0.4881889763779528,
            "duration": 0.19736849999998185
          },
          {
            "name": "G#4",
            "midi": 68,
            "time": 496.3817774999947,
            "velocity": 0.4881889763779528,
            "duration": 0.19736849999998185
          },
          {
            "name": "B3",
            "midi": 59,
            "time": 496.5791459999947,
            "velocity": 0.4881889763779528,
            "duration": 0.19736849999998185
          },
          {
            "name": "A4",
            "midi": 69,
            "time": 496.7765144999947,
            "velocity": 0.4881889763779528,
            "duration": 0.19736849999998185
          },
          {
            "name": "F#4",
            "midi": 66,
            "time": 496.97388299999466,
            "velocity": 0.4881889763779528,
            "duration": 0.19736849999998185
          },
          {
            "name": "A4",
            "midi": 69,
            "time": 497.17125149999464,
            "velocity": 0.4881889763779528,
            "duration": 0.19736849999998185
          },
          {
            "name": "E4",
            "midi": 64,
            "time": 497.3686199999946,
            "velocity": 0.5905511811023622,
            "duration": 0.7894739999999842
          },
          {
            "name": "G#4",
            "midi": 68,
            "time": 497.3686199999946,
            "velocity": 0.5905511811023622,
            "duration": 0.7894739999999842
          },
          {
            "name": "E3",
            "midi": 52,
            "time": 498.1580939999946,
            "velocity": 0.5905511811023622,
            "duration": 0.39473700000002054
          },
          {
            "name": "G#3",
            "midi": 56,
            "time": 498.1580939999946,
            "velocity": 0.5905511811023622,
            "duration": 0.39473700000002054
          },
          {
            "name": "B3",
            "midi": 59,
            "time": 498.1580939999946,
            "velocity": 0.5905511811023622,
            "duration": 0.39473700000002054
          },
          {
            "name": "E4",
            "midi": 64,
            "time": 498.1580939999946,
            "velocity": 0.5905511811023622,
            "duration": 0.39473700000002054
          },
          {
            "name": "E3",
            "midi": 52,
            "time": 498.5528309999946,
            "velocity": 0.5905511811023622,
            "duration": 0.39473700000002054
          },
          {
            "name": "G#3",
            "midi": 56,
            "time": 498.5528309999946,
            "velocity": 0.5905511811023622,
            "duration": 0.39473700000002054
          },
          {
            "name": "B3",
            "midi": 59,
            "time": 498.5528309999946,
            "velocity": 0.5905511811023622,
            "duration": 0.39473700000002054
          },
          {
            "name": "E4",
            "midi": 64,
            "time": 498.5528309999946,
            "velocity": 0.5905511811023622,
            "duration": 0.39473700000002054
          },
          {
            "name": "E3",
            "midi": 52,
            "time": 498.94756799999465,
            "velocity": 0.7952755905511811,
            "duration": 1.5789480000000253
          },
          {
            "name": "A3",
            "midi": 57,
            "time": 498.94756799999465,
            "velocity": 0.7952755905511811,
            "duration": 1.5789480000000253
          },
          {
            "name": "B3",
            "midi": 59,
            "time": 498.94756799999465,
            "velocity": 0.7952755905511811,
            "duration": 1.5789480000000253
          },
          {
            "name": "D#4",
            "midi": 63,
            "time": 498.94756799999465,
            "velocity": 0.7952755905511811,
            "duration": 1.5789480000000253
          },
          {
            "name": "E3",
            "midi": 52,
            "time": 500.5265159999947,
            "velocity": 0.5905511811023622,
            "duration": 0.7894739999999842
          },
          {
            "name": "G#3",
            "midi": 56,
            "time": 500.5265159999947,
            "velocity": 0.5905511811023622,
            "duration": 0.7894739999999842
          },
          {
            "name": "B3",
            "midi": 59,
            "time": 500.5265159999947,
            "velocity": 0.5905511811023622,
            "duration": 0.7894739999999842
          },
          {
            "name": "E4",
            "midi": 64,
            "time": 500.5265159999947,
            "velocity": 0.5905511811023622,
            "duration": 0.7894739999999842
          },
          {
            "name": "E3",
            "midi": 52,
            "time": 501.31598999999466,
            "velocity": 0.5905511811023622,
            "duration": 0.39473700000002054
          },
          {
            "name": "G#3",
            "midi": 56,
            "time": 501.31598999999466,
            "velocity": 0.5905511811023622,
            "duration": 0.39473700000002054
          },
          {
            "name": "B3",
            "midi": 59,
            "time": 501.31598999999466,
            "velocity": 0.5905511811023622,
            "duration": 0.39473700000002054
          },
          {
            "name": "E4",
            "midi": 64,
            "time": 501.31598999999466,
            "velocity": 0.5905511811023622,
            "duration": 0.39473700000002054
          },
          {
            "name": "E3",
            "midi": 52,
            "time": 501.7107269999947,
            "velocity": 0.5905511811023622,
            "duration": 0.39473700000002054
          },
          {
            "name": "G#3",
            "midi": 56,
            "time": 501.7107269999947,
            "velocity": 0.5905511811023622,
            "duration": 0.39473700000002054
          },
          {
            "name": "B3",
            "midi": 59,
            "time": 501.7107269999947,
            "velocity": 0.5905511811023622,
            "duration": 0.39473700000002054
          },
          {
            "name": "E4",
            "midi": 64,
            "time": 501.7107269999947,
            "velocity": 0.5905511811023622,
            "duration": 0.39473700000002054
          },
          {
            "name": "E3",
            "midi": 52,
            "time": 502.1054639999947,
            "velocity": 0.7952755905511811,
            "duration": 1.5789480000000253
          },
          {
            "name": "A3",
            "midi": 57,
            "time": 502.1054639999947,
            "velocity": 0.7952755905511811,
            "duration": 1.5789480000000253
          },
          {
            "name": "B3",
            "midi": 59,
            "time": 502.1054639999947,
            "velocity": 0.7952755905511811,
            "duration": 1.5789480000000253
          },
          {
            "name": "D#4",
            "midi": 63,
            "time": 502.1054639999947,
            "velocity": 0.7952755905511811,
            "duration": 1.5789480000000253
          },
          {
            "name": "E3",
            "midi": 52,
            "time": 503.6844119999947,
            "velocity": 0.5905511811023622,
            "duration": 0.39473700000002054
          },
          {
            "name": "G#3",
            "midi": 56,
            "time": 503.6844119999947,
            "velocity": 0.5905511811023622,
            "duration": 0.39473700000002054
          },
          {
            "name": "F#3",
            "midi": 54,
            "time": 504.07914899999474,
            "velocity": 0.5905511811023622,
            "duration": 0.39473700000002054
          },
          {
            "name": "A3",
            "midi": 57,
            "time": 504.07914899999474,
            "velocity": 0.5905511811023622,
            "duration": 0.39473700000002054
          },
          {
            "name": "E3",
            "midi": 52,
            "time": 504.47388599999476,
            "velocity": 0.5905511811023622,
            "duration": 0.39473700000002054
          },
          {
            "name": "G#3",
            "midi": 56,
            "time": 504.47388599999476,
            "velocity": 0.5905511811023622,
            "duration": 0.39473700000002054
          },
          {
            "name": "F#3",
            "midi": 54,
            "time": 504.8686229999948,
            "velocity": 0.5905511811023622,
            "duration": 0.39473700000002054
          },
          {
            "name": "A3",
            "midi": 57,
            "time": 504.8686229999948,
            "velocity": 0.5905511811023622,
            "duration": 0.39473700000002054
          },
          {
            "name": "E3",
            "midi": 52,
            "time": 505.2633599999948,
            "velocity": 0.5905511811023622,
            "duration": 0.39473700000002054
          },
          {
            "name": "G#3",
            "midi": 56,
            "time": 505.2633599999948,
            "velocity": 0.5905511811023622,
            "duration": 0.39473700000002054
          },
          {
            "name": "F#3",
            "midi": 54,
            "time": 505.6580969999948,
            "velocity": 0.5905511811023622,
            "duration": 0.39473700000002054
          },
          {
            "name": "A3",
            "midi": 57,
            "time": 505.6580969999948,
            "velocity": 0.5905511811023622,
            "duration": 0.39473700000002054
          },
          {
            "name": "E3",
            "midi": 52,
            "time": 506.05283399999485,
            "velocity": 0.5905511811023622,
            "duration": 0.39473700000002054
          },
          {
            "name": "G#3",
            "midi": 56,
            "time": 506.05283399999485,
            "velocity": 0.5905511811023622,
            "duration": 0.39473700000002054
          },
          {
            "name": "F#3",
            "midi": 54,
            "time": 506.44757099999487,
            "velocity": 0.5905511811023622,
            "duration": 0.39473700000002054
          },
          {
            "name": "A3",
            "midi": 57,
            "time": 506.44757099999487,
            "velocity": 0.5905511811023622,
            "duration": 0.39473700000002054
          },
          {
            "name": "E3",
            "midi": 52,
            "time": 506.8423079999949,
            "velocity": 0.5905511811023622,
            "duration": 0.39473700000002054
          },
          {
            "name": "G#3",
            "midi": 56,
            "time": 506.8423079999949,
            "velocity": 0.5905511811023622,
            "duration": 0.39473700000002054
          },
          {
            "name": "E3",
            "midi": 52,
            "time": 510.7896779999949,
            "velocity": 0.5905511811023622,
            "duration": 0.39473700000002054
          },
          {
            "name": "G3",
            "midi": 55,
            "time": 510.7896779999949,
            "velocity": 0.5905511811023622,
            "duration": 0.39473700000002054
          },
          {
            "name": "B3",
            "midi": 59,
            "time": 510.7896779999949,
            "velocity": 0.5905511811023622,
            "duration": 0.39473700000002054
          },
          {
            "name": "E4",
            "midi": 64,
            "time": 510.7896779999949,
            "velocity": 0.5905511811023622,
            "duration": 0.39473700000002054
          },
          {
            "name": "E3",
            "midi": 52,
            "time": 511.18441499999494,
            "velocity": 0.5905511811023622,
            "duration": 0.39473700000002054
          },
          {
            "name": "G3",
            "midi": 55,
            "time": 511.18441499999494,
            "velocity": 0.5905511811023622,
            "duration": 0.39473700000002054
          },
          {
            "name": "B3",
            "midi": 59,
            "time": 511.18441499999494,
            "velocity": 0.5905511811023622,
            "duration": 0.39473700000002054
          },
          {
            "name": "E4",
            "midi": 64,
            "time": 511.18441499999494,
            "velocity": 0.5905511811023622,
            "duration": 0.39473700000002054
          },
          {
            "name": "E3",
            "midi": 52,
            "time": 511.57915199999496,
            "velocity": 0.7952755905511811,
            "duration": 1.5789480000000253
          },
          {
            "name": "A3",
            "midi": 57,
            "time": 511.57915199999496,
            "velocity": 0.7952755905511811,
            "duration": 1.5789480000000253
          },
          {
            "name": "B3",
            "midi": 59,
            "time": 511.57915199999496,
            "velocity": 0.7952755905511811,
            "duration": 1.5789480000000253
          },
          {
            "name": "D#4",
            "midi": 63,
            "time": 511.57915199999496,
            "velocity": 0.7952755905511811,
            "duration": 1.5789480000000253
          },
          {
            "name": "E3",
            "midi": 52,
            "time": 513.158099999995,
            "velocity": 0.5905511811023622,
            "duration": 0.7894740000000411
          },
          {
            "name": "G3",
            "midi": 55,
            "time": 513.158099999995,
            "velocity": 0.5905511811023622,
            "duration": 0.7894740000000411
          },
          {
            "name": "B3",
            "midi": 59,
            "time": 513.158099999995,
            "velocity": 0.5905511811023622,
            "duration": 0.7894740000000411
          },
          {
            "name": "E4",
            "midi": 64,
            "time": 513.158099999995,
            "velocity": 0.5905511811023622,
            "duration": 0.7894740000000411
          },
          {
            "name": "E3",
            "midi": 52,
            "time": 513.947573999995,
            "velocity": 0.5905511811023622,
            "duration": 0.3947369999999637
          },
          {
            "name": "G3",
            "midi": 55,
            "time": 513.947573999995,
            "velocity": 0.5905511811023622,
            "duration": 0.3947369999999637
          },
          {
            "name": "B3",
            "midi": 59,
            "time": 513.947573999995,
            "velocity": 0.5905511811023622,
            "duration": 0.3947369999999637
          },
          {
            "name": "E4",
            "midi": 64,
            "time": 513.947573999995,
            "velocity": 0.5905511811023622,
            "duration": 0.3947369999999637
          },
          {
            "name": "E3",
            "midi": 52,
            "time": 514.342310999995,
            "velocity": 0.5905511811023622,
            "duration": 0.3947369999999637
          },
          {
            "name": "G3",
            "midi": 55,
            "time": 514.342310999995,
            "velocity": 0.5905511811023622,
            "duration": 0.3947369999999637
          },
          {
            "name": "B3",
            "midi": 59,
            "time": 514.342310999995,
            "velocity": 0.5905511811023622,
            "duration": 0.3947369999999637
          },
          {
            "name": "E4",
            "midi": 64,
            "time": 514.342310999995,
            "velocity": 0.5905511811023622,
            "duration": 0.3947369999999637
          },
          {
            "name": "B2",
            "midi": 47,
            "time": 514.737047999995,
            "velocity": 0.7952755905511811,
            "duration": 1.5789479999999685
          },
          {
            "name": "D#3",
            "midi": 51,
            "time": 514.737047999995,
            "velocity": 0.7952755905511811,
            "duration": 1.5789479999999685
          },
          {
            "name": "F#3",
            "midi": 54,
            "time": 514.737047999995,
            "velocity": 0.7952755905511811,
            "duration": 1.5789479999999685
          },
          {
            "name": "A3",
            "midi": 57,
            "time": 514.737047999995,
            "velocity": 0.7952755905511811,
            "duration": 1.5789479999999685
          },
          {
            "name": "C3",
            "midi": 48,
            "time": 516.3159959999949,
            "velocity": 0.5905511811023622,
            "duration": 0.7894740000000411
          },
          {
            "name": "E3",
            "midi": 52,
            "time": 516.3159959999949,
            "velocity": 0.5905511811023622,
            "duration": 0.7894740000000411
          },
          {
            "name": "G3",
            "midi": 55,
            "time": 516.3159959999949,
            "velocity": 0.5905511811023622,
            "duration": 0.7894740000000411
          },
          {
            "name": "C3",
            "midi": 48,
            "time": 517.105469999995,
            "velocity": 0.5905511811023622,
            "duration": 0.3947369999999637
          },
          {
            "name": "E3",
            "midi": 52,
            "time": 517.105469999995,
            "velocity": 0.5905511811023622,
            "duration": 0.3947369999999637
          },
          {
            "name": "G3",
            "midi": 55,
            "time": 517.105469999995,
            "velocity": 0.5905511811023622,
            "duration": 0.3947369999999637
          },
          {
            "name": "C4",
            "midi": 60,
            "time": 517.105469999995,
            "velocity": 0.5905511811023622,
            "duration": 0.3947369999999637
          },
          {
            "name": "C3",
            "midi": 48,
            "time": 517.5002069999949,
            "velocity": 0.5905511811023622,
            "duration": 0.3947369999999637
          },
          {
            "name": "E3",
            "midi": 52,
            "time": 517.5002069999949,
            "velocity": 0.5905511811023622,
            "duration": 0.3947369999999637
          },
          {
            "name": "G3",
            "midi": 55,
            "time": 517.5002069999949,
            "velocity": 0.5905511811023622,
            "duration": 0.3947369999999637
          },
          {
            "name": "C4",
            "midi": 60,
            "time": 517.5002069999949,
            "velocity": 0.5905511811023622,
            "duration": 0.3947369999999637
          },
          {
            "name": "C3",
            "midi": 48,
            "time": 517.8949439999949,
            "velocity": 0.7952755905511811,
            "duration": 1.5789479999999685
          },
          {
            "name": "F3",
            "midi": 53,
            "time": 517.8949439999949,
            "velocity": 0.7952755905511811,
            "duration": 1.5789479999999685
          },
          {
            "name": "G3",
            "midi": 55,
            "time": 517.8949439999949,
            "velocity": 0.7952755905511811,
            "duration": 1.5789479999999685
          },
          {
            "name": "B3",
            "midi": 59,
            "time": 517.8949439999949,
            "velocity": 0.7952755905511811,
            "duration": 1.5789479999999685
          },
          {
            "name": "C3",
            "midi": 48,
            "time": 519.4738919999949,
            "velocity": 0.5905511811023622,
            "duration": 0.7894740000000411
          },
          {
            "name": "E3",
            "midi": 52,
            "time": 519.4738919999949,
            "velocity": 0.5905511811023622,
            "duration": 0.7894740000000411
          },
          {
            "name": "G3",
            "midi": 55,
            "time": 519.4738919999949,
            "velocity": 0.5905511811023622,
            "duration": 0.7894740000000411
          },
          {
            "name": "C4",
            "midi": 60,
            "time": 519.4738919999949,
            "velocity": 0.5905511811023622,
            "duration": 0.7894740000000411
          },
          {
            "name": "C3",
            "midi": 48,
            "time": 520.2633659999949,
            "velocity": 0.5905511811023622,
            "duration": 0.3947369999999637
          },
          {
            "name": "E3",
            "midi": 52,
            "time": 520.2633659999949,
            "velocity": 0.5905511811023622,
            "duration": 0.3947369999999637
          },
          {
            "name": "G3",
            "midi": 55,
            "time": 520.2633659999949,
            "velocity": 0.5905511811023622,
            "duration": 0.3947369999999637
          },
          {
            "name": "C4",
            "midi": 60,
            "time": 520.2633659999949,
            "velocity": 0.5905511811023622,
            "duration": 0.3947369999999637
          },
          {
            "name": "C3",
            "midi": 48,
            "time": 520.6581029999949,
            "velocity": 0.5905511811023622,
            "duration": 0.3947369999999637
          },
          {
            "name": "E3",
            "midi": 52,
            "time": 520.6581029999949,
            "velocity": 0.5905511811023622,
            "duration": 0.3947369999999637
          },
          {
            "name": "G3",
            "midi": 55,
            "time": 520.6581029999949,
            "velocity": 0.5905511811023622,
            "duration": 0.3947369999999637
          },
          {
            "name": "C4",
            "midi": 60,
            "time": 520.6581029999949,
            "velocity": 0.5905511811023622,
            "duration": 0.3947369999999637
          },
          {
            "name": "C3",
            "midi": 48,
            "time": 521.0528399999948,
            "velocity": 0.7952755905511811,
            "duration": 1.5789479999999685
          },
          {
            "name": "F3",
            "midi": 53,
            "time": 521.0528399999948,
            "velocity": 0.7952755905511811,
            "duration": 1.5789479999999685
          },
          {
            "name": "G3",
            "midi": 55,
            "time": 521.0528399999948,
            "velocity": 0.7952755905511811,
            "duration": 1.5789479999999685
          },
          {
            "name": "B3",
            "midi": 59,
            "time": 521.0528399999948,
            "velocity": 0.7952755905511811,
            "duration": 1.5789479999999685
          },
          {
            "name": "C3",
            "midi": 48,
            "time": 522.6317879999948,
            "velocity": 0.5905511811023622,
            "duration": 0.3947369999999637
          },
          {
            "name": "E3",
            "midi": 52,
            "time": 522.6317879999948,
            "velocity": 0.5905511811023622,
            "duration": 0.3947369999999637
          },
          {
            "name": "D3",
            "midi": 50,
            "time": 523.0265249999948,
            "velocity": 0.5905511811023622,
            "duration": 0.3947369999999637
          },
          {
            "name": "F3",
            "midi": 53,
            "time": 523.0265249999948,
            "velocity": 0.5905511811023622,
            "duration": 0.3947369999999637
          },
          {
            "name": "C3",
            "midi": 48,
            "time": 523.4212619999947,
            "velocity": 0.5905511811023622,
            "duration": 0.3947369999999637
          },
          {
            "name": "E3",
            "midi": 52,
            "time": 523.4212619999947,
            "velocity": 0.5905511811023622,
            "duration": 0.3947369999999637
          },
          {
            "name": "D3",
            "midi": 50,
            "time": 523.8159989999947,
            "velocity": 0.5905511811023622,
            "duration": 0.3947369999999637
          },
          {
            "name": "F3",
            "midi": 53,
            "time": 523.8159989999947,
            "velocity": 0.5905511811023622,
            "duration": 0.3947369999999637
          },
          {
            "name": "C3",
            "midi": 48,
            "time": 524.2107359999947,
            "velocity": 0.5905511811023622,
            "duration": 0.3947369999999637
          },
          {
            "name": "E3",
            "midi": 52,
            "time": 524.2107359999947,
            "velocity": 0.5905511811023622,
            "duration": 0.3947369999999637
          },
          {
            "name": "E3",
            "midi": 52,
            "time": 524.6054729999946,
            "velocity": 0.5905511811023622,
            "duration": 0.3947369999999637
          },
          {
            "name": "G3",
            "midi": 55,
            "time": 524.6054729999946,
            "velocity": 0.5905511811023622,
            "duration": 0.3947369999999637
          },
          {
            "name": "D3",
            "midi": 50,
            "time": 525.0002099999946,
            "velocity": 0.5905511811023622,
            "duration": 0.3947369999999637
          },
          {
            "name": "F#3",
            "midi": 54,
            "time": 525.0002099999946,
            "velocity": 0.5905511811023622,
            "duration": 0.3947369999999637
          },
          {
            "name": "E3",
            "midi": 52,
            "time": 525.3949469999945,
            "velocity": 0.5905511811023622,
            "duration": 0.3947369999999637
          },
          {
            "name": "G3",
            "midi": 55,
            "time": 525.3949469999945,
            "velocity": 0.5905511811023622,
            "duration": 0.3947369999999637
          },
          {
            "name": "D3",
            "midi": 50,
            "time": 525.7896839999945,
            "velocity": 0.5905511811023622,
            "duration": 0.3947369999999637
          },
          {
            "name": "F#3",
            "midi": 54,
            "time": 525.7896839999945,
            "velocity": 0.5905511811023622,
            "duration": 0.3947369999999637
          },
          {
            "name": "F#3",
            "midi": 54,
            "time": 526.1844209999945,
            "velocity": 0.5905511811023622,
            "duration": 0.3947369999999637
          },
          {
            "name": "A3",
            "midi": 57,
            "time": 526.1844209999945,
            "velocity": 0.5905511811023622,
            "duration": 0.3947369999999637
          },
          {
            "name": "E3",
            "midi": 52,
            "time": 526.5791579999944,
            "velocity": 0.5905511811023622,
            "duration": 0.3947369999999637
          },
          {
            "name": "G3",
            "midi": 55,
            "time": 526.5791579999944,
            "velocity": 0.5905511811023622,
            "duration": 0.3947369999999637
          },
          {
            "name": "F#3",
            "midi": 54,
            "time": 526.9738949999944,
            "velocity": 0.5905511811023622,
            "duration": 0.3947369999999637
          },
          {
            "name": "A3",
            "midi": 57,
            "time": 526.9738949999944,
            "velocity": 0.5905511811023622,
            "duration": 0.3947369999999637
          },
          {
            "name": "E3",
            "midi": 52,
            "time": 527.3686319999944,
            "velocity": 0.5905511811023622,
            "duration": 0.3947369999999637
          },
          {
            "name": "G3",
            "midi": 55,
            "time": 527.3686319999944,
            "velocity": 0.5905511811023622,
            "duration": 0.3947369999999637
          },
          {
            "name": "G3",
            "midi": 55,
            "time": 527.7633689999943,
            "velocity": 0.5905511811023622,
            "duration": 0.3947369999999637
          },
          {
            "name": "A#3",
            "midi": 58,
            "time": 527.7633689999943,
            "velocity": 0.5905511811023622,
            "duration": 0.3947369999999637
          },
          {
            "name": "F3",
            "midi": 53,
            "time": 528.1581059999943,
            "velocity": 0.5905511811023622,
            "duration": 0.3947369999999637
          },
          {
            "name": "A3",
            "midi": 57,
            "time": 528.1581059999943,
            "velocity": 0.5905511811023622,
            "duration": 0.3947369999999637
          },
          {
            "name": "G3",
            "midi": 55,
            "time": 528.5528429999943,
            "velocity": 0.5905511811023622,
            "duration": 0.3947369999999637
          },
          {
            "name": "A#3",
            "midi": 58,
            "time": 528.5528429999943,
            "velocity": 0.5905511811023622,
            "duration": 0.3947369999999637
          },
          {
            "name": "F3",
            "midi": 53,
            "time": 528.9475799999942,
            "velocity": 0.5905511811023622,
            "duration": 0.3947369999999637
          },
          {
            "name": "A3",
            "midi": 57,
            "time": 528.9475799999942,
            "velocity": 0.5905511811023622,
            "duration": 0.3947369999999637
          },
          {
            "name": "G3",
            "midi": 55,
            "time": 529.3423169999942,
            "velocity": 0.5905511811023622,
            "duration": 0.3947369999999637
          },
          {
            "name": "A#3",
            "midi": 58,
            "time": 529.3423169999942,
            "velocity": 0.5905511811023622,
            "duration": 0.3947369999999637
          },
          {
            "name": "F3",
            "midi": 53,
            "time": 529.7370539999941,
            "velocity": 0.6929133858267716,
            "duration": 0.3947369999999637
          },
          {
            "name": "A3",
            "midi": 57,
            "time": 529.7370539999941,
            "velocity": 0.6929133858267716,
            "duration": 0.3947369999999637
          },
          {
            "name": "G3",
            "midi": 55,
            "time": 530.1317909999941,
            "velocity": 0.6929133858267716,
            "duration": 0.3947369999999637
          },
          {
            "name": "A#3",
            "midi": 58,
            "time": 530.1317909999941,
            "velocity": 0.6929133858267716,
            "duration": 0.3947369999999637
          },
          {
            "name": "F3",
            "midi": 53,
            "time": 530.5265279999941,
            "velocity": 0.6929133858267716,
            "duration": 0.3947369999999637
          },
          {
            "name": "A3",
            "midi": 57,
            "time": 530.5265279999941,
            "velocity": 0.6929133858267716,
            "duration": 0.3947369999999637
          },
          {
            "name": "F3",
            "midi": 53,
            "time": 532.105475999994,
            "velocity": 0.6929133858267716,
            "duration": 0.1973685000000387
          },
          {
            "name": "C4",
            "midi": 60,
            "time": 532.3028444999941,
            "velocity": 0.8976377952755905,
            "duration": 0.1973685000000387
          },
          {
            "name": "A3",
            "midi": 57,
            "time": 532.5002129999941,
            "velocity": 0.6929133858267716,
            "duration": 0.1973685000000387
          },
          {
            "name": "F4",
            "midi": 65,
            "time": 532.6975814999942,
            "velocity": 0.8976377952755905,
            "duration": 0.1973685000000387
          },
          {
            "name": "C4",
            "midi": 60,
            "time": 532.8949499999942,
            "velocity": 0.6929133858267716,
            "duration": 0.1973685000000387
          },
          {
            "name": "A4",
            "midi": 69,
            "time": 533.0923184999942,
            "velocity": 0.8976377952755905,
            "duration": 0.1973685000000387
          },
          {
            "name": "F4",
            "midi": 65,
            "time": 533.2896869999943,
            "velocity": 0.6929133858267716,
            "duration": 0.1973685000000387
          },
          {
            "name": "C5",
            "midi": 72,
            "time": 533.4870554999943,
            "velocity": 0.8976377952755905,
            "duration": 0.1973685000000387
          },
          {
            "name": "F5",
            "midi": 77,
            "time": 533.6844239999944,
            "velocity": 0.8976377952755905,
            "duration": 0.3947369999999637
          },
          {
            "name": "A3",
            "midi": 57,
            "time": 534.0791609999943,
            "velocity": 0.4881889763779528,
            "duration": 0.7894740000000411
          },
          {
            "name": "F4",
            "midi": 65,
            "time": 534.0791609999943,
            "velocity": 0.4881889763779528,
            "duration": 0.7894740000000411
          },
          {
            "name": "F#4",
            "midi": 66,
            "time": 534.8686349999944,
            "velocity": 0.3858267716535433,
            "duration": 0.3947369999999637
          },
          {
            "name": "B3",
            "midi": 59,
            "time": 535.2633719999943,
            "velocity": 0.3858267716535433,
            "duration": 0.3947369999999637
          },
          {
            "name": "E4",
            "midi": 64,
            "time": 535.2633719999943,
            "velocity": 0.3858267716535433,
            "duration": 0.3947369999999637
          },
          {
            "name": "G#4",
            "midi": 68,
            "time": 535.2633719999943,
            "velocity": 0.3858267716535433,
            "duration": 0.3947369999999637
          },
          {
            "name": "B3",
            "midi": 59,
            "time": 536.0528459999942,
            "velocity": 0.3858267716535433,
            "duration": 0.1973685000000387
          },
          {
            "name": "E4",
            "midi": 64,
            "time": 536.0528459999942,
            "velocity": 0.3858267716535433,
            "duration": 0.1973685000000387
          },
          {
            "name": "G#4",
            "midi": 68,
            "time": 536.0528459999942,
            "velocity": 0.3858267716535433,
            "duration": 0.1973685000000387
          },
          {
            "name": "B3",
            "midi": 59,
            "time": 536.4475829999943,
            "velocity": 0.3858267716535433,
            "duration": 0.1973685000000387
          },
          {
            "name": "E4",
            "midi": 64,
            "time": 536.4475829999943,
            "velocity": 0.3858267716535433,
            "duration": 0.1973685000000387
          },
          {
            "name": "G#4",
            "midi": 68,
            "time": 536.4475829999943,
            "velocity": 0.3858267716535433,
            "duration": 0.1973685000000387
          },
          {
            "name": "B3",
            "midi": 59,
            "time": 536.8423199999944,
            "velocity": 0.3858267716535433,
            "duration": 0.3947369999999637
          },
          {
            "name": "D#4",
            "midi": 63,
            "time": 536.8423199999944,
            "velocity": 0.3858267716535433,
            "duration": 0.3947369999999637
          },
          {
            "name": "A4",
            "midi": 69,
            "time": 536.8423199999944,
            "velocity": 0.3858267716535433,
            "duration": 0.3947369999999637
          },
          {
            "name": "B2",
            "midi": 47,
            "time": 537.6317939999943,
            "velocity": 0.3858267716535433,
            "duration": 0.1973685000000387
          },
          {
            "name": "D#3",
            "midi": 51,
            "time": 537.6317939999943,
            "velocity": 0.3858267716535433,
            "duration": 0.1973685000000387
          },
          {
            "name": "A3",
            "midi": 57,
            "time": 537.6317939999943,
            "velocity": 0.3858267716535433,
            "duration": 0.1973685000000387
          },
          {
            "name": "B2",
            "midi": 47,
            "time": 538.0265309999944,
            "velocity": 0.3858267716535433,
            "duration": 0.1973685000000387
          },
          {
            "name": "D#3",
            "midi": 51,
            "time": 538.0265309999944,
            "velocity": 0.3858267716535433,
            "duration": 0.1973685000000387
          },
          {
            "name": "A3",
            "midi": 57,
            "time": 538.0265309999944,
            "velocity": 0.3858267716535433,
            "duration": 0.1973685000000387
          },
          {
            "name": "G#3",
            "midi": 56,
            "time": 538.4212679999945,
            "velocity": 0.4881889763779528,
            "duration": 0.1973685000000387
          },
          {
            "name": "E4",
            "midi": 64,
            "time": 538.6186364999945,
            "velocity": 0.4881889763779528,
            "duration": 0.1973685000000387
          },
          {
            "name": "B3",
            "midi": 59,
            "time": 538.8160049999946,
            "velocity": 0.4881889763779528,
            "duration": 0.1973685000000387
          },
          {
            "name": "E4",
            "midi": 64,
            "time": 539.0133734999946,
            "velocity": 0.4881889763779528,
            "duration": 0.1973685000000387
          },
          {
            "name": "D4",
            "midi": 62,
            "time": 539.2107419999946,
            "velocity": 0.4881889763779528,
            "duration": 0.1973685000000387
          },
          {
            "name": "E4",
            "midi": 64,
            "time": 539.4081104999947,
            "velocity": 0.4881889763779528,
            "duration": 0.1973685000000387
          },
          {
            "name": "C4",
            "midi": 60,
            "time": 539.6054789999947,
            "velocity": 0.4881889763779528,
            "duration": 0.1973685000000387
          },
          {
            "name": "E4",
            "midi": 64,
            "time": 539.8028474999948,
            "velocity": 0.4881889763779528,
            "duration": 0.1973685000000387
          },
          {
            "name": "C#4",
            "midi": 61,
            "time": 540.0002159999948,
            "velocity": 0.4881889763779528,
            "duration": 0.1973685000000387
          },
          {
            "name": "E4",
            "midi": 64,
            "time": 540.1975844999948,
            "velocity": 0.4881889763779528,
            "duration": 0.1973685000000387
          },
          {
            "name": "B3",
            "midi": 59,
            "time": 540.3949529999949,
            "velocity": 0.4881889763779528,
            "duration": 0.1973685000000387
          },
          {
            "name": "E4",
            "midi": 64,
            "time": 540.5923214999949,
            "velocity": 0.4881889763779528,
            "duration": 0.1973685000000387
          },
          {
            "name": "A3",
            "midi": 57,
            "time": 540.789689999995,
            "velocity": 0.4881889763779528,
            "duration": 0.1973685000000387
          },
          {
            "name": "E4",
            "midi": 64,
            "time": 540.987058499995,
            "velocity": 0.4881889763779528,
            "duration": 0.1973685000000387
          },
          {
            "name": "F#3",
            "midi": 54,
            "time": 541.184426999995,
            "velocity": 0.4881889763779528,
            "duration": 0.1973685000000387
          },
          {
            "name": "E4",
            "midi": 64,
            "time": 541.3817954999951,
            "velocity": 0.4881889763779528,
            "duration": 0.1973685000000387
          },
          {
            "name": "G#3",
            "midi": 56,
            "time": 541.5791639999951,
            "velocity": 0.4881889763779528,
            "duration": 0.1973685000000387
          },
          {
            "name": "E4",
            "midi": 64,
            "time": 541.7765324999951,
            "velocity": 0.4881889763779528,
            "duration": 0.1973685000000387
          },
          {
            "name": "B3",
            "midi": 59,
            "time": 541.9739009999952,
            "velocity": 0.4881889763779528,
            "duration": 0.1973685000000387
          },
          {
            "name": "E4",
            "midi": 64,
            "time": 542.1712694999952,
            "velocity": 0.4881889763779528,
            "duration": 0.1973685000000387
          },
          {
            "name": "D4",
            "midi": 62,
            "time": 542.3686379999953,
            "velocity": 0.4881889763779528,
            "duration": 0.1973685000000387
          },
          {
            "name": "E4",
            "midi": 64,
            "time": 542.5660064999953,
            "velocity": 0.4881889763779528,
            "duration": 0.1973685000000387
          },
          {
            "name": "C4",
            "midi": 60,
            "time": 542.7633749999953,
            "velocity": 0.4881889763779528,
            "duration": 0.1973685000000387
          },
          {
            "name": "E4",
            "midi": 64,
            "time": 542.9607434999954,
            "velocity": 0.4881889763779528,
            "duration": 0.1973685000000387
          },
          {
            "name": "C#4",
            "midi": 61,
            "time": 543.1581119999954,
            "velocity": 0.4881889763779528,
            "duration": 0.1973685000000387
          },
          {
            "name": "E4",
            "midi": 64,
            "time": 543.3554804999955,
            "velocity": 0.4881889763779528,
            "duration": 0.1973685000000387
          },
          {
            "name": "B3",
            "midi": 59,
            "time": 543.5528489999955,
            "velocity": 0.4881889763779528,
            "duration": 0.1973685000000387
          },
          {
            "name": "E4",
            "midi": 64,
            "time": 543.7502174999955,
            "velocity": 0.4881889763779528,
            "duration": 0.1973685000000387
          },
          {
            "name": "A3",
            "midi": 57,
            "time": 543.9475859999956,
            "velocity": 0.4881889763779528,
            "duration": 0.1973685000000387
          },
          {
            "name": "E4",
            "midi": 64,
            "time": 544.1449544999956,
            "velocity": 0.4881889763779528,
            "duration": 0.1973685000000387
          },
          {
            "name": "F#3",
            "midi": 54,
            "time": 544.3423229999956,
            "velocity": 0.4881889763779528,
            "duration": 0.1973685000000387
          },
          {
            "name": "E4",
            "midi": 64,
            "time": 544.5396914999957,
            "velocity": 0.4881889763779528,
            "duration": 0.1973685000000387
          },
          {
            "name": "G#3",
            "midi": 56,
            "time": 544.7370599999957,
            "velocity": 0.4881889763779528,
            "duration": 0.1973685000000387
          },
          {
            "name": "E4",
            "midi": 64,
            "time": 544.9344284999958,
            "velocity": 0.4881889763779528,
            "duration": 0.1973685000000387
          },
          {
            "name": "B3",
            "midi": 59,
            "time": 545.1317969999958,
            "velocity": 0.4881889763779528,
            "duration": 0.1973685000000387
          },
          {
            "name": "E4",
            "midi": 64,
            "time": 545.3291654999958,
            "velocity": 0.4881889763779528,
            "duration": 0.1973685000000387
          },
          {
            "name": "C4",
            "midi": 60,
            "time": 545.5265339999959,
            "velocity": 0.3858267716535433,
            "duration": 0.1973685000000387
          },
          {
            "name": "E4",
            "midi": 64,
            "time": 545.7239024999959,
            "velocity": 0.3858267716535433,
            "duration": 0.1973685000000387
          },
          {
            "name": "A3",
            "midi": 57,
            "time": 545.921270999996,
            "velocity": 0.3858267716535433,
            "duration": 0.1973685000000387
          },
          {
            "name": "E4",
            "midi": 64,
            "time": 546.118639499996,
            "velocity": 0.3858267716535433,
            "duration": 0.1973685000000387
          },
          {
            "name": "B3",
            "midi": 59,
            "time": 546.316007999996,
            "velocity": 0.3858267716535433,
            "duration": 0.1973685000000387
          },
          {
            "name": "E4",
            "midi": 64,
            "time": 546.5133764999961,
            "velocity": 0.3858267716535433,
            "duration": 0.1973685000000387
          },
          {
            "name": "G#3",
            "midi": 56,
            "time": 546.7107449999961,
            "velocity": 0.3858267716535433,
            "duration": 0.1973685000000387
          },
          {
            "name": "E4",
            "midi": 64,
            "time": 546.9081134999961,
            "velocity": 0.3858267716535433,
            "duration": 0.1973685000000387
          },
          {
            "name": "A3",
            "midi": 57,
            "time": 547.1054819999962,
            "velocity": 0.3858267716535433,
            "duration": 0.1973685000000387
          },
          {
            "name": "D#4",
            "midi": 63,
            "time": 547.3028504999962,
            "velocity": 0.3858267716535433,
            "duration": 0.1973685000000387
          },
          {
            "name": "F#3",
            "midi": 54,
            "time": 547.5002189999963,
            "velocity": 0.3858267716535433,
            "duration": 0.1973685000000387
          },
          {
            "name": "D#4",
            "midi": 63,
            "time": 547.6975874999963,
            "velocity": 0.3858267716535433,
            "duration": 0.1973685000000387
          },
          {
            "name": "G#3",
            "midi": 56,
            "time": 547.8949559999963,
            "velocity": 0.3858267716535433,
            "duration": 0.1973685000000387
          },
          {
            "name": "E4",
            "midi": 64,
            "time": 548.0923244999964,
            "velocity": 0.3858267716535433,
            "duration": 0.1973685000000387
          },
          {
            "name": "B3",
            "midi": 59,
            "time": 548.2896929999964,
            "velocity": 0.3858267716535433,
            "duration": 0.1973685000000387
          },
          {
            "name": "E4",
            "midi": 64,
            "time": 548.4870614999965,
            "velocity": 0.3858267716535433,
            "duration": 0.1973685000000387
          },
          {
            "name": "C4",
            "midi": 60,
            "time": 548.6844299999965,
            "velocity": 0.3858267716535433,
            "duration": 0.1973685000000387
          },
          {
            "name": "E4",
            "midi": 64,
            "time": 548.8817984999965,
            "velocity": 0.3858267716535433,
            "duration": 0.1973685000000387
          },
          {
            "name": "A3",
            "midi": 57,
            "time": 549.0791669999966,
            "velocity": 0.3858267716535433,
            "duration": 0.1973685000000387
          },
          {
            "name": "E4",
            "midi": 64,
            "time": 549.2765354999966,
            "velocity": 0.3858267716535433,
            "duration": 0.1973685000000387
          },
          {
            "name": "B3",
            "midi": 59,
            "time": 549.4739039999967,
            "velocity": 0.3858267716535433,
            "duration": 0.1973685000000387
          },
          {
            "name": "E4",
            "midi": 64,
            "time": 549.6712724999967,
            "velocity": 0.3858267716535433,
            "duration": 0.1973685000000387
          },
          {
            "name": "G#3",
            "midi": 56,
            "time": 549.8686409999967,
            "velocity": 0.3858267716535433,
            "duration": 0.1973685000000387
          },
          {
            "name": "E4",
            "midi": 64,
            "time": 550.0660094999968,
            "velocity": 0.3858267716535433,
            "duration": 0.1973685000000387
          },
          {
            "name": "A3",
            "midi": 57,
            "time": 550.2633779999968,
            "velocity": 0.3858267716535433,
            "duration": 0.1973685000000387
          },
          {
            "name": "D#4",
            "midi": 63,
            "time": 550.4607464999968,
            "velocity": 0.3858267716535433,
            "duration": 0.1973685000000387
          },
          {
            "name": "F#3",
            "midi": 54,
            "time": 550.6581149999969,
            "velocity": 0.3858267716535433,
            "duration": 0.1973685000000387
          },
          {
            "name": "D#4",
            "midi": 63,
            "time": 550.8554834999969,
            "velocity": 0.3858267716535433,
            "duration": 0.1973685000000387
          },
          {
            "name": "G#3",
            "midi": 56,
            "time": 551.052851999997,
            "velocity": 0.3858267716535433,
            "duration": 0.1973685000000387
          },
          {
            "name": "E4",
            "midi": 64,
            "time": 551.250220499997,
            "velocity": 0.3858267716535433,
            "duration": 0.1973685000000387
          },
          {
            "name": "B3",
            "midi": 59,
            "time": 551.447588999997,
            "velocity": 0.3858267716535433,
            "duration": 0.1973685000000387
          },
          {
            "name": "E4",
            "midi": 64,
            "time": 551.6449574999971,
            "velocity": 0.3858267716535433,
            "duration": 0.1973685000000387
          },
          {
            "name": "A3",
            "midi": 57,
            "time": 551.8423259999971,
            "velocity": 0.3858267716535433,
            "duration": 0.1973685000000387
          },
          {
            "name": "D#4",
            "midi": 63,
            "time": 552.0396944999972,
            "velocity": 0.3858267716535433,
            "duration": 0.1973685000000387
          },
          {
            "name": "B3",
            "midi": 59,
            "time": 552.2370629999972,
            "velocity": 0.3858267716535433,
            "duration": 0.1973685000000387
          },
          {
            "name": "D#4",
            "midi": 63,
            "time": 552.4344314999972,
            "velocity": 0.3858267716535433,
            "duration": 0.1973685000000387
          },
          {
            "name": "G#3",
            "midi": 56,
            "time": 552.6317999999973,
            "velocity": 0.3858267716535433,
            "duration": 0.1973685000000387
          },
          {
            "name": "E4",
            "midi": 64,
            "time": 552.8291684999973,
            "velocity": 0.3858267716535433,
            "duration": 0.1973685000000387
          },
          {
            "name": "B3",
            "midi": 59,
            "time": 553.0265369999973,
            "velocity": 0.3858267716535433,
            "duration": 0.1973685000000387
          },
          {
            "name": "E4",
            "midi": 64,
            "time": 553.2239054999974,
            "velocity": 0.3858267716535433,
            "duration": 0.1973685000000387
          },
          {
            "name": "A3",
            "midi": 57,
            "time": 553.4212739999974,
            "velocity": 0.3858267716535433,
            "duration": 0.1973685000000387
          },
          {
            "name": "D#4",
            "midi": 63,
            "time": 553.6186424999975,
            "velocity": 0.3858267716535433,
            "duration": 0.1973685000000387
          },
          {
            "name": "B3",
            "midi": 59,
            "time": 553.8160109999975,
            "velocity": 0.3858267716535433,
            "duration": 0.1973685000000387
          },
          {
            "name": "D#4",
            "midi": 63,
            "time": 554.0133794999975,
            "velocity": 0.3858267716535433,
            "duration": 0.1973685000000387
          },
          {
            "name": "G#3",
            "midi": 56,
            "time": 554.2107479999976,
            "velocity": 0.3858267716535433,
            "duration": 0.1973685000000387
          },
          {
            "name": "E4",
            "midi": 64,
            "time": 554.4081164999976,
            "velocity": 0.3858267716535433,
            "duration": 0.1973685000000387
          },
          {
            "name": "B3",
            "midi": 59,
            "time": 554.6054849999977,
            "velocity": 0.3858267716535433,
            "duration": 0.1973685000000387
          },
          {
            "name": "E4",
            "midi": 64,
            "time": 554.8028534999977,
            "velocity": 0.3858267716535433,
            "duration": 0.1973685000000387
          },
          {
            "name": "A3",
            "midi": 57,
            "time": 555.0002219999977,
            "velocity": 0.3858267716535433,
            "duration": 0.1973685000000387
          },
          {
            "name": "D#4",
            "midi": 63,
            "time": 555.1975904999978,
            "velocity": 0.3858267716535433,
            "duration": 0.1973685000000387
          },
          {
            "name": "B3",
            "midi": 59,
            "time": 555.3949589999978,
            "velocity": 0.3858267716535433,
            "duration": 0.1973685000000387
          },
          {
            "name": "D#4",
            "midi": 63,
            "time": 555.5923274999979,
            "velocity": 0.3858267716535433,
            "duration": 0.1973685000000387
          },
          {
            "name": "G#3",
            "midi": 56,
            "time": 555.7896959999979,
            "velocity": 0.3858267716535433,
            "duration": 0.1973685000000387
          },
          {
            "name": "E4",
            "midi": 64,
            "time": 555.9870644999979,
            "velocity": 0.3858267716535433,
            "duration": 0.1973685000000387
          },
          {
            "name": "B3",
            "midi": 59,
            "time": 556.184432999998,
            "velocity": 0.3858267716535433,
            "duration": 0.1973685000000387
          },
          {
            "name": "E4",
            "midi": 64,
            "time": 556.381801499998,
            "velocity": 0.3858267716535433,
            "duration": 0.1973685000000387
          },
          {
            "name": "A3",
            "midi": 57,
            "time": 556.579169999998,
            "velocity": 0.3858267716535433,
            "duration": 0.1973685000000387
          },
          {
            "name": "D#4",
            "midi": 63,
            "time": 556.7765384999981,
            "velocity": 0.3858267716535433,
            "duration": 0.1973685000000387
          },
          {
            "name": "B3",
            "midi": 59,
            "time": 556.9739069999981,
            "velocity": 0.3858267716535433,
            "duration": 0.1973685000000387
          },
          {
            "name": "D#4",
            "midi": 63,
            "time": 557.1712754999982,
            "velocity": 0.3858267716535433,
            "duration": 0.1973685000000387
          },
          {
            "name": "E3",
            "midi": 52,
            "time": 557.3686439999982,
            "velocity": 0.3858267716535433,
            "duration": 0.3947369999999637
          },
          {
            "name": "G#3",
            "midi": 56,
            "time": 557.3686439999982,
            "velocity": 0.3858267716535433,
            "duration": 0.3947369999999637
          },
          {
            "name": "E4",
            "midi": 64,
            "time": 557.3686439999982,
            "velocity": 0.3858267716535433,
            "duration": 0.3947369999999637
          },
          {
            "name": "B2",
            "midi": 47,
            "time": 558.1581179999981,
            "velocity": 0.7952755905511811,
            "duration": 0.3947369999999637
          },
          {
            "name": "B3",
            "midi": 59,
            "time": 558.1581179999981,
            "velocity": 0.7952755905511811,
            "duration": 0.3947369999999637
          },
          {
            "name": "E2",
            "midi": 40,
            "time": 558.947591999998,
            "velocity": 0.7952755905511811,
            "duration": 0.3947369999999637
          },
          {
            "name": "E3",
            "midi": 52,
            "time": 558.947591999998,
            "velocity": 0.7952755905511811,
            "duration": 0.3947369999999637
          }
        ],
        "controlChanges": {
          "7": [
            {
              "number": 7,
              "time": 0,
              "value": 1
            }
          ],
          "10": [
            {
              "number": 10,
              "time": 0,
              "value": 0.23622047244094488
            }
          ],
          "64": [
            {
              "number": 64,
              "time": 30.000011999999973,
              "value": 1
            },
            {
              "number": 64,
              "time": 31.38159149999997,
              "value": 0
            },
            {
              "number": 64,
              "time": 72.63160800000006,
              "value": 1
            },
            {
              "number": 64,
              "time": 74.01318750000003,
              "value": 0
            },
            {
              "number": 64,
              "time": 74.21055600000003,
              "value": 1
            },
            {
              "number": 64,
              "time": 75.5921355,
              "value": 0
            },
            {
              "number": 64,
              "time": 75.789504,
              "value": 1
            },
            {
              "number": 64,
              "time": 77.17108349999997,
              "value": 0
            },
            {
              "number": 64,
              "time": 77.36845199999996,
              "value": 1
            },
            {
              "number": 64,
              "time": 78.75003149999993,
              "value": 0
            },
            {
              "number": 64,
              "time": 78.94739999999993,
              "value": 1
            },
            {
              "number": 64,
              "time": 80.3289794999999,
              "value": 0
            },
            {
              "number": 64,
              "time": 80.5263479999999,
              "value": 1
            },
            {
              "number": 64,
              "time": 81.90792749999987,
              "value": 0
            },
            {
              "number": 64,
              "time": 82.10529599999987,
              "value": 1
            },
            {
              "number": 64,
              "time": 83.48687549999984,
              "value": 0
            },
            {
              "number": 64,
              "time": 83.68424399999984,
              "value": 1
            },
            {
              "number": 64,
              "time": 84.27634949999982,
              "value": 0
            },
            {
              "number": 64,
              "time": 84.47371799999982,
              "value": 1
            },
            {
              "number": 64,
              "time": 85.06582349999981,
              "value": 0
            },
            {
              "number": 64,
              "time": 85.2631919999998,
              "value": 1
            },
            {
              "number": 64,
              "time": 86.64477149999978,
              "value": 0
            },
            {
              "number": 64,
              "time": 86.84213999999977,
              "value": 1
            },
            {
              "number": 64,
              "time": 88.22371949999975,
              "value": 0
            },
            {
              "number": 64,
              "time": 88.42108799999974,
              "value": 1
            },
            {
              "number": 64,
              "time": 89.80266749999971,
              "value": 0
            },
            {
              "number": 64,
              "time": 90.00003599999971,
              "value": 1
            },
            {
              "number": 64,
              "time": 91.38161549999968,
              "value": 0
            },
            {
              "number": 64,
              "time": 91.57898399999968,
              "value": 1
            },
            {
              "number": 64,
              "time": 92.17108949999967,
              "value": 0
            },
            {
              "number": 64,
              "time": 92.36845799999966,
              "value": 1
            },
            {
              "number": 64,
              "time": 92.96056349999965,
              "value": 0
            },
            {
              "number": 64,
              "time": 93.15793199999965,
              "value": 1
            },
            {
              "number": 64,
              "time": 93.75003749999964,
              "value": 0
            },
            {
              "number": 64,
              "time": 93.94740599999963,
              "value": 1
            },
            {
              "number": 64,
              "time": 94.53951149999962,
              "value": 0
            },
            {
              "number": 64,
              "time": 94.73687999999962,
              "value": 1
            },
            {
              "number": 64,
              "time": 95.3289854999996,
              "value": 0
            },
            {
              "number": 64,
              "time": 95.5263539999996,
              "value": 1
            },
            {
              "number": 64,
              "time": 96.11845949999959,
              "value": 0
            },
            {
              "number": 64,
              "time": 96.31582799999958,
              "value": 1
            },
            {
              "number": 64,
              "time": 96.90793349999957,
              "value": 0
            },
            {
              "number": 64,
              "time": 97.10530199999957,
              "value": 1
            },
            {
              "number": 64,
              "time": 97.69740749999956,
              "value": 0
            },
            {
              "number": 64,
              "time": 97.89477599999955,
              "value": 1
            },
            {
              "number": 64,
              "time": 98.48688149999954,
              "value": 0
            },
            {
              "number": 64,
              "time": 98.68424999999954,
              "value": 1
            },
            {
              "number": 64,
              "time": 99.27635549999953,
              "value": 0
            },
            {
              "number": 64,
              "time": 99.47372399999952,
              "value": 1
            },
            {
              "number": 64,
              "time": 100.06582949999951,
              "value": 0
            },
            {
              "number": 64,
              "time": 100.2631979999995,
              "value": 1
            },
            {
              "number": 64,
              "time": 100.8553034999995,
              "value": 0
            },
            {
              "number": 64,
              "time": 142.10531999999967,
              "value": 1
            },
            {
              "number": 64,
              "time": 143.48689949999974,
              "value": 0
            },
            {
              "number": 64,
              "time": 143.68426799999975,
              "value": 1
            },
            {
              "number": 64,
              "time": 145.06584749999982,
              "value": 0
            },
            {
              "number": 64,
              "time": 145.26321599999983,
              "value": 1
            },
            {
              "number": 64,
              "time": 146.6447954999999,
              "value": 0
            },
            {
              "number": 64,
              "time": 146.8421639999999,
              "value": 1
            },
            {
              "number": 64,
              "time": 148.22374349999998,
              "value": 0
            },
            {
              "number": 64,
              "time": 148.421112,
              "value": 1
            },
            {
              "number": 64,
              "time": 149.80269150000007,
              "value": 0
            },
            {
              "number": 64,
              "time": 150.00006000000008,
              "value": 1
            },
            {
              "number": 64,
              "time": 151.38163950000015,
              "value": 0
            },
            {
              "number": 64,
              "time": 151.57900800000016,
              "value": 1
            },
            {
              "number": 64,
              "time": 152.96058750000023,
              "value": 0
            },
            {
              "number": 64,
              "time": 153.15795600000024,
              "value": 1
            },
            {
              "number": 64,
              "time": 154.5395355000003,
              "value": 0
            },
            {
              "number": 64,
              "time": 154.73690400000032,
              "value": 1
            },
            {
              "number": 64,
              "time": 156.1184835000004,
              "value": 0
            },
            {
              "number": 64,
              "time": 156.3158520000004,
              "value": 1
            },
            {
              "number": 64,
              "time": 157.69743150000048,
              "value": 0
            },
            {
              "number": 64,
              "time": 157.8948000000005,
              "value": 1
            },
            {
              "number": 64,
              "time": 159.27637950000056,
              "value": 0
            },
            {
              "number": 64,
              "time": 159.47374800000057,
              "value": 1
            },
            {
              "number": 64,
              "time": 160.85532750000064,
              "value": 0
            },
            {
              "number": 64,
              "time": 194.21060400000104,
              "value": 1
            },
            {
              "number": 64,
              "time": 195.5921835000011,
              "value": 0
            },
            {
              "number": 64,
              "time": 236.84220000000138,
              "value": 1
            },
            {
              "number": 64,
              "time": 238.22377950000146,
              "value": 0
            },
            {
              "number": 64,
              "time": 238.42114800000147,
              "value": 1
            },
            {
              "number": 64,
              "time": 239.80272750000154,
              "value": 0
            },
            {
              "number": 64,
              "time": 240.00009600000155,
              "value": 1
            },
            {
              "number": 64,
              "time": 241.38167550000162,
              "value": 0
            },
            {
              "number": 64,
              "time": 241.57904400000163,
              "value": 1
            },
            {
              "number": 64,
              "time": 242.9606235000017,
              "value": 0
            },
            {
              "number": 64,
              "time": 243.1579920000017,
              "value": 1
            },
            {
              "number": 64,
              "time": 244.53957150000178,
              "value": 0
            },
            {
              "number": 64,
              "time": 244.7369400000018,
              "value": 1
            },
            {
              "number": 64,
              "time": 246.11851950000187,
              "value": 0
            },
            {
              "number": 64,
              "time": 246.31588800000188,
              "value": 1
            },
            {
              "number": 64,
              "time": 247.69746750000195,
              "value": 0
            },
            {
              "number": 64,
              "time": 247.89483600000196,
              "value": 1
            },
            {
              "number": 64,
              "time": 248.486941500002,
              "value": 0
            },
            {
              "number": 64,
              "time": 248.684310000002,
              "value": 1
            },
            {
              "number": 64,
              "time": 249.27641550000203,
              "value": 0
            },
            {
              "number": 64,
              "time": 249.47378400000204,
              "value": 1
            },
            {
              "number": 64,
              "time": 250.8553635000021,
              "value": 0
            },
            {
              "number": 64,
              "time": 251.05273200000212,
              "value": 1
            },
            {
              "number": 64,
              "time": 252.4343115000022,
              "value": 0
            },
            {
              "number": 64,
              "time": 252.6316800000022,
              "value": 1
            },
            {
              "number": 64,
              "time": 254.01325950000228,
              "value": 0
            },
            {
              "number": 64,
              "time": 254.2106280000023,
              "value": 1
            },
            {
              "number": 64,
              "time": 255.59220750000236,
              "value": 0
            },
            {
              "number": 64,
              "time": 255.78957600000237,
              "value": 1
            },
            {
              "number": 64,
              "time": 256.38168150000234,
              "value": 0
            },
            {
              "number": 64,
              "time": 256.5790500000023,
              "value": 1
            },
            {
              "number": 64,
              "time": 257.17115550000227,
              "value": 0
            },
            {
              "number": 64,
              "time": 257.36852400000225,
              "value": 1
            },
            {
              "number": 64,
              "time": 257.9606295000022,
              "value": 0
            },
            {
              "number": 64,
              "time": 258.1579980000022,
              "value": 1
            },
            {
              "number": 64,
              "time": 258.7501035000021,
              "value": 0
            },
            {
              "number": 64,
              "time": 258.9474720000021,
              "value": 1
            },
            {
              "number": 64,
              "time": 259.53957750000205,
              "value": 0
            },
            {
              "number": 64,
              "time": 259.73694600000204,
              "value": 1
            },
            {
              "number": 64,
              "time": 260.329051500002,
              "value": 0
            },
            {
              "number": 64,
              "time": 260.52642000000196,
              "value": 1
            },
            {
              "number": 64,
              "time": 261.1185255000019,
              "value": 0
            },
            {
              "number": 64,
              "time": 261.3158940000019,
              "value": 1
            },
            {
              "number": 64,
              "time": 261.90799950000184,
              "value": 0
            },
            {
              "number": 64,
              "time": 262.1053680000018,
              "value": 1
            },
            {
              "number": 64,
              "time": 262.69747350000176,
              "value": 0
            },
            {
              "number": 64,
              "time": 262.89484200000174,
              "value": 1
            },
            {
              "number": 64,
              "time": 263.4869475000017,
              "value": 0
            },
            {
              "number": 64,
              "time": 263.6843160000017,
              "value": 1
            },
            {
              "number": 64,
              "time": 264.2764215000016,
              "value": 0
            },
            {
              "number": 64,
              "time": 264.4737900000016,
              "value": 1
            },
            {
              "number": 64,
              "time": 265.06589550000155,
              "value": 0
            },
            {
              "number": 64,
              "time": 306.3159120000024,
              "value": 1
            },
            {
              "number": 64,
              "time": 307.6974915000023,
              "value": 0
            },
            {
              "number": 64,
              "time": 307.89486000000227,
              "value": 1
            },
            {
              "number": 64,
              "time": 309.27643950000214,
              "value": 0
            },
            {
              "number": 64,
              "time": 309.4738080000021,
              "value": 1
            },
            {
              "number": 64,
              "time": 310.855387500002,
              "value": 0
            },
            {
              "number": 64,
              "time": 311.052756000002,
              "value": 1
            },
            {
              "number": 64,
              "time": 312.43433550000185,
              "value": 0
            },
            {
              "number": 64,
              "time": 312.63170400000183,
              "value": 1
            },
            {
              "number": 64,
              "time": 314.0132835000017,
              "value": 0
            },
            {
              "number": 64,
              "time": 314.2106520000017,
              "value": 1
            },
            {
              "number": 64,
              "time": 315.59223150000156,
              "value": 0
            },
            {
              "number": 64,
              "time": 315.78960000000154,
              "value": 1
            },
            {
              "number": 64,
              "time": 317.1711795000014,
              "value": 0
            },
            {
              "number": 64,
              "time": 317.3685480000014,
              "value": 1
            },
            {
              "number": 64,
              "time": 318.75012750000127,
              "value": 0
            },
            {
              "number": 64,
              "time": 318.94749600000125,
              "value": 1
            },
            {
              "number": 64,
              "time": 320.3290755000011,
              "value": 0
            },
            {
              "number": 64,
              "time": 320.5264440000011,
              "value": 1
            },
            {
              "number": 64,
              "time": 321.908023500001,
              "value": 0
            },
            {
              "number": 64,
              "time": 322.10539200000096,
              "value": 1
            },
            {
              "number": 64,
              "time": 323.48697150000083,
              "value": 0
            },
            {
              "number": 64,
              "time": 323.6843400000008,
              "value": 1
            },
            {
              "number": 64,
              "time": 325.0659195000007,
              "value": 0
            },
            {
              "number": 64,
              "time": 424.934380499998,
              "value": 1
            },
            {
              "number": 64,
              "time": 426.1185914999979,
              "value": 0
            },
            {
              "number": 64,
              "time": 426.31595999999786,
              "value": 1
            },
            {
              "number": 64,
              "time": 427.69753949999773,
              "value": 0
            },
            {
              "number": 64,
              "time": 440.52649199999746,
              "value": 0
            },
            {
              "number": 64,
              "time": 468.94755599999723,
              "value": 1
            },
            {
              "number": 64,
              "time": 470.3291354999971,
              "value": 0
            },
            {
              "number": 64,
              "time": 470.5265039999971,
              "value": 1
            },
            {
              "number": 64,
              "time": 471.90808349999696,
              "value": 0
            },
            {
              "number": 64,
              "time": 472.10545199999694,
              "value": 1
            },
            {
              "number": 64,
              "time": 473.4870314999968,
              "value": 0
            },
            {
              "number": 64,
              "time": 473.6843999999968,
              "value": 1
            },
            {
              "number": 64,
              "time": 475.0659794999967,
              "value": 0
            },
            {
              "number": 64,
              "time": 475.26334799999665,
              "value": 1
            },
            {
              "number": 64,
              "time": 475.8554534999966,
              "value": 0
            },
            {
              "number": 64,
              "time": 476.0528219999966,
              "value": 1
            },
            {
              "number": 64,
              "time": 476.6449274999965,
              "value": 0
            },
            {
              "number": 64,
              "time": 476.8422959999965,
              "value": 1
            },
            {
              "number": 64,
              "time": 477.43440149999645,
              "value": 0
            },
            {
              "number": 64,
              "time": 477.63176999999644,
              "value": 1
            },
            {
              "number": 64,
              "time": 478.2238754999964,
              "value": 0
            },
            {
              "number": 64,
              "time": 478.42124399999636,
              "value": 1
            },
            {
              "number": 64,
              "time": 479.0133494999963,
              "value": 0
            },
            {
              "number": 64,
              "time": 479.2107179999963,
              "value": 1
            },
            {
              "number": 64,
              "time": 479.80282349999624,
              "value": 0
            },
            {
              "number": 64,
              "time": 480.0001919999962,
              "value": 1
            },
            {
              "number": 64,
              "time": 480.59229749999616,
              "value": 0
            },
            {
              "number": 64,
              "time": 480.78966599999615,
              "value": 1
            },
            {
              "number": 64,
              "time": 481.3817714999961,
              "value": 0
            },
            {
              "number": 64,
              "time": 481.5791399999961,
              "value": 1
            },
            {
              "number": 64,
              "time": 482.96071949999595,
              "value": 0
            },
            {
              "number": 64,
              "time": 483.1580879999959,
              "value": 1
            },
            {
              "number": 64,
              "time": 484.5396674999958,
              "value": 0
            },
            {
              "number": 64,
              "time": 484.7370359999958,
              "value": 1
            },
            {
              "number": 64,
              "time": 486.11861549999566,
              "value": 0
            },
            {
              "number": 64,
              "time": 486.31598399999564,
              "value": 1
            },
            {
              "number": 64,
              "time": 487.6975634999955,
              "value": 0
            },
            {
              "number": 64,
              "time": 487.8949319999955,
              "value": 1
            },
            {
              "number": 64,
              "time": 488.48703749999544,
              "value": 0
            },
            {
              "number": 64,
              "time": 488.6844059999954,
              "value": 1
            },
            {
              "number": 64,
              "time": 489.27651149999537,
              "value": 0
            },
            {
              "number": 64,
              "time": 489.47387999999535,
              "value": 1
            },
            {
              "number": 64,
              "time": 490.0659854999953,
              "value": 0
            },
            {
              "number": 64,
              "time": 490.2633539999953,
              "value": 1
            },
            {
              "number": 64,
              "time": 490.8554594999952,
              "value": 0
            },
            {
              "number": 64,
              "time": 491.0528279999952,
              "value": 1
            },
            {
              "number": 64,
              "time": 491.64493349999515,
              "value": 0
            },
            {
              "number": 64,
              "time": 491.84230199999513,
              "value": 1
            },
            {
              "number": 64,
              "time": 492.4344074999951,
              "value": 0
            },
            {
              "number": 64,
              "time": 492.63177599999506,
              "value": 1
            },
            {
              "number": 64,
              "time": 493.223881499995,
              "value": 0
            },
            {
              "number": 64,
              "time": 493.421249999995,
              "value": 1
            },
            {
              "number": 64,
              "time": 494.01335549999493,
              "value": 0
            },
            {
              "number": 64,
              "time": 494.2107239999949,
              "value": 1
            },
            {
              "number": 64,
              "time": 494.80282949999486,
              "value": 0
            },
            {
              "number": 64,
              "time": 495.00019799999484,
              "value": 1
            },
            {
              "number": 64,
              "time": 495.5923034999948,
              "value": 0
            },
            {
              "number": 64,
              "time": 495.78967199999477,
              "value": 1
            },
            {
              "number": 64,
              "time": 496.3817774999947,
              "value": 0
            },
            {
              "number": 64,
              "time": 496.5791459999947,
              "value": 1
            },
            {
              "number": 64,
              "time": 497.17125149999464,
              "value": 0
            },
            {
              "number": 64,
              "time": 538.4212679999945,
              "value": 1
            },
            {
              "number": 64,
              "time": 539.8028474999948,
              "value": 0
            },
            {
              "number": 64,
              "time": 540.0002159999948,
              "value": 1
            },
            {
              "number": 64,
              "time": 541.3817954999951,
              "value": 0
            },
            {
              "number": 64,
              "time": 541.5791639999951,
              "value": 1
            },
            {
              "number": 64,
              "time": 542.9607434999954,
              "value": 0
            },
            {
              "number": 64,
              "time": 543.1581119999954,
              "value": 1
            },
            {
              "number": 64,
              "time": 544.5396914999957,
              "value": 0
            },
            {
              "number": 64,
              "time": 544.7370599999957,
              "value": 1
            },
            {
              "number": 64,
              "time": 546.118639499996,
              "value": 0
            },
            {
              "number": 64,
              "time": 546.316007999996,
              "value": 1
            },
            {
              "number": 64,
              "time": 547.6975874999963,
              "value": 0
            },
            {
              "number": 64,
              "time": 547.8949559999963,
              "value": 1
            },
            {
              "number": 64,
              "time": 549.2765354999966,
              "value": 0
            },
            {
              "number": 64,
              "time": 549.4739039999967,
              "value": 1
            },
            {
              "number": 64,
              "time": 550.8554834999969,
              "value": 0
            },
            {
              "number": 64,
              "time": 551.052851999997,
              "value": 1
            },
            {
              "number": 64,
              "time": 552.4344314999972,
              "value": 0
            },
            {
              "number": 64,
              "time": 552.6317999999973,
              "value": 1
            },
            {
              "number": 64,
              "time": 554.0133794999975,
              "value": 0
            },
            {
              "number": 64,
              "time": 554.2107479999976,
              "value": 1
            },
            {
              "number": 64,
              "time": 555.5923274999979,
              "value": 0
            },
            {
              "number": 64,
              "time": 555.7896959999979,
              "value": 1
            },
            {
              "number": 64,
              "time": 557.1712754999982,
              "value": 0
            }
          ]
        },
        "id": 3,
        "name": "Instrument18",
        "instrumentNumber": 0,
        "instrument": "acoustic grand piano",
        "instrumentFamily": "piano",
        "channelNumber": 2,
        "isPercussion": false
      },
      {
        "startTime": 31.578959999999995,
        "duration": 557.3686440000002,
        "length": 34,
        "notes": [
          {
            "name": "B2",
            "midi": 47,
            "time": 31.578959999999995,
            "velocity": 0.5039370078740157,
            "duration": 3.157896000000001
          },
          {
            "name": "B2",
            "midi": 47,
            "time": 142.10531999999998,
            "velocity": 0.4881889763779528,
            "duration": 3.157895999999994
          },
          {
            "name": "B2",
            "midi": 47,
            "time": 145.26321599999997,
            "velocity": 0.4881889763779528,
            "duration": 3.157895999999994
          },
          {
            "name": "B2",
            "midi": 47,
            "time": 148.42111199999997,
            "velocity": 0.4881889763779528,
            "duration": 3.157895999999994
          },
          {
            "name": "B2",
            "midi": 47,
            "time": 151.57900799999996,
            "velocity": 0.4881889763779528,
            "duration": 3.157895999999994
          },
          {
            "name": "B2",
            "midi": 47,
            "time": 154.73690399999995,
            "velocity": 0.4881889763779528,
            "duration": 3.157895999999994
          },
          {
            "name": "B2",
            "midi": 47,
            "time": 157.89479999999995,
            "velocity": 0.4881889763779528,
            "duration": 3.157895999999994
          },
          {
            "name": "B2",
            "midi": 47,
            "time": 195.78955199999993,
            "velocity": 0.4881889763779528,
            "duration": 3.157895999999994
          },
          {
            "name": "B2",
            "midi": 47,
            "time": 306.3159119999999,
            "velocity": 0.4881889763779528,
            "duration": 3.157895999999994
          },
          {
            "name": "B2",
            "midi": 47,
            "time": 309.4738079999999,
            "velocity": 0.4881889763779528,
            "duration": 3.157895999999994
          },
          {
            "name": "B2",
            "midi": 47,
            "time": 312.6317039999999,
            "velocity": 0.4881889763779528,
            "duration": 3.157895999999994
          },
          {
            "name": "B2",
            "midi": 47,
            "time": 315.7895999999999,
            "velocity": 0.4881889763779528,
            "duration": 3.157895999999994
          },
          {
            "name": "B2",
            "midi": 47,
            "time": 318.9474959999999,
            "velocity": 0.4881889763779528,
            "duration": 3.157895999999994
          },
          {
            "name": "B2",
            "midi": 47,
            "time": 322.1053919999999,
            "velocity": 0.4881889763779528,
            "duration": 3.157895999999994
          },
          {
            "name": "D2",
            "midi": 38,
            "time": 356.84224799999987,
            "velocity": 0.5905511811023622,
            "duration": 0.7894739999999842
          },
          {
            "name": "A2",
            "midi": 45,
            "time": 357.63172199999985,
            "velocity": 0.5905511811023622,
            "duration": 0.39473700000002054
          },
          {
            "name": "D2",
            "midi": 38,
            "time": 358.0264589999999,
            "velocity": 0.5905511811023622,
            "duration": 0.39473700000002054
          },
          {
            "name": "G2",
            "midi": 43,
            "time": 358.4211959999999,
            "velocity": 0.5905511811023622,
            "duration": 0.7894739999999842
          },
          {
            "name": "G2",
            "midi": 43,
            "time": 359.2106699999999,
            "velocity": 0.5905511811023622,
            "duration": 0.39473700000002054
          },
          {
            "name": "D2",
            "midi": 38,
            "time": 359.6054069999999,
            "velocity": 0.5905511811023622,
            "duration": 0.39473700000002054
          },
          {
            "name": "F2",
            "midi": 41,
            "time": 360.0001439999999,
            "velocity": 0.5905511811023622,
            "duration": 0.7894739999999842
          },
          {
            "name": "E2",
            "midi": 40,
            "time": 360.7896179999999,
            "velocity": 0.5905511811023622,
            "duration": 0.39473700000002054
          },
          {
            "name": "D2",
            "midi": 38,
            "time": 361.1843549999999,
            "velocity": 0.5905511811023622,
            "duration": 0.39473700000002054
          },
          {
            "name": "C2",
            "midi": 36,
            "time": 361.57909199999995,
            "velocity": 0.7952755905511811,
            "duration": 0.7894739999999842
          },
          {
            "name": "C2",
            "midi": 36,
            "time": 362.36856599999993,
            "velocity": 0.7952755905511811,
            "duration": 0.7894739999999842
          },
          {
            "name": "C2",
            "midi": 36,
            "time": 363.1580399999999,
            "velocity": 0.7952755905511811,
            "duration": 1.5789480000000253
          },
          {
            "name": "B2",
            "midi": 47,
            "time": 421.57911599999994,
            "velocity": 0.3858267716535433,
            "duration": 3.157895999999994
          },
          {
            "name": "F#3",
            "midi": 54,
            "time": 427.89490799999993,
            "velocity": 0.3858267716535433,
            "duration": 3.157895999999994
          },
          {
            "name": "E3",
            "midi": 52,
            "time": 538.4212679999999,
            "velocity": 0.5905511811023622,
            "duration": 3.1578960000000507
          },
          {
            "name": "E3",
            "midi": 52,
            "time": 541.579164,
            "velocity": 0.5905511811023622,
            "duration": 3.1578960000000507
          },
          {
            "name": "E3",
            "midi": 52,
            "time": 544.73706,
            "velocity": 0.5905511811023622,
            "duration": 3.1578960000000507
          },
          {
            "name": "E3",
            "midi": 52,
            "time": 547.8949560000001,
            "velocity": 0.3858267716535433,
            "duration": 3.1578960000000507
          },
          {
            "name": "E3",
            "midi": 52,
            "time": 551.0528520000001,
            "velocity": 0.3858267716535433,
            "duration": 3.1578960000000507
          },
          {
            "name": "E3",
            "midi": 52,
            "time": 554.2107480000002,
            "velocity": 0.3858267716535433,
            "duration": 3.1578960000000507
          }
        ],
        "controlChanges": {
          "7": [
            {
              "number": 7,
              "time": 0,
              "value": 1
            }
          ],
          "10": [
            {
              "number": 10,
              "time": 0,
              "value": 0.23622047244094488
            }
          ]
        },
        "id": 4,
        "name": "Instrument19",
        "instrumentNumber": 0,
        "instrument": "acoustic grand piano",
        "instrumentFamily": "piano",
        "channelNumber": 3,
        "isPercussion": false
      },
      {
        "startTime": 0,
        "duration": 0,
        "length": 0,
        "notes": [],
        "controlChanges": {},
        "id": 5
      }
    ]
  }